<svg width="350" height="350" viewBox="0 0 64 64" fill="none" xmlns="http://www.w3.org/2000/svg">
<path d="M9.33333 50C8.24 50 7.33333 49.0933 7.33333 48V18.6667C7.33333 6.90667 10.9067 3.33333 22.6667 3.33333H41.3333C53.0933 3.33333 56.6667 6.90667 56.6667 18.6667V45.3333C56.6667 45.76 56.6667 46.16 56.64 46.5867C56.56 47.68 55.5733 48.5333 54.5067 48.4533C53.9776 48.4143 53.4852 48.1687 53.1359 47.7694C52.7866 47.3702 52.6084 46.8495 52.64 46.32C52.6667 46 52.6667 45.6533 52.6667 45.3333V18.6667C52.6667 9.14667 50.88 7.33333 41.3333 7.33333H22.6667C13.12 7.33333 11.3333 9.14667 11.3333 18.6667V48C11.3333 49.0933 10.4267 50 9.33333 50Z" fill="#288EBA"/>
<path d="M45.3333 60.6667H18.6667C15.663 60.6596 12.7845 59.4633 10.6606 57.3394C8.53668 55.2155 7.34037 52.337 7.33333 49.3333V47.6C7.33333 42.2933 11.6533 38 16.9333 38H54.6667C55.76 38 56.6667 38.9067 56.6667 40V49.3333C56.6596 52.337 55.4633 55.2155 53.3394 57.3394C51.2155 59.4633 48.337 60.6596 45.3333 60.6667ZM16.9333 42C15.4481 42 14.0237 42.59 12.9735 43.6402C11.9233 44.6904 11.3333 46.1148 11.3333 47.6V49.3333C11.3333 53.3867 14.6133 56.6667 18.6667 56.6667H45.3333C49.3867 56.6667 52.6667 53.3867 52.6667 49.3333V42H16.9333ZM42.6667 20.6667H21.3333C20.24 20.6667 19.3333 19.76 19.3333 18.6667C19.3333 17.5733 20.24 16.6667 21.3333 16.6667H42.6667C43.76 16.6667 44.6667 17.5733 44.6667 18.6667C44.6667 19.76 43.76 20.6667 42.6667 20.6667ZM34.6667 30H21.3333C20.24 30 19.3333 29.0933 19.3333 28C19.3333 26.9067 20.24 26 21.3333 26H34.6667C35.76 26 36.6667 26.9067 36.6667 28C36.6667 29.0933 35.76 30 34.6667 30Z" fill="#288EBA"/>
</svg>
