<svg width="350" height="350" viewBox="0 0 64 64" fill="none" xmlns="http://www.w3.org/2000/svg">
<path d="M40 60.6667H24C9.52 60.6667 3.33333 54.48 3.33333 40V24C3.33333 9.52 9.52 3.33333 24 3.33333H40C54.48 3.33333 60.6667 9.52 60.6667 24V40C60.6667 54.48 54.48 60.6667 40 60.6667ZM24 7.33333C11.7067 7.33333 7.33333 11.7067 7.33333 24V40C7.33333 52.2933 11.7067 56.6667 24 56.6667H40C52.2933 56.6667 56.6667 52.2933 56.6667 40V24C56.6667 11.7067 52.2933 7.33333 40 7.33333H24Z" fill="#288EBA"/>
<path d="M24 28.6667C19.9467 28.6667 16.6667 25.3867 16.6667 21.3333C16.6667 17.28 19.9467 14 24 14C28.0533 14 31.3333 17.28 31.3333 21.3333C31.3333 25.3867 28.0533 28.6667 24 28.6667ZM24 18C23.1159 18 22.2681 18.3512 21.643 18.9763C21.0179 19.6014 20.6667 20.4493 20.6667 21.3333C20.6667 22.2174 21.0179 23.0652 21.643 23.6904C22.2681 24.3155 23.1159 24.6667 24 24.6667C24.8841 24.6667 25.7319 24.3155 26.357 23.6904C26.9821 23.0652 27.3333 22.2174 27.3333 21.3333C27.3333 20.4493 26.9821 19.6014 26.357 18.9763C25.7319 18.3512 24.8841 18 24 18ZM7.11733 52.5307C6.68875 52.5313 6.2714 52.3936 5.92743 52.1379C5.58346 51.8822 5.33126 51.5223 5.20839 51.1117C5.08551 50.7011 5.09852 50.2618 5.24548 49.8592C5.39245 49.4566 5.6655 49.1122 6.024 48.8773L19.1707 40.0507C22.0507 38.104 26.024 38.344 28.6373 40.5573L29.5173 41.3307C30.8507 42.4773 33.1173 42.4773 34.424 41.3307L45.5173 31.8107C48.344 29.384 52.7973 29.384 55.6507 31.8107L59.9973 35.544C60.824 36.264 60.9307 37.5173 60.2107 38.3707C59.4907 39.1973 58.2373 39.304 57.384 38.584L53.0373 34.8507C51.704 33.704 49.4373 33.704 48.104 34.8507L37.0107 44.3707C34.184 46.7973 29.7307 46.7973 26.8773 44.3707L25.9973 43.5973C24.7707 42.5573 22.744 42.4507 21.384 43.384L8.23733 52.2107C7.89067 52.424 7.49067 52.5307 7.11733 52.5307Z" fill="#288EBA"/>
</svg>
