<svg width="350" height="350" viewBox="0 0 59 59" fill="none" xmlns="http://www.w3.org/2000/svg">
<path d="M54.0833 22.125V36.875C54.0833 43.0208 52.8542 47.3229 50.1008 50.1008L34.4167 34.4167L53.4196 15.4138C53.8621 17.3558 54.0833 19.5683 54.0833 22.125Z" stroke="#288EBA" stroke-width="4" stroke-linecap="round" stroke-linejoin="round"/>
<path d="M53.4196 15.4138L15.4138 53.4196C8.01417 51.7233 4.91667 46.61 4.91667 36.875V22.125C4.91667 9.83334 9.83334 4.91667 22.125 4.91667H36.875C46.61 4.91667 51.7233 8.01417 53.4196 15.4138Z" stroke="#288EBA" stroke-width="4" stroke-linecap="round" stroke-linejoin="round"/>
<path d="M50.1008 50.1008C47.3229 52.8542 43.0208 54.0833 36.875 54.0833H22.125C19.5683 54.0833 17.3558 53.8621 15.4138 53.4196L34.4167 34.4167L50.1008 50.1008Z" stroke="#288EBA" stroke-width="4" stroke-linecap="round" stroke-linejoin="round"/>
<path d="M15.34 19.6175C17.0117 12.4146 27.8283 12.4146 29.5 19.6175C30.4588 23.8458 27.8038 27.435 25.4683 29.6475C24.6459 30.4291 23.5546 30.865 22.42 30.865C21.2854 30.865 20.1941 30.4291 19.3717 29.6475C17.0363 27.435 14.3567 23.8458 15.34 19.6175Z" stroke="#288EBA" stroke-width="4"/>
<path d="M22.3585 21.3875H22.3807" stroke="#288EBA" stroke-width="4" stroke-linecap="round" stroke-linejoin="round"/>
</svg>
