<svg width="180" height="180" viewBox="0 0 80 80" fill="none" xmlns="http://www.w3.org/2000/svg">
<path d="M4.84849 7.27272C4.84849 6.62977 5.1039 6.01316 5.55853 5.55852C6.01317 5.10389 6.62978 4.84848 7.27273 4.84848V7.27272H4.84849Z" fill="#364C9B"/>
<path d="M7.27273 4.84848H9.69697V7.27272H7.27273V4.84848Z" fill="#364C9B"/>
<path d="M9.69697 4.84848H12.1212V7.27272H9.69697V4.84848Z" fill="#364C9B"/>
<path d="M12.1212 4.84848H14.5455V7.27272H12.1212V4.84848Z" fill="#364C9B"/>
<path d="M14.5455 4.84848H16.9697V7.27272H14.5455V4.84848Z" fill="#364C9B"/>
<path d="M16.9697 4.84848H19.3939V7.27272H16.9697V4.84848Z" fill="#364C9B"/>
<path d="M19.3939 4.84848C20.0369 4.84848 20.6535 5.10389 21.1081 5.55852C21.5628 6.01316 21.8182 6.62977 21.8182 7.27272H19.3939V4.84848Z" fill="#364C9B"/>
<path d="M26.6667 6.0606C26.6667 5.73913 26.7944 5.43082 27.0217 5.2035C27.249 4.97619 27.5573 4.84848 27.8788 4.84848C28.2003 4.84848 28.5086 4.97619 28.7359 5.2035C28.9632 5.43082 29.0909 5.73913 29.0909 6.0606V7.27272H26.6667V6.0606Z" fill="#364C9B"/>
<path d="M37.5758 4.84848C37.2543 4.84848 36.946 4.97619 36.7187 5.2035C36.4913 5.43082 36.3636 5.73913 36.3636 6.0606C36.3636 6.38208 36.4913 6.69038 36.7187 6.9177C36.946 7.14502 37.2543 7.27272 37.5758 7.27272H38.7879V4.84848H37.5758Z" fill="#364C9B"/>
<path d="M38.7879 4.84848H41.2121V7.27272H38.7879V4.84848Z" fill="#364C9B"/>
<path d="M41.2121 4.84848H43.6364V7.27272H41.2121V4.84848Z" fill="#364C9B"/>
<path d="M43.6364 4.84848H46.0606V7.27272H43.6364V4.84848Z" fill="#364C9B"/>
<path d="M46.0606 4.84848H48.4849V7.27272H46.0606V4.84848Z" fill="#364C9B"/>
<path d="M48.4849 4.84848H50.9091V7.27272H48.4849V4.84848Z" fill="#364C9B"/>
<path d="M52.1212 4.84848C52.4427 4.84848 52.751 4.97619 52.9783 5.2035C53.2056 5.43082 53.3333 5.73913 53.3333 6.0606C53.3333 6.38208 53.2056 6.69038 52.9783 6.9177C52.751 7.14502 52.4427 7.27272 52.1212 7.27272H50.9091V4.84848H52.1212Z" fill="#364C9B"/>
<path d="M58.1818 7.27272C58.1818 6.62977 58.4372 6.01316 58.8919 5.55852C59.3465 5.10389 59.9631 4.84848 60.6061 4.84848V7.27272H58.1818Z" fill="#364C9B"/>
<path d="M60.6061 4.84848H63.0303V7.27272H60.6061V4.84848Z" fill="#364C9B"/>
<path d="M63.0303 4.84848H65.4546V7.27272H63.0303V4.84848Z" fill="#364C9B"/>
<path d="M65.4546 4.84848H67.8788V7.27272H65.4546V4.84848Z" fill="#364C9B"/>
<path d="M67.8788 4.84848H70.303V7.27272H67.8788V4.84848Z" fill="#364C9B"/>
<path d="M70.303 4.84848H72.7273V7.27272H70.303V4.84848Z" fill="#364C9B"/>
<path d="M72.7273 4.84848C73.3702 4.84848 73.9868 5.10389 74.4415 5.55852C74.8961 6.01316 75.1515 6.62977 75.1515 7.27272H72.7273V4.84848Z" fill="#364C9B"/>
<path d="M4.84849 7.27272H7.27273V9.69697H4.84849V7.27272Z" fill="#364C9B"/>
<path d="M19.3939 7.27272H21.8182V9.69697H19.3939V7.27272Z" fill="#364C9B"/>
<path d="M25.4545 7.27272C25.1331 7.27272 24.8248 7.40043 24.5975 7.62774C24.3701 7.85506 24.2424 8.16337 24.2424 8.48484C24.2424 8.80632 24.3701 9.11463 24.5975 9.34194C24.8248 9.56926 25.1331 9.69697 25.4545 9.69697H26.6667V7.27272H25.4545Z" fill="#364C9B"/>
<path d="M26.6667 7.27272H29.0909V9.69697H26.6667V7.27272Z" fill="#364C9B"/>
<path d="M33.9394 8.48484C33.9394 8.16337 34.0671 7.85506 34.2944 7.62774C34.5217 7.40043 34.83 7.27272 35.1515 7.27272C35.473 7.27272 35.7813 7.40043 36.0086 7.62774C36.2359 7.85506 36.3636 8.16337 36.3636 8.48484V9.69697H33.9394V8.48484Z" fill="#364C9B"/>
<path d="M41.2121 7.27272H43.6364V9.69697H41.2121V7.27272Z" fill="#364C9B"/>
<path d="M53.3333 8.48484C53.3333 8.16337 53.461 7.85506 53.6884 7.62774C53.9157 7.40043 54.224 7.27272 54.5455 7.27272C54.8669 7.27272 55.1752 7.40043 55.4026 7.62774C55.6299 7.85506 55.7576 8.16337 55.7576 8.48484V9.69697H53.3333V8.48484Z" fill="#364C9B"/>
<path d="M58.1818 7.27272H60.6061V9.69697H58.1818V7.27272Z" fill="#364C9B"/>
<path d="M72.7273 7.27272H75.1515V9.69697H72.7273V7.27272Z" fill="#364C9B"/>
<path d="M4.84849 9.69697H7.27273V12.1212H4.84849V9.69697Z" fill="#364C9B"/>
<path d="M9.69697 12.1212C9.69697 11.4783 9.95238 10.8616 10.407 10.407C10.8617 9.95238 11.4783 9.69697 12.1212 9.69697V12.1212H9.69697Z" fill="#364C9B"/>
<path d="M12.1212 9.69697H14.5455V12.1212H12.1212V9.69697Z" fill="#364C9B"/>
<path d="M14.5455 9.69697C15.1884 9.69697 15.805 9.95238 16.2597 10.407C16.7143 10.8616 16.9697 11.4783 16.9697 12.1212H14.5455V9.69697Z" fill="#364C9B"/>
<path d="M19.3939 9.69697H21.8182V12.1212H19.3939V9.69697Z" fill="#364C9B"/>
<path d="M26.6667 9.69697H29.0909V12.1212H26.6667V9.69697Z" fill="#364C9B"/>
<path d="M29.0909 9.69697H31.5152V12.1212H29.0909V9.69697Z" fill="#364C9B"/>
<path d="M31.5152 9.69697H33.9394V12.1212H31.5152V9.69697Z" fill="#364C9B"/>
<path d="M33.9394 9.69697H36.3636V12.1212H33.9394V9.69697Z" fill="#364C9B"/>
<path d="M36.3636 9.69697H38.7879V12.1212H36.3636V9.69697Z" fill="#364C9B"/>
<path d="M38.7879 9.69697H41.2121V12.1212H38.7879V9.69697Z" fill="#364C9B"/>
<path d="M41.2121 9.69697H43.6364V12.1212H41.2121V9.69697Z" fill="#364C9B"/>
<path d="M43.6364 9.69697H46.0606V12.1212H43.6364V9.69697Z" fill="#364C9B"/>
<path d="M46.0606 9.69697H48.4849V12.1212H46.0606V9.69697Z" fill="#364C9B"/>
<path d="M48.4849 9.69697H50.9091V12.1212H48.4849V9.69697Z" fill="#364C9B"/>
<path d="M50.9091 9.69697H53.3333V12.1212H50.9091V9.69697Z" fill="#364C9B"/>
<path d="M53.3333 12.1212C53.9763 12.1212 54.5929 11.8658 55.0475 11.4112C55.5022 10.9565 55.7576 10.3399 55.7576 9.69697H53.3333V12.1212Z" fill="#364C9B"/>
<path d="M58.1818 9.69697H60.6061V12.1212H58.1818V9.69697Z" fill="#364C9B"/>
<path d="M63.0303 12.1212C63.0303 11.4783 63.2857 10.8616 63.7404 10.407C64.195 9.95238 64.8116 9.69697 65.4546 9.69697V12.1212H63.0303Z" fill="#364C9B"/>
<path d="M65.4546 9.69697H67.8788V12.1212H65.4546V9.69697Z" fill="#364C9B"/>
<path d="M67.8788 9.69697C68.5217 9.69697 69.1384 9.95238 69.593 10.407C70.0476 10.8616 70.303 11.4783 70.303 12.1212H67.8788V9.69697Z" fill="#364C9B"/>
<path d="M72.7273 9.69697H75.1515V12.1212H72.7273V9.69697Z" fill="#364C9B"/>
<path d="M4.84849 12.1212H7.27273V14.5455H4.84849V12.1212Z" fill="#364C9B"/>
<path d="M9.69697 12.1212H12.1212V14.5455H9.69697V12.1212Z" fill="#364C9B"/>
<path d="M12.1212 12.1212H14.5455V14.5455H12.1212V12.1212Z" fill="#364C9B"/>
<path d="M14.5455 12.1212H16.9697V14.5455H14.5455V12.1212Z" fill="#364C9B"/>
<path d="M19.3939 12.1212H21.8182V14.5455H19.3939V12.1212Z" fill="#364C9B"/>
<path d="M26.6667 12.1212H29.0909V14.5455H26.6667V12.1212Z" fill="#364C9B"/>
<path d="M31.5152 12.1212H33.9394V14.5455H31.5152V12.1212Z" fill="#364C9B"/>
<path d="M38.7879 13.3333C38.7879 13.6548 38.9156 13.9631 39.1429 14.1904C39.3702 14.4177 39.6785 14.5455 40 14.5455C40.3215 14.5455 40.6298 14.4177 40.8571 14.1904C41.0844 13.9631 41.2121 13.6548 41.2121 13.3333V12.1212H38.7879V13.3333Z" fill="#364C9B"/>
<path d="M48.4849 12.1212H50.9091V14.5455H48.4849V12.1212Z" fill="#364C9B"/>
<path d="M50.9091 14.5455C51.552 14.5455 52.1687 14.29 52.6233 13.8354C53.0779 13.3808 53.3333 12.7642 53.3333 12.1212H50.9091V14.5455Z" fill="#364C9B"/>
<path d="M58.1818 12.1212H60.6061V14.5455H58.1818V12.1212Z" fill="#364C9B"/>
<path d="M63.0303 12.1212H65.4546V14.5455H63.0303V12.1212Z" fill="#364C9B"/>
<path d="M65.4546 12.1212H67.8788V14.5455H65.4546V12.1212Z" fill="#364C9B"/>
<path d="M67.8788 12.1212H70.303V14.5455H67.8788V12.1212Z" fill="#364C9B"/>
<path d="M72.7273 12.1212H75.1515V14.5455H72.7273V12.1212Z" fill="#364C9B"/>
<path d="M4.84849 14.5455H7.27273V16.9697H4.84849V14.5455Z" fill="#364C9B"/>
<path d="M9.69697 14.5455C9.69697 15.1884 9.95238 15.805 10.407 16.2596C10.8617 16.7143 11.4783 16.9697 12.1212 16.9697V14.5455H9.69697Z" fill="#364C9B"/>
<path d="M12.1212 14.5455H14.5455V16.9697H12.1212V14.5455Z" fill="#364C9B"/>
<path d="M14.5455 16.9697C15.1884 16.9697 15.805 16.7143 16.2597 16.2596C16.7143 15.805 16.9697 15.1884 16.9697 14.5455H14.5455V16.9697Z" fill="#364C9B"/>
<path d="M19.3939 14.5455H21.8182V16.9697H19.3939V14.5455Z" fill="#364C9B"/>
<path d="M26.6667 15.7576C26.6667 16.079 26.7944 16.3874 27.0217 16.6147C27.249 16.842 27.5573 16.9697 27.8788 16.9697C28.2003 16.9697 28.5086 16.842 28.7359 16.6147C28.9632 16.3874 29.0909 16.079 29.0909 15.7576V14.5455H26.6667V15.7576Z" fill="#364C9B"/>
<path d="M31.5152 15.7576C31.5152 16.079 31.6429 16.3874 31.8702 16.6147C32.0975 16.842 32.4058 16.9697 32.7273 16.9697C33.0488 16.9697 33.3571 16.842 33.5844 16.6147C33.8117 16.3874 33.9394 16.079 33.9394 15.7576V14.5455H31.5152V15.7576Z" fill="#364C9B"/>
<path d="M41.2121 15.7576C41.2121 15.4361 41.3398 15.1278 41.5671 14.9005C41.7945 14.6732 42.1028 14.5455 42.4242 14.5455C42.7457 14.5455 43.054 14.6732 43.2813 14.9005C43.5087 15.1278 43.6364 15.4361 43.6364 15.7576V16.9697H41.2121V15.7576Z" fill="#364C9B"/>
<path d="M48.4849 14.5455H50.9091V16.9697H48.4849V14.5455Z" fill="#364C9B"/>
<path d="M58.1818 14.5455H60.6061V16.9697H58.1818V14.5455Z" fill="#364C9B"/>
<path d="M63.0303 14.5455C63.0303 15.1884 63.2857 15.805 63.7404 16.2596C64.195 16.7143 64.8116 16.9697 65.4546 16.9697V14.5455H63.0303Z" fill="#364C9B"/>
<path d="M65.4546 14.5455H67.8788V16.9697H65.4546V14.5455Z" fill="#364C9B"/>
<path d="M67.8788 16.9697C68.5217 16.9697 69.1384 16.7143 69.593 16.2596C70.0476 15.805 70.303 15.1884 70.303 14.5455H67.8788V16.9697Z" fill="#364C9B"/>
<path d="M72.7273 14.5455H75.1515V16.9697H72.7273V14.5455Z" fill="#364C9B"/>
<path d="M4.84849 16.9697H7.27273V19.3939H4.84849V16.9697Z" fill="#364C9B"/>
<path d="M19.3939 16.9697H21.8182V19.3939H19.3939V16.9697Z" fill="#364C9B"/>
<path d="M24.2424 18.1818C24.2424 17.8603 24.3701 17.552 24.5975 17.3247C24.8248 17.0974 25.1331 16.9697 25.4545 16.9697C25.776 16.9697 26.0843 17.0974 26.3116 17.3247C26.539 17.552 26.6667 17.8603 26.6667 18.1818V19.3939H24.2424V18.1818Z" fill="#364C9B"/>
<path d="M41.2121 16.9697C41.2121 17.6126 41.4675 18.2293 41.9222 18.6839C42.3768 19.1385 42.9934 19.3939 43.6364 19.3939V16.9697H41.2121Z" fill="#364C9B"/>
<path d="M43.6364 16.9697C44.2793 16.9697 44.8959 17.2251 45.3506 17.6797C45.8052 18.1344 46.0606 18.751 46.0606 19.3939H43.6364V16.9697Z" fill="#364C9B"/>
<path d="M48.4849 16.9697H50.9091V19.3939H48.4849V16.9697Z" fill="#364C9B"/>
<path d="M50.9091 16.9697H53.3333V19.3939H50.9091V16.9697Z" fill="#364C9B"/>
<path d="M53.3333 16.9697C53.9763 16.9697 54.5929 17.2251 55.0475 17.6797C55.5022 18.1344 55.7576 18.751 55.7576 19.3939H53.3333V16.9697Z" fill="#364C9B"/>
<path d="M58.1818 16.9697H60.6061V19.3939H58.1818V16.9697Z" fill="#364C9B"/>
<path d="M72.7273 16.9697H75.1515V19.3939H72.7273V16.9697Z" fill="#364C9B"/>
<path d="M4.84849 19.3939C4.84849 20.0369 5.1039 20.6535 5.55853 21.1081C6.01317 21.5628 6.62978 21.8182 7.27273 21.8182V19.3939H4.84849Z" fill="#364C9B"/>
<path d="M7.27273 19.3939H9.69697V21.8182H7.27273V19.3939Z" fill="#364C9B"/>
<path d="M9.69697 19.3939H12.1212V21.8182H9.69697V19.3939Z" fill="#364C9B"/>
<path d="M12.1212 19.3939H14.5455V21.8182H12.1212V19.3939Z" fill="#364C9B"/>
<path d="M14.5455 19.3939H16.9697V21.8182H14.5455V19.3939Z" fill="#364C9B"/>
<path d="M16.9697 19.3939H19.3939V21.8182H16.9697V19.3939Z" fill="#364C9B"/>
<path d="M19.3939 21.8182C20.0369 21.8182 20.6535 21.5628 21.1081 21.1081C21.5628 20.6535 21.8182 20.0369 21.8182 19.3939H19.3939V21.8182Z" fill="#364C9B"/>
<path d="M24.2424 19.3939H26.6667V21.8182H24.2424V19.3939Z" fill="#364C9B"/>
<path d="M30.303 19.3939C30.6245 19.3939 30.9328 19.5216 31.1601 19.749C31.3875 19.9763 31.5152 20.2846 31.5152 20.6061C31.5152 20.9275 31.3875 21.2358 31.1601 21.4632C30.9328 21.6905 30.6245 21.8182 30.303 21.8182C29.9816 21.8182 29.6733 21.6905 29.4459 21.4632C29.2186 21.2358 29.0909 20.9275 29.0909 20.6061C29.0909 20.2846 29.2186 19.9763 29.4459 19.749C29.6733 19.5216 29.9816 19.3939 30.303 19.3939Z" fill="#364C9B"/>
<path d="M33.9394 20.6061C33.9394 20.2846 34.0671 19.9763 34.2944 19.749C34.5217 19.5216 34.83 19.3939 35.1515 19.3939C35.473 19.3939 35.7813 19.5216 36.0086 19.749C36.2359 19.9763 36.3636 20.2846 36.3636 20.6061V21.8182H33.9394V20.6061Z" fill="#364C9B"/>
<path d="M40 19.3939C40.3215 19.3939 40.6298 19.5216 40.8571 19.749C41.0844 19.9763 41.2121 20.2846 41.2121 20.6061C41.2121 20.9275 41.0844 21.2358 40.8571 21.4632C40.6298 21.6905 40.3215 21.8182 40 21.8182C39.6785 21.8182 39.3702 21.6905 39.1429 21.4632C38.9156 21.2358 38.7879 20.9275 38.7879 20.6061C38.7879 20.2846 38.9156 19.9763 39.1429 19.749C39.3702 19.5216 39.6785 19.3939 40 19.3939Z" fill="#364C9B"/>
<path d="M43.6364 20.6061C43.6364 20.9275 43.7641 21.2358 43.9914 21.4632C44.2187 21.6905 44.527 21.8182 44.8485 21.8182C45.17 21.8182 45.4783 21.6905 45.7056 21.4632C45.9329 21.2358 46.0606 20.9275 46.0606 20.6061V19.3939H43.6364V20.6061Z" fill="#364C9B"/>
<path d="M48.4849 19.3939H50.9091V21.8182H48.4849V19.3939Z" fill="#364C9B"/>
<path d="M53.3333 19.3939H55.7576V21.8182H53.3333V19.3939Z" fill="#364C9B"/>
<path d="M58.1818 19.3939C58.1818 20.0369 58.4372 20.6535 58.8919 21.1081C59.3465 21.5628 59.9631 21.8182 60.6061 21.8182V19.3939H58.1818Z" fill="#364C9B"/>
<path d="M60.6061 19.3939H63.0303V21.8182H60.6061V19.3939Z" fill="#364C9B"/>
<path d="M63.0303 19.3939H65.4546V21.8182H63.0303V19.3939Z" fill="#364C9B"/>
<path d="M65.4546 19.3939H67.8788V21.8182H65.4546V19.3939Z" fill="#364C9B"/>
<path d="M67.8788 19.3939H70.303V21.8182H67.8788V19.3939Z" fill="#364C9B"/>
<path d="M70.303 19.3939H72.7273V21.8182H70.303V19.3939Z" fill="#364C9B"/>
<path d="M72.7273 21.8182C73.3702 21.8182 73.9868 21.5628 74.4415 21.1081C74.8961 20.6535 75.1515 20.0369 75.1515 19.3939H72.7273V21.8182Z" fill="#364C9B"/>
<path d="M24.2424 23.0303C24.2424 23.3518 24.3701 23.6601 24.5975 23.8874C24.8248 24.1147 25.1331 24.2424 25.4545 24.2424C25.776 24.2424 26.0843 24.1147 26.3116 23.8874C26.539 23.6601 26.6667 23.3518 26.6667 23.0303V21.8182H24.2424V23.0303Z" fill="#364C9B"/>
<path d="M33.9394 21.8182H36.3636V24.2424H33.9394V21.8182Z" fill="#364C9B"/>
<path d="M42.4242 21.8182C42.7457 21.8182 43.054 21.9459 43.2813 22.1732C43.5087 22.4005 43.6364 22.7088 43.6364 23.0303C43.6364 23.3518 43.5087 23.6601 43.2813 23.8874C43.054 24.1147 42.7457 24.2424 42.4242 24.2424C42.1028 24.2424 41.7945 24.1147 41.5671 23.8874C41.3398 23.6601 41.2121 23.3518 41.2121 23.0303C41.2121 22.7088 41.3398 22.4005 41.5671 22.1732C41.7945 21.9459 42.1028 21.8182 42.4242 21.8182Z" fill="#364C9B"/>
<path d="M47.2727 21.8182C46.9513 21.8182 46.6429 21.9459 46.4156 22.1732C46.1883 22.4005 46.0606 22.7088 46.0606 23.0303C46.0606 23.3518 46.1883 23.6601 46.4156 23.8874C46.6429 24.1147 46.9513 24.2424 47.2727 24.2424H48.4849V21.8182H47.2727Z" fill="#364C9B"/>
<path d="M48.4849 21.8182H50.9091V24.2424H48.4849V21.8182Z" fill="#364C9B"/>
<path d="M50.9091 21.8182H53.3333V24.2424H50.9091V21.8182Z" fill="#364C9B"/>
<path d="M53.3333 24.2424C53.9763 24.2424 54.5929 23.987 55.0475 23.5324C55.5022 23.0777 55.7576 22.4611 55.7576 21.8182H53.3333V24.2424Z" fill="#364C9B"/>
<path d="M15.7576 24.2424C15.4361 24.2424 15.1278 24.3701 14.9005 24.5974C14.6732 24.8248 14.5455 25.1331 14.5455 25.4545C14.5455 25.776 14.6732 26.0843 14.9005 26.3116C15.1278 26.539 15.4361 26.6667 15.7576 26.6667H16.9697V24.2424H15.7576Z" fill="#364C9B"/>
<path d="M16.9697 24.2424H19.3939V26.6667H16.9697V24.2424Z" fill="#364C9B"/>
<path d="M19.3939 24.2424H21.8182V26.6667H19.3939V24.2424Z" fill="#364C9B"/>
<path d="M23.0303 24.2424C23.3518 24.2424 23.6601 24.3701 23.8874 24.5974C24.1147 24.8248 24.2424 25.1331 24.2424 25.4545C24.2424 25.776 24.1147 26.0843 23.8874 26.3116C23.6601 26.539 23.3518 26.6667 23.0303 26.6667H21.8182V24.2424H23.0303Z" fill="#364C9B"/>
<path d="M29.0909 26.6667C29.0909 26.0237 29.3463 25.4071 29.801 24.9525C30.2556 24.4978 30.8722 24.2424 31.5152 24.2424V26.6667H29.0909Z" fill="#364C9B"/>
<path d="M31.5152 24.2424H33.9394V26.6667H31.5152V24.2424Z" fill="#364C9B"/>
<path d="M33.9394 26.6667C34.5823 26.6667 35.199 26.4113 35.6536 25.9566C36.1082 25.502 36.3636 24.8854 36.3636 24.2424H33.9394V26.6667Z" fill="#364C9B"/>
<path d="M44.8485 24.2424C45.17 24.2424 45.4783 24.3701 45.7056 24.5974C45.9329 24.8248 46.0606 25.1331 46.0606 25.4545C46.0606 25.776 45.9329 26.0843 45.7056 26.3116C45.4783 26.539 45.17 26.6667 44.8485 26.6667C44.527 26.6667 44.2187 26.539 43.9914 26.3116C43.7641 26.0843 43.6364 25.776 43.6364 25.4545C43.6364 25.1331 43.7641 24.8248 43.9914 24.5974C44.2187 24.3701 44.527 24.2424 44.8485 24.2424Z" fill="#364C9B"/>
<path d="M48.4849 25.4545C48.4849 25.776 48.6126 26.0843 48.8399 26.3116C49.0672 26.539 49.3755 26.6667 49.697 26.6667C50.0184 26.6667 50.3268 26.539 50.5541 26.3116C50.7814 26.0843 50.9091 25.776 50.9091 25.4545V24.2424H48.4849V25.4545Z" fill="#364C9B"/>
<path d="M59.3939 24.2424C59.0725 24.2424 58.7642 24.3701 58.5368 24.5974C58.3095 24.8248 58.1818 25.1331 58.1818 25.4545C58.1818 25.776 58.3095 26.0843 58.5368 26.3116C58.7642 26.539 59.0725 26.6667 59.3939 26.6667H60.6061V24.2424H59.3939Z" fill="#364C9B"/>
<path d="M60.6061 24.2424C61.249 24.2424 61.8656 24.4978 62.3203 24.9525C62.7749 25.4071 63.0303 26.0237 63.0303 26.6667H60.6061V24.2424Z" fill="#364C9B"/>
<path d="M70.303 25.4545C70.303 25.1331 70.4307 24.8248 70.6581 24.5974C70.8854 24.3701 71.1937 24.2424 71.5152 24.2424C71.8366 24.2424 72.1449 24.3701 72.3723 24.5974C72.5996 24.8248 72.7273 25.1331 72.7273 25.4545V26.6667H70.303V25.4545Z" fill="#364C9B"/>
<path d="M4.84849 27.8788C4.84849 27.5573 4.97619 27.249 5.20351 27.0217C5.43083 26.7944 5.73913 26.6667 6.06061 26.6667C6.38208 26.6667 6.69039 26.7944 6.91771 27.0217C7.14503 27.249 7.27273 27.5573 7.27273 27.8788V29.0909H4.84849V27.8788Z" fill="#364C9B"/>
<path d="M9.69697 29.0909C9.69697 28.448 9.95238 27.8313 10.407 27.3767C10.8617 26.9221 11.4783 26.6667 12.1212 26.6667V29.0909H9.69697Z" fill="#364C9B"/>
<path d="M12.1212 26.6667C12.7642 26.6667 13.3808 26.9221 13.8354 27.3767C14.29 27.8313 14.5455 28.448 14.5455 29.0909H12.1212V26.6667Z" fill="#364C9B"/>
<path d="M16.9697 26.6667H19.3939V29.0909H16.9697V26.6667Z" fill="#364C9B"/>
<path d="M29.0909 27.8788C29.0909 28.2003 29.2186 28.5086 29.4459 28.7359C29.6733 28.9632 29.9816 29.0909 30.303 29.0909C30.6245 29.0909 30.9328 28.9632 31.1601 28.7359C31.3875 28.5086 31.5152 28.2003 31.5152 27.8788V26.6667H29.0909V27.8788Z" fill="#364C9B"/>
<path d="M40 26.6667C39.6785 26.6667 39.3702 26.7944 39.1429 27.0217C38.9156 27.249 38.7879 27.5573 38.7879 27.8788C38.7879 28.2003 38.9156 28.5086 39.1429 28.7359C39.3702 28.9632 39.6785 29.0909 40 29.0909H41.2121V26.6667H40Z" fill="#364C9B"/>
<path d="M42.4242 26.6667C42.7457 26.6667 43.054 26.7944 43.2813 27.0217C43.5087 27.249 43.6364 27.5573 43.6364 27.8788C43.6364 28.2003 43.5087 28.5086 43.2813 28.7359C43.054 28.9632 42.7457 29.0909 42.4242 29.0909H41.2121V26.6667H42.4242Z" fill="#364C9B"/>
<path d="M52.1212 26.6667C51.7997 26.6667 51.4914 26.7944 51.2641 27.0217C51.0368 27.249 50.9091 27.5573 50.9091 27.8788C50.9091 28.2003 51.0368 28.5086 51.2641 28.7359C51.4914 28.9632 51.7997 29.0909 52.1212 29.0909H53.3333V26.6667H52.1212Z" fill="#364C9B"/>
<path d="M53.3333 26.6667H55.7576V29.0909H53.3333V26.6667Z" fill="#364C9B"/>
<path d="M55.7576 26.6667C56.4005 26.6667 57.0171 26.9221 57.4718 27.3767C57.9264 27.8313 58.1818 28.448 58.1818 29.0909H55.7576V26.6667Z" fill="#364C9B"/>
<path d="M60.6061 26.6667C60.6061 27.3096 60.8615 27.9262 61.3161 28.3809C61.7707 28.8355 62.3874 29.0909 63.0303 29.0909V26.6667H60.6061Z" fill="#364C9B"/>
<path d="M63.0303 26.6667H65.4546V29.0909H63.0303V26.6667Z" fill="#364C9B"/>
<path d="M65.4546 26.6667C66.0975 26.6667 66.7141 26.9221 67.1688 27.3767C67.6234 27.8313 67.8788 28.448 67.8788 29.0909H65.4546V26.6667Z" fill="#364C9B"/>
<path d="M70.303 26.6667C70.303 27.3096 70.5584 27.9262 71.0131 28.3809C71.4677 28.8355 72.0843 29.0909 72.7273 29.0909V26.6667H70.303Z" fill="#364C9B"/>
<path d="M72.7273 26.6667C73.3702 26.6667 73.9868 26.9221 74.4415 27.3767C74.8961 27.8313 75.1515 28.448 75.1515 29.0909H72.7273V26.6667Z" fill="#364C9B"/>
<path d="M4.84849 29.0909H7.27273V31.5151H4.84849V29.0909Z" fill="#364C9B"/>
<path d="M9.69697 29.0909C9.69697 29.7339 9.95238 30.3505 10.407 30.8051C10.8617 31.2597 11.4783 31.5151 12.1212 31.5151V29.0909H9.69697Z" fill="#364C9B"/>
<path d="M12.1212 31.5151C12.7642 31.5151 13.3808 31.2597 13.8354 30.8051C14.29 30.3505 14.5455 29.7339 14.5455 29.0909H12.1212V31.5151Z" fill="#364C9B"/>
<path d="M16.9697 29.0909C16.9697 29.7339 17.2251 30.3505 17.6797 30.8051C18.1344 31.2597 18.751 31.5151 19.3939 31.5151V29.0909H16.9697Z" fill="#364C9B"/>
<path d="M20.6061 29.0909C20.9275 29.0909 21.2358 29.2186 21.4632 29.4459C21.6905 29.6732 21.8182 29.9816 21.8182 30.303C21.8182 30.6245 21.6905 30.9328 21.4632 31.1601C21.2358 31.3874 20.9275 31.5151 20.6061 31.5151H19.3939V29.0909H20.6061Z" fill="#364C9B"/>
<path d="M27.8788 29.0909C28.2003 29.0909 28.5086 29.2186 28.7359 29.4459C28.9632 29.6732 29.0909 29.9816 29.0909 30.303C29.0909 30.6245 28.9632 30.9328 28.7359 31.1601C28.5086 31.3874 28.2003 31.5151 27.8788 31.5151C27.5573 31.5151 27.249 31.3874 27.0217 31.1601C26.7944 30.9328 26.6667 30.6245 26.6667 30.303C26.6667 29.9816 26.7944 29.6732 27.0217 29.4459C27.249 29.2186 27.5573 29.0909 27.8788 29.0909Z" fill="#364C9B"/>
<path d="M53.3333 29.0909C53.3333 29.7339 53.5887 30.3505 54.0434 30.8051C54.498 31.2597 55.1146 31.5151 55.7576 31.5151V29.0909H53.3333Z" fill="#364C9B"/>
<path d="M55.7576 29.0909H58.1818V31.5151H55.7576V29.0909Z" fill="#364C9B"/>
<path d="M63.0303 29.0909H65.4546V31.5151H63.0303V29.0909Z" fill="#364C9B"/>
<path d="M65.4546 29.0909H67.8788V31.5151H65.4546V29.0909Z" fill="#364C9B"/>
<path d="M69.0909 29.0909C69.4124 29.0909 69.7207 29.2186 69.948 29.4459C70.1753 29.6732 70.303 29.9816 70.303 30.303C70.303 30.6245 70.1753 30.9328 69.948 31.1601C69.7207 31.3874 69.4124 31.5151 69.0909 31.5151H67.8788V29.0909H69.0909Z" fill="#364C9B"/>
<path d="M72.7273 29.0909H75.1515V31.5151H72.7273V29.0909Z" fill="#364C9B"/>
<path d="M4.84849 31.5151C4.84849 32.1581 5.1039 32.7747 5.55853 33.2293C6.01317 33.684 6.62978 33.9394 7.27273 33.9394V31.5151H4.84849Z" fill="#364C9B"/>
<path d="M8.48485 31.5151C8.80633 31.5151 9.11463 31.6429 9.34195 31.8702C9.56927 32.0975 9.69697 32.4058 9.69697 32.7273C9.69697 33.0487 9.56927 33.3571 9.34195 33.5844C9.11463 33.8117 8.80633 33.9394 8.48485 33.9394H7.27273V31.5151H8.48485Z" fill="#364C9B"/>
<path d="M15.7576 31.5151C16.0791 31.5151 16.3874 31.6429 16.6147 31.8702C16.842 32.0975 16.9697 32.4058 16.9697 32.7273C16.9697 33.0487 16.842 33.3571 16.6147 33.5844C16.3874 33.8117 16.0791 33.9394 15.7576 33.9394C15.4361 33.9394 15.1278 33.8117 14.9005 33.5844C14.6732 33.3571 14.5455 33.0487 14.5455 32.7273C14.5455 32.4058 14.6732 32.0975 14.9005 31.8702C15.1278 31.6429 15.4361 31.5151 15.7576 31.5151Z" fill="#364C9B"/>
<path d="M55.7576 32.7273C55.7576 33.0487 55.8853 33.3571 56.1126 33.5844C56.3399 33.8117 56.6482 33.9394 56.9697 33.9394C57.2912 33.9394 57.5995 33.8117 57.8268 33.5844C58.0541 33.3571 58.1818 33.0487 58.1818 32.7273V31.5151H55.7576V32.7273Z" fill="#364C9B"/>
<path d="M60.6061 33.9394C60.6061 33.2964 60.8615 32.6798 61.3161 32.2252C61.7707 31.7706 62.3874 31.5151 63.0303 31.5151V33.9394H60.6061Z" fill="#364C9B"/>
<path d="M63.0303 31.5151H65.4546V33.9394H63.0303V31.5151Z" fill="#364C9B"/>
<path d="M65.4546 31.5151H67.8788V33.9394H65.4546V31.5151Z" fill="#364C9B"/>
<path d="M71.5152 31.5151C71.1937 31.5151 70.8854 31.6429 70.6581 31.8702C70.4307 32.0975 70.303 32.4058 70.303 32.7273C70.303 33.0487 70.4307 33.3571 70.6581 33.5844C70.8854 33.8117 71.1937 33.9394 71.5152 33.9394H72.7273V31.5151H71.5152Z" fill="#364C9B"/>
<path d="M72.7273 31.5151H75.1515V33.9394H72.7273V31.5151Z" fill="#364C9B"/>
<path d="M10.9091 33.9394C11.2306 33.9394 11.5389 34.0671 11.7662 34.2944C11.9935 34.5217 12.1212 34.83 12.1212 35.1515C12.1212 35.473 11.9935 35.7813 11.7662 36.0086C11.5389 36.2359 11.2306 36.3636 10.9091 36.3636C10.5876 36.3636 10.2793 36.2359 10.052 36.0086C9.82468 35.7813 9.69697 35.473 9.69697 35.1515C9.69697 34.83 9.82468 34.5217 10.052 34.2944C10.2793 34.0671 10.5876 33.9394 10.9091 33.9394Z" fill="#364C9B"/>
<path d="M18.1818 33.9394C17.8603 33.9394 17.552 34.0671 17.3247 34.2944C17.0974 34.5217 16.9697 34.83 16.9697 35.1515C16.9697 35.473 17.0974 35.7813 17.3247 36.0086C17.552 36.2359 17.8603 36.3636 18.1818 36.3636H19.3939V33.9394H18.1818Z" fill="#364C9B"/>
<path d="M20.6061 33.9394C20.9275 33.9394 21.2358 34.0671 21.4632 34.2944C21.6905 34.5217 21.8182 34.83 21.8182 35.1515C21.8182 35.473 21.6905 35.7813 21.4632 36.0086C21.2358 36.2359 20.9275 36.3636 20.6061 36.3636H19.3939V33.9394H20.6061Z" fill="#364C9B"/>
<path d="M24.2424 35.1515C24.2424 34.83 24.3701 34.5217 24.5975 34.2944C24.8248 34.0671 25.1331 33.9394 25.4545 33.9394C25.776 33.9394 26.0843 34.0671 26.3116 34.2944C26.539 34.5217 26.6667 34.83 26.6667 35.1515V36.3636H24.2424V35.1515Z" fill="#364C9B"/>
<path d="M52.1212 33.9394C51.7997 33.9394 51.4914 34.0671 51.2641 34.2944C51.0368 34.5217 50.9091 34.83 50.9091 35.1515C50.9091 35.473 51.0368 35.7813 51.2641 36.0086C51.4914 36.2359 51.7997 36.3636 52.1212 36.3636H53.3333V33.9394H52.1212Z" fill="#364C9B"/>
<path d="M53.3333 33.9394C53.9763 33.9394 54.5929 34.1948 55.0475 34.6494C55.5022 35.1041 55.7576 35.7207 55.7576 36.3636H53.3333V33.9394Z" fill="#364C9B"/>
<path d="M60.6061 35.1515C60.6061 35.473 60.7338 35.7813 60.9611 36.0086C61.1884 36.2359 61.4967 36.3636 61.8182 36.3636C62.1397 36.3636 62.448 36.2359 62.6753 36.0086C62.9026 35.7813 63.0303 35.473 63.0303 35.1515V33.9394H60.6061V35.1515Z" fill="#364C9B"/>
<path d="M65.4546 35.1515C65.4546 35.473 65.5823 35.7813 65.8096 36.0086C66.0369 36.2359 66.3452 36.3636 66.6667 36.3636C66.9881 36.3636 67.2965 36.2359 67.5238 36.0086C67.7511 35.7813 67.8788 35.473 67.8788 35.1515V33.9394H65.4546V35.1515Z" fill="#364C9B"/>
<path d="M72.7273 35.1515C72.7273 35.473 72.855 35.7813 73.0823 36.0086C73.3096 36.2359 73.6179 36.3636 73.9394 36.3636C74.2609 36.3636 74.5692 36.2359 74.7965 36.0086C75.0238 35.7813 75.1515 35.473 75.1515 35.1515V33.9394H72.7273V35.1515Z" fill="#364C9B"/>
<path d="M13.3333 36.3636C13.0119 36.3636 12.7036 36.4913 12.4762 36.7187C12.2489 36.946 12.1212 37.2543 12.1212 37.5758C12.1212 37.8972 12.2489 38.2055 12.4762 38.4329C12.7036 38.6602 13.0119 38.7879 13.3333 38.7879H14.5455V36.3636H13.3333Z" fill="#364C9B"/>
<path d="M15.7576 36.3636C16.0791 36.3636 16.3874 36.4913 16.6147 36.7187C16.842 36.946 16.9697 37.2543 16.9697 37.5758C16.9697 37.8972 16.842 38.2055 16.6147 38.4329C16.3874 38.6602 16.0791 38.7879 15.7576 38.7879H14.5455V36.3636H15.7576Z" fill="#364C9B"/>
<path d="M24.2424 37.5758C24.2424 37.8972 24.3701 38.2055 24.5975 38.4329C24.8248 38.6602 25.1331 38.7879 25.4545 38.7879C25.776 38.7879 26.0843 38.6602 26.3116 38.4329C26.539 38.2055 26.6667 37.8972 26.6667 37.5758V36.3636H24.2424V37.5758Z" fill="#364C9B"/>
<path d="M53.3333 37.5758C53.3333 37.8972 53.461 38.2055 53.6884 38.4329C53.9157 38.6602 54.224 38.7879 54.5455 38.7879C54.8669 38.7879 55.1752 38.6602 55.4026 38.4329C55.6299 38.2055 55.7576 37.8972 55.7576 37.5758V36.3636H53.3333V37.5758Z" fill="#364C9B"/>
<path d="M58.1818 37.5758C58.1818 37.2543 58.3095 36.946 58.5368 36.7187C58.7642 36.4913 59.0725 36.3636 59.3939 36.3636C59.7154 36.3636 60.0237 36.4913 60.251 36.7187C60.4784 36.946 60.6061 37.2543 60.6061 37.5758V38.7879H58.1818V37.5758Z" fill="#364C9B"/>
<path d="M63.0303 37.5758C63.0303 37.2543 63.158 36.946 63.3853 36.7187C63.6126 36.4913 63.921 36.3636 64.2424 36.3636C64.5639 36.3636 64.8722 36.4913 65.0995 36.7187C65.3268 36.946 65.4546 37.2543 65.4546 37.5758V38.7879H63.0303V37.5758Z" fill="#364C9B"/>
<path d="M69.0909 36.3636C69.4124 36.3636 69.7207 36.4913 69.948 36.7187C70.1753 36.946 70.303 37.2543 70.303 37.5758C70.303 37.8972 70.1753 38.2055 69.948 38.4329C69.7207 38.6602 69.4124 38.7879 69.0909 38.7879C68.7694 38.7879 68.4611 38.6602 68.2338 38.4329C68.0065 38.2055 67.8788 37.8972 67.8788 37.5758C67.8788 37.2543 68.0065 36.946 68.2338 36.7187C68.4611 36.4913 68.7694 36.3636 69.0909 36.3636Z" fill="#364C9B"/>
<path d="M8.48485 38.7879C8.16338 38.7879 7.85507 38.9156 7.62775 39.1429C7.40044 39.3702 7.27273 39.6785 7.27273 40C7.27273 40.3215 7.40044 40.6298 7.62775 40.8571C7.85507 41.0844 8.16338 41.2121 8.48485 41.2121H9.69697V38.7879H8.48485Z" fill="#364C9B"/>
<path d="M10.9091 38.7879C11.2306 38.7879 11.5389 38.9156 11.7662 39.1429C11.9935 39.3702 12.1212 39.6785 12.1212 40C12.1212 40.3215 11.9935 40.6298 11.7662 40.8571C11.5389 41.0844 11.2306 41.2121 10.9091 41.2121H9.69697V38.7879H10.9091Z" fill="#364C9B"/>
<path d="M16.9697 41.2121C16.9697 40.5692 17.2251 39.9526 17.6797 39.4979C18.1344 39.0433 18.751 38.7879 19.3939 38.7879V41.2121H16.9697Z" fill="#364C9B"/>
<path d="M20.6061 38.7879C20.9275 38.7879 21.2358 38.9156 21.4632 39.1429C21.6905 39.3702 21.8182 39.6785 21.8182 40C21.8182 40.3215 21.6905 40.6298 21.4632 40.8571C21.2358 41.0844 20.9275 41.2121 20.6061 41.2121H19.3939V38.7879H20.6061Z" fill="#364C9B"/>
<path d="M27.8788 38.7879C28.2003 38.7879 28.5086 38.9156 28.7359 39.1429C28.9632 39.3702 29.0909 39.6785 29.0909 40C29.0909 40.3215 28.9632 40.6298 28.7359 40.8571C28.5086 41.0844 28.2003 41.2121 27.8788 41.2121C27.5573 41.2121 27.249 41.0844 27.0217 40.8571C26.7944 40.6298 26.6667 40.3215 26.6667 40C26.6667 39.6785 26.7944 39.3702 27.0217 39.1429C27.249 38.9156 27.5573 38.7879 27.8788 38.7879Z" fill="#364C9B"/>
<path d="M58.1818 38.7879H60.6061V41.2121H58.1818V38.7879Z" fill="#364C9B"/>
<path d="M63.0303 40C63.0303 40.3215 63.158 40.6298 63.3853 40.8571C63.6126 41.0844 63.921 41.2121 64.2424 41.2121C64.5639 41.2121 64.8722 41.0844 65.0995 40.8571C65.3268 40.6298 65.4546 40.3215 65.4546 40V38.7879H63.0303V40Z" fill="#364C9B"/>
<path d="M73.9394 38.7879C74.2609 38.7879 74.5692 38.9156 74.7965 39.1429C75.0238 39.3702 75.1515 39.6785 75.1515 40C75.1515 40.3215 75.0238 40.6298 74.7965 40.8571C74.5692 41.0844 74.2609 41.2121 73.9394 41.2121C73.6179 41.2121 73.3096 41.0844 73.0823 40.8571C72.855 40.6298 72.7273 40.3215 72.7273 40C72.7273 39.6785 72.855 39.3702 73.0823 39.1429C73.3096 38.9156 73.6179 38.7879 73.9394 38.7879Z" fill="#364C9B"/>
<path d="M6.06061 41.2121C6.38208 41.2121 6.69039 41.3398 6.91771 41.5671C7.14503 41.7945 7.27273 42.1028 7.27273 42.4242C7.27273 42.7457 7.14503 43.054 6.91771 43.2813C6.69039 43.5087 6.38208 43.6364 6.06061 43.6364C5.73913 43.6364 5.43083 43.5087 5.20351 43.2813C4.97619 43.054 4.84849 42.7457 4.84849 42.4242C4.84849 42.1028 4.97619 41.7945 5.20351 41.5671C5.43083 41.3398 5.73913 41.2121 6.06061 41.2121Z" fill="#364C9B"/>
<path d="M16.9697 41.2121H19.3939V43.6364H16.9697V41.2121Z" fill="#364C9B"/>
<path d="M24.2424 42.4242C24.2424 42.1028 24.3701 41.7945 24.5975 41.5671C24.8248 41.3398 25.1331 41.2121 25.4545 41.2121C25.776 41.2121 26.0843 41.3398 26.3116 41.5671C26.539 41.7945 26.6667 42.1028 26.6667 42.4242V43.6364H24.2424V42.4242Z" fill="#364C9B"/>
<path d="M53.3333 43.6364C53.3333 42.9934 53.5887 42.3768 54.0434 41.9222C54.498 41.4675 55.1146 41.2121 55.7576 41.2121V43.6364H53.3333Z" fill="#364C9B"/>
<path d="M55.7576 41.2121H58.1818V43.6364H55.7576V41.2121Z" fill="#364C9B"/>
<path d="M58.1818 41.2121H60.6061V43.6364H58.1818V41.2121Z" fill="#364C9B"/>
<path d="M61.8182 41.2121C62.1397 41.2121 62.448 41.3398 62.6753 41.5671C62.9026 41.7945 63.0303 42.1028 63.0303 42.4242C63.0303 42.7457 62.9026 43.054 62.6753 43.2813C62.448 43.5087 62.1397 43.6364 61.8182 43.6364H60.6061V41.2121H61.8182Z" fill="#364C9B"/>
<path d="M66.6667 41.2121C66.9881 41.2121 67.2965 41.3398 67.5238 41.5671C67.7511 41.7945 67.8788 42.1028 67.8788 42.4242C67.8788 42.7457 67.7511 43.054 67.5238 43.2813C67.2965 43.5087 66.9881 43.6364 66.6667 43.6364C66.3452 43.6364 66.0369 43.5087 65.8096 43.2813C65.5823 43.054 65.4546 42.7457 65.4546 42.4242C65.4546 42.1028 65.5823 41.7945 65.8096 41.5671C66.0369 41.3398 66.3452 41.2121 66.6667 41.2121Z" fill="#364C9B"/>
<path d="M7.27273 44.8485C7.27273 44.527 7.40044 44.2187 7.62775 43.9914C7.85507 43.7641 8.16338 43.6364 8.48485 43.6364C8.80633 43.6364 9.11463 43.7641 9.34195 43.9914C9.56927 44.2187 9.69697 44.527 9.69697 44.8485V46.0606H7.27273V44.8485Z" fill="#364C9B"/>
<path d="M16.9697 43.6364H19.3939V46.0606H16.9697V43.6364Z" fill="#364C9B"/>
<path d="M20.6061 43.6364C20.9275 43.6364 21.2358 43.7641 21.4632 43.9914C21.6905 44.2187 21.8182 44.527 21.8182 44.8485C21.8182 45.17 21.6905 45.4783 21.4632 45.7056C21.2358 45.9329 20.9275 46.0606 20.6061 46.0606H19.3939V43.6364H20.6061Z" fill="#364C9B"/>
<path d="M24.2424 43.6364H26.6667V46.0606H24.2424V43.6364Z" fill="#364C9B"/>
<path d="M50.9091 46.0606C50.9091 45.4177 51.1645 44.801 51.6191 44.3464C52.0738 43.8918 52.6904 43.6364 53.3333 43.6364V46.0606H50.9091Z" fill="#364C9B"/>
<path d="M53.3333 43.6364H55.7576V46.0606H53.3333V43.6364Z" fill="#364C9B"/>
<path d="M55.7576 46.0606C56.4005 46.0606 57.0171 45.8052 57.4718 45.3506C57.9264 44.8959 58.1818 44.2793 58.1818 43.6364H55.7576V46.0606Z" fill="#364C9B"/>
<path d="M71.5152 43.6364C71.1937 43.6364 70.8854 43.7641 70.6581 43.9914C70.4307 44.2187 70.303 44.527 70.303 44.8485C70.303 45.17 70.4307 45.4783 70.6581 45.7056C70.8854 45.9329 71.1937 46.0606 71.5152 46.0606H72.7273V43.6364H71.5152Z" fill="#364C9B"/>
<path d="M72.7273 43.6364C73.3702 43.6364 73.9868 43.8918 74.4415 44.3464C74.8961 44.801 75.1515 45.4177 75.1515 46.0606H72.7273V43.6364Z" fill="#364C9B"/>
<path d="M6.06061 46.0606C5.73913 46.0606 5.43083 46.1883 5.20351 46.4156C4.97619 46.6429 4.84849 46.9512 4.84849 47.2727C4.84849 47.5942 4.97619 47.9025 5.20351 48.1298C5.43083 48.3571 5.73913 48.4848 6.06061 48.4848H7.27273V46.0606H6.06061Z" fill="#364C9B"/>
<path d="M7.27273 46.0606H9.69697V48.4848H7.27273V46.0606Z" fill="#364C9B"/>
<path d="M9.69697 46.0606H12.1212V48.4848H9.69697V46.0606Z" fill="#364C9B"/>
<path d="M12.1212 46.0606H14.5455V48.4848H12.1212V46.0606Z" fill="#364C9B"/>
<path d="M14.5455 46.0606H16.9697V48.4848H14.5455V46.0606Z" fill="#364C9B"/>
<path d="M16.9697 46.0606H19.3939V48.4848H16.9697V46.0606Z" fill="#364C9B"/>
<path d="M23.0303 46.0606C22.7088 46.0606 22.4005 46.1883 22.1732 46.4156C21.9459 46.6429 21.8182 46.9512 21.8182 47.2727C21.8182 47.5942 21.9459 47.9025 22.1732 48.1298C22.4005 48.3571 22.7088 48.4848 23.0303 48.4848H24.2424V46.0606H23.0303Z" fill="#364C9B"/>
<path d="M24.2424 46.0606H26.6667V48.4848H24.2424V46.0606Z" fill="#364C9B"/>
<path d="M26.6667 46.0606C27.3096 46.0606 27.9262 46.316 28.3809 46.7706C28.8355 47.2253 29.0909 47.8419 29.0909 48.4848H26.6667V46.0606Z" fill="#364C9B"/>
<path d="M50.9091 46.0606H53.3333V48.4848H50.9091V46.0606Z" fill="#364C9B"/>
<path d="M61.8182 46.0606C61.4967 46.0606 61.1884 46.1883 60.9611 46.4156C60.7338 46.6429 60.6061 46.9512 60.6061 47.2727C60.6061 47.5942 60.7338 47.9025 60.9611 48.1298C61.1884 48.3571 61.4967 48.4848 61.8182 48.4848H63.0303V46.0606H61.8182Z" fill="#364C9B"/>
<path d="M63.0303 46.0606H65.4546V48.4848H63.0303V46.0606Z" fill="#364C9B"/>
<path d="M65.4546 46.0606H67.8788V48.4848H65.4546V46.0606Z" fill="#364C9B"/>
<path d="M69.0909 46.0606C69.4124 46.0606 69.7207 46.1883 69.948 46.4156C70.1753 46.6429 70.303 46.9512 70.303 47.2727C70.303 47.5942 70.1753 47.9025 69.948 48.1298C69.7207 48.3571 69.4124 48.4848 69.0909 48.4848H67.8788V46.0606H69.0909Z" fill="#364C9B"/>
<path d="M72.7273 46.0606H75.1515V48.4848H72.7273V46.0606Z" fill="#364C9B"/>
<path d="M9.69697 49.697C9.69697 50.0184 9.82468 50.3267 10.052 50.5541C10.2793 50.7814 10.5876 50.9091 10.9091 50.9091C11.2306 50.9091 11.5389 50.7814 11.7662 50.5541C11.9935 50.3267 12.1212 50.0184 12.1212 49.697V48.4848H9.69697V49.697Z" fill="#364C9B"/>
<path d="M16.9697 48.4848C16.9697 49.1278 17.2251 49.7444 17.6797 50.199C18.1344 50.6537 18.751 50.9091 19.3939 50.9091V48.4848H16.9697Z" fill="#364C9B"/>
<path d="M20.6061 48.4848C20.9275 48.4848 21.2358 48.6125 21.4632 48.8399C21.6905 49.0672 21.8182 49.3755 21.8182 49.697C21.8182 50.0184 21.6905 50.3267 21.4632 50.5541C21.2358 50.7814 20.9275 50.9091 20.6061 50.9091H19.3939V48.4848H20.6061Z" fill="#364C9B"/>
<path d="M24.2424 48.4848H26.6667V50.9091H24.2424V48.4848Z" fill="#364C9B"/>
<path d="M26.6667 50.9091C27.3096 50.9091 27.9262 50.6537 28.3809 50.199C28.8355 49.7444 29.0909 49.1278 29.0909 48.4848H26.6667V50.9091Z" fill="#364C9B"/>
<path d="M50.9091 48.4848H53.3333V50.9091H50.9091V48.4848Z" fill="#364C9B"/>
<path d="M63.0303 48.4848C63.0303 49.1278 63.2857 49.7444 63.7404 50.199C64.195 50.6537 64.8116 50.9091 65.4546 50.9091V48.4848H63.0303Z" fill="#364C9B"/>
<path d="M65.4546 48.4848H67.8788V50.9091H65.4546V48.4848Z" fill="#364C9B"/>
<path d="M72.7273 48.4848H75.1515V50.9091H72.7273V48.4848Z" fill="#364C9B"/>
<path d="M23.0303 50.9091C22.7088 50.9091 22.4005 51.0368 22.1732 51.2641C21.9459 51.4914 21.8182 51.7997 21.8182 52.1212C21.8182 52.4427 21.9459 52.751 22.1732 52.9783C22.4005 53.2056 22.7088 53.3333 23.0303 53.3333H24.2424V50.9091H23.0303Z" fill="#364C9B"/>
<path d="M24.2424 50.9091H26.6667V53.3333H24.2424V50.9091Z" fill="#364C9B"/>
<path d="M35.1515 50.9091C35.473 50.9091 35.7813 51.0368 36.0086 51.2641C36.2359 51.4914 36.3636 51.7997 36.3636 52.1212C36.3636 52.4427 36.2359 52.751 36.0086 52.9783C35.7813 53.2056 35.473 53.3333 35.1515 53.3333C34.83 53.3333 34.5217 53.2056 34.2944 52.9783C34.0671 52.751 33.9394 52.4427 33.9394 52.1212C33.9394 51.7997 34.0671 51.4914 34.2944 51.2641C34.5217 51.0368 34.83 50.9091 35.1515 50.9091Z" fill="#364C9B"/>
<path d="M42.4242 50.9091C42.1028 50.9091 41.7945 51.0368 41.5671 51.2641C41.3398 51.4914 41.2121 51.7997 41.2121 52.1212C41.2121 52.4427 41.3398 52.751 41.5671 52.9783C41.7945 53.2056 42.1028 53.3333 42.4242 53.3333H43.6364V50.9091H42.4242Z" fill="#364C9B"/>
<path d="M43.6364 50.9091H46.0606V53.3333H43.6364V50.9091Z" fill="#364C9B"/>
<path d="M47.2727 50.9091C47.5942 50.9091 47.9025 51.0368 48.1298 51.2641C48.3571 51.4914 48.4849 51.7997 48.4849 52.1212C48.4849 52.4427 48.3571 52.751 48.1298 52.9783C47.9025 53.2056 47.5942 53.3333 47.2727 53.3333H46.0606V50.9091H47.2727Z" fill="#364C9B"/>
<path d="M50.9091 50.9091C50.9091 51.552 51.1645 52.1687 51.6191 52.6233C52.0738 53.0779 52.6904 53.3333 53.3333 53.3333V50.9091H50.9091Z" fill="#364C9B"/>
<path d="M53.3333 50.9091C53.9763 50.9091 54.5929 51.1645 55.0475 51.6191C55.5022 52.0738 55.7576 52.6904 55.7576 53.3333H53.3333V50.9091Z" fill="#364C9B"/>
<path d="M60.6061 52.1212C60.6061 51.7997 60.7338 51.4914 60.9611 51.2641C61.1884 51.0368 61.4967 50.9091 61.8182 50.9091C62.1397 50.9091 62.448 51.0368 62.6753 51.2641C62.9026 51.4914 63.0303 51.7997 63.0303 52.1212V53.3333H60.6061V52.1212Z" fill="#364C9B"/>
<path d="M65.4546 50.9091H67.8788V53.3333H65.4546V50.9091Z" fill="#364C9B"/>
<path d="M70.303 53.3333C70.303 52.6904 70.5584 52.0738 71.0131 51.6191C71.4677 51.1645 72.0843 50.9091 72.7273 50.9091V53.3333H70.303Z" fill="#364C9B"/>
<path d="M72.7273 53.3333C73.3702 53.3333 73.9868 53.0779 74.4415 52.6233C74.8961 52.1687 75.1515 51.552 75.1515 50.9091H72.7273V53.3333Z" fill="#364C9B"/>
<path d="M6.06061 53.3333C5.73913 53.3333 5.43083 53.461 5.20351 53.6884C4.97619 53.9157 4.84849 54.224 4.84849 54.5455C4.84849 54.8669 4.97619 55.1752 5.20351 55.4025C5.43083 55.6299 5.73913 55.7576 6.06061 55.7576H7.27273V53.3333H6.06061Z" fill="#364C9B"/>
<path d="M8.48485 53.3333C8.80633 53.3333 9.11463 53.461 9.34195 53.6884C9.56927 53.9157 9.69697 54.224 9.69697 54.5455C9.69697 54.8669 9.56927 55.1752 9.34195 55.4025C9.11463 55.6299 8.80633 55.7576 8.48485 55.7576H7.27273V53.3333H8.48485Z" fill="#364C9B"/>
<path d="M13.3333 53.3333C13.0119 53.3333 12.7036 53.461 12.4762 53.6884C12.2489 53.9157 12.1212 54.224 12.1212 54.5455C12.1212 54.8669 12.2489 55.1752 12.4762 55.4025C12.7036 55.6299 13.0119 55.7576 13.3333 55.7576H14.5455V53.3333H13.3333Z" fill="#364C9B"/>
<path d="M15.7576 53.3333C16.0791 53.3333 16.3874 53.461 16.6147 53.6884C16.842 53.9157 16.9697 54.224 16.9697 54.5455C16.9697 54.8669 16.842 55.1752 16.6147 55.4025C16.3874 55.6299 16.0791 55.7576 15.7576 55.7576H14.5455V53.3333H15.7576Z" fill="#364C9B"/>
<path d="M20.6061 53.3333C20.9275 53.3333 21.2358 53.461 21.4632 53.6884C21.6905 53.9157 21.8182 54.224 21.8182 54.5455C21.8182 54.8669 21.6905 55.1752 21.4632 55.4025C21.2358 55.6299 20.9275 55.7576 20.6061 55.7576C20.2846 55.7576 19.9763 55.6299 19.749 55.4025C19.5216 55.1752 19.3939 54.8669 19.3939 54.5455C19.3939 54.224 19.5216 53.9157 19.749 53.6884C19.9763 53.461 20.2846 53.3333 20.6061 53.3333Z" fill="#364C9B"/>
<path d="M24.2424 53.3333H26.6667V55.7576H24.2424V53.3333Z" fill="#364C9B"/>
<path d="M26.6667 53.3333H29.0909V55.7576H26.6667V53.3333Z" fill="#364C9B"/>
<path d="M29.0909 53.3333H31.5152V55.7576H29.0909V53.3333Z" fill="#364C9B"/>
<path d="M31.5152 53.3333C32.1581 53.3333 32.7747 53.5887 33.2294 54.0434C33.684 54.498 33.9394 55.1146 33.9394 55.7576H31.5152V53.3333Z" fill="#364C9B"/>
<path d="M43.6364 53.3333H46.0606V55.7576H43.6364V53.3333Z" fill="#364C9B"/>
<path d="M49.697 53.3333C50.0184 53.3333 50.3268 53.461 50.5541 53.6884C50.7814 53.9157 50.9091 54.224 50.9091 54.5455C50.9091 54.8669 50.7814 55.1752 50.5541 55.4025C50.3268 55.6299 50.0184 55.7576 49.697 55.7576C49.3755 55.7576 49.0672 55.6299 48.8399 55.4025C48.6126 55.1752 48.4849 54.8669 48.4849 54.5455C48.4849 54.224 48.6126 53.9157 48.8399 53.6884C49.0672 53.461 49.3755 53.3333 49.697 53.3333Z" fill="#364C9B"/>
<path d="M53.3333 53.3333H55.7576V55.7576H53.3333V53.3333Z" fill="#364C9B"/>
<path d="M55.7576 53.3333H58.1818V55.7576H55.7576V53.3333Z" fill="#364C9B"/>
<path d="M58.1818 53.3333H60.6061V55.7576H58.1818V53.3333Z" fill="#364C9B"/>
<path d="M60.6061 53.3333H63.0303V55.7576H60.6061V53.3333Z" fill="#364C9B"/>
<path d="M63.0303 53.3333H65.4546V55.7576H63.0303V53.3333Z" fill="#364C9B"/>
<path d="M65.4546 55.7576C66.0975 55.7576 66.7141 55.5022 67.1688 55.0475C67.6234 54.5929 67.8788 53.9763 67.8788 53.3333H65.4546V55.7576Z" fill="#364C9B"/>
<path d="M70.303 54.5455C70.303 54.8669 70.4307 55.1752 70.6581 55.4025C70.8854 55.6299 71.1937 55.7576 71.5152 55.7576C71.8366 55.7576 72.1449 55.6299 72.3723 55.4025C72.5996 55.1752 72.7273 54.8669 72.7273 54.5455V53.3333H70.303V54.5455Z" fill="#364C9B"/>
<path d="M24.2424 55.7576H26.6667V58.1818H24.2424V55.7576Z" fill="#364C9B"/>
<path d="M29.0909 55.7576H31.5152V58.1818H29.0909V55.7576Z" fill="#364C9B"/>
<path d="M31.5152 55.7576H33.9394V58.1818H31.5152V55.7576Z" fill="#364C9B"/>
<path d="M33.9394 55.7576C34.5823 55.7576 35.199 56.013 35.6536 56.4676C36.1082 56.9223 36.3636 57.5389 36.3636 58.1818H33.9394V55.7576Z" fill="#364C9B"/>
<path d="M42.4242 55.7576C42.1028 55.7576 41.7945 55.8853 41.5671 56.1126C41.3398 56.3399 41.2121 56.6482 41.2121 56.9697C41.2121 57.2912 41.3398 57.5995 41.5671 57.8268C41.7945 58.0541 42.1028 58.1818 42.4242 58.1818H43.6364V55.7576H42.4242Z" fill="#364C9B"/>
<path d="M43.6364 55.7576H46.0606V58.1818H43.6364V55.7576Z" fill="#364C9B"/>
<path d="M53.3333 55.7576H55.7576V58.1818H53.3333V55.7576Z" fill="#364C9B"/>
<path d="M63.0303 55.7576H65.4546V58.1818H63.0303V55.7576Z" fill="#364C9B"/>
<path d="M69.0909 55.7576C69.4124 55.7576 69.7207 55.8853 69.948 56.1126C70.1753 56.3399 70.303 56.6482 70.303 56.9697C70.303 57.2912 70.1753 57.5995 69.948 57.8268C69.7207 58.0541 69.4124 58.1818 69.0909 58.1818C68.7694 58.1818 68.4611 58.0541 68.2338 57.8268C68.0065 57.5995 67.8788 57.2912 67.8788 56.9697C67.8788 56.6482 68.0065 56.3399 68.2338 56.1126C68.4611 55.8853 68.7694 55.7576 69.0909 55.7576Z" fill="#364C9B"/>
<path d="M72.7273 56.9697C72.7273 56.6482 72.855 56.3399 73.0823 56.1126C73.3096 55.8853 73.6179 55.7576 73.9394 55.7576C74.2609 55.7576 74.5692 55.8853 74.7965 56.1126C75.0238 56.3399 75.1515 56.6482 75.1515 56.9697V58.1818H72.7273V56.9697Z" fill="#364C9B"/>
<path d="M4.84849 60.6061C4.84849 59.9631 5.1039 59.3465 5.55853 58.8919C6.01317 58.4372 6.62978 58.1818 7.27273 58.1818V60.6061H4.84849Z" fill="#364C9B"/>
<path d="M7.27273 58.1818H9.69697V60.6061H7.27273V58.1818Z" fill="#364C9B"/>
<path d="M9.69697 58.1818H12.1212V60.6061H9.69697V58.1818Z" fill="#364C9B"/>
<path d="M12.1212 58.1818H14.5455V60.6061H12.1212V58.1818Z" fill="#364C9B"/>
<path d="M14.5455 58.1818H16.9697V60.6061H14.5455V58.1818Z" fill="#364C9B"/>
<path d="M16.9697 58.1818H19.3939V60.6061H16.9697V58.1818Z" fill="#364C9B"/>
<path d="M19.3939 58.1818C20.0369 58.1818 20.6535 58.4372 21.1081 58.8919C21.5628 59.3465 21.8182 59.9631 21.8182 60.6061H19.3939V58.1818Z" fill="#364C9B"/>
<path d="M24.2424 58.1818H26.6667V60.6061H24.2424V58.1818Z" fill="#364C9B"/>
<path d="M29.0909 58.1818H31.5152V60.6061H29.0909V58.1818Z" fill="#364C9B"/>
<path d="M31.5152 58.1818H33.9394V60.6061H31.5152V58.1818Z" fill="#364C9B"/>
<path d="M33.9394 58.1818H36.3636V60.6061H33.9394V58.1818Z" fill="#364C9B"/>
<path d="M36.3636 58.1818H38.7879V60.6061H36.3636V58.1818Z" fill="#364C9B"/>
<path d="M40 58.1818C40.3215 58.1818 40.6298 58.3095 40.8571 58.5368C41.0844 58.7642 41.2121 59.0725 41.2121 59.3939C41.2121 59.7154 41.0844 60.0237 40.8571 60.251C40.6298 60.4784 40.3215 60.6061 40 60.6061H38.7879V58.1818H40Z" fill="#364C9B"/>
<path d="M43.6364 59.3939C43.6364 59.7154 43.7641 60.0237 43.9914 60.251C44.2187 60.4784 44.527 60.6061 44.8485 60.6061C45.17 60.6061 45.4783 60.4784 45.7056 60.251C45.9329 60.0237 46.0606 59.7154 46.0606 59.3939V58.1818H43.6364V59.3939Z" fill="#364C9B"/>
<path d="M48.4849 60.6061C48.4849 59.9631 48.7403 59.3465 49.1949 58.8919C49.6495 58.4372 50.2661 58.1818 50.9091 58.1818V60.6061H48.4849Z" fill="#364C9B"/>
<path d="M50.9091 58.1818H53.3333V60.6061H50.9091V58.1818Z" fill="#364C9B"/>
<path d="M53.3333 58.1818H55.7576V60.6061H53.3333V58.1818Z" fill="#364C9B"/>
<path d="M59.3939 58.1818C59.7154 58.1818 60.0237 58.3095 60.251 58.5368C60.4784 58.7642 60.6061 59.0725 60.6061 59.3939C60.6061 59.7154 60.4784 60.0237 60.251 60.251C60.0237 60.4784 59.7154 60.6061 59.3939 60.6061C59.0725 60.6061 58.7642 60.4784 58.5368 60.251C58.3095 60.0237 58.1818 59.7154 58.1818 59.3939C58.1818 59.0725 58.3095 58.7642 58.5368 58.5368C58.7642 58.3095 59.0725 58.1818 59.3939 58.1818Z" fill="#364C9B"/>
<path d="M63.0303 58.1818H65.4546V60.6061H63.0303V58.1818Z" fill="#364C9B"/>
<path d="M71.5152 58.1818C71.1937 58.1818 70.8854 58.3095 70.6581 58.5368C70.4307 58.7642 70.303 59.0725 70.303 59.3939C70.303 59.7154 70.4307 60.0237 70.6581 60.251C70.8854 60.4784 71.1937 60.6061 71.5152 60.6061H72.7273V58.1818H71.5152Z" fill="#364C9B"/>
<path d="M72.7273 58.1818H75.1515V60.6061H72.7273V58.1818Z" fill="#364C9B"/>
<path d="M4.84849 60.6061H7.27273V63.0303H4.84849V60.6061Z" fill="#364C9B"/>
<path d="M19.3939 60.6061H21.8182V63.0303H19.3939V60.6061Z" fill="#364C9B"/>
<path d="M24.2424 60.6061H26.6667V63.0303H24.2424V60.6061Z" fill="#364C9B"/>
<path d="M26.6667 60.6061H29.0909V63.0303H26.6667V60.6061Z" fill="#364C9B"/>
<path d="M29.0909 60.6061H31.5152V63.0303H29.0909V60.6061Z" fill="#364C9B"/>
<path d="M31.5152 60.6061H33.9394V63.0303H31.5152V60.6061Z" fill="#364C9B"/>
<path d="M33.9394 63.0303C34.5823 63.0303 35.199 62.7749 35.6536 62.3203C36.1082 61.8656 36.3636 61.249 36.3636 60.6061H33.9394V63.0303Z" fill="#364C9B"/>
<path d="M48.4849 60.6061C48.4849 61.249 48.7403 61.8656 49.1949 62.3203C49.6495 62.7749 50.2661 63.0303 50.9091 63.0303V60.6061H48.4849Z" fill="#364C9B"/>
<path d="M50.9091 60.6061H53.3333V63.0303H50.9091V60.6061Z" fill="#364C9B"/>
<path d="M53.3333 60.6061H55.7576V63.0303H53.3333V60.6061Z" fill="#364C9B"/>
<path d="M63.0303 60.6061H65.4546V63.0303H63.0303V60.6061Z" fill="#364C9B"/>
<path d="M66.6667 60.6061C66.9881 60.6061 67.2965 60.7338 67.5238 60.9611C67.7511 61.1884 67.8788 61.4967 67.8788 61.8182C67.8788 62.1397 67.7511 62.448 67.5238 62.6753C67.2965 62.9026 66.9881 63.0303 66.6667 63.0303H65.4546V60.6061H66.6667Z" fill="#364C9B"/>
<path d="M72.7273 61.8182C72.7273 62.1397 72.855 62.448 73.0823 62.6753C73.3096 62.9026 73.6179 63.0303 73.9394 63.0303C74.2609 63.0303 74.5692 62.9026 74.7965 62.6753C75.0238 62.448 75.1515 62.1397 75.1515 61.8182V60.6061H72.7273V61.8182Z" fill="#364C9B"/>
<path d="M4.84849 63.0303H7.27273V65.4545H4.84849V63.0303Z" fill="#364C9B"/>
<path d="M9.69697 65.4545C9.69697 64.8116 9.95238 64.195 10.407 63.7403C10.8617 63.2857 11.4783 63.0303 12.1212 63.0303V65.4545H9.69697Z" fill="#364C9B"/>
<path d="M12.1212 63.0303H14.5455V65.4545H12.1212V63.0303Z" fill="#364C9B"/>
<path d="M14.5455 63.0303C15.1884 63.0303 15.805 63.2857 16.2597 63.7403C16.7143 64.195 16.9697 64.8116 16.9697 65.4545H14.5455V63.0303Z" fill="#364C9B"/>
<path d="M19.3939 63.0303H21.8182V65.4545H19.3939V63.0303Z" fill="#364C9B"/>
<path d="M24.2424 63.0303C24.2424 63.6732 24.4978 64.2899 24.9525 64.7445C25.4071 65.1991 26.0237 65.4545 26.6667 65.4545V63.0303H24.2424Z" fill="#364C9B"/>
<path d="M26.6667 65.4545C27.3096 65.4545 27.9262 65.1991 28.3809 64.7445C28.8355 64.2899 29.0909 63.6732 29.0909 63.0303H26.6667V65.4545Z" fill="#364C9B"/>
<path d="M31.5152 63.0303H33.9394V65.4545H31.5152V63.0303Z" fill="#364C9B"/>
<path d="M40 63.0303C39.6785 63.0303 39.3702 63.158 39.1429 63.3853C38.9156 63.6126 38.7879 63.9209 38.7879 64.2424C38.7879 64.5639 38.9156 64.8722 39.1429 65.0995C39.3702 65.3268 39.6785 65.4545 40 65.4545H41.2121V63.0303H40Z" fill="#364C9B"/>
<path d="M41.2121 63.0303H43.6364V65.4545H41.2121V63.0303Z" fill="#364C9B"/>
<path d="M43.6364 63.0303H46.0606V65.4545H43.6364V63.0303Z" fill="#364C9B"/>
<path d="M46.0606 63.0303C46.7036 63.0303 47.3202 63.2857 47.7748 63.7403C48.2294 64.195 48.4849 64.8116 48.4849 65.4545H46.0606V63.0303Z" fill="#364C9B"/>
<path d="M50.9091 63.0303C50.9091 63.6732 51.1645 64.2899 51.6191 64.7445C52.0738 65.1991 52.6904 65.4545 53.3333 65.4545V63.0303H50.9091Z" fill="#364C9B"/>
<path d="M53.3333 63.0303H55.7576V65.4545H53.3333V63.0303Z" fill="#364C9B"/>
<path d="M55.7576 63.0303H58.1818V65.4545H55.7576V63.0303Z" fill="#364C9B"/>
<path d="M58.1818 63.0303H60.6061V65.4545H58.1818V63.0303Z" fill="#364C9B"/>
<path d="M60.6061 63.0303H63.0303V65.4545H60.6061V63.0303Z" fill="#364C9B"/>
<path d="M63.0303 65.4545C63.6733 65.4545 64.2899 65.1991 64.7445 64.7445C65.1991 64.2899 65.4546 63.6732 65.4546 63.0303H63.0303V65.4545Z" fill="#364C9B"/>
<path d="M70.303 64.2424C70.303 63.9209 70.4307 63.6126 70.6581 63.3853C70.8854 63.158 71.1937 63.0303 71.5152 63.0303C71.8366 63.0303 72.1449 63.158 72.3723 63.3853C72.5996 63.6126 72.7273 63.9209 72.7273 64.2424V65.4545H70.303V64.2424Z" fill="#364C9B"/>
<path d="M4.84849 65.4545H7.27273V67.8788H4.84849V65.4545Z" fill="#364C9B"/>
<path d="M9.69697 65.4545H12.1212V67.8788H9.69697V65.4545Z" fill="#364C9B"/>
<path d="M12.1212 65.4545H14.5455V67.8788H12.1212V65.4545Z" fill="#364C9B"/>
<path d="M14.5455 65.4545H16.9697V67.8788H14.5455V65.4545Z" fill="#364C9B"/>
<path d="M19.3939 65.4545H21.8182V67.8788H19.3939V65.4545Z" fill="#364C9B"/>
<path d="M30.303 65.4545C29.9816 65.4545 29.6733 65.5822 29.4459 65.8096C29.2186 66.0369 29.0909 66.3452 29.0909 66.6667C29.0909 66.9881 29.2186 67.2964 29.4459 67.5238C29.6733 67.7511 29.9816 67.8788 30.303 67.8788H31.5152V65.4545H30.303Z" fill="#364C9B"/>
<path d="M31.5152 67.8788C32.1581 67.8788 32.7747 67.6234 33.2294 67.1687C33.684 66.7141 33.9394 66.0975 33.9394 65.4545H31.5152V67.8788Z" fill="#364C9B"/>
<path d="M37.5758 65.4545C37.8972 65.4545 38.2055 65.5822 38.4329 65.8096C38.6602 66.0369 38.7879 66.3452 38.7879 66.6667C38.7879 66.9881 38.6602 67.2964 38.4329 67.5238C38.2055 67.7511 37.8972 67.8788 37.5758 67.8788C37.2543 67.8788 36.946 67.7511 36.7187 67.5238C36.4913 67.2964 36.3636 66.9881 36.3636 66.6667C36.3636 66.3452 36.4913 66.0369 36.7187 65.8096C36.946 65.5822 37.2543 65.4545 37.5758 65.4545Z" fill="#364C9B"/>
<path d="M46.0606 66.6667C46.0606 66.9881 46.1883 67.2964 46.4156 67.5238C46.6429 67.7511 46.9513 67.8788 47.2727 67.8788C47.5942 67.8788 47.9025 67.7511 48.1298 67.5238C48.3571 67.2964 48.4849 66.9881 48.4849 66.6667V65.4545H46.0606V66.6667Z" fill="#364C9B"/>
<path d="M60.6061 66.6667C60.6061 66.9881 60.7338 67.2964 60.9611 67.5238C61.1884 67.7511 61.4967 67.8788 61.8182 67.8788C62.1397 67.8788 62.448 67.7511 62.6753 67.5238C62.9026 67.2964 63.0303 66.9881 63.0303 66.6667V65.4545H60.6061V66.6667Z" fill="#364C9B"/>
<path d="M70.303 65.4545H72.7273V67.8788H70.303V65.4545Z" fill="#364C9B"/>
<path d="M4.84849 67.8788H7.27273V70.303H4.84849V67.8788Z" fill="#364C9B"/>
<path d="M9.69697 67.8788C9.69697 68.5217 9.95238 69.1384 10.407 69.593C10.8617 70.0476 11.4783 70.303 12.1212 70.303V67.8788H9.69697Z" fill="#364C9B"/>
<path d="M12.1212 67.8788H14.5455V70.303H12.1212V67.8788Z" fill="#364C9B"/>
<path d="M14.5455 70.303C15.1884 70.303 15.805 70.0476 16.2597 69.593C16.7143 69.1384 16.9697 68.5217 16.9697 67.8788H14.5455V70.303Z" fill="#364C9B"/>
<path d="M19.3939 67.8788H21.8182V70.303H19.3939V67.8788Z" fill="#364C9B"/>
<path d="M27.8788 67.8788C28.2003 67.8788 28.5086 68.0065 28.7359 68.2338C28.9632 68.4611 29.0909 68.7694 29.0909 69.0909C29.0909 69.4124 28.9632 69.7207 28.7359 69.948C28.5086 70.1753 28.2003 70.303 27.8788 70.303C27.5573 70.303 27.249 70.1753 27.0217 69.948C26.7944 69.7207 26.6667 69.4124 26.6667 69.0909C26.6667 68.7694 26.7944 68.4611 27.0217 68.2338C27.249 68.0065 27.5573 67.8788 27.8788 67.8788Z" fill="#364C9B"/>
<path d="M41.2121 70.303C41.2121 69.6601 41.4675 69.0435 41.9222 68.5888C42.3768 68.1342 42.9934 67.8788 43.6364 67.8788V70.303H41.2121Z" fill="#364C9B"/>
<path d="M43.6364 67.8788C44.2793 67.8788 44.8959 68.1342 45.3506 68.5888C45.8052 69.0435 46.0606 69.6601 46.0606 70.303H43.6364V67.8788Z" fill="#364C9B"/>
<path d="M48.4849 70.303C48.4849 69.6601 48.7403 69.0435 49.1949 68.5888C49.6495 68.1342 50.2661 67.8788 50.9091 67.8788V70.303H48.4849Z" fill="#364C9B"/>
<path d="M50.9091 67.8788H53.3333V70.303H50.9091V67.8788Z" fill="#364C9B"/>
<path d="M53.3333 67.8788H55.7576V70.303H53.3333V67.8788Z" fill="#364C9B"/>
<path d="M55.7576 67.8788C56.4005 67.8788 57.0171 68.1342 57.4718 68.5888C57.9264 69.0435 58.1818 69.6601 58.1818 70.303H55.7576V67.8788Z" fill="#364C9B"/>
<path d="M69.0909 67.8788C68.7694 67.8788 68.4611 68.0065 68.2338 68.2338C68.0065 68.4611 67.8788 68.7694 67.8788 69.0909C67.8788 69.4124 68.0065 69.7207 68.2338 69.948C68.4611 70.1753 68.7694 70.303 69.0909 70.303H70.303V67.8788H69.0909Z" fill="#364C9B"/>
<path d="M70.303 67.8788H72.7273V70.303H70.303V67.8788Z" fill="#364C9B"/>
<path d="M72.7273 67.8788C73.3702 67.8788 73.9868 68.1342 74.4415 68.5888C74.8961 69.0435 75.1515 69.6601 75.1515 70.303H72.7273V67.8788Z" fill="#364C9B"/>
<path d="M4.84849 70.303H7.27273V72.7273H4.84849V70.303Z" fill="#364C9B"/>
<path d="M19.3939 70.303H21.8182V72.7273H19.3939V70.303Z" fill="#364C9B"/>
<path d="M36.3636 71.5152C36.3636 71.1937 36.4913 70.8854 36.7187 70.6581C36.946 70.4307 37.2543 70.303 37.5758 70.303C37.8972 70.303 38.2055 70.4307 38.4329 70.6581C38.6602 70.8854 38.7879 71.1937 38.7879 71.5152V72.7273H36.3636V71.5152Z" fill="#364C9B"/>
<path d="M41.2121 70.303H43.6364V72.7273H41.2121V70.303Z" fill="#364C9B"/>
<path d="M43.6364 72.7273C44.2793 72.7273 44.8959 72.4719 45.3506 72.0172C45.8052 71.5626 46.0606 70.946 46.0606 70.303H43.6364V72.7273Z" fill="#364C9B"/>
<path d="M48.4849 71.5152C48.4849 71.8366 48.6126 72.1449 48.8399 72.3722C49.0672 72.5996 49.3755 72.7273 49.697 72.7273C50.0184 72.7273 50.3268 72.5996 50.5541 72.3722C50.7814 72.1449 50.9091 71.8366 50.9091 71.5152V70.303H48.4849V71.5152Z" fill="#364C9B"/>
<path d="M55.7576 70.303H58.1818V72.7273H55.7576V70.303Z" fill="#364C9B"/>
<path d="M61.8182 70.303C62.1397 70.303 62.448 70.4307 62.6753 70.6581C62.9026 70.8854 63.0303 71.1937 63.0303 71.5152C63.0303 71.8366 62.9026 72.1449 62.6753 72.3722C62.448 72.5996 62.1397 72.7273 61.8182 72.7273C61.4967 72.7273 61.1884 72.5996 60.9611 72.3722C60.7338 72.1449 60.6061 71.8366 60.6061 71.5152C60.6061 71.1937 60.7338 70.8854 60.9611 70.6581C61.1884 70.4307 61.4967 70.303 61.8182 70.303Z" fill="#364C9B"/>
<path d="M66.6667 70.303C66.9881 70.303 67.2965 70.4307 67.5238 70.6581C67.7511 70.8854 67.8788 71.1937 67.8788 71.5152C67.8788 71.8366 67.7511 72.1449 67.5238 72.3722C67.2965 72.5996 66.9881 72.7273 66.6667 72.7273C66.3452 72.7273 66.0369 72.5996 65.8096 72.3722C65.5823 72.1449 65.4546 71.8366 65.4546 71.5152C65.4546 71.1937 65.5823 70.8854 65.8096 70.6581C66.0369 70.4307 66.3452 70.303 66.6667 70.303Z" fill="#364C9B"/>
<path d="M70.303 70.303H72.7273V72.7273H70.303V70.303Z" fill="#364C9B"/>
<path d="M72.7273 72.7273C73.3702 72.7273 73.9868 72.4719 74.4415 72.0172C74.8961 71.5626 75.1515 70.946 75.1515 70.303H72.7273V72.7273Z" fill="#364C9B"/>
<path d="M4.84849 72.7273C4.84849 73.3702 5.1039 73.9868 5.55853 74.4415C6.01317 74.8961 6.62978 75.1515 7.27273 75.1515V72.7273H4.84849Z" fill="#364C9B"/>
<path d="M7.27273 72.7273H9.69697V75.1515H7.27273V72.7273Z" fill="#364C9B"/>
<path d="M9.69697 72.7273H12.1212V75.1515H9.69697V72.7273Z" fill="#364C9B"/>
<path d="M12.1212 72.7273H14.5455V75.1515H12.1212V72.7273Z" fill="#364C9B"/>
<path d="M14.5455 72.7273H16.9697V75.1515H14.5455V72.7273Z" fill="#364C9B"/>
<path d="M16.9697 72.7273H19.3939V75.1515H16.9697V72.7273Z" fill="#364C9B"/>
<path d="M19.3939 75.1515C20.0369 75.1515 20.6535 74.8961 21.1081 74.4415C21.5628 73.9868 21.8182 73.3702 21.8182 72.7273H19.3939V75.1515Z" fill="#364C9B"/>
<path d="M30.303 72.7273C30.6245 72.7273 30.9328 72.855 31.1601 73.0823C31.3875 73.3096 31.5152 73.6179 31.5152 73.9394C31.5152 74.2609 31.3875 74.5692 31.1601 74.7965C30.9328 75.0238 30.6245 75.1515 30.303 75.1515C29.9816 75.1515 29.6733 75.0238 29.4459 74.7965C29.2186 74.5692 29.0909 74.2609 29.0909 73.9394C29.0909 73.6179 29.2186 73.3096 29.4459 73.0823C29.6733 72.855 29.9816 72.7273 30.303 72.7273Z" fill="#364C9B"/>
<path d="M36.3636 72.7273C36.3636 73.3702 36.6191 73.9868 37.0737 74.4415C37.5283 74.8961 38.1449 75.1515 38.7879 75.1515V72.7273H36.3636Z" fill="#364C9B"/>
<path d="M38.7879 72.7273H41.2121V75.1515H38.7879V72.7273Z" fill="#364C9B"/>
<path d="M41.2121 75.1515C41.8551 75.1515 42.4717 74.8961 42.9263 74.4415C43.381 73.9868 43.6364 73.3702 43.6364 72.7273H41.2121V75.1515Z" fill="#364C9B"/>
<path d="M47.2727 72.7273C47.5942 72.7273 47.9025 72.855 48.1298 73.0823C48.3571 73.3096 48.4849 73.6179 48.4849 73.9394C48.4849 74.2609 48.3571 74.5692 48.1298 74.7965C47.9025 75.0238 47.5942 75.1515 47.2727 75.1515C46.9513 75.1515 46.6429 75.0238 46.4156 74.7965C46.1883 74.5692 46.0606 74.2609 46.0606 73.9394C46.0606 73.6179 46.1883 73.3096 46.4156 73.0823C46.6429 72.855 46.9513 72.7273 47.2727 72.7273Z" fill="#364C9B"/>
<path d="M52.1212 72.7273C51.7997 72.7273 51.4914 72.855 51.2641 73.0823C51.0368 73.3096 50.9091 73.6179 50.9091 73.9394C50.9091 74.2609 51.0368 74.5692 51.2641 74.7965C51.4914 75.0238 51.7997 75.1515 52.1212 75.1515H53.3333V72.7273H52.1212Z" fill="#364C9B"/>
<path d="M53.3333 72.7273H55.7576V75.1515H53.3333V72.7273Z" fill="#364C9B"/>
<path d="M55.7576 72.7273H58.1818V75.1515H55.7576V72.7273Z" fill="#364C9B"/>
<path d="M59.3939 72.7273C59.7154 72.7273 60.0237 72.855 60.251 73.0823C60.4784 73.3096 60.6061 73.6179 60.6061 73.9394C60.6061 74.2609 60.4784 74.5692 60.251 74.7965C60.0237 75.0238 59.7154 75.1515 59.3939 75.1515H58.1818V72.7273H59.3939Z" fill="#364C9B"/>
<path d="M64.2424 72.7273C64.5639 72.7273 64.8722 72.855 65.0995 73.0823C65.3268 73.3096 65.4546 73.6179 65.4546 73.9394C65.4546 74.2609 65.3268 74.5692 65.0995 74.7965C64.8722 75.0238 64.5639 75.1515 64.2424 75.1515C63.921 75.1515 63.6126 75.0238 63.3853 74.7965C63.158 74.5692 63.0303 74.2609 63.0303 73.9394C63.0303 73.6179 63.158 73.3096 63.3853 73.0823C63.6126 72.855 63.921 72.7273 64.2424 72.7273Z" fill="#364C9B"/>
<path d="M70.303 73.9394C70.303 74.2609 70.4307 74.5692 70.6581 74.7965C70.8854 75.0238 71.1937 75.1515 71.5152 75.1515C71.8366 75.1515 72.1449 75.0238 72.3723 74.7965C72.5996 74.5692 72.7273 74.2609 72.7273 73.9394V72.7273H70.303V73.9394Z" fill="#364C9B"/>
</svg>
