<svg width="350" height="350" viewBox="0 0 64 64" fill="none" xmlns="http://www.w3.org/2000/svg">
<path d="M21.3333 15.3333C20.24 15.3333 19.3333 14.4267 19.3333 13.3333V5.33333C19.3333 4.24 20.24 3.33333 21.3333 3.33333C22.4267 3.33333 23.3333 4.24 23.3333 5.33333V13.3333C23.3333 14.4267 22.4267 15.3333 21.3333 15.3333ZM42.6667 15.3333C41.5733 15.3333 40.6667 14.4267 40.6667 13.3333V5.33333C40.6667 4.24 41.5733 3.33333 42.6667 3.33333C43.76 3.33333 44.6667 4.24 44.6667 5.33333V13.3333C44.6667 14.4267 43.76 15.3333 42.6667 15.3333ZM22.6667 38.6613C22.32 38.6613 21.9733 38.5813 21.6533 38.448C21.3067 38.3147 21.04 38.128 20.7733 37.888C20.2933 37.3813 20 36.7147 20 35.9947C20 35.648 20.08 35.3013 20.2133 34.9813C20.3467 34.6613 20.5333 34.368 20.7733 34.1013C21.04 33.8613 21.3067 33.6747 21.6533 33.5413C22.6133 33.1413 23.8133 33.3547 24.56 34.1013C25.04 34.608 25.3333 35.3013 25.3333 35.9947C25.3333 36.1547 25.3067 36.3413 25.28 36.528C25.2533 36.688 25.2 36.848 25.12 37.008C25.0667 37.168 24.9867 37.328 24.88 37.488C24.8 37.6213 24.6667 37.7547 24.56 37.888C24.0533 38.368 23.36 38.6613 22.6667 38.6613ZM32 38.664C31.6533 38.664 31.3067 38.584 30.9867 38.4507C30.64 38.3173 30.3733 38.1307 30.1067 37.8907C29.6267 37.384 29.3333 36.7173 29.3333 35.9973C29.3333 35.6507 29.4133 35.304 29.5467 34.984C29.68 34.664 29.8667 34.3707 30.1067 34.104C30.3733 33.864 30.64 33.6773 30.9867 33.544C31.9467 33.1173 33.1467 33.3573 33.8933 34.104C34.3733 34.6107 34.6667 35.304 34.6667 35.9973C34.6667 36.1573 34.64 36.344 34.6133 36.5307C34.5867 36.6907 34.5333 36.8507 34.4533 37.0107C34.4 37.1707 34.32 37.3307 34.2133 37.4907C34.1333 37.624 34 37.7573 33.8933 37.8907C33.3867 38.3707 32.6933 38.664 32 38.664ZM41.3333 38.664C40.9867 38.664 40.64 38.584 40.32 38.4507C39.9733 38.3173 39.7067 38.1307 39.44 37.8907L39.12 37.4907C39.019 37.3421 38.9383 37.1806 38.88 37.0107C38.803 36.8596 38.749 36.6978 38.72 36.5307C38.6933 36.344 38.6667 36.1573 38.6667 35.9973C38.6667 35.304 38.96 34.6107 39.44 34.104C39.7067 33.864 39.9733 33.6773 40.32 33.544C41.3067 33.1173 42.48 33.3573 43.2267 34.104C43.7067 34.6107 44 35.304 44 35.9973C44 36.1573 43.9733 36.344 43.9467 36.5307C43.92 36.6907 43.8667 36.8507 43.7867 37.0107C43.7333 37.1707 43.6533 37.3307 43.5467 37.4907C43.4667 37.624 43.3333 37.7573 43.2267 37.8907C42.72 38.3707 42.0267 38.664 41.3333 38.664ZM22.6667 48C22.32 48 21.9733 47.92 21.6533 47.7867C21.3333 47.6533 21.04 47.4667 20.7733 47.2267C20.2933 46.72 20 46.0267 20 45.3333C20 44.9867 20.08 44.64 20.2133 44.32C20.3467 43.9733 20.5333 43.68 20.7733 43.44C21.76 42.4533 23.5733 42.4533 24.56 43.44C25.04 43.9467 25.3333 44.64 25.3333 45.3333C25.3333 46.0267 25.04 46.72 24.56 47.2267C24.0533 47.7067 23.36 48 22.6667 48ZM32 48C31.3067 48 30.6133 47.7067 30.1067 47.2267C29.6267 46.72 29.3333 46.0267 29.3333 45.3333C29.3333 44.9867 29.4133 44.64 29.5467 44.32C29.68 43.9733 29.8667 43.68 30.1067 43.44C31.0933 42.4533 32.9067 42.4533 33.8933 43.44C34.1333 43.68 34.32 43.9733 34.4533 44.32C34.5867 44.64 34.6667 44.9867 34.6667 45.3333C34.6667 46.0267 34.3733 46.72 33.8933 47.2267C33.3867 47.7067 32.6933 48 32 48ZM41.3333 48C40.64 48 39.9467 47.7067 39.44 47.2267C39.1933 46.9762 39.0024 46.6763 38.88 46.3467C38.743 46.0262 38.6705 45.6818 38.6667 45.3333C38.6667 44.9867 38.7467 44.64 38.88 44.32C39.0133 43.9733 39.2 43.68 39.44 43.44C40.0533 42.8267 40.9867 42.5333 41.84 42.72C42.0267 42.7467 42.1867 42.8 42.3467 42.88C42.5067 42.9333 42.6667 43.0133 42.8267 43.12C42.96 43.2 43.0933 43.3333 43.2267 43.44C43.7067 43.9467 44 44.64 44 45.3333C44 46.0267 43.7067 46.72 43.2267 47.2267C42.72 47.7067 42.0267 48 41.3333 48ZM54.6667 26.24H9.33334C8.24 26.24 7.33334 25.3333 7.33334 24.24C7.33334 23.1467 8.24 22.24 9.33334 22.24H54.6667C55.76 22.24 56.6667 23.1467 56.6667 24.24C56.6667 25.3333 55.76 26.24 54.6667 26.24Z" fill="#288EBA"/>
<path d="M42.6667 60.6667H21.3333C11.6 60.6667 6 55.0667 6 45.3333V22.6667C6 12.9333 11.6 7.33333 21.3333 7.33333H42.6667C52.4 7.33333 58 12.9333 58 22.6667V45.3333C58 55.0667 52.4 60.6667 42.6667 60.6667ZM21.3333 11.3333C13.7067 11.3333 10 15.04 10 22.6667V45.3333C10 52.96 13.7067 56.6667 21.3333 56.6667H42.6667C50.2933 56.6667 54 52.96 54 45.3333V22.6667C54 15.04 50.2933 11.3333 42.6667 11.3333H21.3333Z" fill="#288EBA"/>
</svg>
