<svg xmlns="http://www.w3.org/2000/svg" width="350" height="350" viewBox="0 0 64 64" fill="none">
<path d="M30.4 60.6667H20.2667C8.56001 60.6667 3.33334 55.44 3.33334 43.7333V33.6C3.33334 21.8933 8.56001 16.6667 20.2667 16.6667H28.2667C29.36 16.6667 30.2667 17.5733 30.2667 18.6667C30.2667 19.76 29.36 20.6667 28.2667 20.6667H20.2667C10.72 20.6667 7.33334 24.0533 7.33334 33.6V43.7333C7.33334 53.28 10.72 56.6667 20.2667 56.6667H30.4C39.9467 56.6667 43.3333 53.28 43.3333 43.7333V35.7333C43.3333 34.64 44.24 33.7333 45.3333 33.7333C46.4267 33.7333 47.3333 34.64 47.3333 35.7333V43.7333C47.3333 55.44 42.1067 60.6667 30.4 60.6667Z" fill="#288EBA"/>
<path d="M45.3333 37.7307H36.8C29.3067 37.7307 26.2667 34.6907 26.2667 27.1973V18.664C26.2667 17.864 26.7467 17.1173 27.4933 16.824C28.24 16.504 29.0933 16.6907 29.68 17.2507L46.7467 34.3173C47.3067 34.8773 47.4933 35.7573 47.1733 36.504C47.0242 36.8688 46.7692 37.1807 46.4413 37.3993C46.1134 37.6179 45.7275 37.7333 45.3333 37.7307ZM30.2667 23.4907V27.1973C30.2667 32.504 31.4933 33.7307 36.8 33.7307H40.5067L30.2667 23.4907ZM41.6 7.33333H30.9333C29.84 7.33333 28.9333 6.42667 28.9333 5.33333C28.9333 4.24 29.84 3.33333 30.9333 3.33333H41.6C42.6933 3.33333 43.6 4.24 43.6 5.33333C43.6 6.42667 42.6933 7.33333 41.6 7.33333Z" fill="#288EBA"/>
<path d="M18.6667 15.3333C17.5733 15.3333 16.6667 14.4267 16.6667 13.3333C16.6667 7.81333 21.1467 3.33333 26.6667 3.33333H33.6533C34.7467 3.33333 35.6533 4.24 35.6533 5.33333C35.6533 6.42667 34.7467 7.33333 33.6533 7.33333H26.6667C23.36 7.33333 20.6667 10.0267 20.6667 13.3333C20.6667 14.4267 19.76 15.3333 18.6667 15.3333ZM51.1733 47.3333C50.08 47.3333 49.1733 46.4267 49.1733 45.3333C49.1733 44.24 50.08 43.3333 51.1733 43.3333C54.2133 43.3333 56.6667 40.8533 56.6667 37.84V21.3333C56.6667 20.24 57.5733 19.3333 58.6667 19.3333C59.76 19.3333 60.6667 20.24 60.6667 21.3333V37.84C60.6667 43.0667 56.4 47.3333 51.1733 47.3333Z" fill="#288EBA"/>
<path d="M58.6667 23.3307H50.6667C43.5733 23.3307 40.6667 20.424 40.6667 13.3307V5.33067C40.6667 4.53067 41.1467 3.784 41.8933 3.49067C42.64 3.17067 43.4933 3.35733 44.08 3.91733L60.08 19.9173C60.64 20.4773 60.8267 21.3573 60.5067 22.104C60.3575 22.4688 60.1026 22.7807 59.7746 22.9993C59.4467 23.2179 59.0608 23.3333 58.6667 23.3307ZM44.6667 10.1573V13.3307C44.6667 18.2107 45.7867 19.3307 50.6667 19.3307H53.84L44.6667 10.1573Z" fill="#288EBA"/>
</svg>