<svg width="350" height="350" viewBox="0 0 80 80" fill="none" xmlns="http://www.w3.org/2000/svg">
    <path
        d="M4.84849 7.27272C4.84849 6.62977 5.1039 6.01316 5.55853 5.55852C6.01317 5.10389 6.62978 4.84848 7.27273 4.84848V7.27272H4.84849Z"
        fill="#288EBA"/>
    <path d="M7.27273 4.84848H9.69697V7.27272H7.27273V4.84848Z" fill="#288EBA"/>
    <path d="M9.69697 4.84848H12.1212V7.27272H9.69697V4.84848Z" fill="#288EBA"/>
    <path d="M12.1212 4.84848H14.5455V7.27272H12.1212V4.84848Z" fill="#288EBA"/>
    <path d="M14.5455 4.84848H16.9697V7.27272H14.5455V4.84848Z" fill="#288EBA"/>
    <path d="M16.9697 4.84848H19.3939V7.27272H16.9697V4.84848Z" fill="#288EBA"/>
    <path
        d="M19.3939 4.84848C20.0369 4.84848 20.6535 5.10389 21.1081 5.55852C21.5628 6.01316 21.8182 6.62977 21.8182 7.27272H19.3939V4.84848Z"
        fill="#288EBA"/>
    <path
        d="M25.4545 4.84848C25.776 4.84848 26.0843 4.97619 26.3116 5.2035C26.539 5.43082 26.6667 5.73913 26.6667 6.0606C26.6667 6.38208 26.539 6.69038 26.3116 6.9177C26.0843 7.14502 25.776 7.27272 25.4545 7.27272C25.1331 7.27272 24.8248 7.14502 24.5975 6.9177C24.3701 6.69038 24.2424 6.38208 24.2424 6.0606C24.2424 5.73913 24.3701 5.43082 24.5975 5.2035C24.8248 4.97619 25.1331 4.84848 25.4545 4.84848Z"
        fill="#288EBA"/>
    <path
        d="M31.5152 6.0606C31.5152 5.73913 31.6429 5.43082 31.8702 5.2035C32.0975 4.97619 32.4058 4.84848 32.7273 4.84848C33.0488 4.84848 33.3571 4.97619 33.5844 5.2035C33.8117 5.43082 33.9394 5.73913 33.9394 6.0606V7.27272H31.5152V6.0606Z"
        fill="#288EBA"/>
    <path
        d="M37.5758 4.84848C37.2543 4.84848 36.946 4.97619 36.7187 5.2035C36.4913 5.43082 36.3636 5.73913 36.3636 6.0606C36.3636 6.38208 36.4913 6.69038 36.7187 6.9177C36.946 7.14502 37.2543 7.27272 37.5758 7.27272H38.7879V4.84848H37.5758Z"
        fill="#288EBA"/>
    <path d="M38.7879 4.84848H41.2121V7.27272H38.7879V4.84848Z" fill="#288EBA"/>
    <path d="M41.2121 4.84848H43.6364V7.27272H41.2121V4.84848Z" fill="#288EBA"/>
    <path
        d="M43.6364 4.84848C44.2793 4.84848 44.8959 5.10389 45.3506 5.55852C45.8052 6.01316 46.0606 6.62977 46.0606 7.27272H43.6364V4.84848Z"
        fill="#288EBA"/>
    <path
        d="M49.697 4.84848C49.3755 4.84848 49.0672 4.97619 48.8399 5.2035C48.6126 5.43082 48.4849 5.73913 48.4849 6.0606C48.4849 6.38208 48.6126 6.69038 48.8399 6.9177C49.0672 7.14502 49.3755 7.27272 49.697 7.27272H50.9091V4.84848H49.697Z"
        fill="#288EBA"/>
    <path d="M50.9091 4.84848H53.3333V7.27272H50.9091V4.84848Z" fill="#288EBA"/>
    <path
        d="M53.3333 4.84848C53.9763 4.84848 54.5929 5.10389 55.0475 5.55852C55.5022 6.01316 55.7576 6.62977 55.7576 7.27272H53.3333V4.84848Z"
        fill="#288EBA"/>
    <path
        d="M58.1818 7.27272C58.1818 6.62977 58.4372 6.01316 58.8919 5.55852C59.3465 5.10389 59.9631 4.84848 60.6061 4.84848V7.27272H58.1818Z"
        fill="#288EBA"/>
    <path d="M60.6061 4.84848H63.0303V7.27272H60.6061V4.84848Z" fill="#288EBA"/>
    <path d="M63.0303 4.84848H65.4546V7.27272H63.0303V4.84848Z" fill="#288EBA"/>
    <path d="M65.4546 4.84848H67.8788V7.27272H65.4546V4.84848Z" fill="#288EBA"/>
    <path d="M67.8788 4.84848H70.303V7.27272H67.8788V4.84848Z" fill="#288EBA"/>
    <path d="M70.303 4.84848H72.7273V7.27272H70.303V4.84848Z" fill="#288EBA"/>
    <path
        d="M72.7273 4.84848C73.3702 4.84848 73.9868 5.10389 74.4415 5.55852C74.8961 6.01316 75.1515 6.62977 75.1515 7.27272H72.7273V4.84848Z"
        fill="#288EBA"/>
    <path d="M4.84849 7.27272H7.27273V9.69697H4.84849V7.27272Z" fill="#288EBA"/>
    <path d="M19.3939 7.27272H21.8182V9.69697H19.3939V7.27272Z" fill="#288EBA"/>
    <path
        d="M31.5152 8.48484C31.5152 8.80632 31.6429 9.11463 31.8702 9.34194C32.0975 9.56926 32.4058 9.69697 32.7273 9.69697C33.0488 9.69697 33.3571 9.56926 33.5844 9.34194C33.8117 9.11463 33.9394 8.80632 33.9394 8.48484V7.27272H31.5152V8.48484Z"
        fill="#288EBA"/>
    <path
        d="M38.7879 8.48484C38.7879 8.80632 38.9156 9.11463 39.1429 9.34194C39.3702 9.56926 39.6785 9.69697 40 9.69697C40.3215 9.69697 40.6298 9.56926 40.8571 9.34194C41.0844 9.11463 41.2121 8.80632 41.2121 8.48484V7.27272H38.7879V8.48484Z"
        fill="#288EBA"/>
    <path
        d="M43.6364 7.27272C43.6364 7.91567 43.8918 8.53229 44.3464 8.98692C44.801 9.44155 45.4177 9.69697 46.0606 9.69697V7.27272H43.6364Z"
        fill="#288EBA"/>
    <path
        d="M47.2727 7.27272C47.5942 7.27272 47.9025 7.40043 48.1298 7.62774C48.3571 7.85506 48.4849 8.16337 48.4849 8.48484C48.4849 8.80632 48.3571 9.11463 48.1298 9.34194C47.9025 9.56926 47.5942 9.69697 47.2727 9.69697H46.0606V7.27272H47.2727Z"
        fill="#288EBA"/>
    <path d="M53.3333 7.27272H55.7576V9.69697H53.3333V7.27272Z" fill="#288EBA"/>
    <path d="M58.1818 7.27272H60.6061V9.69697H58.1818V7.27272Z" fill="#288EBA"/>
    <path d="M72.7273 7.27272H75.1515V9.69697H72.7273V7.27272Z" fill="#288EBA"/>
    <path d="M4.84849 9.69697H7.27273V12.1212H4.84849V9.69697Z" fill="#288EBA"/>
    <path
        d="M9.69697 12.1212C9.69697 11.4783 9.95238 10.8616 10.407 10.407C10.8617 9.95238 11.4783 9.69697 12.1212 9.69697V12.1212H9.69697Z"
        fill="#288EBA"/>
    <path d="M12.1212 9.69697H14.5455V12.1212H12.1212V9.69697Z" fill="#288EBA"/>
    <path
        d="M14.5455 9.69697C15.1884 9.69697 15.805 9.95238 16.2597 10.407C16.7143 10.8616 16.9697 11.4783 16.9697 12.1212H14.5455V9.69697Z"
        fill="#288EBA"/>
    <path d="M19.3939 9.69697H21.8182V12.1212H19.3939V9.69697Z" fill="#288EBA"/>
    <path
        d="M25.4545 9.69697C25.1331 9.69697 24.8248 9.82467 24.5975 10.052C24.3701 10.2793 24.2424 10.5876 24.2424 10.9091C24.2424 11.2306 24.3701 11.5389 24.5975 11.7662C24.8248 11.9935 25.1331 12.1212 25.4545 12.1212H26.6667V9.69697H25.4545Z"
        fill="#288EBA"/>
    <path d="M26.6667 9.69697H29.0909V12.1212H26.6667V9.69697Z" fill="#288EBA"/>
    <path
        d="M29.0909 9.69697C29.7339 9.69697 30.3505 9.95238 30.8051 10.407C31.2597 10.8616 31.5152 11.4783 31.5152 12.1212H29.0909V9.69697Z"
        fill="#288EBA"/>
    <path
        d="M42.4242 9.69697C42.7457 9.69697 43.054 9.82467 43.2813 10.052C43.5087 10.2793 43.6364 10.5876 43.6364 10.9091C43.6364 11.2306 43.5087 11.5389 43.2813 11.7662C43.054 11.9935 42.7457 12.1212 42.4242 12.1212C42.1028 12.1212 41.7945 11.9935 41.5671 11.7662C41.3398 11.5389 41.2121 11.2306 41.2121 10.9091C41.2121 10.5876 41.3398 10.2793 41.5671 10.052C41.7945 9.82467 42.1028 9.69697 42.4242 9.69697Z"
        fill="#288EBA"/>
    <path
        d="M49.697 9.69697C49.3755 9.69697 49.0672 9.82467 48.8399 10.052C48.6126 10.2793 48.4849 10.5876 48.4849 10.9091C48.4849 11.2306 48.6126 11.5389 48.8399 11.7662C49.0672 11.9935 49.3755 12.1212 49.697 12.1212H50.9091V9.69697H49.697Z"
        fill="#288EBA"/>
    <path d="M50.9091 9.69697H53.3333V12.1212H50.9091V9.69697Z" fill="#288EBA"/>
    <path d="M53.3333 9.69697H55.7576V12.1212H53.3333V9.69697Z" fill="#288EBA"/>
    <path d="M58.1818 9.69697H60.6061V12.1212H58.1818V9.69697Z" fill="#288EBA"/>
    <path
        d="M63.0303 12.1212C63.0303 11.4783 63.2857 10.8616 63.7404 10.407C64.195 9.95238 64.8116 9.69697 65.4546 9.69697V12.1212H63.0303Z"
        fill="#288EBA"/>
    <path d="M65.4546 9.69697H67.8788V12.1212H65.4546V9.69697Z" fill="#288EBA"/>
    <path
        d="M67.8788 9.69697C68.5217 9.69697 69.1384 9.95238 69.593 10.407C70.0476 10.8616 70.303 11.4783 70.303 12.1212H67.8788V9.69697Z"
        fill="#288EBA"/>
    <path d="M72.7273 9.69697H75.1515V12.1212H72.7273V9.69697Z" fill="#288EBA"/>
    <path d="M4.84849 12.1212H7.27273V14.5455H4.84849V12.1212Z" fill="#288EBA"/>
    <path d="M9.69697 12.1212H12.1212V14.5455H9.69697V12.1212Z" fill="#288EBA"/>
    <path d="M12.1212 12.1212H14.5455V14.5455H12.1212V12.1212Z" fill="#288EBA"/>
    <path d="M14.5455 12.1212H16.9697V14.5455H14.5455V12.1212Z" fill="#288EBA"/>
    <path d="M19.3939 12.1212H21.8182V14.5455H19.3939V12.1212Z" fill="#288EBA"/>
    <path d="M26.6667 12.1212H29.0909V14.5455H26.6667V12.1212Z" fill="#288EBA"/>
    <path
        d="M29.0909 14.5455C29.7339 14.5455 30.3505 14.29 30.8051 13.8354C31.2597 13.3808 31.5152 12.7642 31.5152 12.1212H29.0909V14.5455Z"
        fill="#288EBA"/>
    <path
        d="M36.3636 14.5455C36.3636 13.9025 36.6191 13.2859 37.0737 12.8313C37.5283 12.3766 38.1449 12.1212 38.7879 12.1212V14.5455H36.3636Z"
        fill="#288EBA"/>
    <path
        d="M38.7879 12.1212C39.4308 12.1212 40.0474 12.3766 40.5021 12.8313C40.9567 13.2859 41.2121 13.9025 41.2121 14.5455H38.7879V12.1212Z"
        fill="#288EBA"/>
    <path
        d="M43.6364 14.5455C43.6364 13.9025 43.8918 13.2859 44.3464 12.8313C44.801 12.3766 45.4177 12.1212 46.0606 12.1212V14.5455H43.6364Z"
        fill="#288EBA"/>
    <path
        d="M46.0606 12.1212C46.7036 12.1212 47.3202 12.3766 47.7748 12.8313C48.2294 13.2859 48.4849 13.9025 48.4849 14.5455H46.0606V12.1212Z"
        fill="#288EBA"/>
    <path d="M50.9091 12.1212H53.3333V14.5455H50.9091V12.1212Z" fill="#288EBA"/>
    <path
        d="M53.3333 14.5455C53.9763 14.5455 54.5929 14.29 55.0475 13.8354C55.5022 13.3808 55.7576 12.7642 55.7576 12.1212H53.3333V14.5455Z"
        fill="#288EBA"/>
    <path d="M58.1818 12.1212H60.6061V14.5455H58.1818V12.1212Z" fill="#288EBA"/>
    <path d="M63.0303 12.1212H65.4546V14.5455H63.0303V12.1212Z" fill="#288EBA"/>
    <path d="M65.4546 12.1212H67.8788V14.5455H65.4546V12.1212Z" fill="#288EBA"/>
    <path d="M67.8788 12.1212H70.303V14.5455H67.8788V12.1212Z" fill="#288EBA"/>
    <path d="M72.7273 12.1212H75.1515V14.5455H72.7273V12.1212Z" fill="#288EBA"/>
    <path d="M4.84849 14.5455H7.27273V16.9697H4.84849V14.5455Z" fill="#288EBA"/>
    <path
        d="M9.69697 14.5455C9.69697 15.1884 9.95238 15.805 10.407 16.2596C10.8617 16.7143 11.4783 16.9697 12.1212 16.9697V14.5455H9.69697Z"
        fill="#288EBA"/>
    <path d="M12.1212 14.5455H14.5455V16.9697H12.1212V14.5455Z" fill="#288EBA"/>
    <path
        d="M14.5455 16.9697C15.1884 16.9697 15.805 16.7143 16.2597 16.2596C16.7143 15.805 16.9697 15.1884 16.9697 14.5455H14.5455V16.9697Z"
        fill="#288EBA"/>
    <path d="M19.3939 14.5455H21.8182V16.9697H19.3939V14.5455Z" fill="#288EBA"/>
    <path
        d="M25.4545 14.5455C25.1331 14.5455 24.8248 14.6732 24.5975 14.9005C24.3701 15.1278 24.2424 15.4361 24.2424 15.7576C24.2424 16.079 24.3701 16.3874 24.5975 16.6147C24.8248 16.842 25.1331 16.9697 25.4545 16.9697H26.6667V14.5455H25.4545Z"
        fill="#288EBA"/>
    <path d="M26.6667 14.5455H29.0909V16.9697H26.6667V14.5455Z" fill="#288EBA"/>
    <path
        d="M32.7273 14.5455C33.0488 14.5455 33.3571 14.6732 33.5844 14.9005C33.8117 15.1278 33.9394 15.4361 33.9394 15.7576C33.9394 16.079 33.8117 16.3874 33.5844 16.6147C33.3571 16.842 33.0488 16.9697 32.7273 16.9697C32.4058 16.9697 32.0975 16.842 31.8702 16.6147C31.6429 16.3874 31.5152 16.079 31.5152 15.7576C31.5152 15.4361 31.6429 15.1278 31.8702 14.9005C32.0975 14.6732 32.4058 14.5455 32.7273 14.5455Z"
        fill="#288EBA"/>
    <path
        d="M36.3636 14.5455C36.3636 15.1884 36.6191 15.805 37.0737 16.2596C37.5283 16.7143 38.1449 16.9697 38.7879 16.9697V14.5455H36.3636Z"
        fill="#288EBA"/>
    <path d="M38.7879 14.5455H41.2121V16.9697H38.7879V14.5455Z" fill="#288EBA"/>
    <path d="M41.2121 14.5455H43.6364V16.9697H41.2121V14.5455Z" fill="#288EBA"/>
    <path d="M43.6364 14.5455H46.0606V16.9697H43.6364V14.5455Z" fill="#288EBA"/>
    <path d="M46.0606 14.5455H48.4849V16.9697H46.0606V14.5455Z" fill="#288EBA"/>
    <path d="M48.4849 14.5455H50.9091V16.9697H48.4849V14.5455Z" fill="#288EBA"/>
    <path
        d="M50.9091 16.9697C51.552 16.9697 52.1687 16.7143 52.6233 16.2596C53.0779 15.805 53.3333 15.1884 53.3333 14.5455H50.9091V16.9697Z"
        fill="#288EBA"/>
    <path d="M58.1818 14.5455H60.6061V16.9697H58.1818V14.5455Z" fill="#288EBA"/>
    <path
        d="M63.0303 14.5455C63.0303 15.1884 63.2857 15.805 63.7404 16.2596C64.195 16.7143 64.8116 16.9697 65.4546 16.9697V14.5455H63.0303Z"
        fill="#288EBA"/>
    <path d="M65.4546 14.5455H67.8788V16.9697H65.4546V14.5455Z" fill="#288EBA"/>
    <path
        d="M67.8788 16.9697C68.5217 16.9697 69.1384 16.7143 69.593 16.2596C70.0476 15.805 70.303 15.1884 70.303 14.5455H67.8788V16.9697Z"
        fill="#288EBA"/>
    <path d="M72.7273 14.5455H75.1515V16.9697H72.7273V14.5455Z" fill="#288EBA"/>
    <path d="M4.84849 16.9697H7.27273V19.3939H4.84849V16.9697Z" fill="#288EBA"/>
    <path d="M19.3939 16.9697H21.8182V19.3939H19.3939V16.9697Z" fill="#288EBA"/>
    <path
        d="M26.6667 18.1818C26.6667 18.5033 26.7944 18.8116 27.0217 19.0389C27.249 19.2662 27.5573 19.3939 27.8788 19.3939C28.2003 19.3939 28.5086 19.2662 28.7359 19.0389C28.9632 18.8116 29.0909 18.5033 29.0909 18.1818V16.9697H26.6667V18.1818Z"
        fill="#288EBA"/>
    <path d="M38.7879 16.9697H41.2121V19.3939H38.7879V16.9697Z" fill="#288EBA"/>
    <path
        d="M46.0606 18.1818C46.0606 18.5033 46.1883 18.8116 46.4156 19.0389C46.6429 19.2662 46.9513 19.3939 47.2727 19.3939C47.5942 19.3939 47.9025 19.2662 48.1298 19.0389C48.3571 18.8116 48.4849 18.5033 48.4849 18.1818V16.9697H46.0606V18.1818Z"
        fill="#288EBA"/>
    <path
        d="M53.3333 18.1818C53.3333 17.8603 53.461 17.552 53.6884 17.3247C53.9157 17.0974 54.224 16.9697 54.5455 16.9697C54.8669 16.9697 55.1752 17.0974 55.4026 17.3247C55.6299 17.552 55.7576 17.8603 55.7576 18.1818V19.3939H53.3333V18.1818Z"
        fill="#288EBA"/>
    <path d="M58.1818 16.9697H60.6061V19.3939H58.1818V16.9697Z" fill="#288EBA"/>
    <path d="M72.7273 16.9697H75.1515V19.3939H72.7273V16.9697Z" fill="#288EBA"/>
    <path
        d="M4.84849 19.3939C4.84849 20.0369 5.1039 20.6535 5.55853 21.1081C6.01317 21.5628 6.62978 21.8182 7.27273 21.8182V19.3939H4.84849Z"
        fill="#288EBA"/>
    <path d="M7.27273 19.3939H9.69697V21.8182H7.27273V19.3939Z" fill="#288EBA"/>
    <path d="M9.69697 19.3939H12.1212V21.8182H9.69697V19.3939Z" fill="#288EBA"/>
    <path d="M12.1212 19.3939H14.5455V21.8182H12.1212V19.3939Z" fill="#288EBA"/>
    <path d="M14.5455 19.3939H16.9697V21.8182H14.5455V19.3939Z" fill="#288EBA"/>
    <path d="M16.9697 19.3939H19.3939V21.8182H16.9697V19.3939Z" fill="#288EBA"/>
    <path
        d="M19.3939 21.8182C20.0369 21.8182 20.6535 21.5628 21.1081 21.1081C21.5628 20.6535 21.8182 20.0369 21.8182 19.3939H19.3939V21.8182Z"
        fill="#288EBA"/>
    <path
        d="M24.2424 20.6061C24.2424 20.2846 24.3701 19.9763 24.5975 19.749C24.8248 19.5216 25.1331 19.3939 25.4545 19.3939C25.776 19.3939 26.0843 19.5216 26.3116 19.749C26.539 19.9763 26.6667 20.2846 26.6667 20.6061V21.8182H24.2424V20.6061Z"
        fill="#288EBA"/>
    <path
        d="M30.303 19.3939C30.6245 19.3939 30.9328 19.5216 31.1601 19.749C31.3875 19.9763 31.5152 20.2846 31.5152 20.6061C31.5152 20.9275 31.3875 21.2358 31.1601 21.4632C30.9328 21.6905 30.6245 21.8182 30.303 21.8182C29.9816 21.8182 29.6733 21.6905 29.4459 21.4632C29.2186 21.2358 29.0909 20.9275 29.0909 20.6061C29.0909 20.2846 29.2186 19.9763 29.4459 19.749C29.6733 19.5216 29.9816 19.3939 30.303 19.3939Z"
        fill="#288EBA"/>
    <path
        d="M33.9394 20.6061C33.9394 20.2846 34.0671 19.9763 34.2944 19.749C34.5217 19.5216 34.83 19.3939 35.1515 19.3939C35.473 19.3939 35.7813 19.5216 36.0086 19.749C36.2359 19.9763 36.3636 20.2846 36.3636 20.6061V21.8182H33.9394V20.6061Z"
        fill="#288EBA"/>
    <path
        d="M38.7879 20.6061C38.7879 20.9275 38.9156 21.2358 39.1429 21.4632C39.3702 21.6905 39.6785 21.8182 40 21.8182C40.3215 21.8182 40.6298 21.6905 40.8571 21.4632C41.0844 21.2358 41.2121 20.9275 41.2121 20.6061V19.3939H38.7879V20.6061Z"
        fill="#288EBA"/>
    <path
        d="M44.8485 19.3939C45.17 19.3939 45.4783 19.5216 45.7056 19.749C45.9329 19.9763 46.0606 20.2846 46.0606 20.6061C46.0606 20.9275 45.9329 21.2358 45.7056 21.4632C45.4783 21.6905 45.17 21.8182 44.8485 21.8182C44.527 21.8182 44.2187 21.6905 43.9914 21.4632C43.7641 21.2358 43.6364 20.9275 43.6364 20.6061C43.6364 20.2846 43.7641 19.9763 43.9914 19.749C44.2187 19.5216 44.527 19.3939 44.8485 19.3939Z"
        fill="#288EBA"/>
    <path
        d="M48.4849 20.6061C48.4849 20.2846 48.6126 19.9763 48.8399 19.749C49.0672 19.5216 49.3755 19.3939 49.697 19.3939C50.0184 19.3939 50.3268 19.5216 50.5541 19.749C50.7814 19.9763 50.9091 20.2846 50.9091 20.6061V21.8182H48.4849V20.6061Z"
        fill="#288EBA"/>
    <path d="M53.3333 19.3939H55.7576V21.8182H53.3333V19.3939Z" fill="#288EBA"/>
    <path
        d="M58.1818 19.3939C58.1818 20.0369 58.4372 20.6535 58.8919 21.1081C59.3465 21.5628 59.9631 21.8182 60.6061 21.8182V19.3939H58.1818Z"
        fill="#288EBA"/>
    <path d="M60.6061 19.3939H63.0303V21.8182H60.6061V19.3939Z" fill="#288EBA"/>
    <path d="M63.0303 19.3939H65.4546V21.8182H63.0303V19.3939Z" fill="#288EBA"/>
    <path d="M65.4546 19.3939H67.8788V21.8182H65.4546V19.3939Z" fill="#288EBA"/>
    <path d="M67.8788 19.3939H70.303V21.8182H67.8788V19.3939Z" fill="#288EBA"/>
    <path d="M70.303 19.3939H72.7273V21.8182H70.303V19.3939Z" fill="#288EBA"/>
    <path
        d="M72.7273 21.8182C73.3702 21.8182 73.9868 21.5628 74.4415 21.1081C74.8961 20.6535 75.1515 20.0369 75.1515 19.3939H72.7273V21.8182Z"
        fill="#288EBA"/>
    <path
        d="M24.2424 23.0303C24.2424 23.3518 24.3701 23.6601 24.5975 23.8874C24.8248 24.1147 25.1331 24.2424 25.4545 24.2424C25.776 24.2424 26.0843 24.1147 26.3116 23.8874C26.539 23.6601 26.6667 23.3518 26.6667 23.0303V21.8182H24.2424V23.0303Z"
        fill="#288EBA"/>
    <path
        d="M31.5152 24.2424C31.5152 23.5995 31.7706 22.9829 32.2252 22.5282C32.6798 22.0736 33.2964 21.8182 33.9394 21.8182V24.2424H31.5152Z"
        fill="#288EBA"/>
    <path d="M33.9394 21.8182H36.3636V24.2424H33.9394V21.8182Z" fill="#288EBA"/>
    <path
        d="M37.5758 21.8182C37.8972 21.8182 38.2055 21.9459 38.4329 22.1732C38.6602 22.4005 38.7879 22.7088 38.7879 23.0303C38.7879 23.3518 38.6602 23.6601 38.4329 23.8874C38.2055 24.1147 37.8972 24.2424 37.5758 24.2424H36.3636V21.8182H37.5758Z"
        fill="#288EBA"/>
    <path
        d="M42.4242 21.8182C42.7457 21.8182 43.054 21.9459 43.2813 22.1732C43.5087 22.4005 43.6364 22.7088 43.6364 23.0303C43.6364 23.3518 43.5087 23.6601 43.2813 23.8874C43.054 24.1147 42.7457 24.2424 42.4242 24.2424C42.1028 24.2424 41.7945 24.1147 41.5671 23.8874C41.3398 23.6601 41.2121 23.3518 41.2121 23.0303C41.2121 22.7088 41.3398 22.4005 41.5671 22.1732C41.7945 21.9459 42.1028 21.8182 42.4242 21.8182Z"
        fill="#288EBA"/>
    <path
        d="M47.2727 21.8182C46.9513 21.8182 46.6429 21.9459 46.4156 22.1732C46.1883 22.4005 46.0606 22.7088 46.0606 23.0303C46.0606 23.3518 46.1883 23.6601 46.4156 23.8874C46.6429 24.1147 46.9513 24.2424 47.2727 24.2424H48.4849V21.8182H47.2727Z"
        fill="#288EBA"/>
    <path d="M48.4849 21.8182H50.9091V24.2424H48.4849V21.8182Z" fill="#288EBA"/>
    <path d="M50.9091 21.8182H53.3333V24.2424H50.9091V21.8182Z" fill="#288EBA"/>
    <path
        d="M53.3333 24.2424C53.9763 24.2424 54.5929 23.987 55.0475 23.5324C55.5022 23.0777 55.7576 22.4611 55.7576 21.8182H53.3333V24.2424Z"
        fill="#288EBA"/>
    <path
        d="M16.9697 26.6667C16.9697 26.0237 17.2251 25.4071 17.6797 24.9525C18.1344 24.4978 18.751 24.2424 19.3939 24.2424V26.6667H16.9697Z"
        fill="#288EBA"/>
    <path
        d="M20.6061 24.2424C20.9275 24.2424 21.2358 24.3701 21.4632 24.5974C21.6905 24.8248 21.8182 25.1331 21.8182 25.4545C21.8182 25.776 21.6905 26.0843 21.4632 26.3116C21.2358 26.539 20.9275 26.6667 20.6061 26.6667H19.3939V24.2424H20.6061Z"
        fill="#288EBA"/>
    <path
        d="M27.8788 24.2424C28.2003 24.2424 28.5086 24.3701 28.7359 24.5974C28.9632 24.8248 29.0909 25.1331 29.0909 25.4545C29.0909 25.776 28.9632 26.0843 28.7359 26.3116C28.5086 26.539 28.2003 26.6667 27.8788 26.6667C27.5573 26.6667 27.249 26.539 27.0217 26.3116C26.7944 26.0843 26.6667 25.776 26.6667 25.4545C26.6667 25.1331 26.7944 24.8248 27.0217 24.5974C27.249 24.3701 27.5573 24.2424 27.8788 24.2424Z"
        fill="#288EBA"/>
    <path d="M31.5152 24.2424H33.9394V26.6667H31.5152V24.2424Z" fill="#288EBA"/>
    <path
        d="M59.3939 24.2424C59.7154 24.2424 60.0237 24.3701 60.251 24.5974C60.4784 24.8248 60.6061 25.1331 60.6061 25.4545C60.6061 25.776 60.4784 26.0843 60.251 26.3116C60.0237 26.539 59.7154 26.6667 59.3939 26.6667C59.0725 26.6667 58.7642 26.539 58.5368 26.3116C58.3095 26.0843 58.1818 25.776 58.1818 25.4545C58.1818 25.1331 58.3095 24.8248 58.5368 24.5974C58.7642 24.3701 59.0725 24.2424 59.3939 24.2424Z"
        fill="#288EBA"/>
    <path
        d="M63.0303 25.4545C63.0303 25.1331 63.158 24.8248 63.3853 24.5974C63.6126 24.3701 63.921 24.2424 64.2424 24.2424C64.5639 24.2424 64.8722 24.3701 65.0995 24.5974C65.3268 24.8248 65.4546 25.1331 65.4546 25.4545V26.6667H63.0303V25.4545Z"
        fill="#288EBA"/>
    <path
        d="M69.0909 24.2424C69.4124 24.2424 69.7207 24.3701 69.948 24.5974C70.1753 24.8248 70.303 25.1331 70.303 25.4545C70.303 25.776 70.1753 26.0843 69.948 26.3116C69.7207 26.539 69.4124 26.6667 69.0909 26.6667C68.7694 26.6667 68.4611 26.539 68.2338 26.3116C68.0065 26.0843 67.8788 25.776 67.8788 25.4545C67.8788 25.1331 68.0065 24.8248 68.2338 24.5974C68.4611 24.3701 68.7694 24.2424 69.0909 24.2424Z"
        fill="#288EBA"/>
    <path
        d="M73.9394 24.2424C74.2609 24.2424 74.5692 24.3701 74.7965 24.5974C75.0238 24.8248 75.1515 25.1331 75.1515 25.4545C75.1515 25.776 75.0238 26.0843 74.7965 26.3116C74.5692 26.539 74.2609 26.6667 73.9394 26.6667C73.6179 26.6667 73.3096 26.539 73.0823 26.3116C72.855 26.0843 72.7273 25.776 72.7273 25.4545C72.7273 25.1331 72.855 24.8248 73.0823 24.5974C73.3096 24.3701 73.6179 24.2424 73.9394 24.2424Z"
        fill="#288EBA"/>
    <path
        d="M7.27273 29.0909C7.27273 28.448 7.52814 27.8313 7.98277 27.3767C8.43741 26.9221 9.05402 26.6667 9.69697 26.6667V29.0909H7.27273Z"
        fill="#288EBA"/>
    <path
        d="M10.9091 26.6667C11.2306 26.6667 11.5389 26.7944 11.7662 27.0217C11.9935 27.249 12.1212 27.5573 12.1212 27.8788C12.1212 28.2003 11.9935 28.5086 11.7662 28.7359C11.5389 28.9632 11.2306 29.0909 10.9091 29.0909H9.69697V26.6667H10.9091Z"
        fill="#288EBA"/>
    <path
        d="M15.7576 26.6667C15.4361 26.6667 15.1278 26.7944 14.9005 27.0217C14.6732 27.249 14.5455 27.5573 14.5455 27.8788C14.5455 28.2003 14.6732 28.5086 14.9005 28.7359C15.1278 28.9632 15.4361 29.0909 15.7576 29.0909H16.9697V26.6667H15.7576Z"
        fill="#288EBA"/>
    <path
        d="M16.9697 29.0909C17.6126 29.0909 18.2293 28.8355 18.6839 28.3809C19.1385 27.9262 19.3939 27.3096 19.3939 26.6667H16.9697V29.0909Z"
        fill="#288EBA"/>
    <path
        d="M21.8182 27.8788C21.8182 27.5573 21.9459 27.249 22.1732 27.0217C22.4005 26.7944 22.7088 26.6667 23.0303 26.6667C23.3518 26.6667 23.6601 26.7944 23.8874 27.0217C24.1147 27.249 24.2424 27.5573 24.2424 27.8788V29.0909H21.8182V27.8788Z"
        fill="#288EBA"/>
    <path
        d="M30.303 26.6667C29.9816 26.6667 29.6733 26.7944 29.4459 27.0217C29.2186 27.249 29.0909 27.5573 29.0909 27.8788C29.0909 28.2003 29.2186 28.5086 29.4459 28.7359C29.6733 28.9632 29.9816 29.0909 30.303 29.0909H31.5152V26.6667H30.303Z"
        fill="#288EBA"/>
    <path
        d="M31.5152 29.0909C32.1581 29.0909 32.7747 28.8355 33.2294 28.3809C33.684 27.9262 33.9394 27.3096 33.9394 26.6667H31.5152V29.0909Z"
        fill="#288EBA"/>
    <path
        d="M40 26.6667C40.3215 26.6667 40.6298 26.7944 40.8571 27.0217C41.0844 27.249 41.2121 27.5573 41.2121 27.8788C41.2121 28.2003 41.0844 28.5086 40.8571 28.7359C40.6298 28.9632 40.3215 29.0909 40 29.0909C39.6785 29.0909 39.3702 28.9632 39.1429 28.7359C38.9156 28.5086 38.7879 28.2003 38.7879 27.8788C38.7879 27.5573 38.9156 27.249 39.1429 27.0217C39.3702 26.7944 39.6785 26.6667 40 26.6667Z"
        fill="#288EBA"/>
    <path
        d="M44.8485 26.6667C44.527 26.6667 44.2187 26.7944 43.9914 27.0217C43.7641 27.249 43.6364 27.5573 43.6364 27.8788C43.6364 28.2003 43.7641 28.5086 43.9914 28.7359C44.2187 28.9632 44.527 29.0909 44.8485 29.0909H46.0606V26.6667H44.8485Z"
        fill="#288EBA"/>
    <path d="M46.0606 26.6667H48.4849V29.0909H46.0606V26.6667Z" fill="#288EBA"/>
    <path d="M48.4849 26.6667H50.9091V29.0909H48.4849V26.6667Z" fill="#288EBA"/>
    <path d="M50.9091 26.6667H53.3333V29.0909H50.9091V26.6667Z" fill="#288EBA"/>
    <path
        d="M53.3333 26.6667C53.9763 26.6667 54.5929 26.9221 55.0475 27.3767C55.5022 27.8313 55.7576 28.448 55.7576 29.0909H53.3333V26.6667Z"
        fill="#288EBA"/>
    <path
        d="M61.8182 26.6667C61.4967 26.6667 61.1884 26.7944 60.9611 27.0217C60.7338 27.249 60.6061 27.5573 60.6061 27.8788C60.6061 28.2003 60.7338 28.5086 60.9611 28.7359C61.1884 28.9632 61.4967 29.0909 61.8182 29.0909H63.0303V26.6667H61.8182Z"
        fill="#288EBA"/>
    <path d="M63.0303 26.6667H65.4546V29.0909H63.0303V26.6667Z" fill="#288EBA"/>
    <path
        d="M66.6667 26.6667C66.9881 26.6667 67.2965 26.7944 67.5238 27.0217C67.7511 27.249 67.8788 27.5573 67.8788 27.8788C67.8788 28.2003 67.7511 28.5086 67.5238 28.7359C67.2965 28.9632 66.9881 29.0909 66.6667 29.0909H65.4546V26.6667H66.6667Z"
        fill="#288EBA"/>
    <path
        d="M71.5152 26.6667C71.8366 26.6667 72.1449 26.7944 72.3723 27.0217C72.5996 27.249 72.7273 27.5573 72.7273 27.8788C72.7273 28.2003 72.5996 28.5086 72.3723 28.7359C72.1449 28.9632 71.8366 29.0909 71.5152 29.0909C71.1937 29.0909 70.8854 28.9632 70.6581 28.7359C70.4307 28.5086 70.303 28.2003 70.303 27.8788C70.303 27.5573 70.4307 27.249 70.6581 27.0217C70.8854 26.7944 71.1937 26.6667 71.5152 26.6667Z"
        fill="#288EBA"/>
    <path d="M7.27273 29.0909H9.69697V31.5151H7.27273V29.0909Z" fill="#288EBA"/>
    <path
        d="M13.3333 29.0909C13.6548 29.0909 13.9631 29.2186 14.1904 29.4459C14.4178 29.6732 14.5455 29.9816 14.5455 30.303C14.5455 30.6245 14.4178 30.9328 14.1904 31.1601C13.9631 31.3874 13.6548 31.5151 13.3333 31.5151C13.0119 31.5151 12.7036 31.3874 12.4762 31.1601C12.2489 30.9328 12.1212 30.6245 12.1212 30.303C12.1212 29.9816 12.2489 29.6732 12.4762 29.4459C12.7036 29.2186 13.0119 29.0909 13.3333 29.0909Z"
        fill="#288EBA"/>
    <path
        d="M20.6061 29.0909C20.2846 29.0909 19.9763 29.2186 19.749 29.4459C19.5216 29.6732 19.3939 29.9816 19.3939 30.303C19.3939 30.6245 19.5216 30.9328 19.749 31.1601C19.9763 31.3874 20.2846 31.5151 20.6061 31.5151H21.8182V29.0909H20.6061Z"
        fill="#288EBA"/>
    <path d="M21.8182 29.0909H24.2424V31.5151H21.8182V29.0909Z" fill="#288EBA"/>
    <path d="M24.2424 29.0909H26.6667V31.5151H24.2424V29.0909Z" fill="#288EBA"/>
    <path
        d="M27.8788 29.0909C28.2003 29.0909 28.5086 29.2186 28.7359 29.4459C28.9632 29.6732 29.0909 29.9816 29.0909 30.303C29.0909 30.6245 28.9632 30.9328 28.7359 31.1601C28.5086 31.3874 28.2003 31.5151 27.8788 31.5151H26.6667V29.0909H27.8788Z"
        fill="#288EBA"/>
    <path d="M53.3333 29.0909H55.7576V31.5151H53.3333V29.0909Z" fill="#288EBA"/>
    <path
        d="M58.1818 30.303C58.1818 29.9816 58.3095 29.6732 58.5368 29.4459C58.7642 29.2186 59.0725 29.0909 59.3939 29.0909C59.7154 29.0909 60.0237 29.2186 60.251 29.4459C60.4784 29.6732 60.6061 29.9816 60.6061 30.303V31.5151H58.1818V30.303Z"
        fill="#288EBA"/>
    <path d="M63.0303 29.0909H65.4546V31.5151H63.0303V29.0909Z" fill="#288EBA"/>
    <path
        d="M69.0909 29.0909C69.4124 29.0909 69.7207 29.2186 69.948 29.4459C70.1753 29.6732 70.303 29.9816 70.303 30.303C70.303 30.6245 70.1753 30.9328 69.948 31.1601C69.7207 31.3874 69.4124 31.5151 69.0909 31.5151C68.7694 31.5151 68.4611 31.3874 68.2338 31.1601C68.0065 30.9328 67.8788 30.6245 67.8788 30.303C67.8788 29.9816 68.0065 29.6732 68.2338 29.4459C68.4611 29.2186 68.7694 29.0909 69.0909 29.0909Z"
        fill="#288EBA"/>
    <path
        d="M6.06061 31.5151C5.73913 31.5151 5.43083 31.6429 5.20351 31.8702C4.97619 32.0975 4.84849 32.4058 4.84849 32.7273C4.84849 33.0487 4.97619 33.3571 5.20351 33.5844C5.43083 33.8117 5.73913 33.9394 6.06061 33.9394H7.27273V31.5151H6.06061Z"
        fill="#288EBA"/>
    <path
        d="M7.27273 33.9394C7.91568 33.9394 8.53229 33.684 8.98693 33.2293C9.44156 32.7747 9.69697 32.1581 9.69697 31.5151H7.27273V33.9394Z"
        fill="#288EBA"/>
    <path
        d="M14.5455 33.9394C14.5455 33.2964 14.8009 32.6798 15.2555 32.2252C15.7101 31.7706 16.3268 31.5151 16.9697 31.5151V33.9394H14.5455Z"
        fill="#288EBA"/>
    <path
        d="M16.9697 31.5151C17.6126 31.5151 18.2293 31.7706 18.6839 32.2252C19.1385 32.6798 19.3939 33.2964 19.3939 33.9394H16.9697V31.5151Z"
        fill="#288EBA"/>
    <path
        d="M24.2424 32.7273C24.2424 33.0487 24.3701 33.3571 24.5975 33.5844C24.8248 33.8117 25.1331 33.9394 25.4545 33.9394C25.776 33.9394 26.0843 33.8117 26.3116 33.5844C26.539 33.3571 26.6667 33.0487 26.6667 32.7273V31.5151H24.2424V32.7273Z"
        fill="#288EBA"/>
    <path
        d="M53.3333 31.5151C53.3333 32.1581 53.5887 32.7747 54.0434 33.2293C54.498 33.684 55.1146 33.9394 55.7576 33.9394V31.5151H53.3333Z"
        fill="#288EBA"/>
    <path d="M55.7576 31.5151H58.1818V33.9394H55.7576V31.5151Z" fill="#288EBA"/>
    <path d="M58.1818 31.5151H60.6061V33.9394H58.1818V31.5151Z" fill="#288EBA"/>
    <path d="M60.6061 31.5151H63.0303V33.9394H60.6061V31.5151Z" fill="#288EBA"/>
    <path d="M63.0303 31.5151H65.4546V33.9394H63.0303V31.5151Z" fill="#288EBA"/>
    <path
        d="M66.6667 31.5151C66.9881 31.5151 67.2965 31.6429 67.5238 31.8702C67.7511 32.0975 67.8788 32.4058 67.8788 32.7273C67.8788 33.0487 67.7511 33.3571 67.5238 33.5844C67.2965 33.8117 66.9881 33.9394 66.6667 33.9394H65.4546V31.5151H66.6667Z"
        fill="#288EBA"/>
    <path
        d="M13.3333 33.9394C13.0119 33.9394 12.7036 34.0671 12.4762 34.2944C12.2489 34.5217 12.1212 34.83 12.1212 35.1515C12.1212 35.473 12.2489 35.7813 12.4762 36.0086C12.7036 36.2359 13.0119 36.3636 13.3333 36.3636H14.5455V33.9394H13.3333Z"
        fill="#288EBA"/>
    <path d="M14.5455 33.9394H16.9697V36.3636H14.5455V33.9394Z" fill="#288EBA"/>
    <path d="M16.9697 33.9394H19.3939V36.3636H16.9697V33.9394Z" fill="#288EBA"/>
    <path
        d="M20.6061 33.9394C20.9275 33.9394 21.2358 34.0671 21.4632 34.2944C21.6905 34.5217 21.8182 34.83 21.8182 35.1515C21.8182 35.473 21.6905 35.7813 21.4632 36.0086C21.2358 36.2359 20.9275 36.3636 20.6061 36.3636H19.3939V33.9394H20.6061Z"
        fill="#288EBA"/>
    <path
        d="M50.9091 35.1515C50.9091 34.83 51.0368 34.5217 51.2641 34.2944C51.4914 34.0671 51.7997 33.9394 52.1212 33.9394C52.4427 33.9394 52.751 34.0671 52.9783 34.2944C53.2056 34.5217 53.3333 34.83 53.3333 35.1515V36.3636H50.9091V35.1515Z"
        fill="#288EBA"/>
    <path
        d="M55.7576 33.9394C55.7576 34.5823 56.013 35.199 56.4676 35.6536C56.9223 36.1082 57.5389 36.3636 58.1818 36.3636V33.9394H55.7576Z"
        fill="#288EBA"/>
    <path d="M58.1818 33.9394H60.6061V36.3636H58.1818V33.9394Z" fill="#288EBA"/>
    <path
        d="M60.6061 36.3636C61.249 36.3636 61.8656 36.1082 62.3203 35.6536C62.7749 35.199 63.0303 34.5823 63.0303 33.9394H60.6061V36.3636Z"
        fill="#288EBA"/>
    <path
        d="M71.5152 33.9394C71.8366 33.9394 72.1449 34.0671 72.3723 34.2944C72.5996 34.5217 72.7273 34.83 72.7273 35.1515C72.7273 35.473 72.5996 35.7813 72.3723 36.0086C72.1449 36.2359 71.8366 36.3636 71.5152 36.3636C71.1937 36.3636 70.8854 36.2359 70.6581 36.0086C70.4307 35.7813 70.303 35.473 70.303 35.1515C70.303 34.83 70.4307 34.5217 70.6581 34.2944C70.8854 34.0671 71.1937 33.9394 71.5152 33.9394Z"
        fill="#288EBA"/>
    <path
        d="M8.48485 36.3636C8.80633 36.3636 9.11463 36.4913 9.34195 36.7187C9.56927 36.946 9.69697 37.2543 9.69697 37.5758C9.69697 37.8972 9.56927 38.2055 9.34195 38.4329C9.11463 38.6602 8.80633 38.7879 8.48485 38.7879C8.16338 38.7879 7.85507 38.6602 7.62775 38.4329C7.40044 38.2055 7.27273 37.8972 7.27273 37.5758C7.27273 37.2543 7.40044 36.946 7.62775 36.7187C7.85507 36.4913 8.16338 36.3636 8.48485 36.3636Z"
        fill="#288EBA"/>
    <path
        d="M16.9697 37.5758C16.9697 37.8972 17.0974 38.2055 17.3247 38.4329C17.552 38.6602 17.8603 38.7879 18.1818 38.7879C18.5033 38.7879 18.8116 38.6602 19.0389 38.4329C19.2662 38.2055 19.3939 37.8972 19.3939 37.5758V36.3636H16.9697V37.5758Z"
        fill="#288EBA"/>
    <path
        d="M25.4545 36.3636C25.776 36.3636 26.0843 36.4913 26.3116 36.7187C26.539 36.946 26.6667 37.2543 26.6667 37.5758C26.6667 37.8972 26.539 38.2055 26.3116 38.4329C26.0843 38.6602 25.776 38.7879 25.4545 38.7879C25.1331 38.7879 24.8248 38.6602 24.5975 38.4329C24.3701 38.2055 24.2424 37.8972 24.2424 37.5758C24.2424 37.2543 24.3701 36.946 24.5975 36.7187C24.8248 36.4913 25.1331 36.3636 25.4545 36.3636Z"
        fill="#288EBA"/>
    <path
        d="M50.9091 36.3636C50.9091 37.0066 51.1645 37.6232 51.6191 38.0778C52.0738 38.5325 52.6904 38.7879 53.3333 38.7879V36.3636H50.9091Z"
        fill="#288EBA"/>
    <path
        d="M53.3333 36.3636C53.9763 36.3636 54.5929 36.619 55.0475 37.0737C55.5022 37.5283 55.7576 38.1449 55.7576 38.7879H53.3333V36.3636Z"
        fill="#288EBA"/>
    <path
        d="M58.1818 37.5758C58.1818 37.8972 58.3095 38.2055 58.5368 38.4329C58.7642 38.6602 59.0725 38.7879 59.3939 38.7879C59.7154 38.7879 60.0237 38.6602 60.251 38.4329C60.4784 38.2055 60.6061 37.8972 60.6061 37.5758V36.3636H58.1818V37.5758Z"
        fill="#288EBA"/>
    <path
        d="M64.2424 36.3636C63.921 36.3636 63.6126 36.4913 63.3853 36.7187C63.158 36.946 63.0303 37.2543 63.0303 37.5758C63.0303 37.8972 63.158 38.2055 63.3853 38.4329C63.6126 38.6602 63.921 38.7879 64.2424 38.7879H65.4546V36.3636H64.2424Z"
        fill="#288EBA"/>
    <path
        d="M66.6667 36.3636C66.9881 36.3636 67.2965 36.4913 67.5238 36.7187C67.7511 36.946 67.8788 37.2543 67.8788 37.5758C67.8788 37.8972 67.7511 38.2055 67.5238 38.4329C67.2965 38.6602 66.9881 38.7879 66.6667 38.7879H65.4546V36.3636H66.6667Z"
        fill="#288EBA"/>
    <path
        d="M73.9394 36.3636C74.2609 36.3636 74.5692 36.4913 74.7965 36.7187C75.0238 36.946 75.1515 37.2543 75.1515 37.5758C75.1515 37.8972 75.0238 38.2055 74.7965 38.4329C74.5692 38.6602 74.2609 38.7879 73.9394 38.7879C73.6179 38.7879 73.3096 38.6602 73.0823 38.4329C72.855 38.2055 72.7273 37.8972 72.7273 37.5758C72.7273 37.2543 72.855 36.946 73.0823 36.7187C73.3096 36.4913 73.6179 36.3636 73.9394 36.3636Z"
        fill="#288EBA"/>
    <path
        d="M13.3333 38.7879C13.6548 38.7879 13.9631 38.9156 14.1904 39.1429C14.4178 39.3702 14.5455 39.6785 14.5455 40C14.5455 40.3215 14.4178 40.6298 14.1904 40.8571C13.9631 41.0844 13.6548 41.2121 13.3333 41.2121C13.0119 41.2121 12.7036 41.0844 12.4762 40.8571C12.2489 40.6298 12.1212 40.3215 12.1212 40C12.1212 39.6785 12.2489 39.3702 12.4762 39.1429C12.7036 38.9156 13.0119 38.7879 13.3333 38.7879Z"
        fill="#288EBA"/>
    <path
        d="M20.6061 38.7879C20.9275 38.7879 21.2358 38.9156 21.4632 39.1429C21.6905 39.3702 21.8182 39.6785 21.8182 40C21.8182 40.3215 21.6905 40.6298 21.4632 40.8571C21.2358 41.0844 20.9275 41.2121 20.6061 41.2121C20.2846 41.2121 19.9763 41.0844 19.749 40.8571C19.5216 40.6298 19.3939 40.3215 19.3939 40C19.3939 39.6785 19.5216 39.3702 19.749 39.1429C19.9763 38.9156 20.2846 38.7879 20.6061 38.7879Z"
        fill="#288EBA"/>
    <path
        d="M26.6667 40C26.6667 39.6785 26.7944 39.3702 27.0217 39.1429C27.249 38.9156 27.5573 38.7879 27.8788 38.7879C28.2003 38.7879 28.5086 38.9156 28.7359 39.1429C28.9632 39.3702 29.0909 39.6785 29.0909 40V41.2121H26.6667V40Z"
        fill="#288EBA"/>
    <path
        d="M53.3333 38.7879C53.3333 39.4308 53.5887 40.0474 54.0434 40.5021C54.498 40.9567 55.1146 41.2121 55.7576 41.2121V38.7879H53.3333Z"
        fill="#288EBA"/>
    <path
        d="M55.7576 38.7879C56.4005 38.7879 57.0171 39.0433 57.4718 39.4979C57.9264 39.9526 58.1818 40.5692 58.1818 41.2121H55.7576V38.7879Z"
        fill="#288EBA"/>
    <path
        d="M7.27273 42.4242C7.27273 42.1028 7.40044 41.7945 7.62775 41.5671C7.85507 41.3398 8.16338 41.2121 8.48485 41.2121C8.80633 41.2121 9.11463 41.3398 9.34195 41.5671C9.56927 41.7945 9.69697 42.1028 9.69697 42.4242V43.6364H7.27273V42.4242Z"
        fill="#288EBA"/>
    <path
        d="M14.5455 42.4242C14.5455 42.1028 14.6732 41.7945 14.9005 41.5671C15.1278 41.3398 15.4361 41.2121 15.7576 41.2121C16.0791 41.2121 16.3874 41.3398 16.6147 41.5671C16.842 41.7945 16.9697 42.1028 16.9697 42.4242V43.6364H14.5455V42.4242Z"
        fill="#288EBA"/>
    <path
        d="M26.6667 42.4242C26.6667 42.7457 26.7944 43.054 27.0217 43.2813C27.249 43.5087 27.5573 43.6364 27.8788 43.6364C28.2003 43.6364 28.5086 43.5087 28.7359 43.2813C28.9632 43.054 29.0909 42.7457 29.0909 42.4242V41.2121H26.6667V42.4242Z"
        fill="#288EBA"/>
    <path
        d="M52.1212 41.2121C52.4427 41.2121 52.751 41.3398 52.9783 41.5671C53.2056 41.7945 53.3333 42.1028 53.3333 42.4242C53.3333 42.7457 53.2056 43.054 52.9783 43.2813C52.751 43.5087 52.4427 43.6364 52.1212 43.6364C51.7997 43.6364 51.4914 43.5087 51.2641 43.2813C51.0368 43.054 50.9091 42.7457 50.9091 42.4242C50.9091 42.1028 51.0368 41.7945 51.2641 41.5671C51.4914 41.3398 51.7997 41.2121 52.1212 41.2121Z"
        fill="#288EBA"/>
    <path d="M55.7576 41.2121H58.1818V43.6364H55.7576V41.2121Z" fill="#288EBA"/>
    <path
        d="M65.4546 43.6364C65.4546 42.9934 65.71 42.3768 66.1646 41.9222C66.6192 41.4675 67.2358 41.2121 67.8788 41.2121V43.6364H65.4546Z"
        fill="#288EBA"/>
    <path d="M67.8788 41.2121H70.303V43.6364H67.8788V41.2121Z" fill="#288EBA"/>
    <path d="M70.303 41.2121H72.7273V43.6364H70.303V41.2121Z" fill="#288EBA"/>
    <path
        d="M73.9394 41.2121C74.2609 41.2121 74.5692 41.3398 74.7965 41.5671C75.0238 41.7945 75.1515 42.1028 75.1515 42.4242C75.1515 42.7457 75.0238 43.054 74.7965 43.2813C74.5692 43.5087 74.2609 43.6364 73.9394 43.6364H72.7273V41.2121H73.9394Z"
        fill="#288EBA"/>
    <path d="M7.27273 43.6364H9.69697V46.0606H7.27273V43.6364Z" fill="#288EBA"/>
    <path
        d="M14.5455 44.8485C14.5455 45.17 14.6732 45.4783 14.9005 45.7056C15.1278 45.9329 15.4361 46.0606 15.7576 46.0606C16.0791 46.0606 16.3874 45.9329 16.6147 45.7056C16.842 45.4783 16.9697 45.17 16.9697 44.8485V43.6364H14.5455V44.8485Z"
        fill="#288EBA"/>
    <path
        d="M20.6061 43.6364C20.2846 43.6364 19.9763 43.7641 19.749 43.9914C19.5216 44.2187 19.3939 44.527 19.3939 44.8485C19.3939 45.17 19.5216 45.4783 19.749 45.7056C19.9763 45.9329 20.2846 46.0606 20.6061 46.0606H21.8182V43.6364H20.6061Z"
        fill="#288EBA"/>
    <path
        d="M23.0303 43.6364C23.3518 43.6364 23.6601 43.7641 23.8874 43.9914C24.1147 44.2187 24.2424 44.527 24.2424 44.8485C24.2424 45.17 24.1147 45.4783 23.8874 45.7056C23.6601 45.9329 23.3518 46.0606 23.0303 46.0606H21.8182V43.6364H23.0303Z"
        fill="#288EBA"/>
    <path
        d="M53.3333 46.0606C53.3333 45.4177 53.5887 44.801 54.0434 44.3464C54.498 43.8918 55.1146 43.6364 55.7576 43.6364V46.0606H53.3333Z"
        fill="#288EBA"/>
    <path
        d="M55.7576 46.0606C56.4005 46.0606 57.0171 45.8052 57.4718 45.3506C57.9264 44.8959 58.1818 44.2793 58.1818 43.6364H55.7576V46.0606Z"
        fill="#288EBA"/>
    <path
        d="M60.6061 44.8485C60.6061 44.527 60.7338 44.2187 60.9611 43.9914C61.1884 43.7641 61.4967 43.6364 61.8182 43.6364C62.1397 43.6364 62.448 43.7641 62.6753 43.9914C62.9026 44.2187 63.0303 44.527 63.0303 44.8485V46.0606H60.6061V44.8485Z"
        fill="#288EBA"/>
    <path
        d="M65.4546 43.6364C65.4546 44.2793 65.71 44.8959 66.1646 45.3506C66.6192 45.8052 67.2358 46.0606 67.8788 46.0606V43.6364H65.4546Z"
        fill="#288EBA"/>
    <path d="M67.8788 43.6364H70.303V46.0606H67.8788V43.6364Z" fill="#288EBA"/>
    <path
        d="M70.303 46.0606C70.946 46.0606 71.5626 45.8052 72.0172 45.3506C72.4719 44.8959 72.7273 44.2793 72.7273 43.6364H70.303V46.0606Z"
        fill="#288EBA"/>
    <path
        d="M4.84849 48.4848C4.84849 47.8419 5.1039 47.2253 5.55853 46.7706C6.01317 46.316 6.62978 46.0606 7.27273 46.0606V48.4848H4.84849Z"
        fill="#288EBA"/>
    <path d="M7.27273 46.0606H9.69697V48.4848H7.27273V46.0606Z" fill="#288EBA"/>
    <path
        d="M50.9091 48.4848C50.9091 47.8419 51.1645 47.2253 51.6191 46.7706C52.0738 46.316 52.6904 46.0606 53.3333 46.0606V48.4848H50.9091Z"
        fill="#288EBA"/>
    <path d="M53.3333 46.0606H55.7576V48.4848H53.3333V46.0606Z" fill="#288EBA"/>
    <path
        d="M59.3939 46.0606C59.0725 46.0606 58.7642 46.1883 58.5368 46.4156C58.3095 46.6429 58.1818 46.9512 58.1818 47.2727C58.1818 47.5942 58.3095 47.9025 58.5368 48.1298C58.7642 48.3571 59.0725 48.4848 59.3939 48.4848H60.6061V46.0606H59.3939Z"
        fill="#288EBA"/>
    <path d="M60.6061 46.0606H63.0303V48.4848H60.6061V46.0606Z" fill="#288EBA"/>
    <path
        d="M63.0303 46.0606C63.6733 46.0606 64.2899 46.316 64.7445 46.7706C65.1991 47.2253 65.4546 47.8419 65.4546 48.4848H63.0303V46.0606Z"
        fill="#288EBA"/>
    <path
        d="M72.7273 47.2727C72.7273 46.9512 72.855 46.6429 73.0823 46.4156C73.3096 46.1883 73.6179 46.0606 73.9394 46.0606C74.2609 46.0606 74.5692 46.1883 74.7965 46.4156C75.0238 46.6429 75.1515 46.9512 75.1515 47.2727V48.4848H72.7273V47.2727Z"
        fill="#288EBA"/>
    <path d="M4.84849 48.4848H7.27273V50.9091H4.84849V48.4848Z" fill="#288EBA"/>
    <path d="M7.27273 48.4848H9.69697V50.9091H7.27273V48.4848Z" fill="#288EBA"/>
    <path d="M9.69697 48.4848H12.1212V50.9091H9.69697V48.4848Z" fill="#288EBA"/>
    <path d="M12.1212 48.4848H14.5455V50.9091H12.1212V48.4848Z" fill="#288EBA"/>
    <path d="M14.5455 48.4848H16.9697V50.9091H14.5455V48.4848Z" fill="#288EBA"/>
    <path d="M16.9697 48.4848H19.3939V50.9091H16.9697V48.4848Z" fill="#288EBA"/>
    <path
        d="M20.6061 48.4848C20.9275 48.4848 21.2358 48.6125 21.4632 48.8399C21.6905 49.0672 21.8182 49.3755 21.8182 49.697C21.8182 50.0184 21.6905 50.3267 21.4632 50.5541C21.2358 50.7814 20.9275 50.9091 20.6061 50.9091H19.3939V48.4848H20.6061Z"
        fill="#288EBA"/>
    <path
        d="M27.8788 48.4848C28.2003 48.4848 28.5086 48.6125 28.7359 48.8399C28.9632 49.0672 29.0909 49.3755 29.0909 49.697C29.0909 50.0184 28.9632 50.3267 28.7359 50.5541C28.5086 50.7814 28.2003 50.9091 27.8788 50.9091C27.5573 50.9091 27.249 50.7814 27.0217 50.5541C26.7944 50.3267 26.6667 50.0184 26.6667 49.697C26.6667 49.3755 26.7944 49.0672 27.0217 48.8399C27.249 48.6125 27.5573 48.4848 27.8788 48.4848Z"
        fill="#288EBA"/>
    <path d="M50.9091 48.4848H53.3333V50.9091H50.9091V48.4848Z" fill="#288EBA"/>
    <path
        d="M53.3333 50.9091C53.9763 50.9091 54.5929 50.6537 55.0475 50.199C55.5022 49.7444 55.7576 49.1278 55.7576 48.4848H53.3333V50.9091Z"
        fill="#288EBA"/>
    <path
        d="M63.0303 49.697C63.0303 50.0184 63.158 50.3267 63.3853 50.5541C63.6126 50.7814 63.921 50.9091 64.2424 50.9091C64.5639 50.9091 64.8722 50.7814 65.0995 50.5541C65.3268 50.3267 65.4546 50.0184 65.4546 49.697V48.4848H63.0303V49.697Z"
        fill="#288EBA"/>
    <path d="M72.7273 48.4848H75.1515V50.9091H72.7273V48.4848Z" fill="#288EBA"/>
    <path d="M4.84849 50.9091H7.27273V53.3333H4.84849V50.9091Z" fill="#288EBA"/>
    <path d="M9.69697 50.9091H12.1212V53.3333H9.69697V50.9091Z" fill="#288EBA"/>
    <path d="M14.5455 50.9091H16.9697V53.3333H14.5455V50.9091Z" fill="#288EBA"/>
    <path
        d="M21.8182 52.1212C21.8182 51.7997 21.9459 51.4914 22.1732 51.2641C22.4005 51.0368 22.7088 50.9091 23.0303 50.9091C23.3518 50.9091 23.6601 51.0368 23.8874 51.2641C24.1147 51.4914 24.2424 51.7997 24.2424 52.1212V53.3333H21.8182V52.1212Z"
        fill="#288EBA"/>
    <path
        d="M29.0909 53.3333C29.0909 52.6904 29.3463 52.0738 29.801 51.6191C30.2556 51.1645 30.8722 50.9091 31.5152 50.9091V53.3333H29.0909Z"
        fill="#288EBA"/>
    <path d="M31.5152 50.9091H33.9394V53.3333H31.5152V50.9091Z" fill="#288EBA"/>
    <path d="M33.9394 50.9091H36.3636V53.3333H33.9394V50.9091Z" fill="#288EBA"/>
    <path d="M36.3636 50.9091H38.7879V53.3333H36.3636V50.9091Z" fill="#288EBA"/>
    <path d="M38.7879 50.9091H41.2121V53.3333H38.7879V50.9091Z" fill="#288EBA"/>
    <path
        d="M42.4242 50.9091C42.7457 50.9091 43.054 51.0368 43.2813 51.2641C43.5087 51.4914 43.6364 51.7997 43.6364 52.1212C43.6364 52.4427 43.5087 52.751 43.2813 52.9783C43.054 53.2056 42.7457 53.3333 42.4242 53.3333H41.2121V50.9091H42.4242Z"
        fill="#288EBA"/>
    <path
        d="M48.4849 53.3333C48.4849 52.6904 48.7403 52.0738 49.1949 51.6191C49.6495 51.1645 50.2661 50.9091 50.9091 50.9091V53.3333H48.4849Z"
        fill="#288EBA"/>
    <path
        d="M50.9091 53.3333C51.552 53.3333 52.1687 53.0779 52.6233 52.6233C53.0779 52.1687 53.3333 51.552 53.3333 50.9091H50.9091V53.3333Z"
        fill="#288EBA"/>
    <path
        d="M55.7576 53.3333C55.7576 52.6904 56.013 52.0738 56.4676 51.6191C56.9223 51.1645 57.5389 50.9091 58.1818 50.9091V53.3333H55.7576Z"
        fill="#288EBA"/>
    <path d="M58.1818 50.9091H60.6061V53.3333H58.1818V50.9091Z" fill="#288EBA"/>
    <path
        d="M60.6061 50.9091C61.249 50.9091 61.8656 51.1645 62.3203 51.6191C62.7749 52.0738 63.0303 52.6904 63.0303 53.3333H60.6061V50.9091Z"
        fill="#288EBA"/>
    <path
        d="M66.6667 50.9091C66.9881 50.9091 67.2965 51.0368 67.5238 51.2641C67.7511 51.4914 67.8788 51.7997 67.8788 52.1212C67.8788 52.4427 67.7511 52.751 67.5238 52.9783C67.2965 53.2056 66.9881 53.3333 66.6667 53.3333C66.3452 53.3333 66.0369 53.2056 65.8096 52.9783C65.5823 52.751 65.4546 52.4427 65.4546 52.1212C65.4546 51.7997 65.5823 51.4914 65.8096 51.2641C66.0369 51.0368 66.3452 50.9091 66.6667 50.9091Z"
        fill="#288EBA"/>
    <path
        d="M71.5152 50.9091C71.1937 50.9091 70.8854 51.0368 70.6581 51.2641C70.4307 51.4914 70.303 51.7997 70.303 52.1212C70.303 52.4427 70.4307 52.751 70.6581 52.9783C70.8854 53.2056 71.1937 53.3333 71.5152 53.3333H72.7273V50.9091H71.5152Z"
        fill="#288EBA"/>
    <path
        d="M72.7273 53.3333C73.3702 53.3333 73.9868 53.0779 74.4415 52.6233C74.8961 52.1687 75.1515 51.552 75.1515 50.9091H72.7273V53.3333Z"
        fill="#288EBA"/>
    <path
        d="M4.84849 54.5455C4.84849 54.8669 4.97619 55.1752 5.20351 55.4025C5.43083 55.6299 5.73913 55.7576 6.06061 55.7576C6.38208 55.7576 6.69039 55.6299 6.91771 55.4025C7.14503 55.1752 7.27273 54.8669 7.27273 54.5455V53.3333H4.84849V54.5455Z"
        fill="#288EBA"/>
    <path
        d="M9.69697 54.5455C9.69697 54.8669 9.82468 55.1752 10.052 55.4025C10.2793 55.6299 10.5876 55.7576 10.9091 55.7576C11.2306 55.7576 11.5389 55.6299 11.7662 55.4025C11.9935 55.1752 12.1212 54.8669 12.1212 54.5455V53.3333H9.69697V54.5455Z"
        fill="#288EBA"/>
    <path
        d="M14.5455 54.5455C14.5455 54.8669 14.6732 55.1752 14.9005 55.4025C15.1278 55.6299 15.4361 55.7576 15.7576 55.7576C16.0791 55.7576 16.3874 55.6299 16.6147 55.4025C16.842 55.1752 16.9697 54.8669 16.9697 54.5455V53.3333H14.5455V54.5455Z"
        fill="#288EBA"/>
    <path
        d="M20.6061 53.3333C20.2846 53.3333 19.9763 53.461 19.749 53.6884C19.5216 53.9157 19.3939 54.224 19.3939 54.5455C19.3939 54.8669 19.5216 55.1752 19.749 55.4025C19.9763 55.6299 20.2846 55.7576 20.6061 55.7576H21.8182V53.3333H20.6061Z"
        fill="#288EBA"/>
    <path d="M21.8182 53.3333H24.2424V55.7576H21.8182V53.3333Z" fill="#288EBA"/>
    <path d="M24.2424 53.3333H26.6667V55.7576H24.2424V53.3333Z" fill="#288EBA"/>
    <path d="M26.6667 53.3333H29.0909V55.7576H26.6667V53.3333Z" fill="#288EBA"/>
    <path d="M29.0909 53.3333H31.5152V55.7576H29.0909V53.3333Z" fill="#288EBA"/>
    <path d="M31.5152 53.3333H33.9394V55.7576H31.5152V53.3333Z" fill="#288EBA"/>
    <path d="M33.9394 53.3333H36.3636V55.7576H33.9394V53.3333Z" fill="#288EBA"/>
    <path d="M36.3636 53.3333H38.7879V55.7576H36.3636V53.3333Z" fill="#288EBA"/>
    <path
        d="M38.7879 55.7576C39.4308 55.7576 40.0474 55.5022 40.5021 55.0475C40.9567 54.5929 41.2121 53.9763 41.2121 53.3333H38.7879V55.7576Z"
        fill="#288EBA"/>
    <path
        d="M44.8485 53.3333C45.17 53.3333 45.4783 53.461 45.7056 53.6884C45.9329 53.9157 46.0606 54.224 46.0606 54.5455C46.0606 54.8669 45.9329 55.1752 45.7056 55.4025C45.4783 55.6299 45.17 55.7576 44.8485 55.7576C44.527 55.7576 44.2187 55.6299 43.9914 55.4025C43.7641 55.1752 43.6364 54.8669 43.6364 54.5455C43.6364 54.224 43.7641 53.9157 43.9914 53.6884C44.2187 53.461 44.527 53.3333 44.8485 53.3333Z"
        fill="#288EBA"/>
    <path
        d="M48.4849 54.5455C48.4849 54.8669 48.6126 55.1752 48.8399 55.4025C49.0672 55.6299 49.3755 55.7576 49.697 55.7576C50.0184 55.7576 50.3268 55.6299 50.5541 55.4025C50.7814 55.1752 50.9091 54.8669 50.9091 54.5455V53.3333H48.4849V54.5455Z"
        fill="#288EBA"/>
    <path
        d="M53.3333 55.7576C53.3333 55.1146 53.5887 54.498 54.0434 54.0434C54.498 53.5887 55.1146 53.3333 55.7576 53.3333V55.7576H53.3333Z"
        fill="#288EBA"/>
    <path d="M55.7576 53.3333H58.1818V55.7576H55.7576V53.3333Z" fill="#288EBA"/>
    <path d="M58.1818 53.3333H60.6061V55.7576H58.1818V53.3333Z" fill="#288EBA"/>
    <path d="M60.6061 53.3333H63.0303V55.7576H60.6061V53.3333Z" fill="#288EBA"/>
    <path
        d="M63.0303 53.3333C63.6733 53.3333 64.2899 53.5887 64.7445 54.0434C65.1991 54.498 65.4546 55.1146 65.4546 55.7576H63.0303V53.3333Z"
        fill="#288EBA"/>
    <path
        d="M67.8788 54.5455C67.8788 54.224 68.0065 53.9157 68.2338 53.6884C68.4611 53.461 68.7694 53.3333 69.0909 53.3333C69.4124 53.3333 69.7207 53.461 69.948 53.6884C70.1753 53.9157 70.303 54.224 70.303 54.5455V55.7576H67.8788V54.5455Z"
        fill="#288EBA"/>
    <path
        d="M24.2424 55.7576C24.2424 56.4005 24.4978 57.0171 24.9525 57.4718C25.4071 57.9264 26.0237 58.1818 26.6667 58.1818V55.7576H24.2424Z"
        fill="#288EBA"/>
    <path d="M26.6667 55.7576H29.0909V58.1818H26.6667V55.7576Z" fill="#288EBA"/>
    <path d="M29.0909 55.7576H31.5152V58.1818H29.0909V55.7576Z" fill="#288EBA"/>
    <path
        d="M41.2121 56.9697C41.2121 56.6482 41.3398 56.3399 41.5671 56.1126C41.7945 55.8853 42.1028 55.7576 42.4242 55.7576C42.7457 55.7576 43.054 55.8853 43.2813 56.1126C43.5087 56.3399 43.6364 56.6482 43.6364 56.9697V58.1818H41.2121V56.9697Z"
        fill="#288EBA"/>
    <path
        d="M47.2727 55.7576C47.5942 55.7576 47.9025 55.8853 48.1298 56.1126C48.3571 56.3399 48.4849 56.6482 48.4849 56.9697C48.4849 57.2912 48.3571 57.5995 48.1298 57.8268C47.9025 58.0541 47.5942 58.1818 47.2727 58.1818C46.9513 58.1818 46.6429 58.0541 46.4156 57.8268C46.1883 57.5995 46.0606 57.2912 46.0606 56.9697C46.0606 56.6482 46.1883 56.3399 46.4156 56.1126C46.6429 55.8853 46.9513 55.7576 47.2727 55.7576Z"
        fill="#288EBA"/>
    <path
        d="M50.9091 58.1818C50.9091 57.5389 51.1645 56.9223 51.6191 56.4676C52.0738 56.013 52.6904 55.7576 53.3333 55.7576V58.1818H50.9091Z"
        fill="#288EBA"/>
    <path d="M53.3333 55.7576H55.7576V58.1818H53.3333V55.7576Z" fill="#288EBA"/>
    <path d="M63.0303 55.7576H65.4546V58.1818H63.0303V55.7576Z" fill="#288EBA"/>
    <path d="M65.4546 55.7576H67.8788V58.1818H65.4546V55.7576Z" fill="#288EBA"/>
    <path
        d="M67.8788 58.1818C68.5217 58.1818 69.1384 57.9264 69.593 57.4718C70.0476 57.0171 70.303 56.4005 70.303 55.7576H67.8788V58.1818Z"
        fill="#288EBA"/>
    <path
        d="M4.84849 60.6061C4.84849 59.9631 5.1039 59.3465 5.55853 58.8919C6.01317 58.4372 6.62978 58.1818 7.27273 58.1818V60.6061H4.84849Z"
        fill="#288EBA"/>
    <path d="M7.27273 58.1818H9.69697V60.6061H7.27273V58.1818Z" fill="#288EBA"/>
    <path d="M9.69697 58.1818H12.1212V60.6061H9.69697V58.1818Z" fill="#288EBA"/>
    <path d="M12.1212 58.1818H14.5455V60.6061H12.1212V58.1818Z" fill="#288EBA"/>
    <path d="M14.5455 58.1818H16.9697V60.6061H14.5455V58.1818Z" fill="#288EBA"/>
    <path d="M16.9697 58.1818H19.3939V60.6061H16.9697V58.1818Z" fill="#288EBA"/>
    <path
        d="M19.3939 58.1818C20.0369 58.1818 20.6535 58.4372 21.1081 58.8919C21.5628 59.3465 21.8182 59.9631 21.8182 60.6061H19.3939V58.1818Z"
        fill="#288EBA"/>
    <path
        d="M26.6667 58.1818C26.6667 58.8248 26.9221 59.4414 27.3767 59.896C27.8313 60.3506 28.448 60.6061 29.0909 60.6061V58.1818H26.6667Z"
        fill="#288EBA"/>
    <path
        d="M29.0909 60.6061C29.7339 60.6061 30.3505 60.3506 30.8051 59.896C31.2597 59.4414 31.5152 58.8248 31.5152 58.1818H29.0909V60.6061Z"
        fill="#288EBA"/>
    <path
        d="M33.9394 59.3939C33.9394 59.0725 34.0671 58.7642 34.2944 58.5368C34.5217 58.3095 34.83 58.1818 35.1515 58.1818C35.473 58.1818 35.7813 58.3095 36.0086 58.5368C36.2359 58.7642 36.3636 59.0725 36.3636 59.3939V60.6061H33.9394V59.3939Z"
        fill="#288EBA"/>
    <path
        d="M41.2121 58.1818C41.2121 58.8248 41.4675 59.4414 41.9222 59.896C42.3768 60.3506 42.9934 60.6061 43.6364 60.6061V58.1818H41.2121Z"
        fill="#288EBA"/>
    <path
        d="M43.6364 58.1818C44.2793 58.1818 44.8959 58.4372 45.3506 58.8919C45.8052 59.3465 46.0606 59.9631 46.0606 60.6061H43.6364V58.1818Z"
        fill="#288EBA"/>
    <path d="M50.9091 58.1818H53.3333V60.6061H50.9091V58.1818Z" fill="#288EBA"/>
    <path d="M53.3333 58.1818H55.7576V60.6061H53.3333V58.1818Z" fill="#288EBA"/>
    <path
        d="M59.3939 58.1818C59.7154 58.1818 60.0237 58.3095 60.251 58.5368C60.4784 58.7642 60.6061 59.0725 60.6061 59.3939C60.6061 59.7154 60.4784 60.0237 60.251 60.251C60.0237 60.4784 59.7154 60.6061 59.3939 60.6061C59.0725 60.6061 58.7642 60.4784 58.5368 60.251C58.3095 60.0237 58.1818 59.7154 58.1818 59.3939C58.1818 59.0725 58.3095 58.7642 58.5368 58.5368C58.7642 58.3095 59.0725 58.1818 59.3939 58.1818Z"
        fill="#288EBA"/>
    <path d="M63.0303 58.1818H65.4546V60.6061H63.0303V58.1818Z" fill="#288EBA"/>
    <path d="M4.84849 60.6061H7.27273V63.0303H4.84849V60.6061Z" fill="#288EBA"/>
    <path d="M19.3939 60.6061H21.8182V63.0303H19.3939V60.6061Z" fill="#288EBA"/>
    <path
        d="M25.4545 60.6061C25.776 60.6061 26.0843 60.7338 26.3116 60.9611C26.539 61.1884 26.6667 61.4967 26.6667 61.8182C26.6667 62.1397 26.539 62.448 26.3116 62.6753C26.0843 62.9026 25.776 63.0303 25.4545 63.0303C25.1331 63.0303 24.8248 62.9026 24.5975 62.6753C24.3701 62.448 24.2424 62.1397 24.2424 61.8182C24.2424 61.4967 24.3701 61.1884 24.5975 60.9611C24.8248 60.7338 25.1331 60.6061 25.4545 60.6061Z"
        fill="#288EBA"/>
    <path d="M33.9394 60.6061H36.3636V63.0303H33.9394V60.6061Z" fill="#288EBA"/>
    <path
        d="M40 60.6061C40.3215 60.6061 40.6298 60.7338 40.8571 60.9611C41.0844 61.1884 41.2121 61.4967 41.2121 61.8182C41.2121 62.1397 41.0844 62.448 40.8571 62.6753C40.6298 62.9026 40.3215 63.0303 40 63.0303C39.6785 63.0303 39.3702 62.9026 39.1429 62.6753C38.9156 62.448 38.7879 62.1397 38.7879 61.8182C38.7879 61.4967 38.9156 61.1884 39.1429 60.9611C39.3702 60.7338 39.6785 60.6061 40 60.6061Z"
        fill="#288EBA"/>
    <path
        d="M43.6364 61.8182C43.6364 62.1397 43.7641 62.448 43.9914 62.6753C44.2187 62.9026 44.527 63.0303 44.8485 63.0303C45.17 63.0303 45.4783 62.9026 45.7056 62.6753C45.9329 62.448 46.0606 62.1397 46.0606 61.8182V60.6061H43.6364V61.8182Z"
        fill="#288EBA"/>
    <path d="M50.9091 60.6061H53.3333V63.0303H50.9091V60.6061Z" fill="#288EBA"/>
    <path d="M53.3333 60.6061H55.7576V63.0303H53.3333V60.6061Z" fill="#288EBA"/>
    <path d="M63.0303 60.6061H65.4546V63.0303H63.0303V60.6061Z" fill="#288EBA"/>
    <path
        d="M66.6667 60.6061C66.9881 60.6061 67.2965 60.7338 67.5238 60.9611C67.7511 61.1884 67.8788 61.4967 67.8788 61.8182C67.8788 62.1397 67.7511 62.448 67.5238 62.6753C67.2965 62.9026 66.9881 63.0303 66.6667 63.0303H65.4546V60.6061H66.6667Z"
        fill="#288EBA"/>
    <path
        d="M70.303 63.0303C70.303 62.3874 70.5584 61.7707 71.0131 61.3161C71.4677 60.8615 72.0843 60.6061 72.7273 60.6061V63.0303H70.303Z"
        fill="#288EBA"/>
    <path
        d="M73.9394 60.6061C74.2609 60.6061 74.5692 60.7338 74.7965 60.9611C75.0238 61.1884 75.1515 61.4967 75.1515 61.8182C75.1515 62.1397 75.0238 62.448 74.7965 62.6753C74.5692 62.9026 74.2609 63.0303 73.9394 63.0303H72.7273V60.6061H73.9394Z"
        fill="#288EBA"/>
    <path d="M4.84849 63.0303H7.27273V65.4545H4.84849V63.0303Z" fill="#288EBA"/>
    <path
        d="M9.69697 65.4545C9.69697 64.8116 9.95238 64.195 10.407 63.7403C10.8617 63.2857 11.4783 63.0303 12.1212 63.0303V65.4545H9.69697Z"
        fill="#288EBA"/>
    <path d="M12.1212 63.0303H14.5455V65.4545H12.1212V63.0303Z" fill="#288EBA"/>
    <path
        d="M14.5455 63.0303C15.1884 63.0303 15.805 63.2857 16.2597 63.7403C16.7143 64.195 16.9697 64.8116 16.9697 65.4545H14.5455V63.0303Z"
        fill="#288EBA"/>
    <path d="M19.3939 63.0303H21.8182V65.4545H19.3939V63.0303Z" fill="#288EBA"/>
    <path
        d="M26.6667 64.2424C26.6667 63.9209 26.7944 63.6126 27.0217 63.3853C27.249 63.158 27.5573 63.0303 27.8788 63.0303C28.2003 63.0303 28.5086 63.158 28.7359 63.3853C28.9632 63.6126 29.0909 63.9209 29.0909 64.2424V65.4545H26.6667V64.2424Z"
        fill="#288EBA"/>
    <path
        d="M32.7273 63.0303C32.4058 63.0303 32.0975 63.158 31.8702 63.3853C31.6429 63.6126 31.5152 63.9209 31.5152 64.2424C31.5152 64.5639 31.6429 64.8722 31.8702 65.0995C32.0975 65.3268 32.4058 65.4545 32.7273 65.4545H33.9394V63.0303H32.7273Z"
        fill="#288EBA"/>
    <path d="M33.9394 63.0303H36.3636V65.4545H33.9394V63.0303Z" fill="#288EBA"/>
    <path
        d="M36.3636 63.0303C37.0066 63.0303 37.6232 63.2857 38.0778 63.7403C38.5325 64.195 38.7879 64.8116 38.7879 65.4545H36.3636V63.0303Z"
        fill="#288EBA"/>
    <path
        d="M41.2121 64.2424C41.2121 63.9209 41.3398 63.6126 41.5671 63.3853C41.7945 63.158 42.1028 63.0303 42.4242 63.0303C42.7457 63.0303 43.054 63.158 43.2813 63.3853C43.5087 63.6126 43.6364 63.9209 43.6364 64.2424V65.4545H41.2121V64.2424Z"
        fill="#288EBA"/>
    <path
        d="M49.697 63.0303C49.3755 63.0303 49.0672 63.158 48.8399 63.3853C48.6126 63.6126 48.4849 63.9209 48.4849 64.2424C48.4849 64.5639 48.6126 64.8722 48.8399 65.0995C49.0672 65.3268 49.3755 65.4545 49.697 65.4545H50.9091V63.0303H49.697Z"
        fill="#288EBA"/>
    <path d="M50.9091 63.0303H53.3333V65.4545H50.9091V63.0303Z" fill="#288EBA"/>
    <path d="M53.3333 63.0303H55.7576V65.4545H53.3333V63.0303Z" fill="#288EBA"/>
    <path d="M55.7576 63.0303H58.1818V65.4545H55.7576V63.0303Z" fill="#288EBA"/>
    <path d="M58.1818 63.0303H60.6061V65.4545H58.1818V63.0303Z" fill="#288EBA"/>
    <path d="M60.6061 63.0303H63.0303V65.4545H60.6061V63.0303Z" fill="#288EBA"/>
    <path
        d="M63.0303 65.4545C63.6733 65.4545 64.2899 65.1991 64.7445 64.7445C65.1991 64.2899 65.4546 63.6732 65.4546 63.0303H63.0303V65.4545Z"
        fill="#288EBA"/>
    <path d="M70.303 63.0303H72.7273V65.4545H70.303V63.0303Z" fill="#288EBA"/>
    <path d="M4.84849 65.4545H7.27273V67.8788H4.84849V65.4545Z" fill="#288EBA"/>
    <path d="M9.69697 65.4545H12.1212V67.8788H9.69697V65.4545Z" fill="#288EBA"/>
    <path d="M12.1212 65.4545H14.5455V67.8788H12.1212V65.4545Z" fill="#288EBA"/>
    <path d="M14.5455 65.4545H16.9697V67.8788H14.5455V65.4545Z" fill="#288EBA"/>
    <path d="M19.3939 65.4545H21.8182V67.8788H19.3939V65.4545Z" fill="#288EBA"/>
    <path
        d="M26.6667 66.6667C26.6667 66.9881 26.7944 67.2964 27.0217 67.5238C27.249 67.7511 27.5573 67.8788 27.8788 67.8788C28.2003 67.8788 28.5086 67.7511 28.7359 67.5238C28.9632 67.2964 29.0909 66.9881 29.0909 66.6667V65.4545H26.6667V66.6667Z"
        fill="#288EBA"/>
    <path
        d="M36.3636 65.4545C36.3636 66.0975 36.6191 66.7141 37.0737 67.1687C37.5283 67.6234 38.1449 67.8788 38.7879 67.8788V65.4545H36.3636Z"
        fill="#288EBA"/>
    <path d="M38.7879 65.4545H41.2121V67.8788H38.7879V65.4545Z" fill="#288EBA"/>
    <path d="M41.2121 65.4545H43.6364V67.8788H41.2121V65.4545Z" fill="#288EBA"/>
    <path d="M43.6364 65.4545H46.0606V67.8788H43.6364V65.4545Z" fill="#288EBA"/>
    <path
        d="M47.2727 65.4545C47.5942 65.4545 47.9025 65.5822 48.1298 65.8096C48.3571 66.0369 48.4849 66.3452 48.4849 66.6667C48.4849 66.9881 48.3571 67.2964 48.1298 67.5238C47.9025 67.7511 47.5942 67.8788 47.2727 67.8788H46.0606V65.4545H47.2727Z"
        fill="#288EBA"/>
    <path d="M50.9091 65.4545H53.3333V67.8788H50.9091V65.4545Z" fill="#288EBA"/>
    <path d="M53.3333 65.4545H55.7576V67.8788H53.3333V65.4545Z" fill="#288EBA"/>
    <path
        d="M55.7576 67.8788C56.4005 67.8788 57.0171 67.6234 57.4718 67.1687C57.9264 66.7141 58.1818 66.0975 58.1818 65.4545H55.7576V67.8788Z"
        fill="#288EBA"/>
    <path
        d="M60.6061 66.6667C60.6061 66.9881 60.7338 67.2964 60.9611 67.5238C61.1884 67.7511 61.4967 67.8788 61.8182 67.8788C62.1397 67.8788 62.448 67.7511 62.6753 67.5238C62.9026 67.2964 63.0303 66.9881 63.0303 66.6667V65.4545H60.6061V66.6667Z"
        fill="#288EBA"/>
    <path
        d="M67.8788 67.8788C67.8788 67.2358 68.1342 66.6192 68.5888 66.1646C69.0435 65.71 69.6601 65.4545 70.303 65.4545V67.8788H67.8788Z"
        fill="#288EBA"/>
    <path d="M70.303 65.4545H72.7273V67.8788H70.303V65.4545Z" fill="#288EBA"/>
    <path d="M4.84849 67.8788H7.27273V70.303H4.84849V67.8788Z" fill="#288EBA"/>
    <path
        d="M9.69697 67.8788C9.69697 68.5217 9.95238 69.1384 10.407 69.593C10.8617 70.0476 11.4783 70.303 12.1212 70.303V67.8788H9.69697Z"
        fill="#288EBA"/>
    <path d="M12.1212 67.8788H14.5455V70.303H12.1212V67.8788Z" fill="#288EBA"/>
    <path
        d="M14.5455 70.303C15.1884 70.303 15.805 70.0476 16.2597 69.593C16.7143 69.1384 16.9697 68.5217 16.9697 67.8788H14.5455V70.303Z"
        fill="#288EBA"/>
    <path d="M19.3939 67.8788H21.8182V70.303H19.3939V67.8788Z" fill="#288EBA"/>
    <path
        d="M30.303 67.8788C30.6245 67.8788 30.9328 68.0065 31.1601 68.2338C31.3875 68.4611 31.5152 68.7694 31.5152 69.0909C31.5152 69.4124 31.3875 69.7207 31.1601 69.948C30.9328 70.1753 30.6245 70.303 30.303 70.303C29.9816 70.303 29.6733 70.1753 29.4459 69.948C29.2186 69.7207 29.0909 69.4124 29.0909 69.0909C29.0909 68.7694 29.2186 68.4611 29.4459 68.2338C29.6733 68.0065 29.9816 67.8788 30.303 67.8788Z"
        fill="#288EBA"/>
    <path
        d="M33.9394 69.0909C33.9394 68.7694 34.0671 68.4611 34.2944 68.2338C34.5217 68.0065 34.83 67.8788 35.1515 67.8788C35.473 67.8788 35.7813 68.0065 36.0086 68.2338C36.2359 68.4611 36.3636 68.7694 36.3636 69.0909V70.303H33.9394V69.0909Z"
        fill="#288EBA"/>
    <path d="M38.7879 67.8788H41.2121V70.303H38.7879V67.8788Z" fill="#288EBA"/>
    <path d="M41.2121 67.8788H43.6364V70.303H41.2121V67.8788Z" fill="#288EBA"/>
    <path d="M43.6364 67.8788H46.0606V70.303H43.6364V67.8788Z" fill="#288EBA"/>
    <path d="M50.9091 67.8788H53.3333V70.303H50.9091V67.8788Z" fill="#288EBA"/>
    <path
        d="M59.3939 67.8788C59.7154 67.8788 60.0237 68.0065 60.251 68.2338C60.4784 68.4611 60.6061 68.7694 60.6061 69.0909C60.6061 69.4124 60.4784 69.7207 60.251 69.948C60.0237 70.1753 59.7154 70.303 59.3939 70.303C59.0725 70.303 58.7642 70.1753 58.5368 69.948C58.3095 69.7207 58.1818 69.4124 58.1818 69.0909C58.1818 68.7694 58.3095 68.4611 58.5368 68.2338C58.7642 68.0065 59.0725 67.8788 59.3939 67.8788Z"
        fill="#288EBA"/>
    <path
        d="M63.0303 70.303C63.0303 69.6601 63.2857 69.0435 63.7404 68.5888C64.195 68.1342 64.8116 67.8788 65.4546 67.8788V70.303H63.0303Z"
        fill="#288EBA"/>
    <path d="M65.4546 67.8788H67.8788V70.303H65.4546V67.8788Z" fill="#288EBA"/>
    <path d="M67.8788 67.8788H70.303V70.303H67.8788V67.8788Z" fill="#288EBA"/>
    <path
        d="M70.303 70.303C70.946 70.303 71.5626 70.0476 72.0172 69.593C72.4719 69.1384 72.7273 68.5217 72.7273 67.8788H70.303V70.303Z"
        fill="#288EBA"/>
    <path d="M4.84849 70.303H7.27273V72.7273H4.84849V70.303Z" fill="#288EBA"/>
    <path d="M19.3939 70.303H21.8182V72.7273H19.3939V70.303Z" fill="#288EBA"/>
    <path
        d="M27.8788 70.303C28.2003 70.303 28.5086 70.4307 28.7359 70.6581C28.9632 70.8854 29.0909 71.1937 29.0909 71.5152C29.0909 71.8366 28.9632 72.1449 28.7359 72.3722C28.5086 72.5996 28.2003 72.7273 27.8788 72.7273C27.5573 72.7273 27.249 72.5996 27.0217 72.3722C26.7944 72.1449 26.6667 71.8366 26.6667 71.5152C26.6667 71.1937 26.7944 70.8854 27.0217 70.6581C27.249 70.4307 27.5573 70.303 27.8788 70.303Z"
        fill="#288EBA"/>
    <path
        d="M31.5152 72.7273C31.5152 72.0843 31.7706 71.4677 32.2252 71.0131C32.6798 70.5584 33.2964 70.303 33.9394 70.303V72.7273H31.5152Z"
        fill="#288EBA"/>
    <path d="M33.9394 70.303H36.3636V72.7273H33.9394V70.303Z" fill="#288EBA"/>
    <path d="M36.3636 70.303H38.7879V72.7273H36.3636V70.303Z" fill="#288EBA"/>
    <path d="M38.7879 70.303H41.2121V72.7273H38.7879V70.303Z" fill="#288EBA"/>
    <path d="M43.6364 70.303H46.0606V72.7273H43.6364V70.303Z" fill="#288EBA"/>
    <path d="M50.9091 70.303H53.3333V72.7273H50.9091V70.303Z" fill="#288EBA"/>
    <path
        d="M55.7576 71.5152C55.7576 71.1937 55.8853 70.8854 56.1126 70.6581C56.3399 70.4307 56.6482 70.303 56.9697 70.303C57.2912 70.303 57.5995 70.4307 57.8268 70.6581C58.0541 70.8854 58.1818 71.1937 58.1818 71.5152V72.7273H55.7576V71.5152Z"
        fill="#288EBA"/>
    <path d="M63.0303 70.303H65.4546V72.7273H63.0303V70.303Z" fill="#288EBA"/>
    <path d="M67.8788 70.303H70.303V72.7273H67.8788V70.303Z" fill="#288EBA"/>
    <path
        d="M73.9394 70.303C74.2609 70.303 74.5692 70.4307 74.7965 70.6581C75.0238 70.8854 75.1515 71.1937 75.1515 71.5152C75.1515 71.8366 75.0238 72.1449 74.7965 72.3722C74.5692 72.5996 74.2609 72.7273 73.9394 72.7273C73.6179 72.7273 73.3096 72.5996 73.0823 72.3722C72.855 72.1449 72.7273 71.8366 72.7273 71.5152C72.7273 71.1937 72.855 70.8854 73.0823 70.6581C73.3096 70.4307 73.6179 70.303 73.9394 70.303Z"
        fill="#288EBA"/>
    <path
        d="M4.84849 72.7273C4.84849 73.3702 5.1039 73.9868 5.55853 74.4415C6.01317 74.8961 6.62978 75.1515 7.27273 75.1515V72.7273H4.84849Z"
        fill="#288EBA"/>
    <path d="M7.27273 72.7273H9.69697V75.1515H7.27273V72.7273Z" fill="#288EBA"/>
    <path d="M9.69697 72.7273H12.1212V75.1515H9.69697V72.7273Z" fill="#288EBA"/>
    <path d="M12.1212 72.7273H14.5455V75.1515H12.1212V72.7273Z" fill="#288EBA"/>
    <path d="M14.5455 72.7273H16.9697V75.1515H14.5455V72.7273Z" fill="#288EBA"/>
    <path d="M16.9697 72.7273H19.3939V75.1515H16.9697V72.7273Z" fill="#288EBA"/>
    <path
        d="M19.3939 75.1515C20.0369 75.1515 20.6535 74.8961 21.1081 74.4415C21.5628 73.9868 21.8182 73.3702 21.8182 72.7273H19.3939V75.1515Z"
        fill="#288EBA"/>
    <path
        d="M31.5152 72.7273C31.5152 73.3702 31.7706 73.9868 32.2252 74.4415C32.6798 74.8961 33.2964 75.1515 33.9394 75.1515V72.7273H31.5152Z"
        fill="#288EBA"/>
    <path
        d="M33.9394 75.1515C34.5823 75.1515 35.199 74.8961 35.6536 74.4415C36.1082 73.9868 36.3636 73.3702 36.3636 72.7273H33.9394V75.1515Z"
        fill="#288EBA"/>
    <path
        d="M38.7879 73.9394C38.7879 74.2609 38.9156 74.5692 39.1429 74.7965C39.3702 75.0238 39.6785 75.1515 40 75.1515C40.3215 75.1515 40.6298 75.0238 40.8571 74.7965C41.0844 74.5692 41.2121 74.2609 41.2121 73.9394V72.7273H38.7879V73.9394Z"
        fill="#288EBA"/>
    <path
        d="M43.6364 72.7273C43.6364 73.3702 43.8918 73.9868 44.3464 74.4415C44.801 74.8961 45.4177 75.1515 46.0606 75.1515V72.7273H43.6364Z"
        fill="#288EBA"/>
    <path
        d="M47.2727 72.7273C47.5942 72.7273 47.9025 72.855 48.1298 73.0823C48.3571 73.3096 48.4849 73.6179 48.4849 73.9394C48.4849 74.2609 48.3571 74.5692 48.1298 74.7965C47.9025 75.0238 47.5942 75.1515 47.2727 75.1515H46.0606V72.7273H47.2727Z"
        fill="#288EBA"/>
    <path
        d="M50.9091 73.9394C50.9091 74.2609 51.0368 74.5692 51.2641 74.7965C51.4914 75.0238 51.7997 75.1515 52.1212 75.1515C52.4427 75.1515 52.751 75.0238 52.9783 74.7965C53.2056 74.5692 53.3333 74.2609 53.3333 73.9394V72.7273H50.9091V73.9394Z"
        fill="#288EBA"/>
    <path
        d="M55.7576 72.7273C55.7576 73.3702 56.013 73.9868 56.4676 74.4415C56.9223 74.8961 57.5389 75.1515 58.1818 75.1515V72.7273H55.7576Z"
        fill="#288EBA"/>
    <path
        d="M59.3939 72.7273C59.7154 72.7273 60.0237 72.855 60.251 73.0823C60.4784 73.3096 60.6061 73.6179 60.6061 73.9394C60.6061 74.2609 60.4784 74.5692 60.251 74.7965C60.0237 75.0238 59.7154 75.1515 59.3939 75.1515H58.1818V72.7273H59.3939Z"
        fill="#288EBA"/>
    <path
        d="M63.0303 73.9394C63.0303 74.2609 63.158 74.5692 63.3853 74.7965C63.6126 75.0238 63.921 75.1515 64.2424 75.1515C64.5639 75.1515 64.8722 75.0238 65.0995 74.7965C65.3268 74.5692 65.4546 74.2609 65.4546 73.9394V72.7273H63.0303V73.9394Z"
        fill="#288EBA"/>
    <path
        d="M67.8788 73.9394C67.8788 74.2609 68.0065 74.5692 68.2338 74.7965C68.4611 75.0238 68.7694 75.1515 69.0909 75.1515C69.4124 75.1515 69.7207 75.0238 69.948 74.7965C70.1753 74.5692 70.303 74.2609 70.303 73.9394V72.7273H67.8788V73.9394Z"
        fill="#288EBA"/>
    <path fill-rule="evenodd" clip-rule="evenodd"
          d="M38.8319 32.3332C38.5564 33.23 37.9905 35.1918 37.6744 37.1244C38.495 37.2569 39.2966 37.3416 40 37.3416C40.7034 37.3416 41.505 37.2569 42.3257 37.1244C42.0095 35.1918 41.4436 33.23 41.1681 32.3332C40.7882 32.2718 40.398 32.2398 40 32.2398C39.602 32.2398 39.2118 32.2718 38.8319 32.3332ZM42.5003 32.6817C42.8028 33.7287 43.2219 35.3212 43.4836 36.9105C44.6135 36.6778 45.6795 36.3937 46.4537 36.1708C45.624 34.5658 44.2129 33.31 42.5003 32.6817ZM46.9097 37.2645C46.0917 37.5026 44.9067 37.8225 43.6446 38.0793C43.6971 38.5673 43.7282 39.0469 43.7282 39.5C43.7282 40.1612 43.662 40.8808 43.5584 41.6044C45.0692 41.2894 46.4551 40.8868 47.1668 40.6681C47.2282 40.2882 47.2602 39.898 47.2602 39.5C47.2602 38.7193 47.1371 37.9681 46.9097 37.2645ZM46.8183 42.0003C45.9375 42.2547 44.6718 42.5914 43.3475 42.8475C43.0914 44.1718 42.7547 45.4375 42.5003 46.3183C44.4984 45.5854 46.0854 43.9984 46.8183 42.0003ZM41.1682 46.6668C41.3868 45.9551 41.7894 44.5692 42.1044 43.0584C41.3808 43.162 40.6612 43.2282 40 43.2282C39.3388 43.2282 38.6192 43.162 37.8957 43.0584C38.2107 44.5692 38.6133 45.9551 38.8319 46.6668C39.2118 46.7282 39.602 46.7602 40 46.7602C40.398 46.7602 40.7882 46.7282 41.1682 46.6668ZM37.4997 46.3183C37.2453 45.4375 36.9086 44.1718 36.6524 42.8475C35.3282 42.5914 34.0625 42.2547 33.1817 42.0003C33.9147 43.9984 35.5016 45.5854 37.4997 46.3183ZM32.8332 40.6681C33.5449 40.8868 34.9308 41.2894 36.4416 41.6044C36.338 40.8808 36.2718 40.1612 36.2718 39.5C36.2718 39.0469 36.3029 38.5673 36.3554 38.0793C35.0933 37.8225 33.9083 37.5026 33.0903 37.2645C32.8629 37.9681 32.7398 38.7193 32.7398 39.5C32.7398 39.898 32.7718 40.2882 32.8332 40.6681ZM33.5463 36.1708C34.3205 36.3937 35.3865 36.6778 36.5164 36.9105C36.7781 35.3212 37.1973 33.7287 37.4997 32.6817C35.7871 33.31 34.376 34.5658 33.5463 36.1708ZM37.5169 38.2916C37.4735 38.7158 37.4491 39.1226 37.4491 39.5C37.4491 40.2049 37.5342 41.009 37.6674 41.8327C38.491 41.9658 39.2951 42.0509 40 42.0509C40.7049 42.0509 41.509 41.9658 42.3327 41.8327C42.4658 41.009 42.5509 40.2049 42.5509 39.5C42.5509 39.1226 42.5265 38.7158 42.4831 38.2916C41.6332 38.4277 40.7761 38.5189 40 38.5189C39.2239 38.5189 38.3668 38.4277 37.5169 38.2916ZM38.2545 31.2434C38.8182 31.1248 39.4022 31.0625 40 31.0625C40.5978 31.0625 41.1818 31.1248 41.7455 31.2434C44.5081 31.8247 46.7711 33.7557 47.815 36.3138C48.2166 37.2977 48.4375 38.3737 48.4375 39.5C48.4375 40.0978 48.3752 40.6818 48.2566 41.2455C47.5707 44.5052 45.0052 47.0707 41.7455 47.7566C41.1818 47.8752 40.5978 47.9375 40 47.9375C39.4022 47.9375 38.8182 47.8752 38.2545 47.7566C34.9948 47.0707 32.4293 44.5052 31.7434 41.2455C31.6248 40.6818 31.5625 40.0978 31.5625 39.5C31.5625 38.3729 31.7838 37.296 32.1859 36.3115C33.2303 33.7546 35.4927 31.8245 38.2545 31.2434Z"
          fill="#288EBA"/>
</svg>
