<svg width="350" height="350" viewBox="0 0 80 80" fill="none" xmlns="http://www.w3.org/2000/svg">
    <path
        d="M4.84848 7.27272C4.84848 6.62977 5.10389 6.01316 5.55852 5.55852C6.01316 5.10389 6.62977 4.84848 7.27272 4.84848V7.27272H4.84848Z"
        fill="#288EBA"/>
    <path d="M7.27272 4.84848H9.69697V7.27272H7.27272V4.84848Z" fill="#288EBA"/>
    <path d="M9.69697 4.84848H12.1212V7.27272H9.69697V4.84848Z" fill="#288EBA"/>
    <path d="M12.1212 4.84848H14.5455V7.27272H12.1212V4.84848Z" fill="#288EBA"/>
    <path d="M14.5455 4.84848H16.9697V7.27272H14.5455V4.84848Z" fill="#288EBA"/>
    <path d="M16.9697 4.84848H19.3939V7.27272H16.9697V4.84848Z" fill="#288EBA"/>
    <path
        d="M19.3939 4.84848C20.0369 4.84848 20.6535 5.10389 21.1081 5.55852C21.5628 6.01316 21.8182 6.62977 21.8182 7.27272H19.3939V4.84848Z"
        fill="#288EBA"/>
    <path
        d="M24.2424 6.0606C24.2424 5.73913 24.3701 5.43082 24.5974 5.2035C24.8248 4.97619 25.1331 4.84848 25.4545 4.84848C25.776 4.84848 26.0843 4.97619 26.3116 5.2035C26.539 5.43082 26.6667 5.73913 26.6667 6.0606V7.27272H24.2424V6.0606Z"
        fill="#288EBA"/>
    <path
        d="M37.5758 4.84848C37.8972 4.84848 38.2055 4.97619 38.4329 5.2035C38.6602 5.43082 38.7879 5.73913 38.7879 6.0606C38.7879 6.38208 38.6602 6.69038 38.4329 6.9177C38.2055 7.14502 37.8972 7.27272 37.5758 7.27272C37.2543 7.27272 36.946 7.14502 36.7187 6.9177C36.4913 6.69038 36.3636 6.38208 36.3636 6.0606C36.3636 5.73913 36.4913 5.43082 36.7187 5.2035C36.946 4.97619 37.2543 4.84848 37.5758 4.84848Z"
        fill="#288EBA"/>
    <path
        d="M42.4242 4.84848C42.1028 4.84848 41.7945 4.97619 41.5671 5.2035C41.3398 5.43082 41.2121 5.73913 41.2121 6.0606C41.2121 6.38208 41.3398 6.69038 41.5671 6.9177C41.7945 7.14502 42.1028 7.27272 42.4242 7.27272H43.6364V4.84848H42.4242Z"
        fill="#288EBA"/>
    <path d="M43.6364 4.84848H46.0606V7.27272H43.6364V4.84848Z" fill="#288EBA"/>
    <path d="M46.0606 4.84848H48.4848V7.27272H46.0606V4.84848Z" fill="#288EBA"/>
    <path
        d="M48.4848 4.84848C49.1278 4.84848 49.7444 5.10389 50.199 5.55852C50.6537 6.01316 50.9091 6.62977 50.9091 7.27272H48.4848V4.84848Z"
        fill="#288EBA"/>
    <path
        d="M58.1818 7.27272C58.1818 6.62977 58.4372 6.01316 58.8919 5.55852C59.3465 5.10389 59.9631 4.84848 60.6061 4.84848V7.27272H58.1818Z"
        fill="#288EBA"/>
    <path d="M60.6061 4.84848H63.0303V7.27272H60.6061V4.84848Z" fill="#288EBA"/>
    <path d="M63.0303 4.84848H65.4545V7.27272H63.0303V4.84848Z" fill="#288EBA"/>
    <path d="M65.4545 4.84848H67.8788V7.27272H65.4545V4.84848Z" fill="#288EBA"/>
    <path d="M67.8788 4.84848H70.303V7.27272H67.8788V4.84848Z" fill="#288EBA"/>
    <path d="M70.303 4.84848H72.7273V7.27272H70.303V4.84848Z" fill="#288EBA"/>
    <path
        d="M72.7273 4.84848C73.3702 4.84848 73.9868 5.10389 74.4415 5.55852C74.8961 6.01316 75.1515 6.62977 75.1515 7.27272H72.7273V4.84848Z"
        fill="#288EBA"/>
    <path d="M4.84848 7.27272H7.27272V9.69697H4.84848V7.27272Z" fill="#288EBA"/>
    <path d="M19.3939 7.27272H21.8182V9.69697H19.3939V7.27272Z" fill="#288EBA"/>
    <path
        d="M24.2424 7.27272C24.2424 7.91567 24.4978 8.53229 24.9525 8.98692C25.4071 9.44155 26.0237 9.69697 26.6667 9.69697V7.27272H24.2424Z"
        fill="#288EBA"/>
    <path
        d="M26.6667 7.27272C27.3096 7.27272 27.9262 7.52813 28.3809 7.98277C28.8355 8.4374 29.0909 9.05402 29.0909 9.69697H26.6667V7.27272Z"
        fill="#288EBA"/>
    <path
        d="M33.9394 8.48484C33.9394 8.16337 34.0671 7.85506 34.2944 7.62774C34.5217 7.40043 34.83 7.27272 35.1515 7.27272C35.473 7.27272 35.7813 7.40043 36.0086 7.62774C36.2359 7.85506 36.3636 8.16337 36.3636 8.48484V9.69697H33.9394V8.48484Z"
        fill="#288EBA"/>
    <path
        d="M40 7.27272C40.3215 7.27272 40.6298 7.40043 40.8571 7.62774C41.0844 7.85506 41.2121 8.16337 41.2121 8.48484C41.2121 8.80632 41.0844 9.11463 40.8571 9.34194C40.6298 9.56926 40.3215 9.69697 40 9.69697C39.6785 9.69697 39.3702 9.56926 39.1429 9.34194C38.9156 9.11463 38.7879 8.80632 38.7879 8.48484C38.7879 8.16337 38.9156 7.85506 39.1429 7.62774C39.3702 7.40043 39.6785 7.27272 40 7.27272Z"
        fill="#288EBA"/>
    <path d="M43.6364 7.27272H46.0606V9.69697H43.6364V7.27272Z" fill="#288EBA"/>
    <path d="M48.4848 7.27272H50.9091V9.69697H48.4848V7.27272Z" fill="#288EBA"/>
    <path
        d="M50.9091 7.27272C51.552 7.27272 52.1687 7.52813 52.6233 7.98277C53.0779 8.4374 53.3333 9.05402 53.3333 9.69697H50.9091V7.27272Z"
        fill="#288EBA"/>
    <path d="M58.1818 7.27272H60.6061V9.69697H58.1818V7.27272Z" fill="#288EBA"/>
    <path d="M72.7273 7.27272H75.1515V9.69697H72.7273V7.27272Z" fill="#288EBA"/>
    <path d="M4.84848 9.69697H7.27272V12.1212H4.84848V9.69697Z" fill="#288EBA"/>
    <path
        d="M9.69697 12.1212C9.69697 11.4783 9.95238 10.8616 10.407 10.407C10.8616 9.95238 11.4783 9.69697 12.1212 9.69697V12.1212H9.69697Z"
        fill="#288EBA"/>
    <path d="M12.1212 9.69697H14.5455V12.1212H12.1212V9.69697Z" fill="#288EBA"/>
    <path
        d="M14.5455 9.69697C15.1884 9.69697 15.805 9.95238 16.2596 10.407C16.7143 10.8616 16.9697 11.4783 16.9697 12.1212H14.5455V9.69697Z"
        fill="#288EBA"/>
    <path d="M19.3939 9.69697H21.8182V12.1212H19.3939V9.69697Z" fill="#288EBA"/>
    <path
        d="M26.6667 9.69697C26.6667 10.3399 26.9221 10.9565 27.3767 11.4112C27.8313 11.8658 28.448 12.1212 29.0909 12.1212V9.69697H26.6667Z"
        fill="#288EBA"/>
    <path
        d="M29.0909 9.69697C29.7339 9.69697 30.3505 9.95238 30.8051 10.407C31.2597 10.8616 31.5151 11.4783 31.5151 12.1212H29.0909V9.69697Z"
        fill="#288EBA"/>
    <path
        d="M33.9394 10.9091C33.9394 11.2306 34.0671 11.5389 34.2944 11.7662C34.5217 11.9935 34.83 12.1212 35.1515 12.1212C35.473 12.1212 35.7813 11.9935 36.0086 11.7662C36.2359 11.5389 36.3636 11.2306 36.3636 10.9091V9.69697H33.9394V10.9091Z"
        fill="#288EBA"/>
    <path
        d="M43.6364 9.69697C43.6364 10.3399 43.8918 10.9565 44.3464 11.4112C44.801 11.8658 45.4177 12.1212 46.0606 12.1212V9.69697H43.6364Z"
        fill="#288EBA"/>
    <path d="M46.0606 9.69697H48.4848V12.1212H46.0606V9.69697Z" fill="#288EBA"/>
    <path d="M48.4848 9.69697H50.9091V12.1212H48.4848V9.69697Z" fill="#288EBA"/>
    <path d="M50.9091 9.69697H53.3333V12.1212H50.9091V9.69697Z" fill="#288EBA"/>
    <path
        d="M54.5455 9.69697C54.8669 9.69697 55.1752 9.82467 55.4025 10.052C55.6299 10.2793 55.7576 10.5876 55.7576 10.9091C55.7576 11.2306 55.6299 11.5389 55.4025 11.7662C55.1752 11.9935 54.8669 12.1212 54.5455 12.1212H53.3333V9.69697H54.5455Z"
        fill="#288EBA"/>
    <path d="M58.1818 9.69697H60.6061V12.1212H58.1818V9.69697Z" fill="#288EBA"/>
    <path
        d="M63.0303 12.1212C63.0303 11.4783 63.2857 10.8616 63.7403 10.407C64.195 9.95238 64.8116 9.69697 65.4545 9.69697V12.1212H63.0303Z"
        fill="#288EBA"/>
    <path d="M65.4545 9.69697H67.8788V12.1212H65.4545V9.69697Z" fill="#288EBA"/>
    <path
        d="M67.8788 9.69697C68.5217 9.69697 69.1384 9.95238 69.593 10.407C70.0476 10.8616 70.303 11.4783 70.303 12.1212H67.8788V9.69697Z"
        fill="#288EBA"/>
    <path d="M72.7273 9.69697H75.1515V12.1212H72.7273V9.69697Z" fill="#288EBA"/>
    <path d="M4.84848 12.1212H7.27272V14.5455H4.84848V12.1212Z" fill="#288EBA"/>
    <path d="M9.69697 12.1212H12.1212V14.5455H9.69697V12.1212Z" fill="#288EBA"/>
    <path d="M12.1212 12.1212H14.5455V14.5455H12.1212V12.1212Z" fill="#288EBA"/>
    <path d="M14.5455 12.1212H16.9697V14.5455H14.5455V12.1212Z" fill="#288EBA"/>
    <path d="M19.3939 12.1212H21.8182V14.5455H19.3939V12.1212Z" fill="#288EBA"/>
    <path
        d="M24.2424 13.3333C24.2424 13.0119 24.3701 12.7035 24.5974 12.4762C24.8248 12.2489 25.1331 12.1212 25.4545 12.1212C25.776 12.1212 26.0843 12.2489 26.3116 12.4762C26.539 12.7035 26.6667 13.0119 26.6667 13.3333V14.5455H24.2424V13.3333Z"
        fill="#288EBA"/>
    <path
        d="M29.0909 13.3333C29.0909 13.6548 29.2186 13.9631 29.4459 14.1904C29.6732 14.4177 29.9816 14.5455 30.303 14.5455C30.6245 14.5455 30.9328 14.4177 31.1601 14.1904C31.3874 13.9631 31.5151 13.6548 31.5151 13.3333V12.1212H29.0909V13.3333Z"
        fill="#288EBA"/>
    <path
        d="M37.5758 12.1212C37.2543 12.1212 36.946 12.2489 36.7187 12.4762C36.4913 12.7035 36.3636 13.0119 36.3636 13.3333C36.3636 13.6548 36.4913 13.9631 36.7187 14.1904C36.946 14.4177 37.2543 14.5455 37.5758 14.5455H38.7879V12.1212H37.5758Z"
        fill="#288EBA"/>
    <path
        d="M40 12.1212C40.3215 12.1212 40.6298 12.2489 40.8571 12.4762C41.0844 12.7035 41.2121 13.0119 41.2121 13.3333C41.2121 13.6548 41.0844 13.9631 40.8571 14.1904C40.6298 14.4177 40.3215 14.5455 40 14.5455H38.7879V12.1212H40Z"
        fill="#288EBA"/>
    <path d="M48.4848 12.1212H50.9091V14.5455H48.4848V12.1212Z" fill="#288EBA"/>
    <path d="M58.1818 12.1212H60.6061V14.5455H58.1818V12.1212Z" fill="#288EBA"/>
    <path d="M63.0303 12.1212H65.4545V14.5455H63.0303V12.1212Z" fill="#288EBA"/>
    <path d="M65.4545 12.1212H67.8788V14.5455H65.4545V12.1212Z" fill="#288EBA"/>
    <path d="M67.8788 12.1212H70.303V14.5455H67.8788V12.1212Z" fill="#288EBA"/>
    <path d="M72.7273 12.1212H75.1515V14.5455H72.7273V12.1212Z" fill="#288EBA"/>
    <path d="M4.84848 14.5455H7.27272V16.9697H4.84848V14.5455Z" fill="#288EBA"/>
    <path
        d="M9.69697 14.5455C9.69697 15.1884 9.95238 15.805 10.407 16.2596C10.8616 16.7143 11.4783 16.9697 12.1212 16.9697V14.5455H9.69697Z"
        fill="#288EBA"/>
    <path d="M12.1212 14.5455H14.5455V16.9697H12.1212V14.5455Z" fill="#288EBA"/>
    <path
        d="M14.5455 16.9697C15.1884 16.9697 15.805 16.7143 16.2596 16.2596C16.7143 15.805 16.9697 15.1884 16.9697 14.5455H14.5455V16.9697Z"
        fill="#288EBA"/>
    <path d="M19.3939 14.5455H21.8182V16.9697H19.3939V14.5455Z" fill="#288EBA"/>
    <path d="M24.2424 14.5455H26.6667V16.9697H24.2424V14.5455Z" fill="#288EBA"/>
    <path
        d="M27.8788 14.5455C28.2003 14.5455 28.5086 14.6732 28.7359 14.9005C28.9632 15.1278 29.0909 15.4361 29.0909 15.7576C29.0909 16.079 28.9632 16.3874 28.7359 16.6147C28.5086 16.842 28.2003 16.9697 27.8788 16.9697H26.6667V14.5455H27.8788Z"
        fill="#288EBA"/>
    <path
        d="M32.7273 14.5455C32.4058 14.5455 32.0975 14.6732 31.8702 14.9005C31.6429 15.1278 31.5151 15.4361 31.5151 15.7576C31.5151 16.079 31.6429 16.3874 31.8702 16.6147C32.0975 16.842 32.4058 16.9697 32.7273 16.9697H33.9394V14.5455H32.7273Z"
        fill="#288EBA"/>
    <path
        d="M35.1515 14.5455C35.473 14.5455 35.7813 14.6732 36.0086 14.9005C36.2359 15.1278 36.3636 15.4361 36.3636 15.7576C36.3636 16.079 36.2359 16.3874 36.0086 16.6147C35.7813 16.842 35.473 16.9697 35.1515 16.9697H33.9394V14.5455H35.1515Z"
        fill="#288EBA"/>
    <path
        d="M44.8485 14.5455C45.17 14.5455 45.4783 14.6732 45.7056 14.9005C45.9329 15.1278 46.0606 15.4361 46.0606 15.7576C46.0606 16.079 45.9329 16.3874 45.7056 16.6147C45.4783 16.842 45.17 16.9697 44.8485 16.9697C44.527 16.9697 44.2187 16.842 43.9914 16.6147C43.7641 16.3874 43.6364 16.079 43.6364 15.7576C43.6364 15.4361 43.7641 15.1278 43.9914 14.9005C44.2187 14.6732 44.527 14.5455 44.8485 14.5455Z"
        fill="#288EBA"/>
    <path
        d="M48.4848 15.7576C48.4848 16.079 48.6125 16.3874 48.8399 16.6147C49.0672 16.842 49.3755 16.9697 49.697 16.9697C50.0184 16.9697 50.3267 16.842 50.5541 16.6147C50.7814 16.3874 50.9091 16.079 50.9091 15.7576V14.5455H48.4848V15.7576Z"
        fill="#288EBA"/>
    <path
        d="M54.5455 14.5455C54.8669 14.5455 55.1752 14.6732 55.4025 14.9005C55.6299 15.1278 55.7576 15.4361 55.7576 15.7576C55.7576 16.079 55.6299 16.3874 55.4025 16.6147C55.1752 16.842 54.8669 16.9697 54.5455 16.9697C54.224 16.9697 53.9157 16.842 53.6884 16.6147C53.461 16.3874 53.3333 16.079 53.3333 15.7576C53.3333 15.4361 53.461 15.1278 53.6884 14.9005C53.9157 14.6732 54.224 14.5455 54.5455 14.5455Z"
        fill="#288EBA"/>
    <path d="M58.1818 14.5455H60.6061V16.9697H58.1818V14.5455Z" fill="#288EBA"/>
    <path
        d="M63.0303 14.5455C63.0303 15.1884 63.2857 15.805 63.7403 16.2596C64.195 16.7143 64.8116 16.9697 65.4545 16.9697V14.5455H63.0303Z"
        fill="#288EBA"/>
    <path d="M65.4545 14.5455H67.8788V16.9697H65.4545V14.5455Z" fill="#288EBA"/>
    <path
        d="M67.8788 16.9697C68.5217 16.9697 69.1384 16.7143 69.593 16.2596C70.0476 15.805 70.303 15.1884 70.303 14.5455H67.8788V16.9697Z"
        fill="#288EBA"/>
    <path d="M72.7273 14.5455H75.1515V16.9697H72.7273V14.5455Z" fill="#288EBA"/>
    <path d="M4.84848 16.9697H7.27272V19.3939H4.84848V16.9697Z" fill="#288EBA"/>
    <path d="M19.3939 16.9697H21.8182V19.3939H19.3939V16.9697Z" fill="#288EBA"/>
    <path d="M24.2424 16.9697H26.6667V19.3939H24.2424V16.9697Z" fill="#288EBA"/>
    <path
        d="M29.0909 18.1818C29.0909 17.8603 29.2186 17.552 29.4459 17.3247C29.6732 17.0974 29.9816 16.9697 30.303 16.9697C30.6245 16.9697 30.9328 17.0974 31.1601 17.3247C31.3874 17.552 31.5151 17.8603 31.5151 18.1818V19.3939H29.0909V18.1818Z"
        fill="#288EBA"/>
    <path
        d="M37.5758 16.9697C37.2543 16.9697 36.946 17.0974 36.7187 17.3247C36.4913 17.552 36.3636 17.8603 36.3636 18.1818C36.3636 18.5033 36.4913 18.8116 36.7187 19.0389C36.946 19.2662 37.2543 19.3939 37.5758 19.3939H38.7879V16.9697H37.5758Z"
        fill="#288EBA"/>
    <path
        d="M38.7879 16.9697C39.4308 16.9697 40.0474 17.2251 40.5021 17.6797C40.9567 18.1344 41.2121 18.751 41.2121 19.3939H38.7879V16.9697Z"
        fill="#288EBA"/>
    <path
        d="M52.1212 16.9697C52.4427 16.9697 52.751 17.0974 52.9783 17.3247C53.2056 17.552 53.3333 17.8603 53.3333 18.1818C53.3333 18.5033 53.2056 18.8116 52.9783 19.0389C52.751 19.2662 52.4427 19.3939 52.1212 19.3939C51.7997 19.3939 51.4914 19.2662 51.2641 19.0389C51.0368 18.8116 50.9091 18.5033 50.9091 18.1818C50.9091 17.8603 51.0368 17.552 51.2641 17.3247C51.4914 17.0974 51.7997 16.9697 52.1212 16.9697Z"
        fill="#288EBA"/>
    <path d="M58.1818 16.9697H60.6061V19.3939H58.1818V16.9697Z" fill="#288EBA"/>
    <path d="M72.7273 16.9697H75.1515V19.3939H72.7273V16.9697Z" fill="#288EBA"/>
    <path
        d="M4.84848 19.3939C4.84848 20.0369 5.10389 20.6535 5.55852 21.1081C6.01316 21.5628 6.62977 21.8182 7.27272 21.8182V19.3939H4.84848Z"
        fill="#288EBA"/>
    <path d="M7.27272 19.3939H9.69697V21.8182H7.27272V19.3939Z" fill="#288EBA"/>
    <path d="M9.69697 19.3939H12.1212V21.8182H9.69697V19.3939Z" fill="#288EBA"/>
    <path d="M12.1212 19.3939H14.5455V21.8182H12.1212V19.3939Z" fill="#288EBA"/>
    <path d="M14.5455 19.3939H16.9697V21.8182H14.5455V19.3939Z" fill="#288EBA"/>
    <path d="M16.9697 19.3939H19.3939V21.8182H16.9697V19.3939Z" fill="#288EBA"/>
    <path
        d="M19.3939 21.8182C20.0369 21.8182 20.6535 21.5628 21.1081 21.1081C21.5628 20.6535 21.8182 20.0369 21.8182 19.3939H19.3939V21.8182Z"
        fill="#288EBA"/>
    <path
        d="M24.2424 20.6061C24.2424 20.9275 24.3701 21.2358 24.5974 21.4632C24.8248 21.6905 25.1331 21.8182 25.4545 21.8182C25.776 21.8182 26.0843 21.6905 26.3116 21.4632C26.539 21.2358 26.6667 20.9275 26.6667 20.6061V19.3939H24.2424V20.6061Z"
        fill="#288EBA"/>
    <path
        d="M29.0909 20.6061C29.0909 20.9275 29.2186 21.2358 29.4459 21.4632C29.6732 21.6905 29.9816 21.8182 30.303 21.8182C30.6245 21.8182 30.9328 21.6905 31.1601 21.4632C31.3874 21.2358 31.5151 20.9275 31.5151 20.6061V19.3939H29.0909V20.6061Z"
        fill="#288EBA"/>
    <path
        d="M35.1515 19.3939C35.473 19.3939 35.7813 19.5216 36.0086 19.749C36.2359 19.9763 36.3636 20.2846 36.3636 20.6061C36.3636 20.9275 36.2359 21.2358 36.0086 21.4632C35.7813 21.6905 35.473 21.8182 35.1515 21.8182C34.83 21.8182 34.5217 21.6905 34.2944 21.4632C34.0671 21.2358 33.9394 20.9275 33.9394 20.6061C33.9394 20.2846 34.0671 19.9763 34.2944 19.749C34.5217 19.5216 34.83 19.3939 35.1515 19.3939Z"
        fill="#288EBA"/>
    <path d="M38.7879 19.3939H41.2121V21.8182H38.7879V19.3939Z" fill="#288EBA"/>
    <path
        d="M44.8485 19.3939C45.17 19.3939 45.4783 19.5216 45.7056 19.749C45.9329 19.9763 46.0606 20.2846 46.0606 20.6061C46.0606 20.9275 45.9329 21.2358 45.7056 21.4632C45.4783 21.6905 45.17 21.8182 44.8485 21.8182C44.527 21.8182 44.2187 21.6905 43.9914 21.4632C43.7641 21.2358 43.6364 20.9275 43.6364 20.6061C43.6364 20.2846 43.7641 19.9763 43.9914 19.749C44.2187 19.5216 44.527 19.3939 44.8485 19.3939Z"
        fill="#288EBA"/>
    <path
        d="M48.4848 20.6061C48.4848 20.2846 48.6125 19.9763 48.8399 19.749C49.0672 19.5216 49.3755 19.3939 49.697 19.3939C50.0184 19.3939 50.3267 19.5216 50.5541 19.749C50.7814 19.9763 50.9091 20.2846 50.9091 20.6061V21.8182H48.4848V20.6061Z"
        fill="#288EBA"/>
    <path
        d="M54.5455 19.3939C54.8669 19.3939 55.1752 19.5216 55.4025 19.749C55.6299 19.9763 55.7576 20.2846 55.7576 20.6061C55.7576 20.9275 55.6299 21.2358 55.4025 21.4632C55.1752 21.6905 54.8669 21.8182 54.5455 21.8182C54.224 21.8182 53.9157 21.6905 53.6884 21.4632C53.461 21.2358 53.3333 20.9275 53.3333 20.6061C53.3333 20.2846 53.461 19.9763 53.6884 19.749C53.9157 19.5216 54.224 19.3939 54.5455 19.3939Z"
        fill="#288EBA"/>
    <path
        d="M58.1818 19.3939C58.1818 20.0369 58.4372 20.6535 58.8919 21.1081C59.3465 21.5628 59.9631 21.8182 60.6061 21.8182V19.3939H58.1818Z"
        fill="#288EBA"/>
    <path d="M60.6061 19.3939H63.0303V21.8182H60.6061V19.3939Z" fill="#288EBA"/>
    <path d="M63.0303 19.3939H65.4545V21.8182H63.0303V19.3939Z" fill="#288EBA"/>
    <path d="M65.4545 19.3939H67.8788V21.8182H65.4545V19.3939Z" fill="#288EBA"/>
    <path d="M67.8788 19.3939H70.303V21.8182H67.8788V19.3939Z" fill="#288EBA"/>
    <path d="M70.303 19.3939H72.7273V21.8182H70.303V19.3939Z" fill="#288EBA"/>
    <path
        d="M72.7273 21.8182C73.3702 21.8182 73.9868 21.5628 74.4415 21.1081C74.8961 20.6535 75.1515 20.0369 75.1515 19.3939H72.7273V21.8182Z"
        fill="#288EBA"/>
    <path
        d="M31.5151 23.0303C31.5151 22.7088 31.6429 22.4005 31.8702 22.1732C32.0975 21.9459 32.4058 21.8182 32.7273 21.8182C33.0487 21.8182 33.3571 21.9459 33.5844 22.1732C33.8117 22.4005 33.9394 22.7088 33.9394 23.0303V24.2424H31.5151V23.0303Z"
        fill="#288EBA"/>
    <path d="M38.7879 21.8182H41.2121V24.2424H38.7879V21.8182Z" fill="#288EBA"/>
    <path
        d="M42.4242 21.8182C42.7457 21.8182 43.054 21.9459 43.2813 22.1732C43.5087 22.4005 43.6364 22.7088 43.6364 23.0303C43.6364 23.3518 43.5087 23.6601 43.2813 23.8874C43.054 24.1147 42.7457 24.2424 42.4242 24.2424H41.2121V21.8182H42.4242Z"
        fill="#288EBA"/>
    <path
        d="M46.0606 24.2424C46.0606 23.5995 46.316 22.9829 46.7706 22.5282C47.2253 22.0736 47.8419 21.8182 48.4848 21.8182V24.2424H46.0606Z"
        fill="#288EBA"/>
    <path d="M48.4848 21.8182H50.9091V24.2424H48.4848V21.8182Z" fill="#288EBA"/>
    <path
        d="M50.9091 21.8182C51.552 21.8182 52.1687 22.0736 52.6233 22.5282C53.0779 22.9829 53.3333 23.5995 53.3333 24.2424H50.9091V21.8182Z"
        fill="#288EBA"/>
    <path
        d="M12.1212 25.4545C12.1212 25.1331 12.2489 24.8248 12.4762 24.5974C12.7035 24.3701 13.0119 24.2424 13.3333 24.2424C13.6548 24.2424 13.9631 24.3701 14.1904 24.5974C14.4177 24.8248 14.5455 25.1331 14.5455 25.4545V26.6667H12.1212V25.4545Z"
        fill="#288EBA"/>
    <path
        d="M20.6061 24.2424C20.9275 24.2424 21.2358 24.3701 21.4632 24.5974C21.6905 24.8248 21.8182 25.1331 21.8182 25.4545C21.8182 25.776 21.6905 26.0843 21.4632 26.3116C21.2358 26.539 20.9275 26.6667 20.6061 26.6667C20.2846 26.6667 19.9763 26.539 19.749 26.3116C19.5216 26.0843 19.3939 25.776 19.3939 25.4545C19.3939 25.1331 19.5216 24.8248 19.749 24.5974C19.9763 24.3701 20.2846 24.2424 20.6061 24.2424Z"
        fill="#288EBA"/>
    <path
        d="M29.0909 26.6667C29.0909 26.0237 29.3463 25.4071 29.8009 24.9525C30.2556 24.4978 30.8722 24.2424 31.5151 24.2424V26.6667H29.0909Z"
        fill="#288EBA"/>
    <path d="M31.5151 24.2424H33.9394V26.6667H31.5151V24.2424Z" fill="#288EBA"/>
    <path
        d="M33.9394 24.2424C34.5823 24.2424 35.199 24.4978 35.6536 24.9525C36.1082 25.4071 36.3636 26.0237 36.3636 26.6667H33.9394V24.2424Z"
        fill="#288EBA"/>
    <path
        d="M38.7879 25.4545C38.7879 25.776 38.9156 26.0843 39.1429 26.3116C39.3702 26.539 39.6785 26.6667 40 26.6667C40.3215 26.6667 40.6298 26.539 40.8571 26.3116C41.0844 26.0843 41.2121 25.776 41.2121 25.4545V24.2424H38.7879V25.4545Z"
        fill="#288EBA"/>
    <path d="M46.0606 24.2424H48.4848V26.6667H46.0606V24.2424Z" fill="#288EBA"/>
    <path d="M48.4848 24.2424H50.9091V26.6667H48.4848V24.2424Z" fill="#288EBA"/>
    <path d="M50.9091 24.2424H53.3333V26.6667H50.9091V24.2424Z" fill="#288EBA"/>
    <path
        d="M61.8182 24.2424C61.4967 24.2424 61.1884 24.3701 60.9611 24.5974C60.7338 24.8248 60.6061 25.1331 60.6061 25.4545C60.6061 25.776 60.7338 26.0843 60.9611 26.3116C61.1884 26.539 61.4967 26.6667 61.8182 26.6667H63.0303V24.2424H61.8182Z"
        fill="#288EBA"/>
    <path d="M63.0303 24.2424H65.4545V26.6667H63.0303V24.2424Z" fill="#288EBA"/>
    <path
        d="M66.6667 24.2424C66.9881 24.2424 67.2964 24.3701 67.5238 24.5974C67.7511 24.8248 67.8788 25.1331 67.8788 25.4545C67.8788 25.776 67.7511 26.0843 67.5238 26.3116C67.2964 26.539 66.9881 26.6667 66.6667 26.6667H65.4545V24.2424H66.6667Z"
        fill="#288EBA"/>
    <path
        d="M71.5152 24.2424C71.1937 24.2424 70.8854 24.3701 70.6581 24.5974C70.4307 24.8248 70.303 25.1331 70.303 25.4545C70.303 25.776 70.4307 26.0843 70.6581 26.3116C70.8854 26.539 71.1937 26.6667 71.5152 26.6667H72.7273V24.2424H71.5152Z"
        fill="#288EBA"/>
    <path
        d="M72.7273 24.2424C73.3702 24.2424 73.9868 24.4978 74.4415 24.9525C74.8961 25.4071 75.1515 26.0237 75.1515 26.6667H72.7273V24.2424Z"
        fill="#288EBA"/>
    <path
        d="M6.0606 26.6667C5.73913 26.6667 5.43082 26.7944 5.2035 27.0217C4.97619 27.249 4.84848 27.5573 4.84848 27.8788C4.84848 28.2003 4.97619 28.5086 5.2035 28.7359C5.43082 28.9632 5.73913 29.0909 6.0606 29.0909H7.27272V26.6667H6.0606Z"
        fill="#288EBA"/>
    <path d="M7.27272 26.6667H9.69697V29.0909H7.27272V26.6667Z" fill="#288EBA"/>
    <path d="M9.69697 26.6667H12.1212V29.0909H9.69697V26.6667Z" fill="#288EBA"/>
    <path d="M12.1212 26.6667H14.5455V29.0909H12.1212V26.6667Z" fill="#288EBA"/>
    <path
        d="M23.0303 26.6667C23.3518 26.6667 23.6601 26.7944 23.8874 27.0217C24.1147 27.249 24.2424 27.5573 24.2424 27.8788C24.2424 28.2003 24.1147 28.5086 23.8874 28.7359C23.6601 28.9632 23.3518 29.0909 23.0303 29.0909C22.7088 29.0909 22.4005 28.9632 22.1732 28.7359C21.9459 28.5086 21.8182 28.2003 21.8182 27.8788C21.8182 27.5573 21.9459 27.249 22.1732 27.0217C22.4005 26.7944 22.7088 26.6667 23.0303 26.6667Z"
        fill="#288EBA"/>
    <path
        d="M29.0909 27.8788C29.0909 28.2003 29.2186 28.5086 29.4459 28.7359C29.6732 28.9632 29.9816 29.0909 30.303 29.0909C30.6245 29.0909 30.9328 28.9632 31.1601 28.7359C31.3874 28.5086 31.5151 28.2003 31.5151 27.8788V26.6667H29.0909V27.8788Z"
        fill="#288EBA"/>
    <path
        d="M33.9394 27.8788C33.9394 28.2003 34.0671 28.5086 34.2944 28.7359C34.5217 28.9632 34.83 29.0909 35.1515 29.0909C35.473 29.0909 35.7813 28.9632 36.0086 28.7359C36.2359 28.5086 36.3636 28.2003 36.3636 27.8788V26.6667H33.9394V27.8788Z"
        fill="#288EBA"/>
    <path
        d="M42.4242 26.6667C42.1028 26.6667 41.7945 26.7944 41.5671 27.0217C41.3398 27.249 41.2121 27.5573 41.2121 27.8788C41.2121 28.2003 41.3398 28.5086 41.5671 28.7359C41.7945 28.9632 42.1028 29.0909 42.4242 29.0909H43.6364V26.6667H42.4242Z"
        fill="#288EBA"/>
    <path d="M43.6364 26.6667H46.0606V29.0909H43.6364V26.6667Z" fill="#288EBA"/>
    <path d="M46.0606 26.6667H48.4848V29.0909H46.0606V26.6667Z" fill="#288EBA"/>
    <path d="M48.4848 26.6667H50.9091V29.0909H48.4848V26.6667Z" fill="#288EBA"/>
    <path d="M50.9091 26.6667H53.3333V29.0909H50.9091V26.6667Z" fill="#288EBA"/>
    <path
        d="M58.1818 27.8788C58.1818 27.5573 58.3095 27.249 58.5368 27.0217C58.7642 26.7944 59.0725 26.6667 59.3939 26.6667C59.7154 26.6667 60.0237 26.7944 60.251 27.0217C60.4784 27.249 60.6061 27.5573 60.6061 27.8788V29.0909H58.1818V27.8788Z"
        fill="#288EBA"/>
    <path
        d="M67.8788 27.8788C67.8788 27.5573 68.0065 27.249 68.2338 27.0217C68.4611 26.7944 68.7694 26.6667 69.0909 26.6667C69.4124 26.6667 69.7207 26.7944 69.948 27.0217C70.1753 27.249 70.303 27.5573 70.303 27.8788V29.0909H67.8788V27.8788Z"
        fill="#288EBA"/>
    <path
        d="M72.7273 27.8788C72.7273 28.2003 72.855 28.5086 73.0823 28.7359C73.3096 28.9632 73.6179 29.0909 73.9394 29.0909C74.2609 29.0909 74.5692 28.9632 74.7965 28.7359C75.0238 28.5086 75.1515 28.2003 75.1515 27.8788V26.6667H72.7273V27.8788Z"
        fill="#288EBA"/>
    <path
        d="M9.69697 29.0909C9.69697 29.7339 9.95238 30.3505 10.407 30.8051C10.8616 31.2597 11.4783 31.5151 12.1212 31.5151V29.0909H9.69697Z"
        fill="#288EBA"/>
    <path
        d="M12.1212 31.5151C12.7642 31.5151 13.3808 31.2597 13.8354 30.8051C14.29 30.3505 14.5455 29.7339 14.5455 29.0909H12.1212V31.5151Z"
        fill="#288EBA"/>
    <path
        d="M20.6061 29.0909C20.9275 29.0909 21.2358 29.2186 21.4632 29.4459C21.6905 29.6732 21.8182 29.9816 21.8182 30.303C21.8182 30.6245 21.6905 30.9328 21.4632 31.1601C21.2358 31.3874 20.9275 31.5151 20.6061 31.5151C20.2846 31.5151 19.9763 31.3874 19.749 31.1601C19.5216 30.9328 19.3939 30.6245 19.3939 30.303C19.3939 29.9816 19.5216 29.6732 19.749 29.4459C19.9763 29.2186 20.2846 29.0909 20.6061 29.0909Z"
        fill="#288EBA"/>
    <path
        d="M50.9091 30.303C50.9091 30.6245 51.0368 30.9328 51.2641 31.1601C51.4914 31.3874 51.7997 31.5151 52.1212 31.5151C52.4427 31.5151 52.751 31.3874 52.9783 31.1601C53.2056 30.9328 53.3333 30.6245 53.3333 30.303V29.0909H50.9091V30.303Z"
        fill="#288EBA"/>
    <path d="M58.1818 29.0909H60.6061V31.5151H58.1818V29.0909Z" fill="#288EBA"/>
    <path d="M67.8788 29.0909H70.303V31.5151H67.8788V29.0909Z" fill="#288EBA"/>
    <path
        d="M70.303 29.0909C70.946 29.0909 71.5626 29.3463 72.0172 29.8009C72.4719 30.2556 72.7273 30.8722 72.7273 31.5151H70.303V29.0909Z"
        fill="#288EBA"/>
    <path
        d="M6.0606 31.5151C5.73913 31.5151 5.43082 31.6429 5.2035 31.8702C4.97619 32.0975 4.84848 32.4058 4.84848 32.7273C4.84848 33.0487 4.97619 33.3571 5.2035 33.5844C5.43082 33.8117 5.73913 33.9394 6.0606 33.9394H7.27272V31.5151H6.0606Z"
        fill="#288EBA"/>
    <path
        d="M8.48484 31.5151C8.80632 31.5151 9.11463 31.6429 9.34194 31.8702C9.56926 32.0975 9.69697 32.4058 9.69697 32.7273C9.69697 33.0487 9.56926 33.3571 9.34194 33.5844C9.11463 33.8117 8.80632 33.9394 8.48484 33.9394H7.27272V31.5151H8.48484Z"
        fill="#288EBA"/>
    <path
        d="M14.5455 33.9394C14.5455 33.2964 14.8009 32.6798 15.2555 32.2252C15.7101 31.7706 16.3267 31.5151 16.9697 31.5151V33.9394H14.5455Z"
        fill="#288EBA"/>
    <path
        d="M16.9697 31.5151C17.6126 31.5151 18.2293 31.7706 18.6839 32.2252C19.1385 32.6798 19.3939 33.2964 19.3939 33.9394H16.9697V31.5151Z"
        fill="#288EBA"/>
    <path
        d="M23.0303 31.5151C22.7088 31.5151 22.4005 31.6429 22.1732 31.8702C21.9459 32.0975 21.8182 32.4058 21.8182 32.7273C21.8182 33.0487 21.9459 33.3571 22.1732 33.5844C22.4005 33.8117 22.7088 33.9394 23.0303 33.9394H24.2424V31.5151H23.0303Z"
        fill="#288EBA"/>
    <path
        d="M25.4545 31.5151C25.776 31.5151 26.0843 31.6429 26.3116 31.8702C26.539 32.0975 26.6667 32.4058 26.6667 32.7273C26.6667 33.0487 26.539 33.3571 26.3116 33.5844C26.0843 33.8117 25.776 33.9394 25.4545 33.9394H24.2424V31.5151H25.4545Z"
        fill="#288EBA"/>
    <path
        d="M53.3333 33.9394C53.3333 33.2964 53.5887 32.6798 54.0434 32.2252C54.498 31.7706 55.1146 31.5151 55.7576 31.5151V33.9394H53.3333Z"
        fill="#288EBA"/>
    <path d="M55.7576 31.5151H58.1818V33.9394H55.7576V31.5151Z" fill="#288EBA"/>
    <path d="M58.1818 31.5151H60.6061V33.9394H58.1818V31.5151Z" fill="#288EBA"/>
    <path d="M60.6061 31.5151H63.0303V33.9394H60.6061V31.5151Z" fill="#288EBA"/>
    <path d="M63.0303 31.5151H65.4545V33.9394H63.0303V31.5151Z" fill="#288EBA"/>
    <path d="M65.4545 31.5151H67.8788V33.9394H65.4545V31.5151Z" fill="#288EBA"/>
    <path d="M67.8788 31.5151H70.303V33.9394H67.8788V31.5151Z" fill="#288EBA"/>
    <path
        d="M70.303 33.9394C70.946 33.9394 71.5626 33.684 72.0172 33.2293C72.4719 32.7747 72.7273 32.1581 72.7273 31.5151H70.303V33.9394Z"
        fill="#288EBA"/>
    <path
        d="M10.9091 33.9394C11.2306 33.9394 11.5389 34.0671 11.7662 34.2944C11.9935 34.5217 12.1212 34.83 12.1212 35.1515C12.1212 35.473 11.9935 35.7813 11.7662 36.0086C11.5389 36.2359 11.2306 36.3636 10.9091 36.3636C10.5876 36.3636 10.2793 36.2359 10.052 36.0086C9.82467 35.7813 9.69697 35.473 9.69697 35.1515C9.69697 34.83 9.82467 34.5217 10.052 34.2944C10.2793 34.0671 10.5876 33.9394 10.9091 33.9394Z"
        fill="#288EBA"/>
    <path d="M14.5455 33.9394H16.9697V36.3636H14.5455V33.9394Z" fill="#288EBA"/>
    <path d="M16.9697 33.9394H19.3939V36.3636H16.9697V33.9394Z" fill="#288EBA"/>
    <path
        d="M20.6061 33.9394C20.9275 33.9394 21.2358 34.0671 21.4632 34.2944C21.6905 34.5217 21.8182 34.83 21.8182 35.1515C21.8182 35.473 21.6905 35.7813 21.4632 36.0086C21.2358 36.2359 20.9275 36.3636 20.6061 36.3636H19.3939V33.9394H20.6061Z"
        fill="#288EBA"/>
    <path
        d="M27.8788 33.9394C28.2003 33.9394 28.5086 34.0671 28.7359 34.2944C28.9632 34.5217 29.0909 34.83 29.0909 35.1515C29.0909 35.473 28.9632 35.7813 28.7359 36.0086C28.5086 36.2359 28.2003 36.3636 27.8788 36.3636C27.5573 36.3636 27.249 36.2359 27.0217 36.0086C26.7944 35.7813 26.6667 35.473 26.6667 35.1515C26.6667 34.83 26.7944 34.5217 27.0217 34.2944C27.249 34.0671 27.5573 33.9394 27.8788 33.9394Z"
        fill="#288EBA"/>
    <path d="M53.3333 33.9394H55.7576V36.3636H53.3333V33.9394Z" fill="#288EBA"/>
    <path
        d="M58.1818 33.9394C58.1818 34.5823 58.4372 35.199 58.8919 35.6536C59.3465 36.1082 59.9631 36.3636 60.6061 36.3636V33.9394H58.1818Z"
        fill="#288EBA"/>
    <path d="M60.6061 33.9394H63.0303V36.3636H60.6061V33.9394Z" fill="#288EBA"/>
    <path
        d="M6.0606 36.3636C6.38208 36.3636 6.69038 36.4913 6.9177 36.7187C7.14502 36.946 7.27272 37.2543 7.27272 37.5758C7.27272 37.8972 7.14502 38.2055 6.9177 38.4329C6.69038 38.6602 6.38208 38.7879 6.0606 38.7879C5.73913 38.7879 5.43082 38.6602 5.2035 38.4329C4.97619 38.2055 4.84848 37.8972 4.84848 37.5758C4.84848 37.2543 4.97619 36.946 5.2035 36.7187C5.43082 36.4913 5.73913 36.3636 6.0606 36.3636Z"
        fill="#288EBA"/>
    <path
        d="M12.1212 38.7879C12.1212 38.1449 12.3766 37.5283 12.8313 37.0737C13.2859 36.619 13.9025 36.3636 14.5455 36.3636V38.7879H12.1212Z"
        fill="#288EBA"/>
    <path d="M14.5455 36.3636H16.9697V38.7879H14.5455V36.3636Z" fill="#288EBA"/>
    <path
        d="M16.9697 38.7879C17.6126 38.7879 18.2293 38.5325 18.6839 38.0778C19.1385 37.6232 19.3939 37.0066 19.3939 36.3636H16.9697V38.7879Z"
        fill="#288EBA"/>
    <path
        d="M52.1212 36.3636C51.7997 36.3636 51.4914 36.4913 51.2641 36.7187C51.0368 36.946 50.9091 37.2543 50.9091 37.5758C50.9091 37.8972 51.0368 38.2055 51.2641 38.4329C51.4914 38.6602 51.7997 38.7879 52.1212 38.7879H53.3333V36.3636H52.1212Z"
        fill="#288EBA"/>
    <path d="M53.3333 36.3636H55.7576V38.7879H53.3333V36.3636Z" fill="#288EBA"/>
    <path
        d="M56.9697 36.3636C57.2912 36.3636 57.5995 36.4913 57.8268 36.7187C58.0541 36.946 58.1818 37.2543 58.1818 37.5758C58.1818 37.8972 58.0541 38.2055 57.8268 38.4329C57.5995 38.6602 57.2912 38.7879 56.9697 38.7879H55.7576V36.3636H56.9697Z"
        fill="#288EBA"/>
    <path
        d="M60.6061 37.5758C60.6061 37.8972 60.7338 38.2055 60.9611 38.4329C61.1884 38.6602 61.4967 38.7879 61.8182 38.7879C62.1397 38.7879 62.448 38.6602 62.6753 38.4329C62.9026 38.2055 63.0303 37.8972 63.0303 37.5758V36.3636H60.6061V37.5758Z"
        fill="#288EBA"/>
    <path
        d="M66.6667 36.3636C66.9881 36.3636 67.2964 36.4913 67.5238 36.7187C67.7511 36.946 67.8788 37.2543 67.8788 37.5758C67.8788 37.8972 67.7511 38.2055 67.5238 38.4329C67.2964 38.6602 66.9881 38.7879 66.6667 38.7879C66.3452 38.7879 66.0369 38.6602 65.8096 38.4329C65.5822 38.2055 65.4545 37.8972 65.4545 37.5758C65.4545 37.2543 65.5822 36.946 65.8096 36.7187C66.0369 36.4913 66.3452 36.3636 66.6667 36.3636Z"
        fill="#288EBA"/>
    <path
        d="M70.303 37.5758C70.303 37.2543 70.4307 36.946 70.6581 36.7187C70.8854 36.4913 71.1937 36.3636 71.5152 36.3636C71.8366 36.3636 72.1449 36.4913 72.3722 36.7187C72.5996 36.946 72.7273 37.2543 72.7273 37.5758V38.7879H70.303V37.5758Z"
        fill="#288EBA"/>
    <path
        d="M12.1212 38.7879C12.1212 39.4308 12.3766 40.0474 12.8313 40.5021C13.2859 40.9567 13.9025 41.2121 14.5455 41.2121V38.7879H12.1212Z"
        fill="#288EBA"/>
    <path d="M14.5455 38.7879H16.9697V41.2121H14.5455V38.7879Z" fill="#288EBA"/>
    <path
        d="M20.6061 38.7879C20.9275 38.7879 21.2358 38.9156 21.4632 39.1429C21.6905 39.3702 21.8182 39.6785 21.8182 40C21.8182 40.3215 21.6905 40.6298 21.4632 40.8571C21.2358 41.0844 20.9275 41.2121 20.6061 41.2121C20.2846 41.2121 19.9763 41.0844 19.749 40.8571C19.5216 40.6298 19.3939 40.3215 19.3939 40C19.3939 39.6785 19.5216 39.3702 19.749 39.1429C19.9763 38.9156 20.2846 38.7879 20.6061 38.7879Z"
        fill="#288EBA"/>
    <path
        d="M58.1818 40C58.1818 39.6785 58.3095 39.3702 58.5368 39.1429C58.7642 38.9156 59.0725 38.7879 59.3939 38.7879C59.7154 38.7879 60.0237 38.9156 60.251 39.1429C60.4784 39.3702 60.6061 39.6785 60.6061 40V41.2121H58.1818V40Z"
        fill="#288EBA"/>
    <path
        d="M70.303 38.7879C70.303 39.4308 70.5584 40.0474 71.0131 40.5021C71.4677 40.9567 72.0843 41.2121 72.7273 41.2121V38.7879H70.303Z"
        fill="#288EBA"/>
    <path
        d="M72.7273 38.7879C73.3702 38.7879 73.9868 39.0433 74.4415 39.4979C74.8961 39.9526 75.1515 40.5692 75.1515 41.2121H72.7273V38.7879Z"
        fill="#288EBA"/>
    <path
        d="M14.5455 42.4242C14.5455 42.7457 14.6732 43.054 14.9005 43.2813C15.1278 43.5087 15.4361 43.6364 15.7576 43.6364C16.079 43.6364 16.3874 43.5087 16.6147 43.2813C16.842 43.054 16.9697 42.7457 16.9697 42.4242V41.2121H14.5455V42.4242Z"
        fill="#288EBA"/>
    <path
        d="M21.8182 42.4242C21.8182 42.1028 21.9459 41.7945 22.1732 41.5671C22.4005 41.3398 22.7088 41.2121 23.0303 41.2121C23.3518 41.2121 23.6601 41.3398 23.8874 41.5671C24.1147 41.7945 24.2424 42.1028 24.2424 42.4242V43.6364H21.8182V42.4242Z"
        fill="#288EBA"/>
    <path
        d="M53.3333 42.4242C53.3333 42.1028 53.461 41.7945 53.6884 41.5671C53.9157 41.3398 54.224 41.2121 54.5455 41.2121C54.8669 41.2121 55.1752 41.3398 55.4025 41.5671C55.6299 41.7945 55.7576 42.1028 55.7576 42.4242V43.6364H53.3333V42.4242Z"
        fill="#288EBA"/>
    <path
        d="M58.1818 41.2121C58.1818 41.8551 58.4372 42.4717 58.8919 42.9263C59.3465 43.3809 59.9631 43.6364 60.6061 43.6364V41.2121H58.1818Z"
        fill="#288EBA"/>
    <path
        d="M61.8182 41.2121C62.1397 41.2121 62.448 41.3398 62.6753 41.5671C62.9026 41.7945 63.0303 42.1028 63.0303 42.4242C63.0303 42.7457 62.9026 43.054 62.6753 43.2813C62.448 43.5087 62.1397 43.6364 61.8182 43.6364H60.6061V41.2121H61.8182Z"
        fill="#288EBA"/>
    <path d="M72.7273 41.2121H75.1515V43.6364H72.7273V41.2121Z" fill="#288EBA"/>
    <path
        d="M8.48484 43.6364C8.16337 43.6364 7.85506 43.7641 7.62774 43.9914C7.40043 44.2187 7.27272 44.527 7.27272 44.8485C7.27272 45.17 7.40043 45.4783 7.62774 45.7056C7.85506 45.9329 8.16337 46.0606 8.48484 46.0606H9.69697V43.6364H8.48484Z"
        fill="#288EBA"/>
    <path
        d="M9.69697 43.6364C10.3399 43.6364 10.9565 43.8918 11.4112 44.3464C11.8658 44.801 12.1212 45.4177 12.1212 46.0606H9.69697V43.6364Z"
        fill="#288EBA"/>
    <path
        d="M18.1818 43.6364C17.8603 43.6364 17.552 43.7641 17.3247 43.9914C17.0974 44.2187 16.9697 44.527 16.9697 44.8485C16.9697 45.17 17.0974 45.4783 17.3247 45.7056C17.552 45.9329 17.8603 46.0606 18.1818 46.0606H19.3939V43.6364H18.1818Z"
        fill="#288EBA"/>
    <path d="M19.3939 43.6364H21.8182V46.0606H19.3939V43.6364Z" fill="#288EBA"/>
    <path d="M21.8182 43.6364H24.2424V46.0606H21.8182V43.6364Z" fill="#288EBA"/>
    <path
        d="M25.4545 43.6364C25.776 43.6364 26.0843 43.7641 26.3116 43.9914C26.539 44.2187 26.6667 44.527 26.6667 44.8485C26.6667 45.17 26.539 45.4783 26.3116 45.7056C26.0843 45.9329 25.776 46.0606 25.4545 46.0606H24.2424V43.6364H25.4545Z"
        fill="#288EBA"/>
    <path
        d="M52.1212 43.6364C51.7997 43.6364 51.4914 43.7641 51.2641 43.9914C51.0368 44.2187 50.9091 44.527 50.9091 44.8485C50.9091 45.17 51.0368 45.4783 51.2641 45.7056C51.4914 45.9329 51.7997 46.0606 52.1212 46.0606H53.3333V43.6364H52.1212Z"
        fill="#288EBA"/>
    <path d="M53.3333 43.6364H55.7576V46.0606H53.3333V43.6364Z" fill="#288EBA"/>
    <path
        d="M55.7576 43.6364C56.4005 43.6364 57.0171 43.8918 57.4718 44.3464C57.9264 44.801 58.1818 45.4177 58.1818 46.0606H55.7576V43.6364Z"
        fill="#288EBA"/>
    <path
        d="M70.303 46.0606C70.303 45.4177 70.5584 44.801 71.0131 44.3464C71.4677 43.8918 72.0843 43.6364 72.7273 43.6364V46.0606H70.303Z"
        fill="#288EBA"/>
    <path d="M72.7273 43.6364H75.1515V46.0606H72.7273V43.6364Z" fill="#288EBA"/>
    <path d="M9.69697 46.0606H12.1212V48.4848H9.69697V46.0606Z" fill="#288EBA"/>
    <path
        d="M14.5455 47.2727C14.5455 46.9512 14.6732 46.6429 14.9005 46.4156C15.1278 46.1883 15.4361 46.0606 15.7576 46.0606C16.079 46.0606 16.3874 46.1883 16.6147 46.4156C16.842 46.6429 16.9697 46.9512 16.9697 47.2727V48.4848H14.5455V47.2727Z"
        fill="#288EBA"/>
    <path
        d="M27.8788 46.0606C28.2003 46.0606 28.5086 46.1883 28.7359 46.4156C28.9632 46.6429 29.0909 46.9512 29.0909 47.2727C29.0909 47.5942 28.9632 47.9025 28.7359 48.1298C28.5086 48.3571 28.2003 48.4848 27.8788 48.4848C27.5573 48.4848 27.249 48.3571 27.0217 48.1298C26.7944 47.9025 26.6667 47.5942 26.6667 47.2727C26.6667 46.9512 26.7944 46.6429 27.0217 46.4156C27.249 46.1883 27.5573 46.0606 27.8788 46.0606Z"
        fill="#288EBA"/>
    <path d="M55.7576 46.0606H58.1818V48.4848H55.7576V46.0606Z" fill="#288EBA"/>
    <path d="M58.1818 46.0606H60.6061V48.4848H58.1818V46.0606Z" fill="#288EBA"/>
    <path
        d="M60.6061 46.0606C61.249 46.0606 61.8656 46.316 62.3203 46.7706C62.7749 47.2253 63.0303 47.8419 63.0303 48.4848H60.6061V46.0606Z"
        fill="#288EBA"/>
    <path d="M70.303 46.0606H72.7273V48.4848H70.303V46.0606Z" fill="#288EBA"/>
    <path d="M72.7273 46.0606H75.1515V48.4848H72.7273V46.0606Z" fill="#288EBA"/>
    <path
        d="M6.0606 48.4848C6.38208 48.4848 6.69038 48.6125 6.9177 48.8399C7.14502 49.0672 7.27272 49.3755 7.27272 49.697C7.27272 50.0184 7.14502 50.3267 6.9177 50.5541C6.69038 50.7814 6.38208 50.9091 6.0606 50.9091C5.73913 50.9091 5.43082 50.7814 5.2035 50.5541C4.97619 50.3267 4.84848 50.0184 4.84848 49.697C4.84848 49.3755 4.97619 49.0672 5.2035 48.8399C5.43082 48.6125 5.73913 48.4848 6.0606 48.4848Z"
        fill="#288EBA"/>
    <path d="M9.69697 48.4848H12.1212V50.9091H9.69697V48.4848Z" fill="#288EBA"/>
    <path
        d="M14.5455 49.697C14.5455 50.0184 14.6732 50.3267 14.9005 50.5541C15.1278 50.7814 15.4361 50.9091 15.7576 50.9091C16.079 50.9091 16.3874 50.7814 16.6147 50.5541C16.842 50.3267 16.9697 50.0184 16.9697 49.697V48.4848H14.5455V49.697Z"
        fill="#288EBA"/>
    <path
        d="M20.6061 48.4848C20.9275 48.4848 21.2358 48.6125 21.4632 48.8399C21.6905 49.0672 21.8182 49.3755 21.8182 49.697C21.8182 50.0184 21.6905 50.3267 21.4632 50.5541C21.2358 50.7814 20.9275 50.9091 20.6061 50.9091C20.2846 50.9091 19.9763 50.7814 19.749 50.5541C19.5216 50.3267 19.3939 50.0184 19.3939 49.697C19.3939 49.3755 19.5216 49.0672 19.749 48.8399C19.9763 48.6125 20.2846 48.4848 20.6061 48.4848Z"
        fill="#288EBA"/>
    <path
        d="M25.4545 48.4848C25.776 48.4848 26.0843 48.6125 26.3116 48.8399C26.539 49.0672 26.6667 49.3755 26.6667 49.697C26.6667 50.0184 26.539 50.3267 26.3116 50.5541C26.0843 50.7814 25.776 50.9091 25.4545 50.9091C25.1331 50.9091 24.8248 50.7814 24.5974 50.5541C24.3701 50.3267 24.2424 50.0184 24.2424 49.697C24.2424 49.3755 24.3701 49.0672 24.5974 48.8399C24.8248 48.6125 25.1331 48.4848 25.4545 48.4848Z"
        fill="#288EBA"/>
    <path
        d="M53.3333 50.9091C53.3333 50.2661 53.5887 49.6495 54.0434 49.1949C54.498 48.7403 55.1146 48.4848 55.7576 48.4848V50.9091H53.3333Z"
        fill="#288EBA"/>
    <path
        d="M55.7576 50.9091C56.4005 50.9091 57.0171 50.6537 57.4718 50.199C57.9264 49.7444 58.1818 49.1278 58.1818 48.4848H55.7576V50.9091Z"
        fill="#288EBA"/>
    <path d="M60.6061 48.4848H63.0303V50.9091H60.6061V48.4848Z" fill="#288EBA"/>
    <path d="M63.0303 48.4848H65.4545V50.9091H63.0303V48.4848Z" fill="#288EBA"/>
    <path
        d="M65.4545 48.4848C66.0975 48.4848 66.7141 48.7403 67.1687 49.1949C67.6234 49.6495 67.8788 50.2661 67.8788 50.9091H65.4545V48.4848Z"
        fill="#288EBA"/>
    <path d="M70.303 48.4848H72.7273V50.9091H70.303V48.4848Z" fill="#288EBA"/>
    <path
        d="M72.7273 50.9091C73.3702 50.9091 73.9868 50.6537 74.4415 50.199C74.8961 49.7444 75.1515 49.1278 75.1515 48.4848H72.7273V50.9091Z"
        fill="#288EBA"/>
    <path d="M9.69697 50.9091H12.1212V53.3333H9.69697V50.9091Z" fill="#288EBA"/>
    <path
        d="M12.1212 50.9091C12.7642 50.9091 13.3808 51.1645 13.8354 51.6191C14.29 52.0738 14.5455 52.6904 14.5455 53.3333H12.1212V50.9091Z"
        fill="#288EBA"/>
    <path
        d="M16.9697 52.1212C16.9697 51.7997 17.0974 51.4914 17.3247 51.2641C17.552 51.0368 17.8603 50.9091 18.1818 50.9091C18.5033 50.9091 18.8116 51.0368 19.0389 51.2641C19.2662 51.4914 19.3939 51.7997 19.3939 52.1212V53.3333H16.9697V52.1212Z"
        fill="#288EBA"/>
    <path
        d="M21.8182 52.1212C21.8182 51.7997 21.9459 51.4914 22.1732 51.2641C22.4005 51.0368 22.7088 50.9091 23.0303 50.9091C23.3518 50.9091 23.6601 51.0368 23.8874 51.2641C24.1147 51.4914 24.2424 51.7997 24.2424 52.1212V53.3333H21.8182V52.1212Z"
        fill="#288EBA"/>
    <path
        d="M27.8788 50.9091C28.2003 50.9091 28.5086 51.0368 28.7359 51.2641C28.9632 51.4914 29.0909 51.7997 29.0909 52.1212C29.0909 52.4427 28.9632 52.751 28.7359 52.9783C28.5086 53.2056 28.2003 53.3333 27.8788 53.3333C27.5573 53.3333 27.249 53.2056 27.0217 52.9783C26.7944 52.751 26.6667 52.4427 26.6667 52.1212C26.6667 51.7997 26.7944 51.4914 27.0217 51.2641C27.249 51.0368 27.5573 50.9091 27.8788 50.9091Z"
        fill="#288EBA"/>
    <path
        d="M31.5151 52.1212C31.5151 51.7997 31.6429 51.4914 31.8702 51.2641C32.0975 51.0368 32.4058 50.9091 32.7273 50.9091C33.0487 50.9091 33.3571 51.0368 33.5844 51.2641C33.8117 51.4914 33.9394 51.7997 33.9394 52.1212V53.3333H31.5151V52.1212Z"
        fill="#288EBA"/>
    <path
        d="M37.5758 50.9091C37.8972 50.9091 38.2055 51.0368 38.4329 51.2641C38.6602 51.4914 38.7879 51.7997 38.7879 52.1212C38.7879 52.4427 38.6602 52.751 38.4329 52.9783C38.2055 53.2056 37.8972 53.3333 37.5758 53.3333C37.2543 53.3333 36.946 53.2056 36.7187 52.9783C36.4913 52.751 36.3636 52.4427 36.3636 52.1212C36.3636 51.7997 36.4913 51.4914 36.7187 51.2641C36.946 51.0368 37.2543 50.9091 37.5758 50.9091Z"
        fill="#288EBA"/>
    <path
        d="M44.8485 50.9091C45.17 50.9091 45.4783 51.0368 45.7056 51.2641C45.9329 51.4914 46.0606 51.7997 46.0606 52.1212C46.0606 52.4427 45.9329 52.751 45.7056 52.9783C45.4783 53.2056 45.17 53.3333 44.8485 53.3333C44.527 53.3333 44.2187 53.2056 43.9914 52.9783C43.7641 52.751 43.6364 52.4427 43.6364 52.1212C43.6364 51.7997 43.7641 51.4914 43.9914 51.2641C44.2187 51.0368 44.527 50.9091 44.8485 50.9091Z"
        fill="#288EBA"/>
    <path
        d="M49.697 50.9091C50.0184 50.9091 50.3267 51.0368 50.5541 51.2641C50.7814 51.4914 50.9091 51.7997 50.9091 52.1212C50.9091 52.4427 50.7814 52.751 50.5541 52.9783C50.3267 53.2056 50.0184 53.3333 49.697 53.3333C49.3755 53.3333 49.0672 53.2056 48.8399 52.9783C48.6125 52.751 48.4848 52.4427 48.4848 52.1212C48.4848 51.7997 48.6125 51.4914 48.8399 51.2641C49.0672 51.0368 49.3755 50.9091 49.697 50.9091Z"
        fill="#288EBA"/>
    <path d="M53.3333 50.9091H55.7576V53.3333H53.3333V50.9091Z" fill="#288EBA"/>
    <path d="M60.6061 50.9091H63.0303V53.3333H60.6061V50.9091Z" fill="#288EBA"/>
    <path
        d="M65.4545 52.1212C65.4545 52.4427 65.5822 52.751 65.8096 52.9783C66.0369 53.2056 66.3452 53.3333 66.6667 53.3333C66.9881 53.3333 67.2964 53.2056 67.5238 52.9783C67.7511 52.751 67.8788 52.4427 67.8788 52.1212V50.9091H65.4545V52.1212Z"
        fill="#288EBA"/>
    <path d="M70.303 50.9091H72.7273V53.3333H70.303V50.9091Z" fill="#288EBA"/>
    <path
        d="M6.0606 53.3333C6.38208 53.3333 6.69038 53.461 6.9177 53.6884C7.14502 53.9157 7.27272 54.224 7.27272 54.5455C7.27272 54.8669 7.14502 55.1752 6.9177 55.4025C6.69038 55.6299 6.38208 55.7576 6.0606 55.7576C5.73913 55.7576 5.43082 55.6299 5.2035 55.4025C4.97619 55.1752 4.84848 54.8669 4.84848 54.5455C4.84848 54.224 4.97619 53.9157 5.2035 53.6884C5.43082 53.461 5.73913 53.3333 6.0606 53.3333Z"
        fill="#288EBA"/>
    <path
        d="M9.69697 53.3333C9.69697 53.9763 9.95238 54.5929 10.407 55.0475C10.8616 55.5022 11.4783 55.7576 12.1212 55.7576V53.3333H9.69697Z"
        fill="#288EBA"/>
    <path d="M12.1212 53.3333H14.5455V55.7576H12.1212V53.3333Z" fill="#288EBA"/>
    <path d="M14.5455 53.3333H16.9697V55.7576H14.5455V53.3333Z" fill="#288EBA"/>
    <path d="M16.9697 53.3333H19.3939V55.7576H16.9697V53.3333Z" fill="#288EBA"/>
    <path d="M19.3939 53.3333H21.8182V55.7576H19.3939V53.3333Z" fill="#288EBA"/>
    <path
        d="M21.8182 55.7576C22.4611 55.7576 23.0777 55.5022 23.5324 55.0475C23.987 54.5929 24.2424 53.9763 24.2424 53.3333H21.8182V55.7576Z"
        fill="#288EBA"/>
    <path d="M31.5151 53.3333H33.9394V55.7576H31.5151V53.3333Z" fill="#288EBA"/>
    <path
        d="M33.9394 53.3333C34.5823 53.3333 35.199 53.5887 35.6536 54.0434C36.1082 54.498 36.3636 55.1146 36.3636 55.7576H33.9394V53.3333Z"
        fill="#288EBA"/>
    <path
        d="M40 53.3333C39.6785 53.3333 39.3702 53.461 39.1429 53.6884C38.9156 53.9157 38.7879 54.224 38.7879 54.5455C38.7879 54.8669 38.9156 55.1752 39.1429 55.4025C39.3702 55.6299 39.6785 55.7576 40 55.7576H41.2121V53.3333H40Z"
        fill="#288EBA"/>
    <path
        d="M41.2121 53.3333C41.8551 53.3333 42.4717 53.5887 42.9263 54.0434C43.3809 54.498 43.6364 55.1146 43.6364 55.7576H41.2121V53.3333Z"
        fill="#288EBA"/>
    <path
        d="M47.2727 53.3333C47.5942 53.3333 47.9025 53.461 48.1298 53.6884C48.3571 53.9157 48.4848 54.224 48.4848 54.5455C48.4848 54.8669 48.3571 55.1752 48.1298 55.4025C47.9025 55.6299 47.5942 55.7576 47.2727 55.7576C46.9512 55.7576 46.6429 55.6299 46.4156 55.4025C46.1883 55.1752 46.0606 54.8669 46.0606 54.5455C46.0606 54.224 46.1883 53.9157 46.4156 53.6884C46.6429 53.461 46.9512 53.3333 47.2727 53.3333Z"
        fill="#288EBA"/>
    <path d="M53.3333 53.3333H55.7576V55.7576H53.3333V53.3333Z" fill="#288EBA"/>
    <path d="M55.7576 53.3333H58.1818V55.7576H55.7576V53.3333Z" fill="#288EBA"/>
    <path d="M58.1818 53.3333H60.6061V55.7576H58.1818V53.3333Z" fill="#288EBA"/>
    <path d="M60.6061 53.3333H63.0303V55.7576H60.6061V53.3333Z" fill="#288EBA"/>
    <path
        d="M63.0303 53.3333C63.6732 53.3333 64.2899 53.5887 64.7445 54.0434C65.1991 54.498 65.4545 55.1146 65.4545 55.7576H63.0303V53.3333Z"
        fill="#288EBA"/>
    <path
        d="M69.0909 53.3333C68.7694 53.3333 68.4611 53.461 68.2338 53.6884C68.0065 53.9157 67.8788 54.224 67.8788 54.5455C67.8788 54.8669 68.0065 55.1752 68.2338 55.4025C68.4611 55.6299 68.7694 55.7576 69.0909 55.7576H70.303V53.3333H69.0909Z"
        fill="#288EBA"/>
    <path d="M70.303 53.3333H72.7273V55.7576H70.303V53.3333Z" fill="#288EBA"/>
    <path
        d="M72.7273 53.3333C73.3702 53.3333 73.9868 53.5887 74.4415 54.0434C74.8961 54.498 75.1515 55.1146 75.1515 55.7576H72.7273V53.3333Z"
        fill="#288EBA"/>
    <path
        d="M25.4545 55.7576C25.776 55.7576 26.0843 55.8853 26.3116 56.1126C26.539 56.3399 26.6667 56.6482 26.6667 56.9697C26.6667 57.2912 26.539 57.5995 26.3116 57.8268C26.0843 58.0541 25.776 58.1818 25.4545 58.1818C25.1331 58.1818 24.8248 58.0541 24.5974 57.8268C24.3701 57.5995 24.2424 57.2912 24.2424 56.9697C24.2424 56.6482 24.3701 56.3399 24.5974 56.1126C24.8248 55.8853 25.1331 55.7576 25.4545 55.7576Z"
        fill="#288EBA"/>
    <path d="M31.5151 55.7576H33.9394V58.1818H31.5151V55.7576Z" fill="#288EBA"/>
    <path d="M33.9394 55.7576H36.3636V58.1818H33.9394V55.7576Z" fill="#288EBA"/>
    <path
        d="M36.3636 55.7576C37.0066 55.7576 37.6232 56.013 38.0778 56.4676C38.5325 56.9223 38.7879 57.5389 38.7879 58.1818H36.3636V55.7576Z"
        fill="#288EBA"/>
    <path d="M41.2121 55.7576H43.6364V58.1818H41.2121V55.7576Z" fill="#288EBA"/>
    <path
        d="M43.6364 55.7576C44.2793 55.7576 44.8959 56.013 45.3506 56.4676C45.8052 56.9223 46.0606 57.5389 46.0606 58.1818H43.6364V55.7576Z"
        fill="#288EBA"/>
    <path d="M53.3333 55.7576H55.7576V58.1818H53.3333V55.7576Z" fill="#288EBA"/>
    <path d="M63.0303 55.7576H65.4545V58.1818H63.0303V55.7576Z" fill="#288EBA"/>
    <path d="M70.303 55.7576H72.7273V58.1818H70.303V55.7576Z" fill="#288EBA"/>
    <path
        d="M72.7273 58.1818C73.3702 58.1818 73.9868 57.9264 74.4415 57.4718C74.8961 57.0171 75.1515 56.4005 75.1515 55.7576H72.7273V58.1818Z"
        fill="#288EBA"/>
    <path
        d="M4.84848 60.6061C4.84848 59.9631 5.10389 59.3465 5.55852 58.8919C6.01316 58.4372 6.62977 58.1818 7.27272 58.1818V60.6061H4.84848Z"
        fill="#288EBA"/>
    <path d="M7.27272 58.1818H9.69697V60.6061H7.27272V58.1818Z" fill="#288EBA"/>
    <path d="M9.69697 58.1818H12.1212V60.6061H9.69697V58.1818Z" fill="#288EBA"/>
    <path d="M12.1212 58.1818H14.5455V60.6061H12.1212V58.1818Z" fill="#288EBA"/>
    <path d="M14.5455 58.1818H16.9697V60.6061H14.5455V58.1818Z" fill="#288EBA"/>
    <path d="M16.9697 58.1818H19.3939V60.6061H16.9697V58.1818Z" fill="#288EBA"/>
    <path
        d="M19.3939 58.1818C20.0369 58.1818 20.6535 58.4372 21.1081 58.8919C21.5628 59.3465 21.8182 59.9631 21.8182 60.6061H19.3939V58.1818Z"
        fill="#288EBA"/>
    <path
        d="M29.0909 60.6061C29.0909 59.9631 29.3463 59.3465 29.8009 58.8919C30.2556 58.4372 30.8722 58.1818 31.5151 58.1818V60.6061H29.0909Z"
        fill="#288EBA"/>
    <path d="M31.5151 58.1818H33.9394V60.6061H31.5151V58.1818Z" fill="#288EBA"/>
    <path d="M33.9394 58.1818H36.3636V60.6061H33.9394V58.1818Z" fill="#288EBA"/>
    <path d="M36.3636 58.1818H38.7879V60.6061H36.3636V58.1818Z" fill="#288EBA"/>
    <path
        d="M41.2121 58.1818C41.2121 58.8248 41.4675 59.4414 41.9222 59.896C42.3768 60.3506 42.9934 60.6061 43.6364 60.6061V58.1818H41.2121Z"
        fill="#288EBA"/>
    <path d="M43.6364 58.1818H46.0606V60.6061H43.6364V58.1818Z" fill="#288EBA"/>
    <path
        d="M47.2727 58.1818C47.5942 58.1818 47.9025 58.3095 48.1298 58.5368C48.3571 58.7642 48.4848 59.0725 48.4848 59.3939C48.4848 59.7154 48.3571 60.0237 48.1298 60.251C47.9025 60.4784 47.5942 60.6061 47.2727 60.6061H46.0606V58.1818H47.2727Z"
        fill="#288EBA"/>
    <path d="M53.3333 58.1818H55.7576V60.6061H53.3333V58.1818Z" fill="#288EBA"/>
    <path
        d="M59.3939 58.1818C59.7154 58.1818 60.0237 58.3095 60.251 58.5368C60.4784 58.7642 60.6061 59.0725 60.6061 59.3939C60.6061 59.7154 60.4784 60.0237 60.251 60.251C60.0237 60.4784 59.7154 60.6061 59.3939 60.6061C59.0725 60.6061 58.7642 60.4784 58.5368 60.251C58.3095 60.0237 58.1818 59.7154 58.1818 59.3939C58.1818 59.0725 58.3095 58.7642 58.5368 58.5368C58.7642 58.3095 59.0725 58.1818 59.3939 58.1818Z"
        fill="#288EBA"/>
    <path d="M63.0303 58.1818H65.4545V60.6061H63.0303V58.1818Z" fill="#288EBA"/>
    <path d="M65.4545 58.1818H67.8788V60.6061H65.4545V58.1818Z" fill="#288EBA"/>
    <path d="M67.8788 58.1818H70.303V60.6061H67.8788V58.1818Z" fill="#288EBA"/>
    <path
        d="M70.303 60.6061C70.946 60.6061 71.5626 60.3506 72.0172 59.896C72.4719 59.4414 72.7273 58.8248 72.7273 58.1818H70.303V60.6061Z"
        fill="#288EBA"/>
    <path d="M4.84848 60.6061H7.27272V63.0303H4.84848V60.6061Z" fill="#288EBA"/>
    <path d="M19.3939 60.6061H21.8182V63.0303H19.3939V60.6061Z" fill="#288EBA"/>
    <path d="M29.0909 60.6061H31.5151V63.0303H29.0909V60.6061Z" fill="#288EBA"/>
    <path
        d="M36.3636 61.8182C36.3636 62.1397 36.4913 62.448 36.7187 62.6753C36.946 62.9026 37.2543 63.0303 37.5758 63.0303C37.8972 63.0303 38.2055 62.9026 38.4329 62.6753C38.6602 62.448 38.7879 62.1397 38.7879 61.8182V60.6061H36.3636V61.8182Z"
        fill="#288EBA"/>
    <path
        d="M48.4848 61.8182C48.4848 61.4967 48.6125 61.1884 48.8399 60.9611C49.0672 60.7338 49.3755 60.6061 49.697 60.6061C50.0184 60.6061 50.3267 60.7338 50.5541 60.9611C50.7814 61.1884 50.9091 61.4967 50.9091 61.8182V63.0303H48.4848V61.8182Z"
        fill="#288EBA"/>
    <path d="M53.3333 60.6061H55.7576V63.0303H53.3333V60.6061Z" fill="#288EBA"/>
    <path d="M63.0303 60.6061H65.4545V63.0303H63.0303V60.6061Z" fill="#288EBA"/>
    <path
        d="M67.8788 61.8182C67.8788 62.1397 68.0065 62.448 68.2338 62.6753C68.4611 62.9026 68.7694 63.0303 69.0909 63.0303C69.4124 63.0303 69.7207 62.9026 69.948 62.6753C70.1753 62.448 70.303 62.1397 70.303 61.8182V60.6061H67.8788V61.8182Z"
        fill="#288EBA"/>
    <path
        d="M72.7273 61.8182C72.7273 61.4967 72.855 61.1884 73.0823 60.9611C73.3096 60.7338 73.6179 60.6061 73.9394 60.6061C74.2609 60.6061 74.5692 60.7338 74.7965 60.9611C75.0238 61.1884 75.1515 61.4967 75.1515 61.8182V63.0303H72.7273V61.8182Z"
        fill="#288EBA"/>
    <path d="M4.84848 63.0303H7.27272V65.4545H4.84848V63.0303Z" fill="#288EBA"/>
    <path
        d="M9.69697 65.4545C9.69697 64.8116 9.95238 64.195 10.407 63.7403C10.8616 63.2857 11.4783 63.0303 12.1212 63.0303V65.4545H9.69697Z"
        fill="#288EBA"/>
    <path d="M12.1212 63.0303H14.5455V65.4545H12.1212V63.0303Z" fill="#288EBA"/>
    <path
        d="M14.5455 63.0303C15.1884 63.0303 15.805 63.2857 16.2596 63.7403C16.7143 64.195 16.9697 64.8116 16.9697 65.4545H14.5455V63.0303Z"
        fill="#288EBA"/>
    <path d="M19.3939 63.0303H21.8182V65.4545H19.3939V63.0303Z" fill="#288EBA"/>
    <path
        d="M29.0909 64.2424C29.0909 64.5639 29.2186 64.8722 29.4459 65.0995C29.6732 65.3268 29.9816 65.4545 30.303 65.4545C30.6245 65.4545 30.9328 65.3268 31.1601 65.0995C31.3874 64.8722 31.5151 64.5639 31.5151 64.2424V63.0303H29.0909V64.2424Z"
        fill="#288EBA"/>
    <path
        d="M46.0606 65.4545C46.0606 64.8116 46.316 64.195 46.7706 63.7403C47.2253 63.2857 47.8419 63.0303 48.4848 63.0303V65.4545H46.0606Z"
        fill="#288EBA"/>
    <path
        d="M48.4848 65.4545C49.1278 65.4545 49.7444 65.1991 50.199 64.7445C50.6537 64.2899 50.9091 63.6732 50.9091 63.0303H48.4848V65.4545Z"
        fill="#288EBA"/>
    <path d="M53.3333 63.0303H55.7576V65.4545H53.3333V63.0303Z" fill="#288EBA"/>
    <path d="M55.7576 63.0303H58.1818V65.4545H55.7576V63.0303Z" fill="#288EBA"/>
    <path d="M58.1818 63.0303H60.6061V65.4545H58.1818V63.0303Z" fill="#288EBA"/>
    <path d="M60.6061 63.0303H63.0303V65.4545H60.6061V63.0303Z" fill="#288EBA"/>
    <path d="M63.0303 63.0303H65.4545V65.4545H63.0303V63.0303Z" fill="#288EBA"/>
    <path
        d="M66.6667 63.0303C66.9881 63.0303 67.2964 63.158 67.5238 63.3853C67.7511 63.6126 67.8788 63.9209 67.8788 64.2424C67.8788 64.5639 67.7511 64.8722 67.5238 65.0995C67.2964 65.3268 66.9881 65.4545 66.6667 65.4545H65.4545V63.0303H66.6667Z"
        fill="#288EBA"/>
    <path d="M72.7273 63.0303H75.1515V65.4545H72.7273V63.0303Z" fill="#288EBA"/>
    <path d="M4.84848 65.4545H7.27272V67.8788H4.84848V65.4545Z" fill="#288EBA"/>
    <path d="M9.69697 65.4545H12.1212V67.8788H9.69697V65.4545Z" fill="#288EBA"/>
    <path d="M12.1212 65.4545H14.5455V67.8788H12.1212V65.4545Z" fill="#288EBA"/>
    <path d="M14.5455 65.4545H16.9697V67.8788H14.5455V65.4545Z" fill="#288EBA"/>
    <path d="M19.3939 65.4545H21.8182V67.8788H19.3939V65.4545Z" fill="#288EBA"/>
    <path
        d="M25.4545 65.4545C25.776 65.4545 26.0843 65.5822 26.3116 65.8096C26.539 66.0369 26.6667 66.3452 26.6667 66.6667C26.6667 66.9881 26.539 67.2964 26.3116 67.5238C26.0843 67.7511 25.776 67.8788 25.4545 67.8788C25.1331 67.8788 24.8248 67.7511 24.5974 67.5238C24.3701 67.2964 24.2424 66.9881 24.2424 66.6667C24.2424 66.3452 24.3701 66.0369 24.5974 65.8096C24.8248 65.5822 25.1331 65.4545 25.4545 65.4545Z"
        fill="#288EBA"/>
    <path
        d="M32.7273 65.4545C32.4058 65.4545 32.0975 65.5822 31.8702 65.8096C31.6429 66.0369 31.5151 66.3452 31.5151 66.6667C31.5151 66.9881 31.6429 67.2964 31.8702 67.5238C32.0975 67.7511 32.4058 67.8788 32.7273 67.8788H33.9394V65.4545H32.7273Z"
        fill="#288EBA"/>
    <path
        d="M35.1515 65.4545C35.473 65.4545 35.7813 65.5822 36.0086 65.8096C36.2359 66.0369 36.3636 66.3452 36.3636 66.6667C36.3636 66.9881 36.2359 67.2964 36.0086 67.5238C35.7813 67.7511 35.473 67.8788 35.1515 67.8788H33.9394V65.4545H35.1515Z"
        fill="#288EBA"/>
    <path
        d="M40 65.4545C40.3215 65.4545 40.6298 65.5822 40.8571 65.8096C41.0844 66.0369 41.2121 66.3452 41.2121 66.6667C41.2121 66.9881 41.0844 67.2964 40.8571 67.5238C40.6298 67.7511 40.3215 67.8788 40 67.8788C39.6785 67.8788 39.3702 67.7511 39.1429 67.5238C38.9156 67.2964 38.7879 66.9881 38.7879 66.6667C38.7879 66.3452 38.9156 66.0369 39.1429 65.8096C39.3702 65.5822 39.6785 65.4545 40 65.4545Z"
        fill="#288EBA"/>
    <path
        d="M46.0606 66.6667C46.0606 66.9881 46.1883 67.2964 46.4156 67.5238C46.6429 67.7511 46.9512 67.8788 47.2727 67.8788C47.5942 67.8788 47.9025 67.7511 48.1298 67.5238C48.3571 67.2964 48.4848 66.9881 48.4848 66.6667V65.4545H46.0606V66.6667Z"
        fill="#288EBA"/>
    <path
        d="M50.9091 67.8788C50.9091 67.2358 51.1645 66.6192 51.6191 66.1646C52.0738 65.71 52.6904 65.4545 53.3333 65.4545V67.8788H50.9091Z"
        fill="#288EBA"/>
    <path d="M53.3333 65.4545H55.7576V67.8788H53.3333V65.4545Z" fill="#288EBA"/>
    <path d="M55.7576 65.4545H58.1818V67.8788H55.7576V65.4545Z" fill="#288EBA"/>
    <path
        d="M58.1818 67.8788C58.8248 67.8788 59.4414 67.6234 59.896 67.1687C60.3506 66.7141 60.6061 66.0975 60.6061 65.4545H58.1818V67.8788Z"
        fill="#288EBA"/>
    <path d="M63.0303 65.4545H65.4545V67.8788H63.0303V65.4545Z" fill="#288EBA"/>
    <path
        d="M67.8788 66.6667C67.8788 66.3452 68.0065 66.0369 68.2338 65.8096C68.4611 65.5822 68.7694 65.4545 69.0909 65.4545C69.4124 65.4545 69.7207 65.5822 69.948 65.8096C70.1753 66.0369 70.303 66.3452 70.303 66.6667V67.8788H67.8788V66.6667Z"
        fill="#288EBA"/>
    <path d="M72.7273 65.4545H75.1515V67.8788H72.7273V65.4545Z" fill="#288EBA"/>
    <path d="M4.84848 67.8788H7.27272V70.303H4.84848V67.8788Z" fill="#288EBA"/>
    <path
        d="M9.69697 67.8788C9.69697 68.5217 9.95238 69.1384 10.407 69.593C10.8616 70.0476 11.4783 70.303 12.1212 70.303V67.8788H9.69697Z"
        fill="#288EBA"/>
    <path d="M12.1212 67.8788H14.5455V70.303H12.1212V67.8788Z" fill="#288EBA"/>
    <path
        d="M14.5455 70.303C15.1884 70.303 15.805 70.0476 16.2596 69.593C16.7143 69.1384 16.9697 68.5217 16.9697 67.8788H14.5455V70.303Z"
        fill="#288EBA"/>
    <path d="M19.3939 67.8788H21.8182V70.303H19.3939V67.8788Z" fill="#288EBA"/>
    <path
        d="M30.303 67.8788C30.6245 67.8788 30.9328 68.0065 31.1601 68.2338C31.3874 68.4611 31.5151 68.7694 31.5151 69.0909C31.5151 69.4124 31.3874 69.7207 31.1601 69.948C30.9328 70.1753 30.6245 70.303 30.303 70.303C29.9816 70.303 29.6732 70.1753 29.4459 69.948C29.2186 69.7207 29.0909 69.4124 29.0909 69.0909C29.0909 68.7694 29.2186 68.4611 29.4459 68.2338C29.6732 68.0065 29.9816 67.8788 30.303 67.8788Z"
        fill="#288EBA"/>
    <path
        d="M41.2121 69.0909C41.2121 68.7694 41.3398 68.4611 41.5671 68.2338C41.7945 68.0065 42.1028 67.8788 42.4242 67.8788C42.7457 67.8788 43.054 68.0065 43.2813 68.2338C43.5087 68.4611 43.6364 68.7694 43.6364 69.0909V70.303H41.2121V69.0909Z"
        fill="#288EBA"/>
    <path
        d="M48.4848 70.303C48.4848 69.6601 48.7403 69.0435 49.1949 68.5888C49.6495 68.1342 50.2661 67.8788 50.9091 67.8788V70.303H48.4848Z"
        fill="#288EBA"/>
    <path d="M50.9091 67.8788H53.3333V70.303H50.9091V67.8788Z" fill="#288EBA"/>
    <path d="M53.3333 67.8788H55.7576V70.303H53.3333V67.8788Z" fill="#288EBA"/>
    <path
        d="M63.0303 67.8788C63.0303 68.5217 63.2857 69.1384 63.7403 69.593C64.195 70.0476 64.8116 70.303 65.4545 70.303V67.8788H63.0303Z"
        fill="#288EBA"/>
    <path d="M65.4545 67.8788H67.8788V70.303H65.4545V67.8788Z" fill="#288EBA"/>
    <path
        d="M67.8788 70.303C68.5217 70.303 69.1384 70.0476 69.593 69.593C70.0476 69.1384 70.303 68.5217 70.303 67.8788H67.8788V70.303Z"
        fill="#288EBA"/>
    <path
        d="M72.7273 69.0909C72.7273 69.4124 72.855 69.7207 73.0823 69.948C73.3096 70.1753 73.6179 70.303 73.9394 70.303C74.2609 70.303 74.5692 70.1753 74.7965 69.948C75.0238 69.7207 75.1515 69.4124 75.1515 69.0909V67.8788H72.7273V69.0909Z"
        fill="#288EBA"/>
    <path d="M4.84848 70.303H7.27272V72.7273H4.84848V70.303Z" fill="#288EBA"/>
    <path d="M19.3939 70.303H21.8182V72.7273H19.3939V70.303Z" fill="#288EBA"/>
    <path
        d="M38.7879 72.7273C38.7879 72.0843 39.0433 71.4677 39.4979 71.0131C39.9526 70.5584 40.5692 70.303 41.2121 70.303V72.7273H38.7879Z"
        fill="#288EBA"/>
    <path d="M41.2121 70.303H43.6364V72.7273H41.2121V70.303Z" fill="#288EBA"/>
    <path
        d="M44.8485 70.303C45.17 70.303 45.4783 70.4307 45.7056 70.6581C45.9329 70.8854 46.0606 71.1937 46.0606 71.5152C46.0606 71.8366 45.9329 72.1449 45.7056 72.3722C45.4783 72.5996 45.17 72.7273 44.8485 72.7273H43.6364V70.303H44.8485Z"
        fill="#288EBA"/>
    <path d="M48.4848 70.303H50.9091V72.7273H48.4848V70.303Z" fill="#288EBA"/>
    <path d="M53.3333 70.303H55.7576V72.7273H53.3333V70.303Z" fill="#288EBA"/>
    <path d="M55.7576 70.303H58.1818V72.7273H55.7576V70.303Z" fill="#288EBA"/>
    <path d="M58.1818 70.303H60.6061V72.7273H58.1818V70.303Z" fill="#288EBA"/>
    <path
        d="M61.8182 70.303C62.1397 70.303 62.448 70.4307 62.6753 70.6581C62.9026 70.8854 63.0303 71.1937 63.0303 71.5152C63.0303 71.8366 62.9026 72.1449 62.6753 72.3722C62.448 72.5996 62.1397 72.7273 61.8182 72.7273H60.6061V70.303H61.8182Z"
        fill="#288EBA"/>
    <path
        d="M70.303 71.5152C70.303 71.1937 70.4307 70.8854 70.6581 70.6581C70.8854 70.4307 71.1937 70.303 71.5152 70.303C71.8366 70.303 72.1449 70.4307 72.3722 70.6581C72.5996 70.8854 72.7273 71.1937 72.7273 71.5152V72.7273H70.303V71.5152Z"
        fill="#288EBA"/>
    <path
        d="M4.84848 72.7273C4.84848 73.3702 5.10389 73.9868 5.55852 74.4415C6.01316 74.8961 6.62977 75.1515 7.27272 75.1515V72.7273H4.84848Z"
        fill="#288EBA"/>
    <path d="M7.27272 72.7273H9.69697V75.1515H7.27272V72.7273Z" fill="#288EBA"/>
    <path d="M9.69697 72.7273H12.1212V75.1515H9.69697V72.7273Z" fill="#288EBA"/>
    <path d="M12.1212 72.7273H14.5455V75.1515H12.1212V72.7273Z" fill="#288EBA"/>
    <path d="M14.5455 72.7273H16.9697V75.1515H14.5455V72.7273Z" fill="#288EBA"/>
    <path d="M16.9697 72.7273H19.3939V75.1515H16.9697V72.7273Z" fill="#288EBA"/>
    <path
        d="M19.3939 75.1515C20.0369 75.1515 20.6535 74.8961 21.1081 74.4415C21.5628 73.9868 21.8182 73.3702 21.8182 72.7273H19.3939V75.1515Z"
        fill="#288EBA"/>
    <path
        d="M35.1515 72.7273C34.83 72.7273 34.5217 72.855 34.2944 73.0823C34.0671 73.3096 33.9394 73.6179 33.9394 73.9394C33.9394 74.2609 34.0671 74.5692 34.2944 74.7965C34.5217 75.0238 34.83 75.1515 35.1515 75.1515H36.3636V72.7273H35.1515Z"
        fill="#288EBA"/>
    <path d="M36.3636 72.7273H38.7879V75.1515H36.3636V72.7273Z" fill="#288EBA"/>
    <path
        d="M38.7879 75.1515C39.4308 75.1515 40.0474 74.8961 40.5021 74.4415C40.9567 73.9868 41.2121 73.3702 41.2121 72.7273H38.7879V75.1515Z"
        fill="#288EBA"/>
    <path
        d="M47.2727 72.7273C46.9512 72.7273 46.6429 72.855 46.4156 73.0823C46.1883 73.3096 46.0606 73.6179 46.0606 73.9394C46.0606 74.2609 46.1883 74.5692 46.4156 74.7965C46.6429 75.0238 46.9512 75.1515 47.2727 75.1515H48.4848V72.7273H47.2727Z"
        fill="#288EBA"/>
    <path
        d="M48.4848 75.1515C49.1278 75.1515 49.7444 74.8961 50.199 74.4415C50.6537 73.9868 50.9091 73.3702 50.9091 72.7273H48.4848V75.1515Z"
        fill="#288EBA"/>
    <path
        d="M53.3333 72.7273C53.3333 73.3702 53.5887 73.9868 54.0434 74.4415C54.498 74.8961 55.1146 75.1515 55.7576 75.1515V72.7273H53.3333Z"
        fill="#288EBA"/>
    <path d="M55.7576 72.7273H58.1818V75.1515H55.7576V72.7273Z" fill="#288EBA"/>
    <path
        d="M58.1818 75.1515C58.8248 75.1515 59.4414 74.8961 59.896 74.4415C60.3506 73.9868 60.6061 73.3702 60.6061 72.7273H58.1818V75.1515Z"
        fill="#288EBA"/>
    <path
        d="M64.2424 72.7273C63.9209 72.7273 63.6126 72.855 63.3853 73.0823C63.158 73.3096 63.0303 73.6179 63.0303 73.9394C63.0303 74.2609 63.158 74.5692 63.3853 74.7965C63.6126 75.0238 63.9209 75.1515 64.2424 75.1515H65.4545V72.7273H64.2424Z"
        fill="#288EBA"/>
    <path
        d="M66.6667 72.7273C66.9881 72.7273 67.2964 72.855 67.5238 73.0823C67.7511 73.3096 67.8788 73.6179 67.8788 73.9394C67.8788 74.2609 67.7511 74.5692 67.5238 74.7965C67.2964 75.0238 66.9881 75.1515 66.6667 75.1515H65.4545V72.7273H66.6667Z"
        fill="#288EBA"/>
    <path
        d="M70.303 73.9394C70.303 74.2609 70.4307 74.5692 70.6581 74.7965C70.8854 75.0238 71.1937 75.1515 71.5152 75.1515C71.8366 75.1515 72.1449 75.0238 72.3722 74.7965C72.5996 74.5692 72.7273 74.2609 72.7273 73.9394V72.7273H70.303V73.9394Z"
        fill="#288EBA"/>
    <g clip-path="url(#clip0_239_80)">
        <path
            d="M40 31.5C35.0296 31.5 31 35.5294 31 40.5C31 45.4706 35.0296 49.5 40 49.5C44.9704 49.5 49 45.4706 49 40.5C49 35.5294 44.9704 31.5 40 31.5ZM44.5653 41.4734C44.9848 41.8831 45.4285 42.2687 45.8051 42.7208C45.9719 42.9207 46.1292 43.1275 46.2489 43.3601C46.4198 43.6918 46.2655 44.0554 45.9686 44.0751L44.1248 44.0748C43.6486 44.1142 43.2696 43.9221 42.9502 43.5966C42.6951 43.3371 42.4585 43.06 42.2128 42.7917C42.1125 42.6815 42.0068 42.5779 41.8808 42.4963C41.6295 42.3328 41.4111 42.3829 41.2671 42.6455C41.1203 42.9126 41.0868 43.2087 41.0728 43.5061C41.0527 43.9409 40.9216 44.0545 40.4854 44.075C39.5533 44.1186 38.6688 43.9772 37.8468 43.5072C37.1217 43.0927 36.5604 42.5077 36.0713 41.8454C35.1189 40.5541 34.3895 39.137 33.7342 37.6791C33.5867 37.3508 33.6946 37.1751 34.0568 37.1683C34.6586 37.1567 35.2603 37.1582 35.8621 37.1677C36.107 37.1716 36.2691 37.3117 36.3632 37.5428C36.6884 38.3429 37.087 39.1042 37.5866 39.8102C37.7198 39.9982 37.8557 40.1857 38.0492 40.3184C38.2628 40.465 38.4256 40.4166 38.5263 40.1781C38.5908 40.0266 38.6186 39.8645 38.6326 39.7021C38.6804 39.1458 38.6861 38.5897 38.6033 38.0356C38.5517 37.6889 38.3567 37.465 38.0111 37.3994C37.835 37.3661 37.8608 37.3009 37.9464 37.2003C38.095 37.0265 38.2343 36.919 38.5125 36.919L40.5957 36.9186C40.924 36.983 40.9977 37.1304 41.0423 37.4611L41.0441 39.7761C41.0402 39.9041 41.1084 40.2834 41.3382 40.3672C41.5223 40.428 41.6438 40.2803 41.754 40.1638C42.2535 39.6336 42.6095 39.0079 42.9282 38.3603C43.0689 38.0746 43.1903 37.7791 43.3081 37.483C43.3958 37.2641 43.5321 37.1563 43.7792 37.16L45.7852 37.1624C45.8443 37.1624 45.9044 37.163 45.9629 37.1731C46.301 37.2309 46.3936 37.3764 46.289 37.7062C46.1244 38.2244 45.8046 38.656 45.4919 39.0887C45.1567 39.552 44.7993 39.9991 44.4675 40.4645C44.1626 40.8898 44.1867 41.104 44.5653 41.4734Z"
            fill="#288EBA"/>
    </g>
    <defs>
        <clipPath id="clip0_239_80">
            <rect width="18" height="18" fill="white" transform="translate(31 31.5)"/>
        </clipPath>
    </defs>
</svg>
