<svg width="350" height="350" viewBox="0 0 64 65" fill="none" xmlns="http://www.w3.org/2000/svg">
<path d="M26.8 7.24667L10.7467 17.7267C5.59999 21.0867 5.59999 28.6067 10.7467 31.9667L26.8 42.4467C29.68 44.34 34.4267 44.34 37.3067 42.4467L53.28 31.9667C58.4 28.6067 58.4 21.1133 53.28 17.7533L37.3067 7.27333C34.4267 5.35333 29.68 5.35333 26.8 7.24667Z" stroke="#288EBA" stroke-width="4" stroke-linecap="round" stroke-linejoin="round"/>
<path d="M15.0134 35.38L14.9867 47.8867C14.9867 51.2733 17.6 54.9 20.8 55.9667L29.3067 58.7933C30.7734 59.2733 33.2 59.2733 34.6934 58.7933L43.2 55.9667C46.4 54.9 49.0134 51.2733 49.0134 47.8867V35.5133M57.0667 40.5V24.5" stroke="#288EBA" stroke-width="4" stroke-linecap="round" stroke-linejoin="round"/>
</svg>
