<?xml version="1.0" encoding="UTF-8"?>
<svg xmlns="http://www.w3.org/2000/svg" xmlns:xlink="http://www.w3.org/1999/xlink" width="px" height="px" viewBox="0 0 350 1121" version="1.1">
<g id="surface1">
<path style=" stroke:none;fill-rule:evenodd;fill:rgb(70.196078%,70.196078%,70.196078%);fill-opacity:1;" d="M 8.648438 1115.0625 L 8.648438 8.648438 L 12.425781 12.421875 L 12.425781 1111.285156 Z M 8.648438 1115.0625 "/>
<path style="fill:none;stroke-width:0.24;stroke-linecap:round;stroke-linejoin:round;stroke:rgb(0%,0%,0%);stroke-opacity:1;stroke-miterlimit:3;" d="M -0.00185884 3354.792808 L 3322.201541 3354.792808 M 11.340282 3366.132934 L 3310.871129 3366.132934 " transform="matrix(0.00000000000000002,-0.333036,0.333095,0.00000000000000002,-1108.817559,1115.061881)"/>
<path style=" stroke:none;fill-rule:evenodd;fill:rgb(70.196078%,70.196078%,70.196078%);fill-opacity:1;" d="M 8.648438 8.644531 L 345.730469 8.644531 L 341.953125 12.421875 L 12.425781 12.421875 Z M 8.648438 8.644531 "/>
<path style="fill:none;stroke-width:0.24;stroke-linecap:round;stroke-linejoin:round;stroke:rgb(0%,0%,0%);stroke-opacity:1;stroke-miterlimit:3;" d="M -11.339192 3354.78673 L 1000.629295 3354.78673 M 0.000934163 3366.128871 L 989.289169 3366.128871 " transform="matrix(0.333095,0,0,0.333036,12.42547,-1108.62096)"/>
<path style=" stroke:none;fill-rule:evenodd;fill:rgb(70.196078%,70.196078%,70.196078%);fill-opacity:1;" d="M 341.953125 1111.285156 L 341.953125 12.421875 L 345.730469 8.648438 L 345.730469 1115.0625 Z M 341.953125 1111.285156 "/>
<path style="fill:none;stroke-width:0.24;stroke-linecap:round;stroke-linejoin:round;stroke:rgb(0%,0%,0%);stroke-opacity:1;stroke-miterlimit:3;" d="M 11.340282 3354.791169 L 3310.871129 3354.791169 M -0.00185884 3366.131295 L 3322.201541 3366.131295 " transform="matrix(0.00000000000000002,-0.333036,0.333095,0.00000000000000002,-775.512325,1115.061881)"/>
<path style=" stroke:none;fill-rule:evenodd;fill:rgb(70.196078%,70.196078%,70.196078%);fill-opacity:1;" d="M 12.425781 1111.285156 L 341.953125 1111.285156 L 345.730469 1115.0625 L 8.648438 1115.0625 Z M 12.425781 1111.285156 "/>
<path style="fill:none;stroke-width:0.24;stroke-linecap:round;stroke-linejoin:round;stroke:rgb(0%,0%,0%);stroke-opacity:1;stroke-miterlimit:3;" d="M 0.000934163 3354.789718 L 989.289169 3354.789718 M -11.339192 3366.131859 L 1000.629295 3366.131859 " transform="matrix(0.333095,0,0,0.333036,12.42547,-5.981331)"/>
<path style=" stroke:none;fill-rule:evenodd;fill:rgb(70.196078%,70.196078%,70.196078%);fill-opacity:1;" d="M 12.425781 549.582031 L 341.953125 549.582031 L 341.953125 553.359375 L 12.425781 553.359375 Z M 12.425781 549.582031 "/>
<path style=" stroke:none;fill-rule:evenodd;fill:rgb(70.196078%,70.196078%,70.196078%);fill-opacity:1;" d="M 12.046875 553.359375 L 12.046875 549.582031 L 12.421875 549.582031 L 12.421875 553.359375 Z M 12.046875 553.359375 "/>
<path style=" stroke:none;fill-rule:evenodd;fill:rgb(70.196078%,70.196078%,70.196078%);fill-opacity:1;" d="M 342.332031 549.582031 L 342.332031 553.359375 L 341.957031 553.359375 L 341.957031 549.582031 Z M 342.332031 549.582031 "/>
<path style="fill:none;stroke-width:0.24;stroke-linecap:round;stroke-linejoin:round;stroke:rgb(0%,0%,0%);stroke-opacity:1;stroke-miterlimit:3;" d="M 0.000934163 3354.786998 L 989.289169 3354.786998 M 0.000934163 3366.129139 L 989.289169 3366.129139 " transform="matrix(0.333095,0,0,0.333036,12.42547,-567.68355)"/>
<path style=" stroke:none;fill-rule:evenodd;fill:rgb(70.196078%,70.196078%,70.196078%);fill-opacity:1;" d="M 12.425781 438.1875 L 341.953125 438.1875 L 341.953125 440.074219 L 12.425781 440.074219 Z M 12.425781 438.1875 "/>
<path style=" stroke:none;fill-rule:evenodd;fill:rgb(70.196078%,70.196078%,70.196078%);fill-opacity:1;" d="M 12.234375 440.074219 L 12.234375 438.1875 L 12.425781 438.1875 L 12.425781 440.074219 Z M 12.234375 440.074219 "/>
<path style=" stroke:none;fill-rule:evenodd;fill:rgb(70.196078%,70.196078%,70.196078%);fill-opacity:1;" d="M 342.144531 438.1875 L 342.144531 440.074219 L 341.953125 440.074219 L 341.953125 438.1875 Z M 342.144531 438.1875 "/>
<path style="fill:none;stroke-width:0.24;stroke-linecap:round;stroke-linejoin:round;stroke:rgb(0%,0%,0%);stroke-opacity:1;stroke-miterlimit:3;" d="M 0.000934163 3360.465267 L 989.289169 3360.465267 M 0.000934163 3366.130473 L 989.289169 3366.130473 " transform="matrix(0.333095,0,0,0.333036,12.42547,-680.96915)"/>
<path style=" stroke:none;fill-rule:evenodd;fill:rgb(70.196078%,70.196078%,70.196078%);fill-opacity:1;" d="M 12.425781 335.285156 L 341.953125 335.285156 L 341.953125 337.171875 L 12.425781 337.171875 Z M 12.425781 335.285156 "/>
<path style=" stroke:none;fill-rule:evenodd;fill:rgb(70.196078%,70.196078%,70.196078%);fill-opacity:1;" d="M 12.234375 337.171875 L 12.234375 335.285156 L 12.425781 335.285156 L 12.425781 337.171875 Z M 12.234375 337.171875 "/>
<path style=" stroke:none;fill-rule:evenodd;fill:rgb(70.196078%,70.196078%,70.196078%);fill-opacity:1;" d="M 342.144531 335.285156 L 342.144531 337.171875 L 341.953125 337.171875 L 341.953125 335.285156 Z M 342.144531 335.285156 "/>
<path style="fill:none;stroke-width:0.24;stroke-linecap:round;stroke-linejoin:round;stroke:rgb(0%,0%,0%);stroke-opacity:1;stroke-miterlimit:3;" d="M 0.000934163 3360.462828 L 989.289169 3360.462828 M 0.000934163 3366.128033 L 989.289169 3366.128033 " transform="matrix(0.333095,0,0,0.333036,12.42547,-783.870682)"/>
<path style=" stroke:none;fill-rule:evenodd;fill:rgb(70.196078%,70.196078%,70.196078%);fill-opacity:1;" d="M 238.089844 549.578125 L 238.089844 440.070312 L 239.980469 440.070312 L 239.980469 549.578125 Z M 238.089844 549.578125 "/>
<path style=" stroke:none;fill-rule:evenodd;fill:rgb(70.196078%,70.196078%,70.196078%);fill-opacity:1;" d="M 239.980469 549.769531 L 238.089844 549.769531 L 238.089844 549.582031 L 239.980469 549.582031 Z M 239.980469 549.769531 "/>
<path style=" stroke:none;fill-rule:evenodd;fill:rgb(70.196078%,70.196078%,70.196078%);fill-opacity:1;" d="M 238.089844 439.882812 L 239.980469 439.882812 L 239.980469 440.070312 L 238.089844 440.070312 Z M 238.089844 439.882812 "/>
<path style="fill:none;stroke-width:0.24;stroke-linecap:round;stroke-linejoin:round;stroke:rgb(0%,0%,0%);stroke-opacity:1;stroke-miterlimit:3;" d="M 11.344731 3360.458738 L 340.161256 3360.458738 M 11.344731 3366.134665 L 340.161256 3366.134665 " transform="matrix(0.00000000000000002,-0.333036,0.333095,0.00000000000000002,-881.263448,553.356331)"/>
<path style=" stroke:none;fill-rule:evenodd;fill:rgb(70.196078%,70.196078%,70.196078%);fill-opacity:1;" d="M 238.089844 440.074219 L 238.089844 337.171875 L 239.980469 337.171875 L 239.980469 440.074219 Z M 238.089844 440.074219 "/>
<path style=" stroke:none;fill-rule:evenodd;fill:rgb(70.196078%,70.196078%,70.196078%);fill-opacity:1;" d="M 238.089844 336.984375 L 239.980469 336.984375 L 239.980469 337.175781 L 238.089844 337.175781 Z M 238.089844 336.984375 "/>
<path style="fill:none;stroke-width:0.24;stroke-linecap:round;stroke-linejoin:round;stroke:rgb(0%,0%,0%);stroke-opacity:1;stroke-miterlimit:3;" d="M -0.000473084 3363.284974 L -0.000473084 3360.458738 L 308.981967 3360.458738 M -0.000473084 3363.284974 L -0.000473084 3366.134665 L 308.981967 3366.134665 " transform="matrix(0.00000000000000002,-0.333036,0.333095,0.00000000000000002,-881.263448,440.074061)"/>
<path style=" stroke:none;fill-rule:evenodd;fill:rgb(70.196078%,70.196078%,70.196078%);fill-opacity:1;" d="M 121.011719 549.578125 L 121.011719 440.070312 L 122.898438 440.070312 L 122.898438 549.578125 Z M 121.011719 549.578125 "/>
<path style=" stroke:none;fill-rule:evenodd;fill:rgb(70.196078%,70.196078%,70.196078%);fill-opacity:1;" d="M 122.898438 549.769531 L 121.011719 549.769531 L 121.011719 549.582031 L 122.898438 549.582031 Z M 122.898438 549.769531 "/>
<path style=" stroke:none;fill-rule:evenodd;fill:rgb(70.196078%,70.196078%,70.196078%);fill-opacity:1;" d="M 121.011719 439.882812 L 122.898438 439.882812 L 122.898438 440.070312 L 121.011719 440.070312 Z M 121.011719 439.882812 "/>
<path style="fill:none;stroke-width:0.24;stroke-linecap:round;stroke-linejoin:round;stroke:rgb(0%,0%,0%);stroke-opacity:1;stroke-miterlimit:3;" d="M 11.344731 3360.463455 L 340.161256 3360.463455 M 11.344731 3366.127655 L 340.161256 3366.127655 " transform="matrix(0.00000000000000002,-0.333036,0.333095,0.00000000000000002,-998.343144,553.356331)"/>
<path style=" stroke:none;fill-rule:evenodd;fill:rgb(70.196078%,70.196078%,70.196078%);fill-opacity:1;" d="M 77.574219 549.578125 L 77.574219 440.070312 L 79.464844 440.070312 L 79.464844 549.578125 Z M 77.574219 549.578125 "/>
<path style=" stroke:none;fill-rule:evenodd;fill:rgb(70.196078%,70.196078%,70.196078%);fill-opacity:1;" d="M 79.464844 549.769531 L 77.574219 549.769531 L 77.574219 549.582031 L 79.464844 549.582031 Z M 79.464844 549.769531 "/>
<path style=" stroke:none;fill-rule:evenodd;fill:rgb(70.196078%,70.196078%,70.196078%);fill-opacity:1;" d="M 77.574219 439.882812 L 79.464844 439.882812 L 79.464844 440.070312 L 77.574219 440.070312 Z M 77.574219 439.882812 "/>
<path style="fill:none;stroke-width:0.24;stroke-linecap:round;stroke-linejoin:round;stroke:rgb(0%,0%,0%);stroke-opacity:1;stroke-miterlimit:3;" d="M 11.344731 3360.457865 L 340.161256 3360.457865 M 11.344731 3366.133792 L 340.161256 3366.133792 " transform="matrix(0.00000000000000002,-0.333036,0.333095,0.00000000000000002,-1041.778782,553.356331)"/>
<path style="fill-rule:evenodd;fill:rgb(100%,100%,100%);fill-opacity:1;stroke-width:0.24;stroke-linecap:round;stroke-linejoin:round;stroke:rgb(0%,0%,0%);stroke-opacity:1;stroke-miterlimit:3;" d="M 0.00426204 3286.757782 L 14.173141 3286.757782 L 14.173141 3366.126939 L 0.00426204 3366.126939 Z M 14.173141 3286.757782 L 28.35375 3286.757782 L 28.35375 3366.126939 L 14.173141 3366.126939 Z M 28.35375 3286.757782 L 42.522629 3286.757782 L 42.522629 3366.126939 L 28.35375 3366.126939 Z M 42.522629 3286.757782 L 56.691508 3286.757782 L 56.691508 3366.126939 L 42.522629 3366.126939 Z M 56.691508 3286.757782 L 70.872117 3286.757782 L 70.872117 3366.126939 L 56.691508 3366.126939 Z M 70.872117 3286.757782 L 85.040996 3286.757782 L 85.040996 3366.126939 L 70.872117 3366.126939 Z M 85.040996 3286.757782 L 99.209875 3286.757782 L 99.209875 3366.126939 L 85.040996 3366.126939 Z M 99.209875 3286.757782 L 113.390484 3286.757782 L 113.390484 3366.126939 L 99.209875 3366.126939 Z M 99.209875 3286.757782 " transform="matrix(0.00000000000000002,0.333036,-0.333095,0.00000000000000002,1137.444468,450.490768)"/>
<path style="fill-rule:evenodd;fill:rgb(100%,100%,100%);fill-opacity:1;stroke-width:0.24;stroke-linecap:round;stroke-linejoin:round;stroke:rgb(0%,0%,0%);stroke-opacity:1;stroke-miterlimit:3;" d="M 0.000857 3286.763061 L 14.169736 3286.763061 L 14.169736 3366.132218 L 0.000857 3366.132218 Z M 14.169736 3286.763061 L 28.350345 3286.763061 L 28.350345 3366.132218 L 14.169736 3366.132218 Z M 28.350345 3286.763061 L 42.519224 3286.763061 L 42.519224 3366.132218 L 28.350345 3366.132218 Z M 42.519224 3286.763061 L 56.688103 3286.763061 L 56.688103 3366.132218 L 42.519224 3366.132218 Z M 56.688103 3286.763061 L 70.868712 3286.763061 L 70.868712 3366.132218 L 56.688103 3366.132218 Z M 70.868712 3286.763061 L 85.037591 3286.763061 L 85.037591 3366.132218 L 70.868712 3366.132218 Z M 85.037591 3286.763061 L 99.20647 3286.763061 L 99.20647 3366.132218 L 85.037591 3366.132218 Z M 99.20647 3286.763061 L 113.387079 3286.763061 L 113.387079 3366.132218 L 99.20647 3366.132218 Z M 99.20647 3286.763061 " transform="matrix(0.00000000000000002,-0.333036,0.333095,0.00000000000000002,-1078.602476,525.980754)"/>
<path style="fill-rule:evenodd;fill:rgb(100%,100%,100%);fill-opacity:1;stroke-width:0.24;stroke-linecap:round;stroke-linejoin:round;stroke:rgb(0%,0%,0%);stroke-opacity:1;stroke-miterlimit:3;" d="M 0.00426204 3286.758498 L 14.173141 3286.758498 L 14.173141 3366.127655 L 0.00426204 3366.127655 Z M 14.173141 3286.758498 L 28.35375 3286.758498 L 28.35375 3366.127655 L 14.173141 3366.127655 Z M 28.35375 3286.758498 L 42.522629 3286.758498 L 42.522629 3366.127655 L 28.35375 3366.127655 Z M 42.522629 3286.758498 L 56.691508 3286.758498 L 56.691508 3366.127655 L 42.522629 3366.127655 Z M 56.691508 3286.758498 L 70.872117 3286.758498 L 70.872117 3366.127655 L 56.691508 3366.127655 Z M 70.872117 3286.758498 L 85.040996 3286.758498 L 85.040996 3366.127655 L 70.872117 3366.127655 Z M 85.040996 3286.758498 L 99.209875 3286.758498 L 99.209875 3366.127655 L 85.040996 3366.127655 Z M 99.209875 3286.758498 L 113.390484 3286.758498 L 113.390484 3366.127655 L 99.209875 3366.127655 Z M 99.209875 3286.758498 " transform="matrix(0.00000000000000002,0.333036,-0.333095,0.00000000000000002,1167.65955,450.490768)"/>
<path style="fill-rule:evenodd;fill:rgb(100%,100%,100%);fill-opacity:1;stroke-width:0.24;stroke-linecap:round;stroke-linejoin:round;stroke:rgb(0%,0%,0%);stroke-opacity:1;stroke-miterlimit:3;" d="M 0.000857 3286.762345 L 14.169736 3286.762345 L 14.169736 3366.131502 L 0.000857 3366.131502 Z M 14.169736 3286.762345 L 28.350345 3286.762345 L 28.350345 3366.131502 L 14.169736 3366.131502 Z M 28.350345 3286.762345 L 42.519224 3286.762345 L 42.519224 3366.131502 L 28.350345 3366.131502 Z M 42.519224 3286.762345 L 56.688103 3286.762345 L 56.688103 3366.131502 L 42.519224 3366.131502 Z M 56.688103 3286.762345 L 70.868712 3286.762345 L 70.868712 3366.131502 L 56.688103 3366.131502 Z M 70.868712 3286.762345 L 85.037591 3286.762345 L 85.037591 3366.131502 L 70.868712 3366.131502 Z M 85.037591 3286.762345 L 99.20647 3286.762345 L 99.20647 3366.131502 L 85.037591 3366.131502 Z M 99.20647 3286.762345 L 113.387079 3286.762345 L 113.387079 3366.131502 L 99.20647 3366.131502 Z M 99.20647 3286.762345 " transform="matrix(0.00000000000000002,-0.333036,0.333095,0.00000000000000002,-1048.387394,525.980754)"/>
<path style="fill-rule:evenodd;fill:rgb(100%,100%,100%);fill-opacity:1;stroke-width:0.24;stroke-linecap:round;stroke-linejoin:round;stroke:rgb(0%,0%,0%);stroke-opacity:1;stroke-miterlimit:3;" d="M 0.00416156 3286.758088 L 14.173041 3286.758088 L 14.173041 3366.127246 L 0.00416156 3366.127246 Z M 14.173041 3286.758088 L 28.353649 3286.758088 L 28.353649 3366.127246 L 14.173041 3366.127246 Z M 28.353649 3286.758088 L 42.522529 3286.758088 L 42.522529 3366.127246 L 28.353649 3366.127246 Z M 42.522529 3286.758088 L 56.691408 3286.758088 L 56.691408 3366.127246 L 42.522529 3366.127246 Z M 56.691408 3286.758088 L 70.872016 3286.758088 L 70.872016 3366.127246 L 56.691408 3366.127246 Z M 70.872016 3286.758088 L 85.040896 3286.758088 L 85.040896 3366.127246 L 70.872016 3366.127246 Z M 85.040896 3286.758088 L 99.209775 3286.758088 L 99.209775 3366.127246 L 85.040896 3366.127246 Z M 99.209775 3286.758088 L 113.390383 3286.758088 L 113.390383 3366.127246 L 99.209775 3366.127246 Z M 99.209775 3286.758088 " transform="matrix(0.00000000000000002,0.333036,-0.333095,0.00000000000000002,1365.94457,463.705645)"/>
<path style="fill-rule:evenodd;fill:rgb(100%,100%,100%);fill-opacity:1;stroke-width:0.24;stroke-linecap:round;stroke-linejoin:round;stroke:rgb(0%,0%,0%);stroke-opacity:1;stroke-miterlimit:3;" d="M 0.000957477 3286.762754 L 14.169837 3286.762754 L 14.169837 3366.131912 L 0.000957477 3366.131912 Z M 14.169837 3286.762754 L 28.350445 3286.762754 L 28.350445 3366.131912 L 14.169837 3366.131912 Z M 28.350445 3286.762754 L 42.519325 3286.762754 L 42.519325 3366.131912 L 28.350445 3366.131912 Z M 42.519325 3286.762754 L 56.688204 3286.762754 L 56.688204 3366.131912 L 42.519325 3366.131912 Z M 56.688204 3286.762754 L 70.868812 3286.762754 L 70.868812 3366.131912 L 56.688204 3366.131912 Z M 70.868812 3286.762754 L 85.037692 3286.762754 L 85.037692 3366.131912 L 70.868812 3366.131912 Z M 85.037692 3286.762754 L 99.206571 3286.762754 L 99.206571 3366.131912 L 85.037692 3366.131912 Z M 99.206571 3286.762754 L 113.387179 3286.762754 L 113.387179 3366.131912 L 99.206571 3366.131912 Z M 99.206571 3286.762754 " transform="matrix(0.00000000000000002,-0.333036,0.333095,0.00000000000000002,-850.102374,539.195631)"/>
<path style="fill-rule:evenodd;fill:rgb(100%,100%,100%);fill-opacity:1;stroke-width:0.24;stroke-linecap:round;stroke-linejoin:round;stroke:rgb(0%,0%,0%);stroke-opacity:1;stroke-miterlimit:3;" d="M 0.000327923 3286.764731 L 14.169207 3286.764731 L 14.169207 3366.133888 L 0.000327923 3366.133888 Z M 14.169207 3286.764731 L 28.349816 3286.764731 L 28.349816 3366.133888 L 14.169207 3366.133888 Z M 28.349816 3286.764731 L 42.518695 3286.764731 L 42.518695 3366.133888 L 28.349816 3366.133888 Z M 42.518695 3286.764731 L 56.687574 3286.764731 L 56.687574 3366.133888 L 42.518695 3366.133888 Z M 56.687574 3286.764731 L 70.868183 3286.764731 L 70.868183 3366.133888 L 56.687574 3366.133888 Z M 70.868183 3286.764731 L 85.037062 3286.764731 L 85.037062 3366.133888 L 70.868183 3366.133888 Z M 85.037062 3286.764731 L 99.205941 3286.764731 L 99.205941 3366.133888 L 85.037062 3366.133888 Z M 99.205941 3286.764731 L 113.38655 3286.764731 L 113.38655 3366.133888 L 99.205941 3366.133888 Z M 99.205941 3286.764731 " transform="matrix(0.00000000000000002,0.333036,-0.333095,0.00000000000000002,1394.271002,463.675672)"/>
<path style="fill-rule:evenodd;fill:rgb(100%,100%,100%);fill-opacity:1;stroke-width:0.24;stroke-linecap:round;stroke-linejoin:round;stroke:rgb(0%,0%,0%);stroke-opacity:1;stroke-miterlimit:3;" d="M 0.00479111 3286.756112 L 14.17367 3286.756112 L 14.17367 3366.125269 L 0.00479111 3366.125269 Z M 14.17367 3286.756112 L 28.354279 3286.756112 L 28.354279 3366.125269 L 14.17367 3366.125269 Z M 28.354279 3286.756112 L 42.523158 3286.756112 L 42.523158 3366.125269 L 28.354279 3366.125269 Z M 42.523158 3286.756112 L 56.692037 3286.756112 L 56.692037 3366.125269 L 42.523158 3366.125269 Z M 56.692037 3286.756112 L 70.872646 3286.756112 L 70.872646 3366.125269 L 56.692037 3366.125269 Z M 70.872646 3286.756112 L 85.041525 3286.756112 L 85.041525 3366.125269 L 70.872646 3366.125269 Z M 85.041525 3286.756112 L 99.210405 3286.756112 L 99.210405 3366.125269 L 85.041525 3366.125269 Z M 99.210405 3286.756112 L 113.391013 3286.756112 L 113.391013 3366.125269 L 99.210405 3366.125269 Z M 99.210405 3286.756112 " transform="matrix(0.00000000000000002,-0.333036,0.333095,0.00000000000000002,-821.775943,539.165658)"/>
<path style=" stroke:none;fill-rule:evenodd;fill:rgb(70.196078%,70.196078%,70.196078%);fill-opacity:1;" d="M 12.425781 70.953125 L 39.480469 70.953125 L 40.75 72.839844 L 12.425781 72.839844 Z M 12.425781 70.953125 "/>
<path style=" stroke:none;fill-rule:evenodd;fill:rgb(70.196078%,70.196078%,70.196078%);fill-opacity:1;" d="M 12.234375 72.839844 L 12.234375 70.953125 L 12.425781 70.953125 L 12.425781 72.839844 Z M 12.234375 72.839844 "/>
<path style="fill:none;stroke-width:0.24;stroke-linecap:round;stroke-linejoin:round;stroke:rgb(0%,0%,0%);stroke-opacity:1;stroke-miterlimit:3;" d="M 0.000934163 3360.459274 L 81.222977 3360.459274 M 0.000934163 3366.12448 L 85.034291 3366.12448 " transform="matrix(0.333095,0,0,0.333036,12.42547,-1048.201529)"/>
<path style=" stroke:none;fill-rule:evenodd;fill:rgb(70.196078%,70.196078%,70.196078%);fill-opacity:1;" d="M 39.480469 70.945312 L 63.261719 12.417969 L 65.300781 12.417969 L 40.75 72.835938 Z M 39.480469 70.945312 "/>
<path style=" stroke:none;fill-rule:evenodd;fill:rgb(70.196078%,70.196078%,70.196078%);fill-opacity:1;" d="M 63.261719 12.226562 L 65.300781 12.226562 L 65.300781 12.417969 L 63.261719 12.417969 Z M 63.261719 12.226562 "/>
<path style="fill:none;stroke-width:0.24;stroke-linecap:round;stroke-linejoin:round;stroke:rgb(0%,0%,0%);stroke-opacity:1;stroke-miterlimit:3;" d="M 3.825888 3360.459976 L 193.513228 3360.462275 M 0.000844767 3366.12767 L 195.817198 3366.133711 " transform="matrix(0.125367,-0.308548,0.308603,0.125345,-998.046263,-349.090316)"/>
<path style=" stroke:none;fill-rule:evenodd;fill:rgb(70.196078%,70.196078%,70.196078%);fill-opacity:1;" d="M 312.890625 70.953125 L 341.953125 70.953125 L 341.953125 72.839844 L 311.597656 72.839844 Z M 312.890625 70.953125 "/>
<path style=" stroke:none;fill-rule:evenodd;fill:rgb(70.196078%,70.196078%,70.196078%);fill-opacity:1;" d="M 342.144531 70.953125 L 342.144531 72.839844 L 341.953125 72.839844 L 341.953125 70.953125 Z M 342.144531 70.953125 "/>
<path style="fill:none;stroke-width:0.24;stroke-linecap:round;stroke-linejoin:round;stroke:rgb(0%,0%,0%);stroke-opacity:1;stroke-miterlimit:3;" d="M -2.212614 3360.459274 L 85.037169 3360.459274 M -6.094292 3366.12448 L 85.037169 3366.12448 " transform="matrix(0.333095,0,0,0.333036,313.627637,-1048.201529)"/>
<path style=" stroke:none;fill-rule:evenodd;fill:rgb(70.196078%,70.196078%,70.196078%);fill-opacity:1;" d="M 311.601562 72.839844 L 287.996094 12.421875 L 290.023438 12.421875 L 312.890625 70.949219 Z M 311.601562 72.839844 "/>
<path style=" stroke:none;fill-rule:evenodd;fill:rgb(70.196078%,70.196078%,70.196078%);fill-opacity:1;" d="M 287.992188 12.230469 L 290.019531 12.230469 L 290.019531 12.417969 L 287.992188 12.417969 Z M 287.992188 12.230469 "/>
<path style="fill:none;stroke-width:0.24;stroke-linecap:round;stroke-linejoin:round;stroke:rgb(0%,0%,0%);stroke-opacity:1;stroke-miterlimit:3;" d="M 2.212544 3360.463696 L 196.97844 3360.462756 M 6.092269 3366.133955 L 194.763895 3366.131951 " transform="matrix(-0.121198,-0.310209,0.310264,-0.121176,-730.76067,480.734301)"/>
<path style="fill:none;stroke-width:0.72;stroke-linecap:round;stroke-linejoin:round;stroke:rgb(0%,0%,0%);stroke-opacity:1;stroke-miterlimit:3;" d="M -0.00570852 3366.12448 L 819.215812 3366.12448 " transform="matrix(0.333095,0,0,0.333036,40.751901,-1048.201529)"/>
<path style="fill-rule:evenodd;fill:rgb(100%,100%,100%);fill-opacity:1;stroke-width:0.24;stroke-linecap:round;stroke-linejoin:round;stroke:rgb(100%,100%,100%);stroke-opacity:1;stroke-miterlimit:3;" d="M -2.827304 3366.27286 L 70.163537 3366.27286 L 70.163537 3360.315483 L -2.827304 3360.315483 Z M -2.827304 3366.27286 " transform="matrix(0.00000000000000002,0.333036,-0.333095,0.00000000000000002,1198.817293,523.812688)"/>
<path style="fill-rule:evenodd;fill:rgb(100%,100%,100%);fill-opacity:1;stroke-width:0.24;stroke-linecap:round;stroke-linejoin:round;stroke:rgb(0%,0%,0%);stroke-opacity:1;stroke-miterlimit:3;" d="M 72.986808 3366.132135 L 72.986808 3360.456208 L 70.160069 3360.456208 L 70.160069 3366.132135 Z M -0.00403315 3366.132135 L -0.00403315 3360.456208 L 2.834434 3360.456208 L 2.834434 3366.132135 Z M -0.00403315 3366.132135 " transform="matrix(0.00000000000000002,0.333036,-0.333095,0.00000000000000002,1198.817293,522.868531)"/>
<path style="fill:none;stroke-width:0.24;stroke-linecap:round;stroke-linejoin:round;stroke:rgb(0%,0%,0%);stroke-opacity:1;stroke-miterlimit:3;" d="M 72.986808 3366.132135 L 72.986808 3360.456208 M -0.00403315 3366.132135 L -0.00403315 3360.456208 " transform="matrix(0.00000000000000002,0.333036,-0.333095,0.00000000000000002,1198.817293,522.868531)"/>
<path style="fill-rule:evenodd;fill:rgb(100%,100%,100%);fill-opacity:1;stroke-width:0.24;stroke-linecap:round;stroke-linejoin:round;stroke:rgb(100%,100%,100%);stroke-opacity:1;stroke-miterlimit:3;" d="M -2.831146 3366.267923 L 104.882464 3366.267923 L 104.882464 3360.321216 L -2.831146 3360.321216 Z M -2.831146 3366.267923 " transform="matrix(-0.333095,0.000000000000000041,-0.000000000000000041,-0.333036,306.396802,1456.327426)"/>
<path style="fill-rule:evenodd;fill:rgb(100%,100%,100%);fill-opacity:1;stroke-width:0.24;stroke-linecap:round;stroke-linejoin:round;stroke:rgb(0%,0%,0%);stroke-opacity:1;stroke-miterlimit:3;" d="M 107.717464 3366.127172 L 107.717464 3360.461967 L 104.879501 3360.461967 L 104.879501 3366.127172 Z M 0.00385388 3366.127172 L 0.00385388 3360.461967 L 2.83009 3360.461967 L 2.83009 3366.127172 Z M 0.00385388 3366.127172 " transform="matrix(-0.333095,0.000000000000000041,-0.000000000000000041,-0.333036,307.341127,1456.327426)"/>
<path style="fill:none;stroke-width:0.24;stroke-linecap:round;stroke-linejoin:round;stroke:rgb(0%,0%,0%);stroke-opacity:1;stroke-miterlimit:3;" d="M 107.717464 3366.127172 L 107.717464 3360.461967 M 0.00385388 3366.127172 L 0.00385388 3360.461967 " transform="matrix(-0.333095,0.000000000000000041,-0.000000000000000041,-0.333036,307.341127,1456.327426)"/>
<path style="fill-rule:evenodd;fill:rgb(100%,100%,100%);fill-opacity:1;stroke-width:0.24;stroke-linecap:round;stroke-linejoin:round;stroke:rgb(100%,100%,100%);stroke-opacity:1;stroke-miterlimit:3;" d="M -2.826843 3366.265483 L 70.162761 3366.265483 L 70.162761 3360.318776 L -2.826843 3360.318776 Z M -2.826843 3366.265483 " transform="matrix(-0.333095,0.000000000000000041,-0.000000000000000041,-0.333036,114.753704,1559.228957)"/>
<path style="fill-rule:evenodd;fill:rgb(100%,100%,100%);fill-opacity:1;stroke-width:0.24;stroke-linecap:round;stroke-linejoin:round;stroke:rgb(0%,0%,0%);stroke-opacity:1;stroke-miterlimit:3;" d="M 72.986034 3366.124733 L 72.986034 3360.459527 L 70.159797 3360.459527 L 70.159797 3366.124733 Z M -0.00356991 3366.124733 L -0.00356991 3360.459527 L 2.834393 3360.459527 L 2.834393 3366.124733 Z M -0.00356991 3366.124733 " transform="matrix(-0.333095,0.000000000000000041,-0.000000000000000041,-0.333036,115.69803,1559.228957)"/>
<path style="fill:none;stroke-width:0.24;stroke-linecap:round;stroke-linejoin:round;stroke:rgb(0%,0%,0%);stroke-opacity:1;stroke-miterlimit:3;" d="M 72.986034 3366.124733 L 72.986034 3360.459527 M -0.00356991 3366.124733 L -0.00356991 3360.459527 " transform="matrix(-0.333095,0.000000000000000041,-0.000000000000000041,-0.333036,115.69803,1559.228957)"/>
<path style="fill-rule:evenodd;fill:rgb(100%,100%,100%);fill-opacity:1;stroke-width:0.24;stroke-linecap:round;stroke-linejoin:round;stroke:rgb(100%,100%,100%);stroke-opacity:1;stroke-miterlimit:3;" d="M -2.83271 3366.275482 L 104.880901 3366.275482 L 104.880901 3354.65184 L -2.83271 3354.65184 Z M -2.83271 3366.275482 " transform="matrix(-0.333095,0.000000000000000041,-0.000000000000000041,-0.333036,120.536906,1670.622912)"/>
<path style="fill-rule:evenodd;fill:rgb(100%,100%,100%);fill-opacity:1;stroke-width:0.24;stroke-linecap:round;stroke-linejoin:round;stroke:rgb(0%,0%,0%);stroke-opacity:1;stroke-miterlimit:3;" d="M 107.715901 3366.134731 L 107.715901 3354.79259 L 104.877937 3354.79259 L 104.877937 3366.134731 Z M 0.00229041 3366.134731 L 0.00229041 3354.79259 L 2.828527 3354.79259 L 2.828527 3366.134731 Z M 0.00229041 3366.134731 " transform="matrix(-0.333095,0.000000000000000041,-0.000000000000000041,-0.333036,121.481232,1670.622912)"/>
<path style="fill:none;stroke-width:0.24;stroke-linecap:round;stroke-linejoin:round;stroke:rgb(0%,0%,0%);stroke-opacity:1;stroke-miterlimit:3;" d="M 107.715901 3366.134731 L 107.715901 3354.79259 M 0.00229041 3366.134731 L 0.00229041 3354.79259 " transform="matrix(-0.333095,0.000000000000000041,-0.000000000000000041,-0.333036,121.481232,1670.622912)"/>
<path style="fill-rule:evenodd;fill:rgb(100%,100%,100%);fill-opacity:1;stroke-width:0.24;stroke-linecap:round;stroke-linejoin:round;stroke:rgb(100%,100%,100%);stroke-opacity:1;stroke-miterlimit:3;" d="M -2.828932 3366.269889 L 104.884679 3366.269889 L 104.884679 3354.646247 L -2.828932 3354.646247 Z M -2.828932 3366.269889 " transform="matrix(0.333095,0,0,0.333036,160.094648,-567.68355)"/>
<path style="fill-rule:evenodd;fill:rgb(100%,100%,100%);fill-opacity:1;stroke-width:0.24;stroke-linecap:round;stroke-linejoin:round;stroke:rgb(0%,0%,0%);stroke-opacity:1;stroke-miterlimit:3;" d="M 107.719679 3366.129139 L 107.719679 3354.786998 L 104.881715 3354.786998 L 104.881715 3366.129139 Z M -0.00565868 3366.129139 L -0.00565868 3354.786998 L 2.832305 3354.786998 L 2.832305 3366.129139 Z M -0.00565868 3366.129139 " transform="matrix(0.333095,0,0,0.333036,159.150322,-567.68355)"/>
<path style="fill:none;stroke-width:0.24;stroke-linecap:round;stroke-linejoin:round;stroke:rgb(0%,0%,0%);stroke-opacity:1;stroke-miterlimit:3;" d="M 107.719679 3366.129139 L 107.719679 3354.786998 M -0.00565868 3366.129139 L -0.00565868 3354.786998 " transform="matrix(0.333095,0,0,0.333036,159.150322,-567.68355)"/>
<path style="fill-rule:evenodd;fill:rgb(100%,100%,100%);fill-opacity:1;stroke-width:0.24;stroke-linecap:round;stroke-linejoin:round;stroke:rgb(100%,100%,100%);stroke-opacity:1;stroke-miterlimit:3;" d="M -2.825116 3366.265483 L 104.876767 3366.265483 L 104.876767 3360.318776 L -2.825116 3360.318776 Z M -2.825116 3366.265483 " transform="matrix(-0.333095,0.000000000000000041,-0.000000000000000041,-0.333036,335.344123,1559.228957)"/>
<path style="fill-rule:evenodd;fill:rgb(100%,100%,100%);fill-opacity:1;stroke-width:0.24;stroke-linecap:round;stroke-linejoin:round;stroke:rgb(0%,0%,0%);stroke-opacity:1;stroke-miterlimit:3;" d="M 107.723494 3366.124733 L 107.723494 3360.459527 L 104.885531 3360.459527 L 104.885531 3366.124733 Z M -0.00184287 3366.124733 L -0.00184287 3360.459527 L 2.824393 3360.459527 L 2.824393 3366.124733 Z M -0.00184287 3366.124733 " transform="matrix(-0.333095,0.000000000000000041,-0.000000000000000041,-0.333036,336.288449,1559.228957)"/>
<path style="fill:none;stroke-width:0.24;stroke-linecap:round;stroke-linejoin:round;stroke:rgb(0%,0%,0%);stroke-opacity:1;stroke-miterlimit:3;" d="M 107.723494 3366.124733 L 107.723494 3360.459527 M -0.00184287 3366.124733 L -0.00184287 3360.459527 " transform="matrix(-0.333095,0.000000000000000041,-0.000000000000000041,-0.333036,336.288449,1559.228957)"/>
<path style="fill-rule:evenodd;fill:rgb(100%,100%,100%);fill-opacity:1;stroke-width:0.24;stroke-linecap:round;stroke-linejoin:round;stroke:rgb(100%,100%,100%);stroke-opacity:1;stroke-miterlimit:3;" d="M -2.830264 3366.275482 L 104.883346 3366.275482 L 104.883346 3354.65184 L -2.830264 3354.65184 Z M -2.830264 3366.275482 " transform="matrix(-0.333095,0.000000000000000041,-0.000000000000000041,-0.333036,336.213502,1670.622912)"/>
<path style="fill-rule:evenodd;fill:rgb(100%,100%,100%);fill-opacity:1;stroke-width:0.24;stroke-linecap:round;stroke-linejoin:round;stroke:rgb(0%,0%,0%);stroke-opacity:1;stroke-miterlimit:3;" d="M 107.718346 3366.134731 L 107.718346 3354.79259 L 104.880383 3354.79259 L 104.880383 3366.134731 Z M 0.00473618 3366.134731 L 0.00473618 3354.79259 L 2.830972 3354.79259 L 2.830972 3366.134731 Z M 0.00473618 3366.134731 " transform="matrix(-0.333095,0.000000000000000041,-0.000000000000000041,-0.333036,337.157828,1670.622912)"/>
<path style="fill:none;stroke-width:0.24;stroke-linecap:round;stroke-linejoin:round;stroke:rgb(0%,0%,0%);stroke-opacity:1;stroke-miterlimit:3;" d="M 107.718346 3366.134731 L 107.718346 3354.79259 M 0.00473618 3366.134731 L 0.00473618 3354.79259 " transform="matrix(-0.333095,0.000000000000000041,-0.000000000000000041,-0.333036,337.157828,1670.622912)"/>
<path style="fill-rule:evenodd;fill:rgb(100%,100%,100%);fill-opacity:1;stroke-width:0.24;stroke-linecap:round;stroke-linejoin:round;stroke:rgb(100%,100%,100%);stroke-opacity:1;stroke-miterlimit:3;" d="M -2.828953 3366.267923 L 104.884657 3366.267923 L 104.884657 3360.321216 L -2.828953 3360.321216 Z M -2.828953 3366.267923 " transform="matrix(-0.333095,0.000000000000000041,-0.000000000000000041,-0.333036,57.92097,1456.327426)"/>
<path style="fill-rule:evenodd;fill:rgb(100%,100%,100%);fill-opacity:1;stroke-width:0.24;stroke-linecap:round;stroke-linejoin:round;stroke:rgb(0%,0%,0%);stroke-opacity:1;stroke-miterlimit:3;" d="M 107.719657 3366.127172 L 107.719657 3360.461967 L 104.881693 3360.461967 L 104.881693 3366.127172 Z M -0.00568057 3366.127172 L -0.00568057 3360.461967 L 2.832283 3360.461967 L 2.832283 3366.127172 Z M -0.00568057 3366.127172 " transform="matrix(-0.333095,0.000000000000000041,-0.000000000000000041,-0.333036,58.865295,1456.327426)"/>
<path style="fill:none;stroke-width:0.24;stroke-linecap:round;stroke-linejoin:round;stroke:rgb(0%,0%,0%);stroke-opacity:1;stroke-miterlimit:3;" d="M 107.719657 3366.127172 L 107.719657 3360.461967 M -0.00568057 3366.127172 L -0.00568057 3360.461967 " transform="matrix(-0.333095,0.000000000000000041,-0.000000000000000041,-0.333036,58.865295,1456.327426)"/>
</g>
</svg>
