<?xml version="1.0" encoding="UTF-8"?>
<svg xmlns="http://www.w3.org/2000/svg" xmlns:xlink="http://www.w3.org/1999/xlink" width="px" height="px" viewBox="0 0 235 1081" version="1.1">
<g id="surface1">
<path style=" stroke:none;fill-rule:evenodd;fill:rgb(70.196078%,70.196078%,70.196078%);fill-opacity:1;" d="M 8.664062 1018.023438 L 8.664062 8.65625 L 11.5 11.492188 L 11.5 1015.1875 Z M 8.664062 1018.023438 "/>
<path style="fill:none;stroke-width:0.24;stroke-linecap:round;stroke-linejoin:round;stroke:rgb(0%,0%,0%);stroke-opacity:1;stroke-miterlimit:3;" d="M -8.502756 3233.465536 L 3018.898506 3233.465536 M 0.00308915 3241.964298 L 3010.392661 3241.964298 " transform="matrix(0.00000000000000002,-0.33341,0.333688,0.00000000000000002,-1070.305623,1015.18853)"/>
<path style=" stroke:none;fill-rule:evenodd;fill:rgb(70.196078%,70.196078%,70.196078%);fill-opacity:1;" d="M 8.664062 8.660156 L 226.21875 8.660156 L 223.382812 11.492188 L 11.503906 11.492188 Z M 8.664062 8.660156 "/>
<path style="fill:none;stroke-width:0.24;stroke-linecap:round;stroke-linejoin:round;stroke:rgb(0%,0%,0%);stroke-opacity:1;stroke-miterlimit:3;" d="M -8.505464 3233.47321 L 643.464275 3233.47321 M 0.00500416 3241.967339 L 634.965514 3241.967339 " transform="matrix(0.333688,0,0,0.33341,11.502236,-1069.41357)"/>
<path style=" stroke:none;fill-rule:evenodd;fill:rgb(70.196078%,70.196078%,70.196078%);fill-opacity:1;" d="M 226.21875 8.660156 L 226.21875 1018.027344 L 223.382812 1015.1875 L 223.382812 11.492188 Z M 226.21875 8.660156 "/>
<path style="fill:none;stroke-width:0.24;stroke-linecap:round;stroke-linejoin:round;stroke:rgb(0%,0%,0%);stroke-opacity:1;stroke-miterlimit:3;" d="M -8.49679 3233.465725 L 3018.904472 3233.465725 M -0.0026608 3241.964486 L 3010.386911 3241.964486 " transform="matrix(0.00000000000000002,0.33341,-0.333688,0.00000000000000002,1305.188498,11.493075)"/>
<path style=" stroke:none;fill-rule:evenodd;fill:rgb(70.196078%,70.196078%,70.196078%);fill-opacity:1;" d="M 226.21875 1018.023438 L 8.664062 1018.023438 L 11.503906 1015.1875 L 223.382812 1015.1875 Z M 226.21875 1018.023438 "/>
<path style="fill:none;stroke-width:0.24;stroke-linecap:round;stroke-linejoin:round;stroke:rgb(0%,0%,0%);stroke-opacity:1;stroke-miterlimit:3;" d="M -8.504275 3233.467244 L 643.465464 3233.467244 M -0.00551363 3241.973089 L 634.954996 3241.973089 " transform="matrix(-0.333688,-0.000000000000000041,0.000000000000000041,-0.33341,223.380973,2096.095175)"/>
<path style=" stroke:none;fill-rule:evenodd;fill:rgb(70.196078%,70.196078%,70.196078%);fill-opacity:1;" d="M 159.058594 353.050781 L 159.058594 235.480469 L 162.84375 235.480469 L 162.84375 349.269531 Z M 159.058594 353.050781 "/>
<path style=" stroke:none;fill-rule:evenodd;fill:rgb(70.196078%,70.196078%,70.196078%);fill-opacity:1;" d="M 159.058594 235.105469 L 162.84375 235.105469 L 162.84375 235.484375 L 159.058594 235.484375 Z M 159.058594 235.105469 "/>
<path style="fill:none;stroke-width:0.24;stroke-linecap:round;stroke-linejoin:round;stroke:rgb(0%,0%,0%);stroke-opacity:1;stroke-miterlimit:3;" d="M 0.0038536 3230.628147 L 352.633221 3230.628147 M 11.34498 3241.971536 L 352.633221 3241.971536 " transform="matrix(0.00000000000000002,-0.33341,0.333688,0.00000000000000002,-918.964288,353.052066)"/>
<path style=" stroke:none;fill-rule:evenodd;fill:rgb(70.196078%,70.196078%,70.196078%);fill-opacity:1;" d="M 159.058594 801.597656 L 159.058594 678.734375 L 162.84375 682.515625 L 162.84375 801.597656 Z M 159.058594 801.597656 "/>
<path style=" stroke:none;fill-rule:evenodd;fill:rgb(70.196078%,70.196078%,70.196078%);fill-opacity:1;" d="M 162.84375 801.972656 L 159.058594 801.972656 L 159.058594 801.59375 L 162.84375 801.59375 Z M 162.84375 801.972656 "/>
<path style="fill:none;stroke-width:0.24;stroke-linecap:round;stroke-linejoin:round;stroke:rgb(0%,0%,0%);stroke-opacity:1;stroke-miterlimit:3;" d="M 5.664431 3230.628147 L 374.169032 3230.628147 M 5.664431 3241.971536 L 362.827906 3241.971536 " transform="matrix(0.00000000000000002,-0.33341,0.333688,0.00000000000000002,-918.964288,803.486237)"/>
<path style=" stroke:none;fill-rule:evenodd;fill:rgb(70.196078%,70.196078%,70.196078%);fill-opacity:1;" d="M 83.578125 318.652344 L 113.65625 318.652344 L 113.65625 320.542969 L 83.578125 320.542969 Z M 83.578125 318.652344 "/>
<path style=" stroke:none;fill-rule:evenodd;fill:rgb(70.196078%,70.196078%,70.196078%);fill-opacity:1;" d="M 83.386719 320.542969 L 83.386719 318.652344 L 83.578125 318.652344 L 83.578125 320.542969 Z M 83.386719 320.542969 "/>
<path style=" stroke:none;fill-rule:evenodd;fill:rgb(70.196078%,70.196078%,70.196078%);fill-opacity:1;" d="M 113.847656 318.652344 L 113.847656 320.539062 L 113.65625 320.539062 L 113.65625 318.652344 Z M 113.847656 318.652344 "/>
<path style="fill:none;stroke-width:0.24;stroke-linecap:round;stroke-linejoin:round;stroke:rgb(0%,0%,0%);stroke-opacity:1;stroke-miterlimit:3;" d="M -0.000363697 3236.3047 L 90.138017 3236.3047 M -0.000363697 3241.975263 L 90.138017 3241.975263 " transform="matrix(0.333688,0,0,0.33341,83.578246,-760.365431)"/>
<path style="fill-rule:evenodd;fill:rgb(100%,100%,100%);fill-opacity:1;stroke-width:0.24;stroke-linecap:round;stroke-linejoin:round;stroke:rgb(0%,0%,0%);stroke-opacity:1;stroke-miterlimit:3;" d="M -0.00179997 3162.597377 L 14.174608 3162.597377 L 14.174608 3241.965977 L -0.00179997 3241.965977 Z M 14.174608 3162.597377 L 28.351016 3162.597377 L 28.351016 3241.965977 L 14.174608 3241.965977 Z M 28.351016 3162.597377 L 42.515709 3162.597377 L 42.515709 3241.965977 L 28.351016 3241.965977 Z M 42.515709 3162.597377 L 56.692117 3162.597377 L 56.692117 3241.965977 L 42.515709 3241.965977 Z M 56.692117 3162.597377 L 70.868525 3162.597377 L 70.868525 3241.965977 L 56.692117 3241.965977 Z M 70.868525 3162.597377 L 85.044933 3162.597377 L 85.044933 3241.965977 L 70.868525 3241.965977 Z M 85.044933 3162.597377 L 99.209625 3162.597377 L 99.209625 3241.965977 L 85.044933 3241.965977 Z M 99.209625 3162.597377 L 113.386034 3162.597377 L 113.386034 3241.965977 L 99.209625 3241.965977 Z M 99.209625 3162.597377 " transform="matrix(0.00000000000000002,-0.33341,0.333688,0.00000000000000002,-890.587433,328.100962)"/>
<path style="fill-rule:evenodd;fill:rgb(100%,100%,100%);fill-opacity:1;stroke-width:0.24;stroke-linecap:round;stroke-linejoin:round;stroke:rgb(0%,0%,0%);stroke-opacity:1;stroke-miterlimit:3;" d="M 0.0000335627 3162.597377 L 14.164726 3162.597377 L 14.164726 3241.965977 L 0.0000335627 3241.965977 Z M 14.164726 3162.597377 L 28.35285 3162.597377 L 28.35285 3241.965977 L 14.164726 3241.965977 Z M 28.35285 3162.597377 L 42.517542 3162.597377 L 42.517542 3241.965977 L 28.35285 3241.965977 Z M 42.517542 3162.597377 L 56.69395 3162.597377 L 56.69395 3241.965977 L 42.517542 3241.965977 Z M 56.69395 3162.597377 L 70.870359 3162.597377 L 70.870359 3241.965977 L 56.69395 3241.965977 Z M 70.870359 3162.597377 L 85.035051 3162.597377 L 85.035051 3241.965977 L 70.870359 3241.965977 Z M 85.035051 3162.597377 L 99.211459 3162.597377 L 99.211459 3241.965977 L 85.035051 3241.965977 Z M 99.211459 3162.597377 L 113.387867 3162.597377 L 113.387867 3241.965977 L 99.211459 3241.965977 Z M 99.211459 3162.597377 " transform="matrix(0.00000000000000002,-0.33341,0.333688,0.00000000000000002,-890.587433,290.296886)"/>
<path style="fill-rule:evenodd;fill:rgb(100%,100%,100%);fill-opacity:1;stroke-width:0.24;stroke-linecap:round;stroke-linejoin:round;stroke:rgb(0%,0%,0%);stroke-opacity:1;stroke-miterlimit:3;" d="M -0.00179997 3162.599366 L 14.174608 3162.599366 L 14.174608 3241.967966 L -0.00179997 3241.967966 Z M 14.174608 3162.599366 L 28.351016 3162.599366 L 28.351016 3241.967966 L 14.174608 3241.967966 Z M 28.351016 3162.599366 L 42.515709 3162.599366 L 42.515709 3241.967966 L 28.351016 3241.967966 Z M 42.515709 3162.599366 L 56.692117 3162.599366 L 56.692117 3241.967966 L 42.515709 3241.967966 Z M 56.692117 3162.599366 L 70.868525 3162.599366 L 70.868525 3241.967966 L 56.692117 3241.967966 Z M 70.868525 3162.599366 L 85.044933 3162.599366 L 85.044933 3241.967966 L 70.868525 3241.967966 Z M 85.044933 3162.599366 L 99.209625 3162.599366 L 99.209625 3241.967966 L 85.044933 3241.967966 Z M 99.209625 3162.599366 L 113.386034 3162.599366 L 113.386034 3241.967966 L 99.209625 3241.967966 Z M 99.209625 3162.599366 " transform="matrix(0.00000000000000002,-0.33341,0.333688,0.00000000000000002,-860.318566,328.100962)"/>
<path style="fill-rule:evenodd;fill:rgb(100%,100%,100%);fill-opacity:1;stroke-width:0.24;stroke-linecap:round;stroke-linejoin:round;stroke:rgb(0%,0%,0%);stroke-opacity:1;stroke-miterlimit:3;" d="M 0.0000335627 3162.599366 L 14.164726 3162.599366 L 14.164726 3241.967966 L 0.0000335627 3241.967966 Z M 14.164726 3162.599366 L 28.35285 3162.599366 L 28.35285 3241.967966 L 14.164726 3241.967966 Z M 28.35285 3162.599366 L 42.517542 3162.599366 L 42.517542 3241.967966 L 28.35285 3241.967966 Z M 42.517542 3162.599366 L 56.69395 3162.599366 L 56.69395 3241.967966 L 42.517542 3241.967966 Z M 56.69395 3162.599366 L 70.870359 3162.599366 L 70.870359 3241.967966 L 56.69395 3241.967966 Z M 70.870359 3162.599366 L 85.035051 3162.599366 L 85.035051 3241.967966 L 70.870359 3241.967966 Z M 85.035051 3162.599366 L 99.211459 3162.599366 L 99.211459 3241.967966 L 85.035051 3241.967966 Z M 99.211459 3162.599366 L 113.387867 3162.599366 L 113.387867 3241.967966 L 99.211459 3241.967966 Z M 99.211459 3162.599366 " transform="matrix(0.00000000000000002,-0.33341,0.333688,0.00000000000000002,-860.318566,290.296886)"/>
<path style="fill-rule:evenodd;fill:rgb(100%,100%,100%);fill-opacity:1;stroke-width:0.24;stroke-linecap:round;stroke-linejoin:round;stroke:rgb(0%,0%,0%);stroke-opacity:1;stroke-miterlimit:3;" d="M 0.00534578 3162.597377 L 14.170038 3162.597377 L 14.170038 3241.965977 L 0.00534578 3241.965977 Z M 14.170038 3162.597377 L 28.346446 3162.597377 L 28.346446 3241.965977 L 14.170038 3241.965977 Z M 28.346446 3162.597377 L 42.522854 3162.597377 L 42.522854 3241.965977 L 28.346446 3241.965977 Z M 42.522854 3162.597377 L 56.687547 3162.597377 L 56.687547 3241.965977 L 42.522854 3241.965977 Z M 56.687547 3162.597377 L 70.875671 3162.597377 L 70.875671 3241.965977 L 56.687547 3241.965977 Z M 70.875671 3162.597377 L 85.040363 3162.597377 L 85.040363 3241.965977 L 70.875671 3241.965977 Z M 85.040363 3162.597377 L 99.205055 3162.597377 L 99.205055 3241.965977 L 85.040363 3241.965977 Z M 99.205055 3162.597377 L 113.393179 3162.597377 L 113.393179 3241.965977 L 99.205055 3241.965977 Z M 99.205055 3162.597377 " transform="matrix(0.00000000000000002,-0.33341,0.333688,0.00000000000000002,-890.587433,781.747876)"/>
<path style="fill-rule:evenodd;fill:rgb(100%,100%,100%);fill-opacity:1;stroke-width:0.24;stroke-linecap:round;stroke-linejoin:round;stroke:rgb(0%,0%,0%);stroke-opacity:1;stroke-miterlimit:3;" d="M -0.00453673 3162.597377 L 14.171871 3162.597377 L 14.171871 3241.965977 L -0.00453673 3241.965977 Z M 14.171871 3162.597377 L 28.34828 3162.597377 L 28.34828 3241.965977 L 14.171871 3241.965977 Z M 28.34828 3162.597377 L 42.524688 3162.597377 L 42.524688 3241.965977 L 28.34828 3241.965977 Z M 42.524688 3162.597377 L 56.68938 3162.597377 L 56.68938 3241.965977 L 42.524688 3241.965977 Z M 56.68938 3162.597377 L 70.865788 3162.597377 L 70.865788 3241.965977 L 56.68938 3241.965977 Z M 70.865788 3162.597377 L 85.042196 3162.597377 L 85.042196 3241.965977 L 70.865788 3241.965977 Z M 85.042196 3162.597377 L 99.206889 3162.597377 L 99.206889 3241.965977 L 85.042196 3241.965977 Z M 99.206889 3162.597377 L 113.395013 3162.597377 L 113.395013 3241.965977 L 99.206889 3241.965977 Z M 99.206889 3162.597377 " transform="matrix(0.00000000000000002,-0.33341,0.333688,0.00000000000000002,-890.587433,743.9438)"/>
<path style="fill-rule:evenodd;fill:rgb(100%,100%,100%);fill-opacity:1;stroke-width:0.24;stroke-linecap:round;stroke-linejoin:round;stroke:rgb(0%,0%,0%);stroke-opacity:1;stroke-miterlimit:3;" d="M 0.00534578 3162.599366 L 14.170038 3162.599366 L 14.170038 3241.967966 L 0.00534578 3241.967966 Z M 14.170038 3162.599366 L 28.346446 3162.599366 L 28.346446 3241.967966 L 14.170038 3241.967966 Z M 28.346446 3162.599366 L 42.522854 3162.599366 L 42.522854 3241.967966 L 28.346446 3241.967966 Z M 42.522854 3162.599366 L 56.687547 3162.599366 L 56.687547 3241.967966 L 42.522854 3241.967966 Z M 56.687547 3162.599366 L 70.875671 3162.599366 L 70.875671 3241.967966 L 56.687547 3241.967966 Z M 70.875671 3162.599366 L 85.040363 3162.599366 L 85.040363 3241.967966 L 70.875671 3241.967966 Z M 85.040363 3162.599366 L 99.205055 3162.599366 L 99.205055 3241.967966 L 85.040363 3241.967966 Z M 99.205055 3162.599366 L 113.393179 3162.599366 L 113.393179 3241.967966 L 99.205055 3241.967966 Z M 99.205055 3162.599366 " transform="matrix(0.00000000000000002,-0.33341,0.333688,0.00000000000000002,-860.318566,781.747876)"/>
<path style="fill-rule:evenodd;fill:rgb(100%,100%,100%);fill-opacity:1;stroke-width:0.24;stroke-linecap:round;stroke-linejoin:round;stroke:rgb(0%,0%,0%);stroke-opacity:1;stroke-miterlimit:3;" d="M -0.00453673 3162.599366 L 14.171871 3162.599366 L 14.171871 3241.967966 L -0.00453673 3241.967966 Z M 14.171871 3162.599366 L 28.34828 3162.599366 L 28.34828 3241.967966 L 14.171871 3241.967966 Z M 28.34828 3162.599366 L 42.524688 3162.599366 L 42.524688 3241.967966 L 28.34828 3241.967966 Z M 42.524688 3162.599366 L 56.68938 3162.599366 L 56.68938 3241.967966 L 42.524688 3241.967966 Z M 56.68938 3162.599366 L 70.865788 3162.599366 L 70.865788 3241.967966 L 56.68938 3241.967966 Z M 70.865788 3162.599366 L 85.042196 3162.599366 L 85.042196 3241.967966 L 70.865788 3241.967966 Z M 85.042196 3162.599366 L 99.206889 3162.599366 L 99.206889 3241.967966 L 85.042196 3241.967966 Z M 99.206889 3162.599366 L 113.395013 3162.599366 L 113.395013 3241.967966 L 99.206889 3241.967966 Z M 99.206889 3162.599366 " transform="matrix(0.00000000000000002,-0.33341,0.333688,0.00000000000000002,-860.318566,743.9438)"/>
<path style=" stroke:none;fill-rule:evenodd;fill:rgb(70.196078%,70.196078%,70.196078%);fill-opacity:1;" d="M 81.6875 350.78125 L 81.6875 294.074219 L 83.578125 294.074219 L 83.578125 350.78125 Z M 81.6875 350.78125 "/>
<path style=" stroke:none;fill-rule:evenodd;fill:rgb(70.196078%,70.196078%,70.196078%);fill-opacity:1;" d="M 83.578125 350.972656 L 81.6875 350.972656 L 81.6875 350.78125 L 83.578125 350.78125 Z M 83.578125 350.972656 "/>
<path style=" stroke:none;fill-rule:evenodd;fill:rgb(70.196078%,70.196078%,70.196078%);fill-opacity:1;" d="M 81.6875 293.886719 L 83.578125 293.886719 L 83.578125 294.074219 L 81.6875 294.074219 Z M 81.6875 293.886719 "/>
<path style="fill:none;stroke-width:0.24;stroke-linecap:round;stroke-linejoin:round;stroke:rgb(0%,0%,0%);stroke-opacity:1;stroke-miterlimit:3;" d="M 5.670873 3236.301795 L 175.752623 3236.301795 M 5.670873 3241.967636 L 175.752623 3241.967636 " transform="matrix(0.00000000000000002,-0.33341,0.333688,0.00000000000000002,-998.228612,352.671978)"/>
<path style=" stroke:none;fill-rule:evenodd;fill:rgb(70.196078%,70.196078%,70.196078%);fill-opacity:1;" d="M 84.144531 292.1875 L 84.144531 235.480469 L 86.039062 235.480469 L 86.039062 292.1875 Z M 84.144531 292.1875 "/>
<path style=" stroke:none;fill-rule:evenodd;fill:rgb(70.196078%,70.196078%,70.196078%);fill-opacity:1;" d="M 86.039062 292.378906 L 84.144531 292.378906 L 84.144531 292.1875 L 86.039062 292.1875 Z M 86.039062 292.378906 "/>
<path style=" stroke:none;fill-rule:evenodd;fill:rgb(70.196078%,70.196078%,70.196078%);fill-opacity:1;" d="M 84.144531 235.289062 L 86.039062 235.289062 L 86.039062 235.480469 L 84.144531 235.480469 Z M 84.144531 235.289062 "/>
<path style="fill:none;stroke-width:0.24;stroke-linecap:round;stroke-linejoin:round;stroke:rgb(0%,0%,0%);stroke-opacity:1;stroke-miterlimit:3;" d="M 5.66847 3236.296047 L 175.750221 3236.296047 M 5.66847 3241.973595 L 175.750221 3241.973595 " transform="matrix(0.00000000000000002,-0.33341,0.333688,0.00000000000000002,-995.769663,294.077427)"/>
<path style=" stroke:none;fill-rule:evenodd;fill:rgb(70.196078%,70.196078%,70.196078%);fill-opacity:1;" d="M 85.28125 793.089844 L 85.28125 721.265625 L 87.171875 721.265625 L 87.171875 793.089844 Z M 85.28125 793.089844 "/>
<path style=" stroke:none;fill-rule:evenodd;fill:rgb(70.196078%,70.196078%,70.196078%);fill-opacity:1;" d="M 87.171875 793.28125 L 85.28125 793.28125 L 85.28125 793.089844 L 87.171875 793.089844 Z M 87.171875 793.28125 "/>
<path style=" stroke:none;fill-rule:evenodd;fill:rgb(70.196078%,70.196078%,70.196078%);fill-opacity:1;" d="M 85.28125 721.074219 L 87.171875 721.074219 L 87.171875 721.261719 L 85.28125 721.261719 Z M 85.28125 721.074219 "/>
<path style="fill:none;stroke-width:0.24;stroke-linecap:round;stroke-linejoin:round;stroke:rgb(0%,0%,0%);stroke-opacity:1;stroke-miterlimit:3;" d="M 5.671966 3236.301576 L 221.094791 3236.301576 M 5.671966 3241.967417 L 221.094791 3241.967417 " transform="matrix(0.00000000000000002,-0.33341,0.333688,0.00000000000000002,-994.634789,794.980936)"/>
<path style=" stroke:none;fill-rule:evenodd;fill:rgb(70.196078%,70.196078%,70.196078%);fill-opacity:1;" d="M 11.5 1072.085938 L 222.519531 1072.085938 L 225.351562 1074.917969 L 8.664062 1074.917969 Z M 11.5 1072.085938 "/>
<path style="fill:none;stroke-width:0.24;stroke-linecap:round;stroke-linejoin:round;stroke:rgb(0%,0%,0%);stroke-opacity:1;stroke-miterlimit:3;" d="M -0.00470213 3233.472747 L 632.380425 3233.472747 M -8.503464 3241.966876 L 640.86748 3241.966876 " transform="matrix(0.333688,0,0,0.33341,11.501569,-5.987635)"/>
<path style=" stroke:none;fill-rule:evenodd;fill:rgb(70.196078%,70.196078%,70.196078%);fill-opacity:1;" d="M 162.84375 349.269531 L 223.382812 349.269531 L 223.382812 353.050781 L 159.058594 353.050781 Z M 162.84375 349.269531 "/>
<path style=" stroke:none;fill-rule:evenodd;fill:rgb(70.196078%,70.196078%,70.196078%);fill-opacity:1;" d="M 223.757812 349.269531 L 223.757812 353.050781 L 223.378906 353.050781 L 223.378906 349.269531 Z M 223.757812 349.269531 "/>
<path style="fill:none;stroke-width:0.24;stroke-linecap:round;stroke-linejoin:round;stroke:rgb(0%,0%,0%);stroke-opacity:1;stroke-miterlimit:3;" d="M 0.000535904 3230.62502 L 181.424514 3230.62502 M -11.342853 3241.966146 L 181.424514 3241.966146 " transform="matrix(0.333688,0,0,0.33341,162.843571,-727.854579)"/>
<path style=" stroke:none;fill-rule:evenodd;fill:rgb(70.196078%,70.196078%,70.196078%);fill-opacity:1;" d="M 222.519531 1072.082031 L 222.613281 1018.023438 L 225.449219 1018.019531 L 225.351562 1074.917969 Z M 222.519531 1072.082031 "/>
<path style=" stroke:none;fill-rule:evenodd;fill:rgb(70.196078%,70.196078%,70.196078%);fill-opacity:1;" d="M 222.613281 1017.738281 L 225.449219 1017.738281 L 225.449219 1018.019531 L 222.613281 1018.019531 Z M 222.613281 1017.738281 "/>
<path style="fill:none;stroke-width:0.24;stroke-linecap:round;stroke-linejoin:round;stroke:rgb(0%,0%,0%);stroke-opacity:1;stroke-miterlimit:3;" d="M 8.488866 3233.467565 L 170.627385 3233.471191 M -0.00245013 3241.969157 L 170.653637 3241.96992 " transform="matrix(0.000570748,-0.33341,0.333688,0.000570272,-856.454098,1073.068346)"/>
<path style=" stroke:none;fill-rule:evenodd;fill:rgb(70.196078%,70.196078%,70.196078%);fill-opacity:1;" d="M 113.65625 1074.917969 L 113.65625 1018.023438 L 117.441406 1018.023438 L 117.441406 1074.917969 Z M 113.65625 1074.917969 "/>
<path style=" stroke:none;fill-rule:evenodd;fill:rgb(70.196078%,70.196078%,70.196078%);fill-opacity:1;" d="M 113.65625 1017.644531 L 117.441406 1017.644531 L 117.441406 1018.023438 L 113.65625 1018.023438 Z M 113.65625 1017.644531 "/>
<path style="fill:none;stroke-width:0.24;stroke-linecap:round;stroke-linejoin:round;stroke:rgb(0%,0%,0%);stroke-opacity:1;stroke-miterlimit:3;" d="M 0.00312402 3236.303565 L 0.00312402 3230.626017 L 170.647244 3230.626017 M 0.00312402 3236.303565 L 0.00312402 3241.969406 L 170.647244 3241.969406 " transform="matrix(0.00000000000000002,-0.33341,0.333688,0.00000000000000002,-964.365921,1074.91901)"/>
<path style=" stroke:none;fill-rule:evenodd;fill:rgb(70.196078%,70.196078%,70.196078%);fill-opacity:1;" d="M 11.5 793.089844 L 113.65625 793.089844 L 113.65625 794.980469 L 11.5 794.980469 Z M 11.5 793.089844 "/>
<path style=" stroke:none;fill-rule:evenodd;fill:rgb(70.196078%,70.196078%,70.196078%);fill-opacity:1;" d="M 11.3125 794.980469 L 11.3125 793.089844 L 11.5 793.089844 L 11.5 794.980469 Z M 11.3125 794.980469 "/>
<path style=" stroke:none;fill-rule:evenodd;fill:rgb(70.196078%,70.196078%,70.196078%);fill-opacity:1;" d="M 113.847656 793.089844 L 113.847656 794.980469 L 113.65625 794.980469 L 113.65625 793.089844 Z M 113.847656 793.089844 "/>
<path style="fill:none;stroke-width:0.24;stroke-linecap:round;stroke-linejoin:round;stroke:rgb(0%,0%,0%);stroke-opacity:1;stroke-miterlimit:3;" d="M -0.00470213 3236.300034 L 306.138017 3236.300034 M -0.00470213 3241.970597 L 306.138017 3241.970597 " transform="matrix(0.333688,0,0,0.33341,11.501569,-285.926375)"/>
<path style=" stroke:none;fill-rule:evenodd;fill:rgb(70.196078%,70.196078%,70.196078%);fill-opacity:1;" d="M 117.441406 801.597656 L 223.378906 801.597656 L 223.378906 803.484375 L 117.441406 803.484375 Z M 117.441406 801.597656 "/>
<path style=" stroke:none;fill-rule:evenodd;fill:rgb(70.196078%,70.196078%,70.196078%);fill-opacity:1;" d="M 117.25 803.484375 L 117.25 801.597656 L 117.441406 801.597656 L 117.441406 803.484375 Z M 117.25 803.484375 "/>
<path style=" stroke:none;fill-rule:evenodd;fill:rgb(70.196078%,70.196078%,70.196078%);fill-opacity:1;" d="M 223.570312 801.597656 L 223.570312 803.484375 L 223.382812 803.484375 L 223.382812 801.597656 Z M 223.570312 801.597656 "/>
<path style="fill:none;stroke-width:0.24;stroke-linecap:round;stroke-linejoin:round;stroke:rgb(0%,0%,0%);stroke-opacity:1;stroke-miterlimit:3;" d="M 0.00140575 3236.305569 L 317.475807 3236.305569 M 0.00140575 3241.964416 L 317.475807 3241.964416 " transform="matrix(0.333688,0,0,0.33341,117.440937,-277.420408)"/>
<path style=" stroke:none;fill-rule:evenodd;fill:rgb(70.196078%,70.196078%,70.196078%);fill-opacity:1;" d="M 11.5 719.375 L 113.65625 719.375 L 113.65625 721.265625 L 11.5 721.265625 Z M 11.5 719.375 "/>
<path style=" stroke:none;fill-rule:evenodd;fill:rgb(70.196078%,70.196078%,70.196078%);fill-opacity:1;" d="M 11.3125 721.265625 L 11.3125 719.375 L 11.5 719.375 L 11.5 721.265625 Z M 11.3125 721.265625 "/>
<path style=" stroke:none;fill-rule:evenodd;fill:rgb(70.196078%,70.196078%,70.196078%);fill-opacity:1;" d="M 113.847656 719.375 L 113.847656 721.261719 L 113.65625 721.261719 L 113.65625 719.375 Z M 113.847656 719.375 "/>
<path style="fill:none;stroke-width:0.24;stroke-linecap:round;stroke-linejoin:round;stroke:rgb(0%,0%,0%);stroke-opacity:1;stroke-miterlimit:3;" d="M -0.00470213 3236.304646 L 306.138017 3236.304646 M -0.00470213 3241.975209 L 306.138017 3241.975209 " transform="matrix(0.333688,0,0,0.33341,11.501569,-359.642757)"/>
<path style=" stroke:none;fill-rule:evenodd;fill:rgb(70.196078%,70.196078%,70.196078%);fill-opacity:1;" d="M 11.5 292.1875 L 113.65625 292.1875 L 113.65625 294.078125 L 11.5 294.078125 Z M 11.5 292.1875 "/>
<path style=" stroke:none;fill-rule:evenodd;fill:rgb(70.196078%,70.196078%,70.196078%);fill-opacity:1;" d="M 11.3125 294.078125 L 11.3125 292.1875 L 11.5 292.1875 L 11.5 294.078125 Z M 11.3125 294.078125 "/>
<path style=" stroke:none;fill-rule:evenodd;fill:rgb(70.196078%,70.196078%,70.196078%);fill-opacity:1;" d="M 113.847656 292.1875 L 113.847656 294.078125 L 113.65625 294.078125 L 113.65625 292.1875 Z M 113.847656 292.1875 "/>
<path style="fill:none;stroke-width:0.24;stroke-linecap:round;stroke-linejoin:round;stroke:rgb(0%,0%,0%);stroke-opacity:1;stroke-miterlimit:3;" d="M -0.00470213 3236.29853 L 306.138017 3236.29853 M -0.00470213 3241.969093 L 306.138017 3241.969093 " transform="matrix(0.333688,0,0,0.33341,11.501569,-786.828218)"/>
<path style=" stroke:none;fill-rule:evenodd;fill:rgb(70.196078%,70.196078%,70.196078%);fill-opacity:1;" d="M 11.5 554.925781 L 113.65625 554.925781 L 113.65625 556.816406 L 11.5 556.816406 Z M 11.5 554.925781 "/>
<path style=" stroke:none;fill-rule:evenodd;fill:rgb(70.196078%,70.196078%,70.196078%);fill-opacity:1;" d="M 11.3125 556.816406 L 11.3125 554.925781 L 11.5 554.925781 L 11.5 556.816406 Z M 11.3125 556.816406 "/>
<path style=" stroke:none;fill-rule:evenodd;fill:rgb(70.196078%,70.196078%,70.196078%);fill-opacity:1;" d="M 113.847656 554.925781 L 113.847656 556.816406 L 113.65625 556.816406 L 113.65625 554.925781 Z M 113.847656 554.925781 "/>
<path style="fill:none;stroke-width:0.24;stroke-linecap:round;stroke-linejoin:round;stroke:rgb(0%,0%,0%);stroke-opacity:1;stroke-miterlimit:3;" d="M -0.00470213 3236.301085 L 306.138017 3236.301085 M -0.00470213 3241.971648 L 306.138017 3241.971648 " transform="matrix(0.333688,0,0,0.33341,11.501569,-524.090788)"/>
<path style=" stroke:none;fill-rule:evenodd;fill:rgb(70.196078%,70.196078%,70.196078%);fill-opacity:1;" d="M 56.039062 1072.085938 L 56.039062 1018.023438 L 58.875 1018.023438 L 58.875 1072.085938 Z M 56.039062 1072.085938 "/>
<path style=" stroke:none;fill-rule:evenodd;fill:rgb(70.196078%,70.196078%,70.196078%);fill-opacity:1;" d="M 58.875 1072.367188 L 56.039062 1072.367188 L 56.039062 1072.085938 L 58.875 1072.085938 Z M 58.875 1072.367188 "/>
<path style=" stroke:none;fill-rule:evenodd;fill:rgb(70.196078%,70.196078%,70.196078%);fill-opacity:1;" d="M 56.039062 1017.738281 L 58.878906 1017.738281 L 58.878906 1018.023438 L 56.039062 1018.023438 Z M 56.039062 1017.738281 "/>
<path style="fill:none;stroke-width:0.24;stroke-linecap:round;stroke-linejoin:round;stroke:rgb(0%,0%,0%);stroke-opacity:1;stroke-miterlimit:3;" d="M 8.497253 3233.468339 L 170.647244 3233.468339 M 8.497253 3241.967101 L 170.647244 3241.967101 " transform="matrix(0.00000000000000002,-0.33341,0.333688,0.00000000000000002,-1022.931558,1074.91901)"/>
<path style=" stroke:none;fill-rule:evenodd;fill:rgb(70.196078%,70.196078%,70.196078%);fill-opacity:1;" d="M 8.664062 1074.917969 L 8.664062 1018.023438 L 11.503906 1018.023438 L 11.503906 1072.085938 Z M 8.664062 1074.917969 "/>
<path style=" stroke:none;fill-rule:evenodd;fill:rgb(70.196078%,70.196078%,70.196078%);fill-opacity:1;" d="M 8.664062 1017.738281 L 11.503906 1017.738281 L 11.503906 1018.023438 L 8.664062 1018.023438 Z M 8.664062 1017.738281 "/>
<path style="fill:none;stroke-width:0.24;stroke-linecap:round;stroke-linejoin:round;stroke:rgb(0%,0%,0%);stroke-opacity:1;stroke-miterlimit:3;" d="M 0.00312402 3233.464536 L 170.647244 3233.464536 M 8.497253 3241.975004 L 170.647244 3241.975004 " transform="matrix(0.00000000000000002,-0.33341,0.333688,0.00000000000000002,-1070.305289,1074.91901)"/>
<path style=" stroke:none;fill-rule:evenodd;fill:rgb(70.196078%,70.196078%,70.196078%);fill-opacity:1;" d="M 11.5 350.78125 L 113.65625 350.78125 L 113.65625 352.671875 L 11.5 352.671875 Z M 11.5 350.78125 "/>
<path style=" stroke:none;fill-rule:evenodd;fill:rgb(70.196078%,70.196078%,70.196078%);fill-opacity:1;" d="M 11.3125 352.671875 L 11.3125 350.78125 L 11.5 350.78125 L 11.5 352.671875 Z M 11.3125 352.671875 "/>
<path style=" stroke:none;fill-rule:evenodd;fill:rgb(70.196078%,70.196078%,70.196078%);fill-opacity:1;" d="M 113.847656 350.78125 L 113.847656 352.671875 L 113.65625 352.671875 L 113.65625 350.78125 Z M 113.847656 350.78125 "/>
<path style="fill:none;stroke-width:0.24;stroke-linecap:round;stroke-linejoin:round;stroke:rgb(0%,0%,0%);stroke-opacity:1;stroke-miterlimit:3;" d="M -0.00470213 3236.299127 L 306.138017 3236.299127 M -0.00470213 3241.969691 L 306.138017 3241.969691 " transform="matrix(0.333688,0,0,0.33341,11.501569,-728.234667)"/>
<path style=" stroke:none;fill-rule:evenodd;fill:rgb(70.196078%,70.196078%,70.196078%);fill-opacity:1;" d="M 117.441406 233.589844 L 223.378906 233.589844 L 223.378906 235.480469 L 117.441406 235.480469 Z M 117.441406 233.589844 "/>
<path style=" stroke:none;fill-rule:evenodd;fill:rgb(70.196078%,70.196078%,70.196078%);fill-opacity:1;" d="M 117.25 235.480469 L 117.25 233.589844 L 117.441406 233.589844 L 117.441406 235.480469 Z M 117.25 235.480469 "/>
<path style=" stroke:none;fill-rule:evenodd;fill:rgb(70.196078%,70.196078%,70.196078%);fill-opacity:1;" d="M 223.570312 233.589844 L 223.570312 235.480469 L 223.382812 235.480469 L 223.382812 233.589844 Z M 223.570312 233.589844 "/>
<path style="fill:none;stroke-width:0.24;stroke-linecap:round;stroke-linejoin:round;stroke:rgb(0%,0%,0%);stroke-opacity:1;stroke-miterlimit:3;" d="M 0.00140575 3236.296216 L 317.475807 3236.296216 M 0.00140575 3241.966779 L 317.475807 3241.966779 " transform="matrix(0.333688,0,0,0.33341,117.440937,-845.425103)"/>
<path style=" stroke:none;fill-rule:evenodd;fill:rgb(70.196078%,70.196078%,70.196078%);fill-opacity:1;" d="M 159.058594 678.734375 L 223.382812 678.734375 L 223.382812 682.515625 L 162.84375 682.515625 Z M 159.058594 678.734375 "/>
<path style=" stroke:none;fill-rule:evenodd;fill:rgb(70.196078%,70.196078%,70.196078%);fill-opacity:1;" d="M 223.757812 678.734375 L 223.757812 682.515625 L 223.378906 682.515625 L 223.378906 678.734375 Z M 223.757812 678.734375 "/>
<path style="fill:none;stroke-width:0.24;stroke-linecap:round;stroke-linejoin:round;stroke:rgb(0%,0%,0%);stroke-opacity:1;stroke-miterlimit:3;" d="M -11.342853 3230.630968 L 181.424514 3230.630968 M 0.000535904 3241.972094 L 181.424514 3241.972094 " transform="matrix(0.333688,0,0,0.33341,162.843571,-398.391718)"/>
<path style=" stroke:none;fill-rule:evenodd;fill:rgb(70.196078%,70.196078%,70.196078%);fill-opacity:1;" d="M 11.5 233.589844 L 113.65625 233.589844 L 113.65625 235.480469 L 11.5 235.480469 Z M 11.5 233.589844 "/>
<path style=" stroke:none;fill-rule:evenodd;fill:rgb(70.196078%,70.196078%,70.196078%);fill-opacity:1;" d="M 11.3125 235.480469 L 11.3125 233.589844 L 11.5 233.589844 L 11.5 235.480469 Z M 11.3125 235.480469 "/>
<path style=" stroke:none;fill-rule:evenodd;fill:rgb(70.196078%,70.196078%,70.196078%);fill-opacity:1;" d="M 113.847656 233.589844 L 113.847656 235.480469 L 113.65625 235.480469 L 113.65625 233.589844 Z M 113.847656 233.589844 "/>
<path style="fill:none;stroke-width:0.24;stroke-linecap:round;stroke-linejoin:round;stroke:rgb(0%,0%,0%);stroke-opacity:1;stroke-miterlimit:3;" d="M -0.00470213 3236.296216 L 306.138017 3236.296216 M -0.00470213 3241.966779 L 306.138017 3241.966779 " transform="matrix(0.333688,0,0,0.33341,11.501569,-845.425103)"/>
<path style=" stroke:none;fill-rule:evenodd;fill:rgb(70.196078%,70.196078%,70.196078%);fill-opacity:1;" d="M 113.65625 1015.1875 L 113.65625 11.492188 L 117.441406 11.492188 L 117.441406 1015.1875 Z M 113.65625 1015.1875 "/>
<path style=" stroke:none;fill-rule:evenodd;fill:rgb(70.196078%,70.196078%,70.196078%);fill-opacity:1;" d="M 117.441406 1015.566406 L 113.65625 1015.566406 L 113.65625 1015.1875 L 117.441406 1015.1875 Z M 117.441406 1015.566406 "/>
<path style=" stroke:none;fill-rule:evenodd;fill:rgb(70.196078%,70.196078%,70.196078%);fill-opacity:1;" d="M 113.65625 11.117188 L 117.441406 11.117188 L 117.441406 11.496094 L 113.65625 11.496094 Z M 113.65625 11.117188 "/>
<path style="fill:none;stroke-width:0.24;stroke-linecap:round;stroke-linejoin:round;stroke:rgb(0%,0%,0%);stroke-opacity:1;stroke-miterlimit:3;" d="M 0.00308915 3230.626017 L 3010.392661 3230.626017 M 0.00308915 3241.969406 L 3010.392661 3241.969406 " transform="matrix(0.00000000000000002,-0.33341,0.333688,0.00000000000000002,-964.365921,1015.18853)"/>
<path style="fill-rule:evenodd;fill:rgb(100%,100%,100%);fill-opacity:1;stroke-width:0.24;stroke-linecap:round;stroke-linejoin:round;stroke:rgb(100%,100%,100%);stroke-opacity:1;stroke-miterlimit:3;" d="M -2.824226 3242.109881 L 53.857974 3242.109881 L 53.857974 3230.485542 L -2.824226 3230.485542 Z M -2.824226 3242.109881 " transform="matrix(0.00000000000000002,-0.33341,0.333688,0.00000000000000002,-964.365921,587.066186)"/>
<path style="fill-rule:evenodd;fill:rgb(100%,100%,100%);fill-opacity:1;stroke-width:0.24;stroke-linecap:round;stroke-linejoin:round;stroke:rgb(0%,0%,0%);stroke-opacity:1;stroke-miterlimit:3;" d="M 56.692974 3241.969406 L 56.692974 3230.626017 L 53.857693 3230.626017 L 53.857693 3241.969406 Z M -0.000942523 3241.969406 L -0.000942523 3230.626017 L 2.834339 3230.626017 L 2.834339 3241.969406 Z M -0.000942523 3241.969406 " transform="matrix(0.00000000000000002,-0.33341,0.333688,0.00000000000000002,-964.365921,588.011405)"/>
<path style="fill:none;stroke-width:0.24;stroke-linecap:round;stroke-linejoin:round;stroke:rgb(0%,0%,0%);stroke-opacity:1;stroke-miterlimit:3;" d="M 56.692974 3241.969406 L 56.692974 3230.626017 M -0.000942523 3241.969406 L -0.000942523 3230.626017 " transform="matrix(0.00000000000000002,-0.33341,0.333688,0.00000000000000002,-964.365921,588.011405)"/>
<path style="fill-rule:evenodd;fill:rgb(100%,100%,100%);fill-opacity:1;stroke-width:0.24;stroke-linecap:round;stroke-linejoin:round;stroke:rgb(100%,100%,100%);stroke-opacity:1;stroke-miterlimit:3;" d="M -2.8309 3242.109625 L 141.729992 3242.109625 L 141.729992 3230.487313 L -2.8309 3230.487313 Z M -2.8309 3242.109625 " transform="matrix(-0.333688,0.000000000000000041,-0.000000000000000041,-0.33341,216.461612,1759.640697)"/>
<path style="fill-rule:evenodd;fill:rgb(100%,100%,100%);fill-opacity:1;stroke-width:0.24;stroke-linecap:round;stroke-linejoin:round;stroke:rgb(0%,0%,0%);stroke-opacity:1;stroke-miterlimit:3;" d="M 144.564992 3241.969032 L 144.564992 3230.627906 L 141.732071 3230.627906 L 141.732071 3241.969032 Z M 0.00409973 3241.969032 L 0.00409973 3230.627906 L 2.825314 3230.627906 L 2.825314 3241.969032 Z M 0.00409973 3241.969032 " transform="matrix(-0.333688,0.000000000000000041,-0.000000000000000041,-0.33341,217.407618,1759.640697)"/>
<path style="fill:none;stroke-width:0.24;stroke-linecap:round;stroke-linejoin:round;stroke:rgb(0%,0%,0%);stroke-opacity:1;stroke-miterlimit:3;" d="M 144.564992 3241.969032 L 144.564992 3230.627906 M 0.00409973 3241.969032 L 0.00409973 3230.627906 " transform="matrix(-0.333688,0.000000000000000041,-0.000000000000000041,-0.33341,217.407618,1759.640697)"/>
<path style="fill-rule:evenodd;fill:rgb(100%,100%,100%);fill-opacity:1;stroke-width:0.24;stroke-linecap:round;stroke-linejoin:round;stroke:rgb(100%,100%,100%);stroke-opacity:1;stroke-miterlimit:3;" d="M -2.82642 3242.115428 L 53.855781 3242.115428 L 53.855781 3236.15693 L -2.82642 3236.15693 Z M -2.82642 3242.115428 " transform="matrix(0.00000000000000002,0.33341,-0.333688,0.00000000000000002,1165.95371,252.204077)"/>
<path style="fill-rule:evenodd;fill:rgb(100%,100%,100%);fill-opacity:1;stroke-width:0.24;stroke-linecap:round;stroke-linejoin:round;stroke:rgb(0%,0%,0%);stroke-opacity:1;stroke-miterlimit:3;" d="M 56.690781 3241.974953 L 56.690781 3236.297405 L 53.855499 3236.297405 L 53.855499 3241.974953 Z M -0.00313568 3241.974953 L -0.00313568 3236.297405 L 2.832146 3236.297405 L 2.832146 3241.974953 Z M -0.00313568 3241.974953 " transform="matrix(0.00000000000000002,0.33341,-0.333688,0.00000000000000002,1165.95371,251.258858)"/>
<path style="fill:none;stroke-width:0.24;stroke-linecap:round;stroke-linejoin:round;stroke:rgb(0%,0%,0%);stroke-opacity:1;stroke-miterlimit:3;" d="M 56.690781 3241.974953 L 56.690781 3236.297405 M -0.00313568 3241.974953 L -0.00313568 3236.297405 " transform="matrix(0.00000000000000002,0.33341,-0.333688,0.00000000000000002,1165.95371,251.258858)"/>
<path style="fill-rule:evenodd;fill:rgb(100%,100%,100%);fill-opacity:1;stroke-width:0.24;stroke-linecap:round;stroke-linejoin:round;stroke:rgb(100%,100%,100%);stroke-opacity:1;stroke-miterlimit:3;" d="M -2.827689 3242.106739 L 141.733202 3242.106739 L 141.733202 3230.484427 L -2.827689 3230.484427 Z M -2.827689 3242.106739 " transform="matrix(0.333688,0,0,0.33341,169.615442,-727.854579)"/>
<path style="fill-rule:evenodd;fill:rgb(100%,100%,100%);fill-opacity:1;stroke-width:0.24;stroke-linecap:round;stroke-linejoin:round;stroke:rgb(0%,0%,0%);stroke-opacity:1;stroke-miterlimit:3;" d="M 144.568202 3241.966146 L 144.568202 3230.62502 L 141.735282 3230.62502 L 141.735282 3241.966146 Z M -0.00439578 3241.966146 L -0.00439578 3230.62502 L 2.828525 3230.62502 L 2.828525 3241.966146 Z M -0.00439578 3241.966146 " transform="matrix(0.333688,0,0,0.33341,168.669436,-727.854579)"/>
<path style="fill:none;stroke-width:0.24;stroke-linecap:round;stroke-linejoin:round;stroke:rgb(0%,0%,0%);stroke-opacity:1;stroke-miterlimit:3;" d="M 144.568202 3241.966146 L 144.568202 3230.62502 M -0.00439578 3241.966146 L -0.00439578 3230.62502 " transform="matrix(0.333688,0,0,0.33341,168.669436,-727.854579)"/>
<path style="fill-rule:evenodd;fill:rgb(100%,100%,100%);fill-opacity:1;stroke-width:0.24;stroke-linecap:round;stroke-linejoin:round;stroke:rgb(100%,100%,100%);stroke-opacity:1;stroke-miterlimit:3;" d="M -2.826995 3242.114376 L 53.854828 3242.114376 L 53.854828 3236.162628 L -2.826995 3236.162628 Z M -2.826995 3242.114376 " transform="matrix(-0.333688,0.000000000000000041,-0.000000000000000041,-0.33341,149.751977,1314.49775)"/>
<path style="fill-rule:evenodd;fill:rgb(100%,100%,100%);fill-opacity:1;stroke-width:0.24;stroke-linecap:round;stroke-linejoin:round;stroke:rgb(0%,0%,0%);stroke-opacity:1;stroke-miterlimit:3;" d="M 56.689828 3241.973784 L 56.689828 3236.303221 L 53.856908 3236.303221 L 53.856908 3241.973784 Z M -0.0037013 3241.973784 L -0.0037013 3236.303221 L 2.829219 3236.303221 L 2.829219 3241.973784 Z M -0.0037013 3241.973784 " transform="matrix(-0.333688,0.000000000000000041,-0.000000000000000041,-0.33341,150.697984,1314.49775)"/>
<path style="fill:none;stroke-width:0.24;stroke-linecap:round;stroke-linejoin:round;stroke:rgb(0%,0%,0%);stroke-opacity:1;stroke-miterlimit:3;" d="M 56.689828 3241.973784 L 56.689828 3236.303221 M -0.0037013 3241.973784 L -0.0037013 3236.303221 " transform="matrix(-0.333688,0.000000000000000041,-0.000000000000000041,-0.33341,150.697984,1314.49775)"/>
<path style="fill-rule:evenodd;fill:rgb(100%,100%,100%);fill-opacity:1;stroke-width:0.24;stroke-linecap:round;stroke-linejoin:round;stroke:rgb(100%,100%,100%);stroke-opacity:1;stroke-miterlimit:3;" d="M -2.828729 3242.11119 L 53.864801 3242.11119 L 53.864801 3236.159441 L -2.828729 3236.159441 Z M -2.828729 3242.11119 " transform="matrix(0.333688,0,0,0.33341,92.998601,-285.926375)"/>
<path style="fill-rule:evenodd;fill:rgb(100%,100%,100%);fill-opacity:1;stroke-width:0.24;stroke-linecap:round;stroke-linejoin:round;stroke:rgb(0%,0%,0%);stroke-opacity:1;stroke-miterlimit:3;" d="M 56.688094 3241.970597 L 56.688094 3236.300034 L 53.855174 3236.300034 L 53.855174 3241.970597 Z M -0.00543534 3241.970597 L -0.00543534 3236.300034 L 2.827485 3236.300034 L 2.827485 3241.970597 Z M -0.00543534 3241.970597 " transform="matrix(0.333688,0,0,0.33341,92.052595,-285.926375)"/>
<path style="fill:none;stroke-width:0.24;stroke-linecap:round;stroke-linejoin:round;stroke:rgb(0%,0%,0%);stroke-opacity:1;stroke-miterlimit:3;" d="M 56.688094 3241.970597 L 56.688094 3236.300034 M -0.00543534 3241.970597 L -0.00543534 3236.300034 " transform="matrix(0.333688,0,0,0.33341,92.052595,-285.926375)"/>
<path style="fill-rule:evenodd;fill:rgb(100%,100%,100%);fill-opacity:1;stroke-width:0.24;stroke-linecap:round;stroke-linejoin:round;stroke:rgb(100%,100%,100%);stroke-opacity:1;stroke-miterlimit:3;" d="M -2.829933 3242.114458 L 53.863984 3242.114458 L 53.863984 3230.490119 L -2.829933 3230.490119 Z M -2.829933 3242.114458 " transform="matrix(0.00000000000000002,0.33341,-0.333688,0.00000000000000002,1195.465105,325.822435)"/>
<path style="fill-rule:evenodd;fill:rgb(100%,100%,100%);fill-opacity:1;stroke-width:0.24;stroke-linecap:round;stroke-linejoin:round;stroke:rgb(0%,0%,0%);stroke-opacity:1;stroke-miterlimit:3;" d="M 56.687268 3241.973983 L 56.687268 3230.630594 L 53.863702 3230.630594 L 53.863702 3241.973983 Z M 0.0050671 3241.973983 L 0.0050671 3230.630594 L 2.828633 3230.630594 L 2.828633 3241.973983 Z M 0.0050671 3241.973983 " transform="matrix(0.00000000000000002,0.33341,-0.333688,0.00000000000000002,1195.465105,324.877217)"/>
<path style="fill:none;stroke-width:0.24;stroke-linecap:round;stroke-linejoin:round;stroke:rgb(0%,0%,0%);stroke-opacity:1;stroke-miterlimit:3;" d="M 56.687268 3241.973983 L 56.687268 3230.630594 M 0.0050671 3241.973983 L 0.0050671 3230.630594 " transform="matrix(0.00000000000000002,0.33341,-0.333688,0.00000000000000002,1195.465105,324.877217)"/>
<path style="fill-rule:evenodd;fill:rgb(100%,100%,100%);fill-opacity:1;stroke-width:0.24;stroke-linecap:round;stroke-linejoin:round;stroke:rgb(100%,100%,100%);stroke-opacity:1;stroke-miterlimit:3;" d="M -2.833604 3242.105008 L 53.859925 3242.105008 L 53.859925 3236.164976 L -2.833604 3236.164976 Z M -2.833604 3242.105008 " transform="matrix(0.333688,0,0,0.33341,132.617416,-277.420408)"/>
<path style="fill-rule:evenodd;fill:rgb(100%,100%,100%);fill-opacity:1;stroke-width:0.24;stroke-linecap:round;stroke-linejoin:round;stroke:rgb(0%,0%,0%);stroke-opacity:1;stroke-miterlimit:3;" d="M 56.694925 3241.964416 L 56.694925 3236.305569 L 53.862005 3236.305569 L 53.862005 3241.964416 Z M 0.00139561 3241.964416 L 0.00139561 3236.305569 L 2.834316 3236.305569 L 2.834316 3241.964416 Z M 0.00139561 3241.964416 " transform="matrix(0.333688,0,0,0.33341,131.671409,-277.420408)"/>
<path style="fill:none;stroke-width:0.24;stroke-linecap:round;stroke-linejoin:round;stroke:rgb(0%,0%,0%);stroke-opacity:1;stroke-miterlimit:3;" d="M 56.694925 3241.964416 L 56.694925 3236.305569 M 0.00139561 3241.964416 L 0.00139561 3236.305569 " transform="matrix(0.333688,0,0,0.33341,131.671409,-277.420408)"/>
<path style="fill-rule:evenodd;fill:rgb(100%,100%,100%);fill-opacity:1;stroke-width:0.24;stroke-linecap:round;stroke-linejoin:round;stroke:rgb(100%,100%,100%);stroke-opacity:1;stroke-miterlimit:3;" d="M -2.824291 3242.107576 L 104.881263 3242.107576 L 104.881263 3233.316158 L -2.824291 3233.316158 Z M -2.824291 3242.107576 " transform="matrix(0.00000000000000002,-0.33341,0.333688,0.00000000000000002,-1022.931558,1060.585696)"/>
<path style=" stroke:none;fill-rule:evenodd;fill:rgb(100%,100%,100%);fill-opacity:1;" d="M 58.875 1025.617188 L 58.214844 1025.617188 L 58.214844 1026.5625 L 58.875 1026.5625 Z M 58.875 1061.53125 L 58.214844 1061.53125 L 58.214844 1060.585938 L 58.875 1060.585938 Z M 56.039062 1061.53125 L 56.699219 1061.53125 L 56.699219 1060.585938 L 56.039062 1060.585938 Z M 56.039062 1061.53125 "/>
<path style="fill:none;stroke-width:0.24;stroke-linecap:round;stroke-linejoin:round;stroke:rgb(0%,0%,0%);stroke-opacity:1;stroke-miterlimit:3;" d="M 107.716263 3241.967101 L 107.716263 3239.988739 L 104.880981 3239.988739 L 104.880981 3241.967101 L 107.716263 3241.967101 M -0.00100746 3241.967101 L -0.00100746 3239.988739 L 2.834274 3239.988739 L 2.834274 3241.967101 L -0.00100746 3241.967101 M -0.00100746 3233.468339 L -0.00100746 3235.446701 L 2.834274 3235.446701 L 2.834274 3233.468339 L -0.00100746 3233.468339 M 107.716263 3233.468339 L 107.716263 3235.446701 L 104.880981 3235.446701 L 104.880981 3233.468339 L 107.716263 3233.468339 " transform="matrix(0.00000000000000002,-0.33341,0.333688,0.00000000000000002,-1022.931558,1061.530914)"/>
<path style="fill:none;stroke-width:0.24;stroke-linecap:round;stroke-linejoin:round;stroke:rgb(0%,0%,0%);stroke-opacity:1;stroke-miterlimit:3;" d="M 107.716263 3241.967101 L 107.716263 3233.468339 M -0.00100746 3241.967101 L -0.00100746 3233.468339 " transform="matrix(0.00000000000000002,-0.33341,0.333688,0.00000000000000002,-1022.931558,1061.530914)"/>
<path style="fill-rule:evenodd;fill:rgb(100%,100%,100%);fill-opacity:1;stroke-width:0.24;stroke-linecap:round;stroke-linejoin:round;stroke:rgb(0%,0%,0%);stroke-opacity:1;stroke-miterlimit:3;" d="M 0.00545546 3239.13626 L 51.028809 3239.13626 L 51.028809 3241.969181 L 0.00545546 3241.969181 Z M 0.00545546 3239.13626 " transform="matrix(0.00000000000000002,-0.33341,0.333688,0.00000000000000002,-1023.877565,1069.091663)"/>
<path style="fill-rule:evenodd;fill:rgb(100%,100%,100%);fill-opacity:1;stroke-width:0.24;stroke-linecap:round;stroke-linejoin:round;stroke:rgb(0%,0%,0%);stroke-opacity:1;stroke-miterlimit:3;" d="M 0.00516243 3239.13626 L 51.028516 3239.13626 L 51.028516 3241.969181 L 0.00516243 3241.969181 Z M 0.00516243 3239.13626 " transform="matrix(0.00000000000000002,-0.33341,0.333688,0.00000000000000002,-1023.877565,1035.068127)"/>
<path style="fill-rule:evenodd;fill:rgb(100%,100%,100%);fill-opacity:1;stroke-width:0.24;stroke-linecap:round;stroke-linejoin:round;stroke:rgb(100%,100%,100%);stroke-opacity:1;stroke-miterlimit:3;" d="M -2.83468 3242.109881 L 53.859236 3242.109881 L 53.859236 3230.485542 L -2.83468 3230.485542 Z M -2.83468 3242.109881 " transform="matrix(0.00000000000000002,-0.33341,0.333688,0.00000000000000002,-964.365921,775.133013)"/>
<path style="fill-rule:evenodd;fill:rgb(100%,100%,100%);fill-opacity:1;stroke-width:0.24;stroke-linecap:round;stroke-linejoin:round;stroke:rgb(0%,0%,0%);stroke-opacity:1;stroke-miterlimit:3;" d="M 56.694236 3241.969406 L 56.694236 3230.626017 L 53.858955 3230.626017 L 53.858955 3241.969406 Z M 0.000319583 3241.969406 L 0.000319583 3230.626017 L 2.835601 3230.626017 L 2.835601 3241.969406 Z M 0.000319583 3241.969406 " transform="matrix(0.00000000000000002,-0.33341,0.333688,0.00000000000000002,-964.365921,776.078232)"/>
<path style="fill:none;stroke-width:0.24;stroke-linecap:round;stroke-linejoin:round;stroke:rgb(0%,0%,0%);stroke-opacity:1;stroke-miterlimit:3;" d="M 56.694236 3241.969406 L 56.694236 3230.626017 M 0.000319583 3241.969406 L 0.000319583 3230.626017 " transform="matrix(0.00000000000000002,-0.33341,0.333688,0.00000000000000002,-964.365921,776.078232)"/>
<path style="fill-rule:evenodd;fill:rgb(100%,100%,100%);fill-opacity:1;stroke-width:0.24;stroke-linecap:round;stroke-linejoin:round;stroke:rgb(100%,100%,100%);stroke-opacity:1;stroke-miterlimit:3;" d="M -2.834435 3242.108112 L 53.859482 3242.108112 L 53.859482 3236.16132 L -2.834435 3236.16132 Z M -2.834435 3242.108112 " transform="matrix(0.00000000000000002,-0.33341,0.333688,0.00000000000000002,-998.228612,345.113563)"/>
<path style="fill-rule:evenodd;fill:rgb(100%,100%,100%);fill-opacity:1;stroke-width:0.24;stroke-linecap:round;stroke-linejoin:round;stroke:rgb(0%,0%,0%);stroke-opacity:1;stroke-miterlimit:3;" d="M 56.694482 3241.967636 L 56.694482 3236.301795 L 53.8592 3236.301795 L 53.8592 3241.967636 Z M 0.000564907 3241.967636 L 0.000564907 3236.301795 L 2.835847 3236.301795 L 2.835847 3241.967636 Z M 0.000564907 3241.967636 " transform="matrix(0.00000000000000002,-0.33341,0.333688,0.00000000000000002,-998.228612,346.058782)"/>
<path style="fill:none;stroke-width:0.24;stroke-linecap:round;stroke-linejoin:round;stroke:rgb(0%,0%,0%);stroke-opacity:1;stroke-miterlimit:3;" d="M 56.694482 3241.967636 L 56.694482 3236.301795 M 0.000564907 3241.967636 L 0.000564907 3236.301795 " transform="matrix(0.00000000000000002,-0.33341,0.333688,0.00000000000000002,-998.228612,346.058782)"/>
<path style="fill-rule:evenodd;fill:rgb(100%,100%,100%);fill-opacity:1;stroke-width:0.24;stroke-linecap:round;stroke-linejoin:round;stroke:rgb(100%,100%,100%);stroke-opacity:1;stroke-miterlimit:3;" d="M -2.834985 3242.109348 L 53.858545 3242.109348 L 53.858545 3233.322318 L -2.834985 3233.322318 Z M -2.834985 3242.109348 " transform="matrix(0.333688,0,0,0.33341,81.340532,-62.882793)"/>
<path style="fill-rule:evenodd;fill:rgb(100%,100%,100%);fill-opacity:1;stroke-width:0.24;stroke-linecap:round;stroke-linejoin:round;stroke:rgb(0%,0%,0%);stroke-opacity:1;stroke-miterlimit:3;" d="M 56.693545 3241.968756 L 56.693545 3233.474627 L 53.860625 3233.474627 L 53.860625 3241.968756 Z M 0.0000154588 3241.968756 L 0.0000154588 3233.474627 L 2.832936 3233.474627 L 2.832936 3241.968756 Z M 0.0000154588 3241.968756 " transform="matrix(0.333688,0,0,0.33341,80.394526,-62.882793)"/>
<path style="fill:none;stroke-width:0.24;stroke-linecap:round;stroke-linejoin:round;stroke:rgb(0%,0%,0%);stroke-opacity:1;stroke-miterlimit:3;" d="M 56.693545 3241.968756 L 56.693545 3233.474627 M 0.0000154588 3241.968756 L 0.0000154588 3233.474627 " transform="matrix(0.333688,0,0,0.33341,80.394526,-62.882793)"/>
<path style="fill-rule:evenodd;fill:rgb(100%,100%,100%);fill-opacity:1;stroke-width:0.24;stroke-linecap:round;stroke-linejoin:round;stroke:rgb(100%,100%,100%);stroke-opacity:1;stroke-miterlimit:3;" d="M -2.827662 3242.109881 L 53.854539 3242.109881 L 53.854539 3230.485542 L -2.827662 3230.485542 Z M -2.827662 3242.109881 " transform="matrix(0.00000000000000002,-0.33341,0.333688,0.00000000000000002,-964.365921,1060.455665)"/>
<path style="fill-rule:evenodd;fill:rgb(100%,100%,100%);fill-opacity:1;stroke-width:0.24;stroke-linecap:round;stroke-linejoin:round;stroke:rgb(0%,0%,0%);stroke-opacity:1;stroke-miterlimit:3;" d="M 56.689539 3241.969406 L 56.689539 3230.626017 L 53.854257 3230.626017 L 53.854257 3241.969406 Z M -0.00437814 3241.969406 L -0.00437814 3230.626017 L 2.830903 3230.626017 L 2.830903 3241.969406 Z M -0.00437814 3241.969406 " transform="matrix(0.00000000000000002,-0.33341,0.333688,0.00000000000000002,-964.365921,1061.400884)"/>
<path style="fill:none;stroke-width:0.24;stroke-linecap:round;stroke-linejoin:round;stroke:rgb(0%,0%,0%);stroke-opacity:1;stroke-miterlimit:3;" d="M 56.689539 3241.969406 L 56.689539 3230.626017 M -0.00437814 3241.969406 L -0.00437814 3230.626017 " transform="matrix(0.00000000000000002,-0.33341,0.333688,0.00000000000000002,-964.365921,1061.400884)"/>
<path style="fill-rule:evenodd;fill:rgb(100%,100%,100%);fill-opacity:1;stroke-width:0.24;stroke-linecap:round;stroke-linejoin:round;stroke:rgb(100%,100%,100%);stroke-opacity:1;stroke-miterlimit:3;" d="M -2.826355 3242.114458 L 53.855846 3242.114458 L 53.855846 3230.490119 L -2.826355 3230.490119 Z M -2.826355 3242.114458 " transform="matrix(0.00000000000000002,0.33341,-0.333688,0.00000000000000002,1195.465105,251.075149)"/>
<path style="fill-rule:evenodd;fill:rgb(100%,100%,100%);fill-opacity:1;stroke-width:0.24;stroke-linecap:round;stroke-linejoin:round;stroke:rgb(0%,0%,0%);stroke-opacity:1;stroke-miterlimit:3;" d="M 56.690846 3241.973983 L 56.690846 3230.630594 L 53.855564 3230.630594 L 53.855564 3241.973983 Z M -0.00307119 3241.973983 L -0.00307119 3230.630594 L 2.83221 3230.630594 L 2.83221 3241.973983 Z M -0.00307119 3241.973983 " transform="matrix(0.00000000000000002,0.33341,-0.333688,0.00000000000000002,1195.465105,250.12993)"/>
<path style="fill:none;stroke-width:0.24;stroke-linecap:round;stroke-linejoin:round;stroke:rgb(0%,0%,0%);stroke-opacity:1;stroke-miterlimit:3;" d="M 56.690846 3241.973983 L 56.690846 3230.630594 M -0.00307119 3241.973983 L -0.00307119 3230.630594 " transform="matrix(0.00000000000000002,0.33341,-0.333688,0.00000000000000002,1195.465105,250.12993)"/>
<path style="fill-rule:evenodd;fill:rgb(100%,100%,100%);fill-opacity:1;stroke-width:0.24;stroke-linecap:round;stroke-linejoin:round;stroke:rgb(100%,100%,100%);stroke-opacity:1;stroke-miterlimit:3;" d="M -2.834116 3242.114458 L 53.8598 3242.114458 L 53.8598 3230.490119 L -2.834116 3230.490119 Z M -2.834116 3242.114458 " transform="matrix(0.00000000000000002,0.33341,-0.333688,0.00000000000000002,1195.465105,370.589455)"/>
<path style="fill-rule:evenodd;fill:rgb(100%,100%,100%);fill-opacity:1;stroke-width:0.24;stroke-linecap:round;stroke-linejoin:round;stroke:rgb(0%,0%,0%);stroke-opacity:1;stroke-miterlimit:3;" d="M 56.6948 3241.973983 L 56.6948 3230.630594 L 53.859519 3230.630594 L 53.859519 3241.973983 Z M 0.000883622 3241.973983 L 0.000883622 3230.630594 L 2.824449 3230.630594 L 2.824449 3241.973983 Z M 0.000883622 3241.973983 " transform="matrix(0.00000000000000002,0.33341,-0.333688,0.00000000000000002,1195.465105,369.644237)"/>
<path style="fill:none;stroke-width:0.24;stroke-linecap:round;stroke-linejoin:round;stroke:rgb(0%,0%,0%);stroke-opacity:1;stroke-miterlimit:3;" d="M 56.6948 3241.973983 L 56.6948 3230.630594 M 0.000883622 3241.973983 L 0.000883622 3230.630594 " transform="matrix(0.00000000000000002,0.33341,-0.333688,0.00000000000000002,1195.465105,369.644237)"/>
<path style="fill-rule:evenodd;fill:rgb(100%,100%,100%);fill-opacity:1;stroke-width:0.24;stroke-linecap:round;stroke-linejoin:round;stroke:rgb(100%,100%,100%);stroke-opacity:1;stroke-miterlimit:3;" d="M -2.829708 3242.114376 L 53.863821 3242.114376 L 53.863821 3236.162628 L -2.829708 3236.162628 Z M -2.829708 3242.114376 " transform="matrix(-0.333688,0.000000000000000041,-0.000000000000000041,-0.33341,107.981541,1314.49775)"/>
<path style="fill-rule:evenodd;fill:rgb(100%,100%,100%);fill-opacity:1;stroke-width:0.24;stroke-linecap:round;stroke-linejoin:round;stroke:rgb(0%,0%,0%);stroke-opacity:1;stroke-miterlimit:3;" d="M 56.687115 3241.973784 L 56.687115 3236.303221 L 53.854195 3236.303221 L 53.854195 3241.973784 Z M 0.00529172 3241.973784 L 0.00529172 3236.303221 L 2.826506 3236.303221 L 2.826506 3241.973784 Z M 0.00529172 3241.973784 " transform="matrix(-0.333688,0.000000000000000041,-0.000000000000000041,-0.33341,108.927547,1314.49775)"/>
<path style="fill:none;stroke-width:0.24;stroke-linecap:round;stroke-linejoin:round;stroke:rgb(0%,0%,0%);stroke-opacity:1;stroke-miterlimit:3;" d="M 56.687115 3241.973784 L 56.687115 3236.303221 M 0.00529172 3241.973784 L 0.00529172 3236.303221 " transform="matrix(-0.333688,0.000000000000000041,-0.000000000000000041,-0.33341,108.927547,1314.49775)"/>
<path style="fill-rule:evenodd;fill:rgb(100%,100%,100%);fill-opacity:1;stroke-width:0.24;stroke-linecap:round;stroke-linejoin:round;stroke:rgb(100%,100%,100%);stroke-opacity:1;stroke-miterlimit:3;" d="M -2.828355 3242.107892 L 53.865562 3242.107892 L 53.865562 3236.1611 L -2.828355 3236.1611 Z M -2.828355 3242.107892 " transform="matrix(0.00000000000000002,-0.33341,0.333688,0.00000000000000002,-994.634789,771.865591)"/>
<path style="fill-rule:evenodd;fill:rgb(100%,100%,100%);fill-opacity:1;stroke-width:0.24;stroke-linecap:round;stroke-linejoin:round;stroke:rgb(0%,0%,0%);stroke-opacity:1;stroke-miterlimit:3;" d="M 56.688846 3241.967417 L 56.688846 3236.301576 L 53.86528 3236.301576 L 53.86528 3241.967417 Z M -0.00507111 3241.967417 L -0.00507111 3236.301576 L 2.830211 3236.301576 L 2.830211 3241.967417 Z M -0.00507111 3241.967417 " transform="matrix(0.00000000000000002,-0.33341,0.333688,0.00000000000000002,-994.634789,772.810809)"/>
<path style="fill:none;stroke-width:0.24;stroke-linecap:round;stroke-linejoin:round;stroke:rgb(0%,0%,0%);stroke-opacity:1;stroke-miterlimit:3;" d="M 56.688846 3241.967417 L 56.688846 3236.301576 M -0.00507111 3241.967417 L -0.00507111 3236.301576 " transform="matrix(0.00000000000000002,-0.33341,0.333688,0.00000000000000002,-994.634789,772.810809)"/>
</g>
</svg>
