<svg xmlns="http://www.w3.org/2000/svg" viewBox="0 0 3894.4 1500.4" xml:space="preserve" color-interpolation-filters="sRGB" fill="none" fill-rule="evenodd" font-size="12" overflow="visible" stroke-linecap="square" stroke-miterlimit="3"><style>.prefix__st1{fill:#b3b3b3}.prefix__st3,.prefix__st4,.prefix__st5,.prefix__st6,.prefix__st7{stroke:#000;stroke-linecap:round;stroke-linejoin:round;stroke-width:.24}.prefix__st4,.prefix__st5,.prefix__st6,.prefix__st7{fill:#b3b3b3;stroke:none;stroke-width:.72}.prefix__st5,.prefix__st6,.prefix__st7{stroke:#b3b3b3;stroke-width:.24}.prefix__st6,.prefix__st7{fill:#fff;stroke:#000}.prefix__st7{stroke:#fff}</style><g id="prefix__group6313-1" transform="translate(1076.3 -20)"><path d="M0 1489h2778l11.3 11.4H-11.3L0 1489.1Z" class="prefix__st1" id="prefix__shape6314-2"/><g id="prefix__shape6318-11"><path d="M0 1489h2778M-11.3 1500.4h2800.6" class="prefix__st3"/></g></g><g id="prefix__group6327-17" transform="translate(39.3 -1461)"><path d="M-11.3 1489h3839l-11.3 11.4H0l-11.3-11.3Z" class="prefix__st1" id="prefix__shape6328-18"/><g id="prefix__shape6332-27"><path d="M-11.3 1489h3839M0 1500.4h3816.4" class="prefix__st3"/></g></g><g id="prefix__group6334-33" transform="rotate(90 2409.2 2448.6)"><path d="M0 1494.7h498.3v5.7H0V1494.7Z" class="prefix__st1" id="prefix__shape6335-34"/><path class="prefix__st4" id="prefix__shape6337-39" transform="rotate(90 252 1746.7)" d="M0 1499.8H5.7V1500.4H0z"/><g id="prefix__shape6339-43"><path d="M0 1497.6v-2.9h498.3M0 1497.6v2.8h498.3" class="prefix__st3"/></g></g><g id="prefix__group6341-49" transform="rotate(90 2161.2 2200.5)"><path d="M0 1494.7h833.1V1500.4H0V1494.7Z" class="prefix__st1" id="prefix__shape6342-50"/><g id="prefix__shape6346-59"><path d="M0 1497.6v-2.9h833.1v2.9M0 1497.6v2.8h833.1v-2.8" class="prefix__st3"/></g></g><g id="prefix__group6348-65" transform="translate(2861.3 -957)"><path d="M5.7 1494.7h988.2V1500.4H5.7v-5.7Z" class="prefix__st1" id="prefix__shape6349-66"/><path class="prefix__st4" id="prefix__shape6350-69" transform="rotate(-90 2.8 1497.6)" d="M0 1499.8H5.7V1500.4H0z"/><g id="prefix__shape6353-75"><path d="M5.7 1494.7h988.2v2.9M5.7 1500.4h988.2v-2.8" class="prefix__st3"/></g></g><g id="prefix__group6355-81" transform="rotate(90 2327 2870.4)"><path d="M0 1494.7h328.9v5.7H0v-5.7Z" class="prefix__st1" id="prefix__shape6356-82"/><path class="prefix__st4" id="prefix__shape6357-85" transform="rotate(-90 0 1500.4)" d="M0 1499.8H5.7V1500.4H0z"/><path class="prefix__st4" id="prefix__shape6358-87" transform="rotate(90 167.3 1662)" d="M0 1499.8H5.7V1500.4H0z"/><g id="prefix__shape6360-91"><path d="M0 1494.7h328.9M0 1500.4h328.9" class="prefix__st3"/></g></g><g id="prefix__group6416-97" transform="translate(2917.4 -469.4)"><path d="M5.7 1494.7h725.6l5.7 5.7H0l5.7-5.7Z" class="prefix__st1" id="prefix__shape6417-98"/><g id="prefix__shape6421-107"><path d="M5.7 1494.7h725.6M0 1500.4h737" class="prefix__st3"/></g></g><g id="prefix__group6423-113" transform="rotate(90 1767.1 2650.7)"><path d="M0 1494.7h141.7l5.7 5.7H0v-5.7Z" class="prefix__st1" id="prefix__shape6424-114"/><path class="prefix__st4" id="prefix__shape6425-117" transform="rotate(-90 0 1500.4)" d="M0 1499.8H5.7V1500.4H0z"/><g id="prefix__shape6428-123"><path d="M0 1494.7h141.7M0 1500.4h147.4" class="prefix__st3"/></g></g><g id="prefix__group6430-129" transform="rotate(90 2132.8 3016.4)"><path d="M0 1494.7h147.4l-5.7 5.7H0v-5.7Z" class="prefix__st1" id="prefix__shape6431-130"/><path class="prefix__st4" id="prefix__shape6432-133" transform="rotate(-90 0 1500.4)" d="M0 1499.8H5.7V1500.4H0z"/><g id="prefix__shape6435-139"><path d="M0 1494.7h147.4M0 1500.4h141.7" class="prefix__st3"/></g></g><g id="prefix__group6437-145" transform="translate(3640.3 -461)"><g id="prefix__group6438-146" transform="matrix(-1 0 0 1 17 -8.5)"><path class="prefix__st5" id="prefix__shape6439-147" d="M0 1491.9H17V1500.4H0z"/><path d="M0 1500.4v-8.5h17v8.5" class="prefix__st3" id="prefix__shape6440-149"/></g><g id="prefix__group6441-152" transform="matrix(1 0 0 -1 0 2992.3)"><path class="prefix__st5" id="prefix__shape6442-153" d="M0 1491.9H17V1500.4H0z"/><path d="M0 1500.4v-8.5h17v8.5" class="prefix__st3" id="prefix__shape6443-155"/></g></g><g id="prefix__group6444-158" transform="rotate(180 1640.1 1261.4)"><g id="prefix__group6445-159" transform="matrix(-1 0 0 1 17 -8.5)"><path class="prefix__st5" id="prefix__shape6446-160" d="M0 1491.9H17V1500.4H0z"/><path d="M0 1500.4v-8.5h17v8.5" class="prefix__st3" id="prefix__shape6447-162"/></g><g id="prefix__group6448-165" transform="matrix(1 0 0 -1 0 2992.3)"><path class="prefix__st5" id="prefix__shape6449-166" d="M0 1491.9H17V1500.4H0z"/><path d="M0 1500.4v-8.5h17v8.5" class="prefix__st3" id="prefix__shape6450-168"/></g></g><g id="prefix__group6451-171" transform="translate(2909 -461)"><g id="prefix__group6452-172" transform="matrix(-1 0 0 1 17 -8.5)"><path class="prefix__st5" id="prefix__shape6453-173" d="M0 1491.9H17V1500.4H0z"/><path d="M0 1500.4v-8.5h17v8.5" class="prefix__st3" id="prefix__shape6454-175"/></g><g id="prefix__group6455-178" transform="matrix(1 0 0 -1 0 2992.3)"><path class="prefix__st5" id="prefix__shape6456-179" d="M0 1491.9H17V1500.4H0z"/><path d="M0 1500.4v-8.5h17v8.5" class="prefix__st3" id="prefix__shape6457-181"/></g></g><g id="prefix__group6458-184" transform="translate(3012.4 -110)"><path d="M0 1494.7h278v5.7H0V1494.7Z" class="prefix__st1" id="prefix__shape6459-185"/><path class="prefix__st4" id="prefix__shape6461-190" transform="rotate(89.9 141.8 1636.8)" d="M0 1499.8H5.7V1500.4H0z"/><g id="prefix__shape6463-194"><path d="M0 1497.6v-2.9h278M0 1497.6v2.8h278" class="prefix__st3"/></g></g><g id="prefix__group6465-200" transform="translate(2814 -212.7)"><path d="M0 1494.7h198.4l-5.6 5.7H5.7l-5.7-5.7Z" class="prefix__st1" id="prefix__shape6466-201"/><g id="prefix__shape6470-210"><path d="M0 1494.7h198.4M5.7 1500.4h187" class="prefix__st3"/></g></g><g id="prefix__group6472-216" transform="translate(2907.5 -207)"><g id="prefix__group6473-217" transform="matrix(-1 0 0 1 17 -8.5)"><path class="prefix__st5" id="prefix__shape6474-218" d="M0 1491.9H17V1500.4H0z"/><path d="M0 1500.4v-8.5h17v8.5" class="prefix__st3" id="prefix__shape6475-220"/></g><g id="prefix__group6476-223" transform="matrix(1 0 0 -1 0 2992.3)"><path class="prefix__st5" id="prefix__shape6477-224" d="M0 1491.9H17V1500.4H0z"/><path d="M0 1500.4v-8.5h17v8.5" class="prefix__st3" id="prefix__shape6478-226"/></g></g><g id="prefix__group6479-229" transform="rotate(90 2083 2122.3)"><path d="M0 1489h170l-5.6 11.4H0v-11.3Z" class="prefix__st1" id="prefix__shape6480-230"/><g id="prefix__shape6484-239"><path d="M0 1494.7v-5.6h170M0 1494.7v5.7h164.4" class="prefix__st3"/></g></g><g id="prefix__group6486-245" transform="translate(2636.8 -1291)"><path d="M0 1494.7h68l11.4 5.7H0v-5.7Z" class="prefix__st1" id="prefix__shape6487-246"/><g id="prefix__shape6491-255"><path d="M0 1494.7h68M0 1500.4h79.4" class="prefix__st3"/></g></g><g id="prefix__group6493-261" transform="translate(2401.6 -1291)"><path d="M0 1494.7h235.3v5.7H0V1494.7Z" class="prefix__st1" id="prefix__shape6494-262"/><g id="prefix__shape6498-271"><path d="M0 1497.6v-2.9h235.3M0 1497.6v2.8h235.3" class="prefix__st3"/></g></g><g id="prefix__group6514-277" transform="rotate(90 1998 2207.3)"><path d="M0 1489h113.4l-5.7 11.4H0v-11.3Z" class="prefix__st1" id="prefix__shape6515-278"/><g id="prefix__shape6519-287"><path d="M0 1494.7v-5.6h113.4M0 1494.7v5.7h107.7" class="prefix__st3"/></g></g><g id="prefix__group6521-293" transform="translate(1075 -1177.6)"><path d="M1.2 1494.7h1628.7l11.4 5.7H0l1.2-5.7Z" class="prefix__st1" id="prefix__shape6522-294"/><g id="prefix__shape6526-303"><path d="M1.2 1494.7h1628.7M0 1500.4h1641.3" class="prefix__st3"/></g></g><g id="prefix__group6535-309" transform="matrix(1 0 0 -1 2697.8 1823.2)"><path class="prefix__st5" id="prefix__shape6536-310" d="M0 1490.5H18.4V1500.4H0z"/><path d="M0 1500.4v-10h18.4v10" class="prefix__st3" id="prefix__shape6537-312"/></g><g id="prefix__group6538-315" transform="matrix(1 0 0 -1 2403 1823.2)"><path class="prefix__st5" id="prefix__shape6539-316" d="M0 1490.5H18.4V1500.4H0z"/><path d="M0 1500.4v-10h18.4v10" class="prefix__st3" id="prefix__shape6540-318"/></g><g id="prefix__group6590-321" transform="matrix(1 0 0 -1 2086.2 1823.2)"><path class="prefix__st5" id="prefix__shape6591-322" d="M0 1490.5H18.4V1500.4H0z"/><path d="M0 1500.4v-10h18.4v10" class="prefix__st3" id="prefix__shape6592-324"/></g><g id="prefix__group6593-327" transform="matrix(1 0 0 -1 1731.9 1823.2)"><path class="prefix__st5" id="prefix__shape6594-328" d="M0 1490.5H18.4V1500.4H0z"/><path d="M0 1500.4v-10h18.4v10" class="prefix__st3" id="prefix__shape6595-330"/></g><g id="prefix__group6596-333" transform="matrix(1 0 0 -1 1420 1823.2)"><path class="prefix__st5" id="prefix__shape6597-334" d="M0 1490.5H18.4V1500.4H0z"/><path d="M0 1500.4v-10h18.4v10" class="prefix__st3" id="prefix__shape6598-336"/></g><g id="prefix__group6599-339" transform="rotate(-90 -39.6 372.1)"><g id="prefix__shape6600-340"><path d="M0 1500.4H10.3v-14.3H0V1500.4Z" class="prefix__st1"/><path d="M0 1500.4h9.7M0 1486.7v13.7" class="prefix__st3"/></g><g id="prefix__shape6601-343"><path d="M0 1486.7v13.7h9.7M0 1500.4h9.7" class="prefix__st3"/></g></g><g id="prefix__group6602-347" transform="rotate(90 1197.1 1236.5)"><path d="M0 1494.7h221.1l-5.7 5.7H0V1494.7Z" class="prefix__st1" id="prefix__shape6603-348"/><g id="prefix__shape6607-357"><path d="M0 1497.6v-2.9h221.1M0 1497.6v2.8h215.4" class="prefix__st3"/></g></g><g id="prefix__group6609-363" transform="translate(768.8 -1240)"><path d="M5.7 1494.7h158.7l5.7 5.7H0l5.7-5.7Z" class="prefix__st1" id="prefix__shape6610-364"/><g id="prefix__shape6614-373"><path d="M5.7 1494.7h158.7M0 1500.4h170" class="prefix__st3"/></g></g><g id="prefix__group6616-379" transform="rotate(90 1115 1154.3)"><path d="M0 1494.7h215.4l5.7 5.7H0V1494.7Z" class="prefix__st1" id="prefix__shape6617-380"/><g id="prefix__shape6621-389"><path d="M0 1497.6v-2.9h215.4M0 1497.6v2.8h221.1" class="prefix__st3"/></g></g><g id="prefix__group6623-395" transform="rotate(90 1004.4 1264.8)"><path d="M0 1494.7h90.7l-11.3 5.7H0V1494.7Z" class="prefix__st1" id="prefix__shape6624-396"/><g id="prefix__shape6628-405"><path d="M0 1497.6v-2.9h90.7M0 1497.6v2.8h79.4" class="prefix__st3"/></g></g><g id="prefix__group6742-411" transform="translate(882.2 -990.5)"><path d="M0 1494.7h70.9V1500.4H0v-5.7Z" class="prefix__st1" id="prefix__shape6743-412"/><g id="prefix__shape6747-421"><path d="M0 1494.7h70.9v2.9M0 1500.4h70.9v-2.8" class="prefix__st3"/></g></g><g id="prefix__group6756-427" transform="translate(768.8 -990.5)"><path d="M0 1494.7h113.4v5.7H0V1494.7Z" class="prefix__st1" id="prefix__shape6757-428"/><g id="prefix__shape6761-437"><path d="M0 1497.6v-2.9h113.4M0 1497.6v2.8h113.4" class="prefix__st3"/></g></g><g id="prefix__group6840-443" transform="translate(953 -990.5)"><path d="M0 1494.7h121.9l5.7 5.7H0V1494.7Z" class="prefix__st1" id="prefix__shape6841-444"/><g id="prefix__shape6845-453"><path d="M0 1497.6v-2.9h121.9M0 1497.6v2.8h127.6" class="prefix__st3"/></g></g><g id="prefix__group6847-459" transform="translate(1075 -1039.3)"><path d="M0 1494.7h1641.3l-11.4 5.7H0V1494.7Z" class="prefix__st1" id="prefix__shape6848-460"/><g id="prefix__shape6852-469"><path d="M0 1497.6v-2.9h1641.3M0 1497.6v2.8h1630" class="prefix__st3"/></g></g><g id="prefix__group6854-475" transform="rotate(90 1059.2 1516.2)"><path d="M0 1494.7h52.9l-5.7 5.7H0V1494.7Z" class="prefix__st1" id="prefix__shape6855-476"/><g id="prefix__shape6859-485"><path d="M0 1497.6v-2.9h52.9M0 1497.6v2.8h47.2" class="prefix__st3"/></g></g><g id="prefix__group6875-491" transform="rotate(90 1281 1742.2)"><path d="M0 1494.7h263.6V1500.4H0V1494.7Z" class="prefix__st1" id="prefix__shape6876-492"/><g id="prefix__shape6880-501"><path d="M0 1497.6v-2.9h263.6v2.9M0 1497.6v2.8h263.6v-2.8" class="prefix__st3"/></g></g><g id="prefix__group6889-507" transform="rotate(90 1149.2 1874)"><path d="M0 1494.7h159.3V1500.4H0V1494.7Z" class="prefix__st1" id="prefix__shape6890-508"/><g id="prefix__shape6894-517"><path d="M0 1497.6v-2.9h159.3v2.9M0 1497.6v2.8h159.3v-2.8" class="prefix__st3"/></g></g><g id="prefix__group6959-523" transform="translate(3290.2 -198.5)"><path d="M0 1494.7h327.4l-5.7 5.7H5.7l-5.7-5.7Z" class="prefix__st1" id="prefix__shape6960-524"/><g id="prefix__shape6964-533"><path d="M0 1494.7h327.4M5.7 1500.4h316" class="prefix__st3"/></g></g><g id="prefix__group6966-539" transform="rotate(89.9 1513.5 2803.3)"><path d="M0 1494.7h192.7V1500.4H-5.7l5.7-5.7Z" class="prefix__st1" id="prefix__shape6967-540"/><g id="prefix__shape6971-549"><path d="M0 1494.7h192.7v2.9M-5.7 1500.4h198.4v-2.8" class="prefix__st3"/></g></g><g id="prefix__group6973-555" transform="rotate(89.9 1609.9 2899.8)"><path d="M-5.7 1494.7h198.4V1500.4H0l-5.7-5.7Z" class="prefix__st1" id="prefix__shape6974-556"/><g id="prefix__shape6978-565"><path d="M-5.7 1494.7h198.4v2.9M0 1500.4h192.7v-2.8" class="prefix__st3"/></g></g><g id="prefix__group6980-571" transform="rotate(89.9 1744.5 3049)"><path d="M0 1494.7h178.5V1500.4H-5.7l5.7-5.7Z" class="prefix__st1" id="prefix__shape6981-572"/><g id="prefix__shape6985-581"><path d="M0 1494.7h178.5v2.9M-5.7 1500.4h184.2v-2.8" class="prefix__st3"/></g></g><g id="prefix__group6987-587" transform="rotate(89.9 1905.4 3210.2)"><path d="M-5.7 1494.7h184.2V1500.4H0l-5.7-5.7Z" class="prefix__st1" id="prefix__shape6988-588"/><g id="prefix__shape6992-597"><path d="M-5.7 1494.7h184.2v2.9M0 1500.4h178.5v-2.8" class="prefix__st3"/></g></g><g id="prefix__group7001-603" transform="translate(3603.4 -190)"><g id="prefix__group7002-604" transform="matrix(-1 0 0 1 17 -8.5)"><path class="prefix__st5" id="prefix__shape7003-605" d="M0 1491.9H17V1500.4H0z"/><path d="M0 1500.4v-8.5h17v8.5" class="prefix__st3" id="prefix__shape7004-607"/></g><g id="prefix__group7005-610" transform="matrix(1 0 0 -1 0 2992.3)"><path class="prefix__st5" id="prefix__shape7006-611" d="M0 1491.9H17V1500.4H0z"/><path d="M0 1500.4v-8.5h17v8.5" class="prefix__st3" id="prefix__shape7007-613"/></g></g><g id="prefix__group7008-616" transform="translate(3287.4 -190)"><g id="prefix__group7009-617" transform="matrix(-1 0 0 1 17 -8.5)"><path class="prefix__st5" id="prefix__shape7010-618" d="M0 1491.9H17V1500.4H0z"/><path d="M0 1500.4v-8.5h17v8.5" class="prefix__st3" id="prefix__shape7011-620"/></g><g id="prefix__group7012-623" transform="matrix(1 0 0 -1 0 2992.3)"><path class="prefix__st5" id="prefix__shape7013-624" d="M0 1491.9H17V1500.4H0z"/><path d="M0 1500.4v-8.5h17v8.5" class="prefix__st3" id="prefix__shape7014-626"/></g></g><g id="prefix__group7015-629" transform="rotate(90 1872 2333.2)"><path d="M-5.7 1489h55.3v11.4H0l-5.7-11.3Z" class="prefix__st1" id="prefix__shape7016-630"/><g id="prefix__shape7020-639"><path d="M-5.7 1489h55.3M0 1500.4h49.6" class="prefix__st3"/></g></g><g id="prefix__group7046-645" transform="rotate(-90 553.9 330.2)"><path d="M0 1494.7h153V1500.4H0V1494.7Z" class="prefix__st1" id="prefix__shape7047-646"/><g id="prefix__shape7051-655"><path d="M0 1497.6v-2.9h153v2.9M0 1497.6v2.8h153v-2.8" class="prefix__st3"/></g></g><g id="prefix__group7053-661" transform="rotate(90 1291 1927.8)"><path d="M0 1494.7h94V1500.4H0v-5.7Z" class="prefix__st1" id="prefix__shape7054-662"/><g id="prefix__shape7058-671"><path d="M0 1494.7h94v2.9M0 1500.4h94v-2.8" class="prefix__st3"/></g></g><g id="prefix__group7060-677" transform="rotate(90 1378.8 1840)"><path d="M0 1494.7h175.8v5.7H0V1494.7Z" class="prefix__st1" id="prefix__shape7061-678"/><g id="prefix__shape7065-687"><path d="M0 1497.6v-2.9h175.8M0 1497.6v2.8h175.8" class="prefix__st3"/></g></g><g id="prefix__group7165-693" transform="translate(2125.7 -616.3)"><path d="M0 1489h91.6v11.4H0v-11.3Z" class="prefix__st1" id="prefix__shape7166-694"/><g id="prefix__shape7170-703"><path d="M0 1494.7v-5.6h91.6v5.6M0 1494.7v5.7h91.6v-5.7" class="prefix__st3"/></g></g><g id="prefix__group7207-709" transform="rotate(90.8 1517.9 1972.6)"><path d="M0 1494.7h423V1500.4H0V1494.7Z" class="prefix__st1" id="prefix__shape7208-710"/><g id="prefix__shape7212-719"><path d="M0 1497.6v-2.9h423v2.9M0 1497.6v2.8h423v-2.8" class="prefix__st3"/></g></g><g id="prefix__group7270-725" transform="rotate(-90 871.3 12.7)"><path d="M0 1489h187.7v11.4H0v-11.3Z" class="prefix__st1" id="prefix__shape7271-726"/><g id="prefix__shape7275-735"><path d="M0 1494.7v-5.6h187.7v5.6M0 1494.7v5.7h187.7v-5.7" class="prefix__st3"/></g></g><g id="prefix__group7333-741" transform="rotate(90 1847.3 2358)"><path d="M0 1489h191.7v11.4H0v-11.3Z" class="prefix__st1" id="prefix__shape7334-742"/><g id="prefix__shape7338-751"><path d="M0 1489h191.7v5.7M0 1500.4h191.7v-5.7" class="prefix__st3"/></g></g><g id="prefix__group7368-757" transform="rotate(-90 1050 -165.9)"><path d="M11.3 1489h170.3l5.7 11.4H0l11.3-11.3Z" class="prefix__st1" id="prefix__shape7369-758"/><g id="prefix__shape7373-767"><path d="M11.3 1489h170.3M0 1500.4h187.3" class="prefix__st3"/></g></g><g id="prefix__group7375-773" transform="translate(2716.2 -616.8)"><path d="M0 1489h1139.5v11.4H0v-11.3Z" class="prefix__st1" id="prefix__shape7376-774"/><path class="prefix__st4" id="prefix__shape7377-777" transform="rotate(-90 0 1500.4)" d="M0 1499.3H11.3V1500.4H0z"/><g id="prefix__shape7380-783"><path d="M0 1489h1139.5v5.7M0 1500.4h1139.5v-5.7" class="prefix__st3"/></g></g><g id="prefix__group7536-789" transform="translate(2173 -469)"><path d="M0 1489h156v11.4H-5.8l5.7-11.3Z" class="prefix__st1" id="prefix__shape7537-790"/><g id="prefix__shape7541-799"><path d="M0 1489h156M-5.7 1500.4H156" class="prefix__st3"/></g></g><g id="prefix__group7543-805" transform="translate(2328.9 -469)"><path d="M0 1489h311.8l-5.7 11.4H0v-11.3Z" class="prefix__st1" id="prefix__shape7544-806"/><g id="prefix__shape7548-815"><path d="M0 1489h311.8M0 1500.4h306.1" class="prefix__st3"/></g></g><g id="prefix__group7550-821" transform="rotate(90 1398.3 2429.8)"><path d="M0 1494.7h153V1500.4H0v-5.7Z" class="prefix__st1" id="prefix__shape7551-822"/><path class="prefix__st4" id="prefix__shape7552-825" transform="rotate(-90 0 1500.4)" d="M0 1499.8H5.7V1500.4H0z"/><g id="prefix__shape7555-831"><path d="M0 1494.7h153v2.9M0 1500.4h153v-2.8" class="prefix__st3"/></g></g><g id="prefix__group7599-837" transform="rotate(90 1321.8 2506.4)"><path d="M0 1494.7h141.7l11.4 5.7H0V1494.7Z" class="prefix__st1" id="prefix__shape7600-838"/><g id="prefix__shape7604-847"><path d="M0 1497.6v-2.9h141.7M0 1497.6v2.8h153" class="prefix__st3"/></g></g><g id="prefix__group7606-853" transform="translate(2327.8 -162.8)"><path d="M5.7 1489h301.6v11.4H0l5.7-11.3Z" class="prefix__st1" id="prefix__shape7607-854"/><g id="prefix__shape7611-863"><path d="M5.7 1489h301.6v5.7M0 1500.4h307.3v-5.7" class="prefix__st3"/></g></g><g id="prefix__group7613-869" transform="rotate(89.9 1245.4 2585.3)"><path d="M0 1494.7h142.8V1500.4H0V1494.7Z" class="prefix__st1" id="prefix__shape7614-870"/><g id="prefix__shape7618-879"><path d="M0 1497.6v-2.9h142.8v2.9M0 1497.6v2.8h142.8v-2.8" class="prefix__st3"/></g></g><g id="prefix__group7620-885" transform="rotate(-58.9 998.9 -309.7)"><path d="M0 1494.7h348.7l-3.2 5.7H0V1494.7Z" class="prefix__st1" id="prefix__shape7621-886"/><g id="prefix__shape7625-895"><path d="M0 1497.6v-2.9h348.7M0 1497.6v2.8h345.5" class="prefix__st3"/></g></g><g id="prefix__group7627-901" transform="translate(2211.5 -315.9)"><path d="M-3.2 1494.7h119.4v5.7H0l-3.2-5.7Z" class="prefix__st1" id="prefix__shape7628-902"/><path class="prefix__st4" id="prefix__shape7630-907" transform="rotate(90 61 1555.7)" d="M0 1499.8H5.7V1500.4H0z"/><g id="prefix__shape7632-911"><path d="M-3.2 1494.7h119.4M0 1500.4h116.2" class="prefix__st3"/></g></g><g id="prefix__group7722-917" transform="matrix(-1 0 0 1 2352.5 -479.8)"><path class="prefix__st5" id="prefix__shape7723-918" d="M0 1490.5H18.4V1500.4H0z"/><path d="M0 1500.4v-10h18.4v10" class="prefix__st3" id="prefix__shape7724-920"/></g><g id="prefix__group7737-923" transform="translate(1620.5 -456.5)"><g id="prefix__group7738-924" transform="matrix(-1 0 0 1 17 -8.5)"><path class="prefix__st5" id="prefix__shape7739-925" d="M0 1491.9H17V1500.4H0z"/><path d="M0 1500.4v-8.5h17v8.5" class="prefix__st3" id="prefix__shape7740-927"/></g><g id="prefix__group7741-930" transform="matrix(1 0 0 -1 0 2992.3)"><path class="prefix__st5" id="prefix__shape7742-931" d="M0 1491.9H17V1500.4H0z"/><path d="M0 1500.4v-8.5h17v8.5" class="prefix__st3" id="prefix__shape7743-933"/></g></g><g id="prefix__group7744-936" transform="translate(1385.2 -456.5)"><g id="prefix__group7745-937" transform="matrix(-1 0 0 1 17 -8.5)"><path class="prefix__st5" id="prefix__shape7746-938" d="M0 1491.9H17V1500.4H0z"/><path d="M0 1500.4v-8.5h17v8.5" class="prefix__st3" id="prefix__shape7747-940"/></g><g id="prefix__group7748-943" transform="matrix(1 0 0 -1 0 2992.3)"><path class="prefix__st5" id="prefix__shape7749-944" d="M0 1491.9H17V1500.4H0z"/><path d="M0 1500.4v-8.5h17v8.5" class="prefix__st3" id="prefix__shape7750-946"/></g></g><g id="prefix__group7751-949" transform="translate(1878.4 -218.4)"><g id="prefix__group7752-950" transform="matrix(-1 0 0 1 17 -8.5)"><path class="prefix__st5" id="prefix__shape7753-951" d="M0 1491.9H17V1500.4H0z"/><path d="M0 1500.4v-8.5h17v8.5" class="prefix__st3" id="prefix__shape7754-953"/></g><g id="prefix__group7755-956" transform="matrix(1 0 0 -1 0 2992.3)"><path class="prefix__st5" id="prefix__shape7756-957" d="M0 1491.9H17V1500.4H0z"/><path d="M0 1500.4v-8.5h17v8.5" class="prefix__st3" id="prefix__shape7757-959"/></g></g><g id="prefix__group7758-962" transform="translate(1620.5 -221.2)"><g id="prefix__group7759-963" transform="matrix(-1 0 0 1 17 -8.5)"><path class="prefix__st5" id="prefix__shape7760-964" d="M0 1491.9H17V1500.4H0z"/><path d="M0 1500.4v-8.5h17v8.5" class="prefix__st3" id="prefix__shape7761-966"/></g><g id="prefix__group7762-969" transform="matrix(1 0 0 -1 0 2992.3)"><path class="prefix__st5" id="prefix__shape7763-970" d="M0 1491.9H17V1500.4H0z"/><path d="M0 1500.4v-8.5h17v8.5" class="prefix__st3" id="prefix__shape7764-972"/></g></g><g id="prefix__group7765-975" transform="translate(1385.2 -224)"><g id="prefix__group7766-976" transform="matrix(-1 0 0 1 17 -8.5)"><path class="prefix__st5" id="prefix__shape7767-977" d="M0 1491.9H17V1500.4H0z"/><path d="M0 1500.4v-8.5h17v8.5" class="prefix__st3" id="prefix__shape7768-979"/></g><g id="prefix__group7769-982" transform="matrix(1 0 0 -1 0 2992.3)"><path class="prefix__st5" id="prefix__shape7770-983" d="M0 1491.9H17V1500.4H0z"/><path d="M0 1500.4v-8.5h17v8.5" class="prefix__st3" id="prefix__shape7771-985"/></g></g><g id="prefix__group7810-988" transform="translate(2428.3 -723)"><g id="prefix__group7811-989"><path d="M0 1440.9h14.2v59.5H0v-59.5Zm14.2 0h14.2v59.5H14.2v-59.5Zm14.2 0h14.1v59.5H28.4v-59.5Zm14.1 0h14.2v59.5H42.5v-59.5Zm14.2 0h14.2v59.5H56.7v-59.5Zm14.2 0H85v59.5H71v-59.5Zm14.1 0h14.2v59.5H85v-59.5Zm14.2 0h14.2v59.5H99.2v-59.5Z" class="prefix__st6" id="prefix__shape7812-990"/></g><g id="prefix__group7816-998" transform="translate(97.2)"><path d="M0 1440.9h14.2v59.5H0v-59.5Zm14.2 0h14.2v59.5H14.2v-59.5Zm14.2 0h14.1v59.5H28.4v-59.5Zm14.1 0h14.2v59.5H42.5v-59.5Zm14.2 0h14.2v59.5H56.7v-59.5Zm14.2 0H85v59.5H71v-59.5Zm14.1 0h14.2v59.5H85v-59.5Zm14.2 0h14.2v59.5H99.2v-59.5Z" class="prefix__st6" id="prefix__shape7817-999"/></g></g><g id="prefix__group7821-1007" transform="translate(2428.3 -654.9)"><g id="prefix__group7822-1008"><path d="M0 1440.9h14.2v59.5H0v-59.5Zm14.2 0h14.2v59.5H14.2v-59.5Zm14.2 0h14.1v59.5H28.4v-59.5Zm14.1 0h14.2v59.5H42.5v-59.5Zm14.2 0h14.2v59.5H56.7v-59.5Zm14.2 0H85v59.5H71v-59.5Zm14.1 0h14.2v59.5H85v-59.5Zm14.2 0h14.2v59.5H99.2v-59.5Z" class="prefix__st6" id="prefix__shape7823-1009"/></g><g id="prefix__group7827-1017" transform="translate(97.2)"><path d="M0 1440.9h14.2v59.5H0v-59.5Zm14.2 0h14.2v59.5H14.2v-59.5Zm14.2 0h14.1v59.5H28.4v-59.5Zm14.1 0h14.2v59.5H42.5v-59.5Zm14.2 0h14.2v59.5H56.7v-59.5Zm14.2 0H85v59.5H71v-59.5Zm14.1 0h14.2v59.5H85v-59.5Zm14.2 0h14.2v59.5H99.2v-59.5Z" class="prefix__st6" id="prefix__shape7828-1018"/></g></g><g id="prefix__group9193-1027" transform="rotate(180 1860.5 929.2)"><g id="prefix__group9194-1028" transform="matrix(-1 0 0 1 17 -8.5)"><path class="prefix__st5" id="prefix__shape9195-1029" d="M0 1491.9H17V1500.4H0z"/><path d="M0 1500.4v-8.5h17v8.5" class="prefix__st3" id="prefix__shape9196-1031"/></g><g id="prefix__group9197-1034" transform="matrix(1 0 0 -1 0 2992.3)"><path class="prefix__st5" id="prefix__shape9198-1035" d="M0 1491.9H17V1500.4H0z"/><path d="M0 1500.4v-8.5h17v8.5" class="prefix__st3" id="prefix__shape9199-1037"/></g></g><g id="prefix__group9471-1040" transform="rotate(23.7 3415 3099.4)"><path d="M3.7 1494.7h150l1.2 5.7H6.2l-2.5-5.7Z" class="prefix__st1" id="prefix__shape9472-1041"/><path class="prefix__st4" id="prefix__shape9473-1044" transform="rotate(-113.7 3.1 1498.4)" d="M0 1499.8H6.2V1500.4H0z"/><g id="prefix__shape9476-1050"><path d="M3.7 1494.7h150M6.2 1500.4h148.7" class="prefix__st3"/></g></g><g id="prefix__group6320-1056" transform="rotate(90.1 2657.6 2695.7)"><path d="M-11.3 1489H1441l-11.3 11.4H0l-11.3-11.3Z" class="prefix__st1" id="prefix__shape6321-1057"/><g id="prefix__shape6325-1066"><path d="M-11.3 1489H1441M0 1500.4h1429.7" class="prefix__st3"/></g></g><g id="prefix__group6994-1072" transform="rotate(.1 191494 3452861.8)"><path d="M5.7 1494.7h236.8v5.7H5.7v-5.7Z" class="prefix__st1" id="prefix__shape6995-1073"/><path class="prefix__st4" id="prefix__shape6996-1076" transform="rotate(-90.2 2.8 1497.6)" d="M0 1499.8H5.7V1500.4H0z"/><path class="prefix__st4" id="prefix__shape6997-1078" transform="rotate(90 124 1618.8)" d="M0 1499.8H5.7V1500.4H0z"/><g id="prefix__shape6999-1082"><path d="M5.7 1494.7h236.8M5.7 1500.4h236.8" class="prefix__st3"/></g></g><g id="prefix__group6630-1088" transform="translate(39.3 -1149.3)"><path d="M0 1489h729.5l5.6 11.4H-11.3L0 1489.1Z" class="prefix__st1" id="prefix__shape6631-1089"/><g id="prefix__shape6635-1098"><path d="M0 1489h729.5M-11.3 1500.4H735" class="prefix__st3"/></g></g><g id="prefix__group9485-1104" transform="rotate(-90 -555 906.1)"><path d="M0 1489h323.1l-11.3 11.4H11.3L0 1489.1Z" class="prefix__st1" id="prefix__shape9486-1105"/><g id="prefix__shape9490-1114"><path d="M0 1489h323.1M11.3 1500.4h300.5" class="prefix__st3"/></g></g><g id="prefix__group12664-1120" transform="rotate(-90 76.2 807.8)"><path d="M0 1489h533v11.4H11.2L0 1489.1Z" class="prefix__st1" id="prefix__shape12665-1121"/><g id="prefix__shape12669-1130"><path d="M0 1489h533v5.7M11.3 1500.4H533v-5.7" class="prefix__st3"/></g></g><g id="prefix__group12678-1136" transform="translate(768.8 -616.3)"><path d="M0 1489h1936l11.4 11.4H-11.3L0 1489.1Z" class="prefix__st1" id="prefix__shape12679-1137"/><g id="prefix__shape12683-1146"><path d="M0 1489h1936M-11.3 1500.4h1958.7" class="prefix__st3"/></g></g><g id="prefix__group12685-1152" transform="rotate(-90 528.1 952.3)"><path d="M0 1489h596.3v11.4h-585L0 1489.1Z" class="prefix__st1" id="prefix__shape12686-1153"/><path class="prefix__st4" id="prefix__shape12688-1158" transform="rotate(90 303.8 1792.9)" d="M0 1499.3H11.3V1500.4H0z"/><g id="prefix__shape12690-1162"><path d="M0 1489h596.3M11.3 1500.4h585" class="prefix__st3"/></g></g><g id="prefix__group6896-1168" transform="rotate(90 1032.7 1542.6)"><path d="M0 1494.7h362.8v5.7H0V1494.7Z" class="prefix__st1" id="prefix__shape6897-1169"/><path class="prefix__st4" id="prefix__shape6899-1174" transform="rotate(90 184.3 1679)" d="M0 1499.8H5.7V1500.4H0z"/><g id="prefix__shape6901-1178"><path d="M0 1497.6v-2.9h362.8M0 1497.6v2.8h362.8" class="prefix__st3"/></g></g><g id="prefix__group12729-1184" transform="translate(2007.1 -798)"><path d="M5.8 1494.7H709l-11.4 5.7H5.7v-5.7Z" class="prefix__st1" id="prefix__shape12730-1185"/><path class="prefix__st4" id="prefix__shape12731-1188" transform="rotate(-89.2 2.8 1497.5)" d="M0 1499.8H5.7V1500.4H0z"/><g id="prefix__shape12734-1194"><path d="M5.8 1494.7H709M5.7 1500.4h692" class="prefix__st3"/></g></g><g id="prefix__group7242-1200" transform="rotate(90 1624.7 2085.8)"><path d="M0 1494.7h235.7v5.7H0V1494.7Z" class="prefix__st1" id="prefix__shape7243-1201"/><path class="prefix__st4" id="prefix__shape7245-1206" transform="rotate(90 120.7 1615.4)" d="M0 1499.8H5.7V1500.4H0z"/><g id="prefix__shape7247-1210"><path d="M0 1497.6v-2.9h235.7M0 1497.6v2.8h235.7" class="prefix__st3"/></g></g><g id="prefix__group12768-1216" transform="rotate(-90 852 179.4)"><path d="M0 1494.7h147.4v5.7h-136L0 1494.7Z" class="prefix__st1" id="prefix__shape12769-1217"/><path class="prefix__st4" id="prefix__shape12771-1222" transform="rotate(90 76.5 1571.3)" d="M0 1499.8H5.7V1500.4H0z"/><g id="prefix__shape12773-1226"><path d="M0 1494.7h147.4M11.3 1500.4h136.1" class="prefix__st3"/></g></g><g id="prefix__group12791-1232" transform="rotate(90 1552 2583.5)"><path d="M-11.3 1494.7h448.9v5.7H0l-11.3-5.7Z" class="prefix__st1" id="prefix__shape12792-1233"/><path class="prefix__st4" id="prefix__shape12794-1238" transform="rotate(90 221.6 1716.4)" d="M0 1499.8H5.7V1500.4H0z"/><g id="prefix__shape12796-1242"><path d="M-11.3 1494.7h448.9M0 1500.4h437.6" class="prefix__st3"/></g></g><g id="prefix__group12806-1248" transform="translate(2377.9 -100.1)"><g id="prefix__group12807-1249"><path d="M0 1445.6h14.2v54.8H0v-54.8Zm14.2 0h14.2v54.8H14.2v-54.8Zm14.2 0h14.1v54.8H28.4v-54.8Zm14.1 0h14.2v54.8H42.5v-54.8Zm14.2 0h14.2v54.8H56.7v-54.8Zm14.2 0H85v54.8H71v-54.8Zm14.1 0h14.2v54.8H85v-54.8Zm14.2 0h14.2v54.8H99.2v-54.8Z" class="prefix__st6" id="prefix__shape12808-1250"/></g><g id="prefix__group12812-1258" transform="translate(89.5)"><path d="M0 1445.6h14.2v54.8H0v-54.8Zm14.2 0h14.2v54.8H14.2v-54.8Zm14.2 0h14.1v54.8H28.4v-54.8Zm14.1 0h14.2v54.8H42.5v-54.8Zm14.2 0h14.2v54.8H56.7v-54.8Zm14.2 0H85v54.8H71v-54.8Zm14.1 0h14.2v54.8H85v-54.8Zm14.2 0h14.2v54.8H99.2v-54.8Z" class="prefix__st6" id="prefix__shape12813-1259"/></g></g><g id="prefix__group12817-1267" transform="translate(2377.9 -37.5)"><g id="prefix__group12818-1268"><path d="M0 1445.6h14.2v54.8H0v-54.8Zm14.2 0h14.2v54.8H14.2v-54.8Zm14.2 0h14.1v54.8H28.4v-54.8Zm14.1 0h14.2v54.8H42.5v-54.8Zm14.2 0h14.2v54.8H56.7v-54.8Zm14.2 0H85v54.8H71v-54.8Zm14.1 0h14.2v54.8H85v-54.8Zm14.2 0h14.2v54.8H99.2v-54.8Z" class="prefix__st6" id="prefix__shape12819-1269"/></g><g id="prefix__group12823-1277" transform="translate(89.5)"><path d="M0 1445.6h14.2v54.8H0v-54.8Zm14.2 0h14.2v54.8H14.2v-54.8Zm14.2 0h14.1v54.8H28.4v-54.8Zm14.1 0h14.2v54.8H42.5v-54.8Zm14.2 0h14.2v54.8H56.7v-54.8Zm14.2 0H85v54.8H71v-54.8Zm14.1 0h14.2v54.8H85v-54.8Zm14.2 0h14.2v54.8H99.2v-54.8Z" class="prefix__st6" id="prefix__shape12824-1278"/></g></g><g id="prefix__group6576-1287" transform="rotate(90 1441.5 1480.8)"><path d="M0 1494.7h277.8v5.7H0V1494.7Z" class="prefix__st1" id="prefix__shape6577-1288"/><path class="prefix__st4" id="prefix__shape6579-1293" transform="rotate(90 141.7 1636.5)" d="M0 1499.8H5.7V1500.4H0z"/><g id="prefix__shape6581-1297"><path d="M0 1497.6v-2.9h277.8M0 1497.6v2.8h277.8" class="prefix__st3"/></g></g><g id="prefix__group6500-1303" transform="rotate(90 1931.3 1970.6)"><path d="M0 1494.7h277.8v5.7H0V1494.7Z" class="prefix__st1" id="prefix__shape6501-1304"/><path class="prefix__st4" id="prefix__shape6503-1309" transform="rotate(90 141.7 1636.5)" d="M0 1499.8H5.7V1500.4H0z"/><g id="prefix__shape6505-1313"><path d="M0 1497.6v-2.9h277.8M0 1497.6v2.8h277.8" class="prefix__st3"/></g></g><g id="prefix__group12943-1319" transform="rotate(90 1978 2227.3)"><path d="M-2.8 1500.5h56.7V1489H-2.8v11.6Z" class="prefix__st7" id="prefix__shape12944-1320"/><path d="M56.7 1500.4v-11.3h-2.8v11.3h2.8Zm-56.7 0v-11.3h2.8v11.3H0Z" class="prefix__st6" transform="translate(-2.8)" id="prefix__shape12947-1326"/><g id="prefix__shape12948-1328"><path d="M56.7 1500.4v-11.3M0 1500.4v-11.3" class="prefix__st3" transform="translate(-2.8)"/></g></g><g id="prefix__group12919-1336" transform="rotate(90 2106.5 3042.7)"><path d="M-2.8 1500.5h56.7v-6H-2.8v6Z" class="prefix__st7" id="prefix__shape12920-1337"/><path d="M56.7 1500.4v-5.7h-2.8v5.7h2.8Zm-56.7 0v-5.7h2.8v5.7H0Z" class="prefix__st6" transform="translate(-2.8)" id="prefix__shape12923-1343"/><g id="prefix__shape12924-1345"><path d="M56.7 1500.4v-5.7M0 1500.4v-5.7" class="prefix__st3" transform="translate(-2.8)"/></g></g><g id="prefix__group12736-1353" transform="translate(2272.5 -798)"><path d="M-2.8 1500.5h56.7v-6H-2.8v6Z" class="prefix__st7" id="prefix__shape12737-1354"/><path d="M56.7 1500.4v-5.7h-2.8v5.7h2.8Zm-56.7 0v-5.7h2.8v5.7H0Z" class="prefix__st6" transform="translate(-2.8)" id="prefix__shape12740-1360"/><g id="prefix__shape12741-1362"><path d="M56.7 1500.4v-5.7M0 1500.4v-5.7" class="prefix__st3" transform="translate(-2.8)"/></g></g><g id="prefix__group12836-1370" transform="translate(1133 -1177.6)"><path d="M-2.8 1500.5h56.7v-6H-2.8v6Z" class="prefix__st7" id="prefix__shape12837-1371"/><path d="M56.7 1500.4v-5.7h-2.8v5.7h2.8Zm-56.7 0v-5.7h2.8v5.7H0Z" class="prefix__st6" transform="translate(-2.8)" id="prefix__shape12840-1377"/><g id="prefix__shape12841-1379"><path d="M56.7 1500.4v-5.7M0 1500.4v-5.7" class="prefix__st3" transform="translate(-2.8)"/></g></g><g id="prefix__group12868-1387" transform="rotate(90 1003.8 1265.3)"><path d="M-2.8 1500.5h56.7v-6H-2.8v6Z" class="prefix__st7" id="prefix__shape12869-1388"/><path d="M56.7 1500.4v-5.7h-2.8v5.7h2.8Zm-56.7 0v-5.7h2.8v5.7H0Z" class="prefix__st6" transform="translate(-2.8)" id="prefix__shape12872-1394"/><g id="prefix__shape12873-1396"><path d="M56.7 1500.4v-5.7M0 1500.4v-5.7" class="prefix__st3" transform="translate(-2.8)"/></g></g><g id="prefix__group12783-1404" transform="translate(2241.3 -616.3)"><path d="M-2.8 1500.5h56.7V1489H-2.8v11.6Z" class="prefix__st7" id="prefix__shape12784-1405"/><path d="M56.7 1500.4v-11.3h-2.8v11.3h2.8Zm-56.7 0v-11.3h2.8v11.3H0Z" class="prefix__st6" transform="translate(-2.8)" id="prefix__shape12787-1411"/><g id="prefix__shape12788-1413"><path d="M56.7 1500.4v-11.3M0 1500.4v-11.3" class="prefix__st3" transform="translate(-2.8)"/></g></g><g id="prefix__group8347-1421" transform="translate(2768.5 -616.8)"><path d="M-2.8 1500.5h56.7V1489H-2.8v11.6Z" class="prefix__st7" id="prefix__shape8348-1422"/><path d="M56.7 1500.4v-11.3h-2.8v11.3h2.8Zm-56.7 0v-11.3h2.8v11.3H0Z" class="prefix__st6" transform="translate(-2.8)" id="prefix__shape8351-1428"/><g id="prefix__shape8352-1430"><path d="M56.7 1500.4v-11.3M0 1500.4v-11.3" class="prefix__st3" transform="translate(-2.8)"/></g></g><g id="prefix__group12752-1438" transform="translate(2102.4 -798)"><path d="M-2.8 1500.5h56.7v-6H-2.8v6Z" class="prefix__st7" id="prefix__shape12753-1439"/><path d="M56.7 1500.4v-5.7h-2.8v5.7h2.8Zm-56.7 0v-5.7h2.8v5.7H0Z" class="prefix__st6" transform="translate(-2.8)" id="prefix__shape12756-1445"/><g id="prefix__shape12757-1447"><path d="M56.7 1500.4v-5.7M0 1500.4v-5.7" class="prefix__st3" transform="translate(-2.8)"/></g></g><g id="prefix__group7833-1455" transform="translate(3151.2 -110)"><path d="M-2.8 1500.5h56.7v-6H-2.8v6Z" class="prefix__st7" id="prefix__shape7834-1456"/><path d="M56.7 1500.4v-5.7h-2.8v5.7h2.8Zm-56.7 0v-5.7h2.8v5.7H0Z" class="prefix__st6" transform="translate(-2.8)" id="prefix__shape7837-1462"/><g id="prefix__shape7838-1464"><path d="M56.7 1500.4v-5.7M0 1500.4v-5.7" class="prefix__st3" transform="translate(-2.8)"/></g></g><g id="prefix__group12900-1472" transform="rotate(-179.9 1895.9 1397.4)"><path d="M0 1500.5h51v-6H0v6Z" class="prefix__st7" id="prefix__shape12901-1473"/><path d="M0 1500.4v-5.7h2.8v5.7H0Zm51 0v-5.7h-2.8v5.7H51Z" class="prefix__st6" id="prefix__shape12905-1481"/><path d="M0 1497.6h2.8v2.8H0v-2.8Zm45.4 0h-2.9v2.8h2.9v-2.8Z" class="prefix__st6" transform="translate(2.8 -2.8)" id="prefix__shape12906-1483"/><path d="M0 1500.4h39.7" class="prefix__st3" transform="translate(5.7 -4.3)" id="prefix__shape12907-1485"/><g id="prefix__shape12908-1488"><path d="M0 1500.4v-5.7M51 1500.4v-5.7" class="prefix__st3"/></g><path d="M0 1499h1.4v1.4H0v-1.4Zm45.4 0h-1.5v1.4h1.5v-1.4Z" class="prefix__st6" transform="translate(2.8 -1.4)" id="prefix__shape12909-1492"/></g><g id="prefix__group12884-1496" transform="translate(1844.5 -1039.3)"><path d="M-2.8 1500.5h56.7v-6H-2.8v6Z" class="prefix__st7" id="prefix__shape12885-1497"/><path d="M56.7 1500.4v-5.7h-2.8v5.7h2.8Zm-56.7 0v-5.7h2.8v5.7H0Z" class="prefix__st6" transform="translate(-2.8)" id="prefix__shape12888-1503"/><g id="prefix__shape12889-1505"><path d="M56.7 1500.4v-5.7M0 1500.4v-5.7" class="prefix__st3" transform="translate(-2.8)"/></g></g><g id="prefix__group8094-1513" transform="translate(3721 -957)"><path d="M-2.8 1500.5h56.7v-6H-2.8v6Z" class="prefix__st7" id="prefix__shape8095-1514"/><path d="M56.7 1500.4v-5.7h-2.8v5.7h2.8Zm-56.7 0v-5.7h2.8v5.7H0Z" class="prefix__st6" transform="translate(-2.8)" id="prefix__shape8098-1520"/><g id="prefix__shape8099-1522"><path d="M56.7 1500.4v-5.7M0 1500.4v-5.7" class="prefix__st3" transform="translate(-2.8)"/></g></g><g id="prefix__group12860-1530" transform="translate(824 -1240)"><path d="M-2.8 1500.5h56.7v-6H-2.8v6Z" class="prefix__st7" id="prefix__shape12861-1531"/><path d="M56.7 1500.4v-5.7h-2.8v5.7h2.8Zm-56.7 0v-5.7h2.8v5.7H0Z" class="prefix__st6" transform="translate(-2.8)" id="prefix__shape12864-1537"/><g id="prefix__shape12865-1539"><path d="M56.7 1500.4v-5.7M0 1500.4v-5.7" class="prefix__st3" transform="translate(-2.8)"/></g></g><g id="prefix__group12775-1547" transform="rotate(-90 832.7 160.1)"><path d="M-2.8 1500.5h93.5v-6H-2.8v6Z" class="prefix__st7" id="prefix__shape12776-1548"/><path d="M93.5 1500.4v-5.7h-2.8v5.7h2.8Zm-93.5 0v-5.7h2.8v5.7H0Z" class="prefix__st6" transform="translate(-2.8)" id="prefix__shape12779-1554"/><g id="prefix__shape12780-1556"><path d="M93.5 1500.4v-5.7M0 1500.4v-5.7" class="prefix__st3" transform="translate(-2.8)"/></g></g><g id="prefix__group12798-1564" transform="rotate(90 1385.6 2749.8)"><path d="M-2.8 1500.5H85v-6H-2.8v6Z" class="prefix__st7" id="prefix__shape12799-1565"/><path d="M87.9 1500.4v-5.7H85v5.7H88Zm-87.9 0v-5.7h2.8v5.7H0Z" class="prefix__st6" transform="translate(-2.8)" id="prefix__shape12802-1571"/><g id="prefix__shape12803-1573"><path d="M87.9 1500.4v-5.7M0 1500.4v-5.7" class="prefix__st3" transform="translate(-2.8)"/></g></g><g id="prefix__group12721-1581" transform="rotate(-89.9 1808.2 -559)"><path d="M-2.8 1500.5h337.7V1489H-2.8v11.6Z" class="prefix__st7" id="prefix__shape12722-1582"/><path d="M337.8 1500.4v-11.3h-2.9v11.3h2.9Zm-337.8 0v-11.3h2.8v11.3H0Z" class="prefix__st6" transform="translate(-2.8)" id="prefix__shape12725-1588"/><g id="prefix__shape12726-1590"><path d="M337.8 1500.4v-11.3M0 1500.4v-11.3" class="prefix__st3" transform="translate(-2.8)"/></g></g><g id="prefix__group12828-1598" transform="translate(2298 -1177.6)"><path d="M-2.8 1500.5h56.7v-6H-2.8v6Z" class="prefix__st7" id="prefix__shape12829-1599"/><path d="M56.7 1500.4v-5.7h-2.8v5.7h2.8Zm-56.7 0v-5.7h2.8v5.7H0Z" class="prefix__st6" transform="translate(-2.8)" id="prefix__shape12832-1605"/><g id="prefix__shape12833-1607"><path d="M56.7 1500.4v-5.7M0 1500.4v-5.7" class="prefix__st3" transform="translate(-2.8)"/></g></g><g id="prefix__group8193-1615" transform="translate(3080.3 -110)"><path d="M-2.8 1500.5h56.7v-6H-2.8v6Z" class="prefix__st7" id="prefix__shape8194-1616"/><path d="M56.7 1500.4v-5.7h-2.8v5.7h2.8Zm-56.7 0v-5.7h2.8v5.7H0Z" class="prefix__st6" transform="translate(-2.8)" id="prefix__shape8197-1622"/><g id="prefix__shape8198-1624"><path d="M56.7 1500.4v-5.7M0 1500.4v-5.7" class="prefix__st3" transform="translate(-2.8)"/></g></g><g id="prefix__group12927-1632" transform="rotate(90 1980.7 2381)"><path d="M-2.8 1500.5h56.7v-6H-2.8v6Z" class="prefix__st7" id="prefix__shape12928-1633"/><path d="M56.7 1500.4v-5.7h-2.8v5.7h2.8Zm-56.7 0v-5.7h2.8v5.7H0Z" class="prefix__st6" transform="translate(-2.8)" id="prefix__shape12931-1639"/><g id="prefix__shape12932-1641"><path d="M56.7 1500.4v-5.7M0 1500.4v-5.7" class="prefix__st3" transform="translate(-2.8)"/></g></g><g id="prefix__group12892-1649" transform="translate(3488.6 -198.5)"><path d="M-2.8 1500.5h56.7v-6H-2.8v6Z" class="prefix__st7" id="prefix__shape12893-1650"/><path d="M56.7 1500.4v-5.7h-2.8v5.7h2.8Zm-56.7 0v-5.7h2.8v5.7H0Z" class="prefix__st6" transform="translate(-2.8)" id="prefix__shape12896-1656"/><g id="prefix__shape12897-1658"><path d="M56.7 1500.4v-5.7M0 1500.4v-5.7" class="prefix__st3" transform="translate(-2.8)"/></g></g><g id="prefix__group12911-1666" transform="translate(3746.5 -616.8)"><path d="M-2.8 1500.5h56.7V1489H-2.8v11.6Z" class="prefix__st7" id="prefix__shape12912-1667"/><path d="M56.7 1500.4v-11.3h-2.8v11.3h2.8Zm-56.7 0v-11.3h2.8v11.3H0Z" class="prefix__st6" transform="translate(-2.8)" id="prefix__shape12915-1673"/><g id="prefix__shape12916-1675"><path d="M56.7 1500.4v-11.3M0 1500.4v-11.3" class="prefix__st3" transform="translate(-2.8)"/></g></g><g id="prefix__group12760-1683" transform="rotate(90 1551 2297.2)"><path d="M-2.8 1500.5h82.2V1489H-2.8v11.6Z" class="prefix__st7" id="prefix__shape12761-1684"/><path d="M82.2 1500.4v-11.3h-2.8v11.3h2.8Zm-82.2 0v-11.3h2.8v11.3H0Z" class="prefix__st6" transform="translate(-2.8)" id="prefix__shape12764-1690"/><g id="prefix__shape12765-1692"><path d="M82.2 1500.4v-11.3M0 1500.4v-11.3" class="prefix__st3" transform="translate(-2.8)"/></g></g><g id="prefix__group12876-1700" transform="translate(1191 -1039.3)"><path d="M-2.8 1500.5h56.7v-6H-2.8v6Z" class="prefix__st7" id="prefix__shape12877-1701"/><path d="M56.7 1500.4v-5.7h-2.8v5.7h2.8Zm-56.7 0v-5.7h2.8v5.7H0Z" class="prefix__st6" transform="translate(-2.8)" id="prefix__shape12880-1707"/><g id="prefix__shape12881-1709"><path d="M56.7 1500.4v-5.7M0 1500.4v-5.7" class="prefix__st3" transform="translate(-2.8)"/></g></g><g id="prefix__group12935-1717" transform="rotate(90 2049.6 2155.6)"><path d="M-2.8 1500.5h56.7V1489H-2.8v11.6Z" class="prefix__st7" id="prefix__shape12936-1718"/><path d="M56.7 1500.4v-11.3h-2.8v11.3h2.8Zm-56.7 0v-11.3h2.8v11.3H0Z" class="prefix__st6" transform="translate(-2.8)" id="prefix__shape12939-1724"/><g id="prefix__shape12940-1726"><path d="M56.7 1500.4v-11.3M0 1500.4v-11.3" class="prefix__st3" transform="translate(-2.8)"/></g></g></svg>