<svg xmlns="http://www.w3.org/2000/svg" viewBox="0 0 1072.7 3087" xml:space="preserve" color-interpolation-filters="sRGB" fill="none" fill-rule="evenodd" font-size="12" overflow="visible" stroke-linecap="square" stroke-miterlimit="3"><style>.prefix__st1{fill:#b3b3b3}.prefix__st3,.prefix__st4,.prefix__st5,.prefix__st8{stroke:#000;stroke-linecap:round;stroke-linejoin:round;stroke-width:.24}.prefix__st4,.prefix__st5,.prefix__st8{fill:#b3b3b3;stroke:none;stroke-width:.72}.prefix__st5,.prefix__st8{fill:#fff;stroke:#000;stroke-width:.24}.prefix__st8{stroke:#fff}</style><g id="prefix__group4978-1" transform="rotate(-90 -2.6 3050)"><path d="M-8.5 3078.5h3029.9l-8.5 8.5H0l-8.5-8.5Z" class="prefix__st1" id="prefix__shape4979-2"/><g id="prefix__shape4983-11"><path d="M-8.5 3078.5h3029.9M0 3087h3012.9" class="prefix__st3"/></g></g><g id="prefix__group4985-18" transform="translate(34.5 -3052.6)"><path d="M-8.5 3078.5h652l-8.5 8.5H0l-8.5-8.5Z" class="prefix__st1" id="prefix__shape4986-19"/><g id="prefix__shape4990-28"><path d="M-8.5 3078.5h652M0 3087h635" class="prefix__st3"/></g></g><g id="prefix__group4999-34" transform="rotate(-90 -97.5 2501.6)"><path d="M5.7 3075.7h365.6L360 3087H5.7v-11.3Z" class="prefix__st1" id="prefix__shape5000-35"/><path class="prefix__st4" id="prefix__shape5001-38" transform="rotate(-90 2.8 3084.2)" d="M0 3085.9H11.3V3087H0z"/><g id="prefix__shape5004-44"><path d="M5.7 3075.7h365.6M5.7 3087H360" class="prefix__st3"/></g></g><g id="prefix__group5007-50" transform="rotate(-90 -769.2 1744.8)"><g id="prefix__group5008-51"><path d="M0 3007.7h14.2v79.3H0v-79.3Zm14.2 0h14.2v79.3H14.2v-79.3Zm14.2 0h14.1v79.3H28.4v-79.3Zm14.1 0h14.2v79.3H42.5v-79.3Zm14.2 0h14.2v79.3H56.7v-79.3Zm14.2 0H85v79.3H71v-79.3Zm14.1 0h14.2v79.3H85v-79.3Zm14.2 0h14.2v79.3H99.2v-79.3Z" class="prefix__st5" id="prefix__shape5009-52"/></g><g id="prefix__group5013-60" transform="translate(113.4)"><path d="M0 3007.7h14.2v79.3H0v-79.3Zm14.2 0h14.2v79.3H14.2v-79.3Zm14.2 0h14.1v79.3H28.4v-79.3Zm14.1 0h14.2v79.3H42.5v-79.3Zm14.2 0h14.2v79.3H56.7v-79.3Zm14.2 0H85v79.3H71v-79.3Zm14.1 0h14.2v79.3H85v-79.3Zm14.2 0h14.2v79.3H99.2v-79.3Z" class="prefix__st5" id="prefix__shape5014-61"/></g></g><g id="prefix__group5018-69" transform="rotate(-90 -723.9 1699.4)"><g id="prefix__group5019-70"><path d="M0 3007.7h14.2v79.3H0v-79.3Zm14.2 0h14.2v79.3H14.2v-79.3Zm14.2 0h14.1v79.3H28.4v-79.3Zm14.1 0h14.2v79.3H42.5v-79.3Zm14.2 0h14.2v79.3H56.7v-79.3Zm14.2 0H85v79.3H71v-79.3Zm14.1 0h14.2v79.3H85v-79.3Zm14.2 0h14.2v79.3H99.2v-79.3Z" class="prefix__st5" id="prefix__shape5020-71"/></g><g id="prefix__group5024-79" transform="translate(113.4)"><path d="M0 3007.7h14.2v79.3H0v-79.3Zm14.2 0h14.2v79.3H14.2v-79.3Zm14.2 0h14.1v79.3H28.4v-79.3Zm14.1 0h14.2v79.3H42.5v-79.3Zm14.2 0h14.2v79.3H56.7v-79.3Zm14.2 0H85v79.3H71v-79.3Zm14.1 0h14.2v79.3H85v-79.3Zm14.2 0h14.2v79.3H99.2v-79.3Z" class="prefix__st5" id="prefix__shape5025-80"/></g></g><g id="prefix__group5029-89" transform="rotate(-90 -86 2428)"><g id="prefix__group5030-90"><path d="M0 3007.7h14.2v79.3H0v-79.3Zm14.2 0h14.2v79.3H14.2v-79.3Zm14.2 0h14.1v79.3H28.4v-79.3Zm14.1 0h14.2v79.3H42.5v-79.3Zm14.2 0h14.2v79.3H56.7v-79.3Zm14.2 0H85v79.3H71v-79.3Zm14.1 0h14.2v79.3H85v-79.3Zm14.2 0h14.2v79.3H99.2v-79.3Z" class="prefix__st5" id="prefix__shape5031-91"/></g><g id="prefix__group5035-99" transform="translate(113.4)"><path d="M0 3007.7h14.2v79.3H0v-79.3Zm14.2 0h14.2v79.3H14.2v-79.3Zm14.2 0h14.1v79.3H28.4v-79.3Zm14.1 0h14.2v79.3H42.5v-79.3Zm14.2 0h14.2v79.3H56.7v-79.3Zm14.2 0H85v79.3H71v-79.3Zm14.1 0h14.2v79.3H85v-79.3Zm14.2 0h14.2v79.3H99.2v-79.3Z" class="prefix__st5" id="prefix__shape5036-100"/></g></g><g id="prefix__group5040-108" transform="rotate(-90 -40.7 2382.6)"><g id="prefix__group5041-109"><path d="M0 3007.7h14.2v79.3H0v-79.3Zm14.2 0h14.2v79.3H14.2v-79.3Zm14.2 0h14.1v79.3H28.4v-79.3Zm14.1 0h14.2v79.3H42.5v-79.3Zm14.2 0h14.2v79.3H56.7v-79.3Zm14.2 0H85v79.3H71v-79.3Zm14.1 0h14.2v79.3H85v-79.3Zm14.2 0h14.2v79.3H99.2v-79.3Z" class="prefix__st5" id="prefix__shape5042-110"/></g><g id="prefix__group5046-118" transform="translate(113.4)"><path d="M0 3007.7h14.2v79.3H0v-79.3Zm14.2 0h14.2v79.3H14.2v-79.3Zm14.2 0h14.1v79.3H28.4v-79.3Zm14.1 0h14.2v79.3H42.5v-79.3Zm14.2 0h14.2v79.3H56.7v-79.3Zm14.2 0H85v79.3H71v-79.3Zm14.1 0h14.2v79.3H85v-79.3Zm14.2 0h14.2v79.3H99.2v-79.3Z" class="prefix__st5" id="prefix__shape5047-119"/></g></g><g id="prefix__group5051-128" transform="rotate(-90 -902.2 1934.4)"><path d="M5.7 3081.4H170v5.6H5.7v-5.6Z" class="prefix__st1" id="prefix__shape5052-129"/><path class="prefix__st4" id="prefix__shape5053-132" transform="rotate(-90 2.8 3084.2)" d="M0 3086.5H5.7V3087.1H0z"/><path class="prefix__st4" id="prefix__shape5054-134" transform="rotate(90 87.9 3169.2)" d="M0 3086.5H5.7V3087.1H0z"/><g id="prefix__shape5056-138"><path d="M5.7 3081.4H170M5.7 3087H170" class="prefix__st3"/></g></g><g id="prefix__group5058-144" transform="rotate(-90 -983.5 1845.7)"><path d="M5.7 3081.4h170v5.6H5.8v-5.6Z" class="prefix__st1" id="prefix__shape5059-145"/><path class="prefix__st4" id="prefix__shape5060-148" transform="rotate(-90 2.8 3084.2)" d="M0 3086.5H5.7V3087.1H0z"/><path class="prefix__st4" id="prefix__shape5061-150" transform="rotate(90 90.7 3172)" d="M0 3086.5H5.7V3087.1H0z"/><g id="prefix__shape5063-154"><path d="M5.7 3081.4h170M5.7 3087h170" class="prefix__st3"/></g></g><g id="prefix__group5065-160" transform="translate(251.6 -2145.5)"><path d="M0 3081.4h90.1v5.6H0v-5.6Z" class="prefix__st1" id="prefix__shape5066-161"/><path class="prefix__st4" id="prefix__shape5067-164" transform="rotate(-90 0 3087)" d="M0 3086.5H5.7V3087.1H0z"/><path class="prefix__st4" id="prefix__shape5068-166" transform="rotate(90 47.9 3129.3)" d="M0 3086.5H5.7V3087.1H0z"/><g id="prefix__shape5070-170"><path d="M0 3081.4h90.1M0 3087h90.1" class="prefix__st3"/></g></g><g id="prefix__group5072-176" transform="rotate(-90 -822.8 2013.8)"><path d="M5.7 3081.4h155.9v5.6H5.6v-5.6Z" class="prefix__st1" id="prefix__shape5073-177"/><path class="prefix__st4" id="prefix__shape5074-180" transform="rotate(-90 2.8 3084.2)" d="M0 3086.5H5.7V3087.1H0z"/><g id="prefix__shape5077-186"><path d="M5.7 3081.4h155.9v2.8" class="prefix__st3"/><path d="M5.7 3087h155.9v-2.8" class="prefix__st3"/></g></g><g id="prefix__group5086-192" transform="translate(34.5 -1190.2)"><path d="M0 3081.4h306.1v5.6H0v-5.6Z" class="prefix__st1" id="prefix__shape5087-193"/><path class="prefix__st4" id="prefix__shape5089-198" transform="rotate(90 155.9 3237.2)" d="M0 3086.5H5.7V3087.1H0z"/><g id="prefix__shape5091-202"><path d="M0 3084.2v-2.8h306.1M0 3084.2v2.8h306" class="prefix__st3"/></g></g><g id="prefix__group5093-208" transform="translate(351.9 -682.8)"><path d="M0 3081.4h316.7v5.6H0v-5.6Z" class="prefix__st1" id="prefix__shape5094-209"/><path class="prefix__st4" id="prefix__shape5095-212" transform="rotate(-90 0 3087)" d="M0 3086.5H5.7V3087.1H0z"/><path class="prefix__st4" id="prefix__shape5096-214" transform="rotate(90 161.2 3242.5)" d="M0 3086.5H5.7V3087.1H0z"/><g id="prefix__shape5098-218"><path d="M0 3081.4h316.7M0 3087h316.7" class="prefix__st3"/></g></g><g id="prefix__group5107-224" transform="translate(34.5 -2224.8)"><path d="M0 3081.4h306.1v5.6H0v-5.6Z" class="prefix__st1" id="prefix__shape5108-225"/><path class="prefix__st4" id="prefix__shape5110-230" transform="rotate(90 155.9 3237.3)" d="M0 3086.5H5.7V3087.1H0z"/><g id="prefix__shape5112-234"><path d="M0 3084.2v-2.8h306.1M0 3084.2v2.8h306.1" class="prefix__st3"/></g></g><g id="prefix__group5114-240" transform="translate(34.5 -1411.3)"><path d="M0 3081.4h306.1v5.6H0v-5.6Z" class="prefix__st1" id="prefix__shape5115-241"/><path class="prefix__st4" id="prefix__shape5117-246" transform="rotate(90 155.9 3237.2)" d="M0 3086.5H5.7V3087.1H0z"/><g id="prefix__shape5119-250"><path d="M0 3084.2v-2.8h306.1M0 3084.2v2.8h306.1" class="prefix__st3"/></g></g><g id="prefix__group5121-256" transform="translate(34.5 -1896)"><path d="M0 3081.4h306.1v5.6H0v-5.6Z" class="prefix__st1" id="prefix__shape5122-257"/><path class="prefix__st4" id="prefix__shape5124-262" transform="rotate(90 155.9 3237.3)" d="M0 3086.5H5.7V3087.1H0z"/><g id="prefix__shape5126-266"><path d="M0 3084.2v-2.8h306.1M0 3084.2v2.8h306.1" class="prefix__st3"/></g></g><g id="prefix__group5135-272" transform="translate(34.5 -2054.8)"><path d="M0 3081.4h306.1v5.6H0v-5.6Z" class="prefix__st1" id="prefix__shape5136-273"/><path class="prefix__st4" id="prefix__shape5138-278" transform="rotate(90 155.9 3237.3)" d="M0 3086.5H5.7V3087.1H0z"/><g id="prefix__shape5140-282"><path d="M0 3084.2v-2.8h306.1M0 3084.2v2.8h306.1" class="prefix__st3"/></g></g><g id="prefix__group5142-288" transform="translate(352 -2400.6)"><path d="M0 3081.4h317.3v5.6H0v-5.6Z" class="prefix__st1" id="prefix__shape5143-289"/><path class="prefix__st4" id="prefix__shape5144-292" transform="rotate(-90 0 3087)" d="M0 3086.5H5.7V3087.1H0z"/><path class="prefix__st4" id="prefix__shape5145-294" transform="rotate(90 161.5 3242.8)" d="M0 3086.5H5.7V3087.1H0z"/><g id="prefix__shape5147-298"><path d="M0 3081.4h317.3M0 3087h317.3" class="prefix__st3"/></g></g><g id="prefix__group5156-304" transform="translate(34.5 -2400.6)"><path d="M0 3081.4h306.1v5.6H0v-5.6Z" class="prefix__st1" id="prefix__shape5157-305"/><path class="prefix__st4" id="prefix__shape5159-310" transform="rotate(90 155.9 3237.3)" d="M0 3086.5H5.7V3087.1H0z"/><g id="prefix__shape5161-314"><path d="M0 3084.2v-2.8h306.1M0 3084.2v2.8h306.1" class="prefix__st3"/></g></g><g id="prefix__group5163-320" transform="translate(34.5 -189.6)"><path d="M0 3081.4h306v5.6H0v-5.6Z" class="prefix__st1" id="prefix__shape5164-321"/><path class="prefix__st4" id="prefix__shape5166-326" transform="rotate(90 155.9 3237.2)" d="M0 3086.5H5.7V3087.1H0z"/><g id="prefix__shape5168-330"><path d="M0 3084.2v-2.8h306M0 3084.2v2.8h306" class="prefix__st3"/></g></g><g id="prefix__group5170-336" transform="rotate(-90 155.8 2891)"><path d="M0 3075.7h3012.3v11.3H0v-11.3Z" class="prefix__st1" id="prefix__shape5171-337"/><path class="prefix__st4" id="prefix__shape5172-340" transform="rotate(-90.1 0 3087)" d="M0 3085.9H11.3V3087H0z"/><g id="prefix__shape5175-346"><path d="M0 3075.7h3012.3v5.7M0 3087h3012.3v-5.6" class="prefix__st3"/></g></g><g id="prefix__group5177-352" transform="rotate(-90 226.6 2820)"><path d="M0 3081.4h642.3v5.6H0v-5.6Z" class="prefix__st1" id="prefix__shape5178-353"/><path class="prefix__st4" id="prefix__shape5179-356" transform="rotate(-90.1 0 3087)" d="M0 3086.5H5.7V3087.1H0z"/><path class="prefix__st4" id="prefix__shape5180-358" transform="rotate(90 324 3405.4)" d="M0 3086.5H5.7V3087.1H0z"/><g id="prefix__shape5182-362"><path d="M0 3081.4h642.3M0 3087h642.3" class="prefix__st3"/></g></g><g id="prefix__group5218-368" transform="rotate(90 1860.5 1895.3)"><path d="M-8.5 3078.5h3028.7l-8.4 8.5H0l-8.5-8.5Z" class="prefix__st1" id="prefix__shape5219-369"/><g id="prefix__shape5223-378"><path d="M-8.5 3078.5h3028.7M0 3087h3011.8" class="prefix__st3"/></g><g id="prefix__shape5224-382"><path d="M84.5 3074.2v7.7l15.3-7.7-15.3-7.6v7.6Z" fill="#9a9a9a" transform="translate(1465.4 -8.5)"/><text x="-78" y="-3066.8" transform="translate(1465.4 -8.5) rotate(-180)" fill="#9a9a9a" font-family="Arial" font-size="1.5em">53123,93</text></g></g><g id="prefix__group5225-386" transform="rotate(179.9 334.2 3067)"><path d="M-8.5 3078.5h651l-8.6 8.5H0l-8.5-8.5Z" class="prefix__st1" id="prefix__shape5226-387"/><g id="prefix__shape5230-396"><path d="M-8.5 3078.5h651M0 3087h634" class="prefix__st3"/></g></g><g id="prefix__group5309-402" transform="rotate(-90 -153.2 1861.7)"><path d="M0 2758.2h28.4V3087H0v-328.8Zm28.4 0h28.3V3087H28.3v-328.8Zm28.3 0H85V3087H56.7v-328.8Zm28.3 0h28.4V3087H85v-328.8Zm28.4 0h28.3V3087h-28.3v-328.8Z" class="prefix__st5" transform="rotate(-90 164.4 2922.6)" id="prefix__shape5310-403"/><path class="prefix__st5" id="prefix__shape5311-405" transform="rotate(180 164.4 2890)" d="M0 2834.8H328.8V3087.1H0z"/></g><g id="prefix__group5100-407" transform="translate(34.5 -861.4)"><path d="M0 3081.4h306v5.6H0v-5.6Z" class="prefix__st1" id="prefix__shape5101-408"/><path class="prefix__st4" id="prefix__shape5102-411" transform="rotate(-90 0 3087)" d="M0 3086.5H5.7V3087.1H0z"/><path class="prefix__st4" id="prefix__shape5103-413" transform="rotate(90 155.9 3237.2)" d="M0 3086.5H5.7V3087.1H0z"/><g id="prefix__shape5105-417"><path d="M0 3081.4h306M0 3087h306" class="prefix__st3"/></g></g><g id="prefix__group4992-423" transform="rotate(-90 -779.1 1819.9)"><path d="M0 3075.7h354.3v11.3h-343L0 3075.7Z" class="prefix__st1" id="prefix__shape4993-424"/><path class="prefix__st4" id="prefix__shape4995-429" transform="rotate(90 182.8 3258.5)" d="M0 3085.9H11.3V3087H0z"/><g id="prefix__shape4997-433"><path d="M0 3075.7h354.3M11.3 3087h343" class="prefix__st3"/></g></g><g id="prefix__group6229-439" transform="rotate(90 968.2 2715.3)"><path d="M5.7 3081.4h83.9l5.6 5.6H0l5.7-5.6Z" class="prefix__st1" id="prefix__shape6230-440"/><g id="prefix__shape6234-449"><path d="M5.7 3081.4h83.9M0 3087h95.2" class="prefix__st3"/></g></g><g id="prefix__group6236-455" transform="rotate(180 334.6 2417.2)"><path d="M0 3081.4h66.8l5.6 5.6H0v-5.6Z" class="prefix__st1" id="prefix__shape6237-456"/><path class="prefix__st4" id="prefix__shape6238-459" transform="rotate(-89.9 0 3087)" d="M0 3086.5H5.7V3087.1H0z"/><g id="prefix__shape6241-465"><path d="M0 3081.4h66.8M0 3087h72.4" class="prefix__st3"/></g></g><g id="prefix__group6257-471" transform="rotate(-90 -328.2 2156.7)"><path d="M0 3087.2h68v-6H0v6Z" class="prefix__st8" id="prefix__shape6258-472"/><path d="M0 3087v-5.6h2.8v5.6H0Zm68 0v-5.6h-2.8v5.6H68Z" class="prefix__st5" id="prefix__shape6262-480"/><path d="M0 3084.2h2.8v2.8H0v-2.8Zm62.4 0h-2.9v2.8h2.9v-2.8Z" class="prefix__st5" transform="translate(2.8 -2.8)" id="prefix__shape6263-482"/><path d="M0 3087h56.7" class="prefix__st3" transform="translate(5.7 -4.3)" id="prefix__shape6264-484"/><g id="prefix__shape6265-487"><path d="M0 3087v-5.6M68 3087v-5.6" class="prefix__st3"/></g><path d="M0 3085.6h1.4v1.4H0v-1.4Zm62.4 0h-1.5v1.4h1.5v-1.4Z" class="prefix__st5" transform="translate(2.8 -1.4)" id="prefix__shape6266-491"/></g><g id="prefix__group6312-495" transform="rotate(180 332.4 2417.2)"><path d="M0 3087.2h56.7v-6H0v6Z" class="prefix__st8" id="prefix__shape6313-496"/><path d="M0 3087v-5.6h2.8v5.6H0Zm56.7 0v-5.6h-2.8v5.6h2.8Z" class="prefix__st5" id="prefix__shape6317-504"/><path d="M0 3084.2h2.8v2.8H0v-2.8Zm51 0h-2.8v2.8H51v-2.8Z" class="prefix__st5" transform="translate(2.8 -2.8)" id="prefix__shape6318-506"/><path d="M0 3087h45.4" class="prefix__st3" transform="translate(5.7 -4.3)" id="prefix__shape6319-508"/><g id="prefix__shape6320-511"><path d="M0 3087v-5.6M56.7 3087v-5.6" class="prefix__st3"/></g><path d="M0 3085.6h1.4v1.4H0v-1.4Zm51 0h-1.4v1.4H51v-1.4Z" class="prefix__st5" transform="translate(2.8 -1.4)" id="prefix__shape6321-515"/></g><g id="prefix__group6177-519" transform="rotate(90 1093.2 2662.3)"><path d="M-2.8 3087.2h99v-8.8h-99v8.8Z" class="prefix__st8" id="prefix__shape6178-520"/><path d="M99 3087v-8.5H96v8.5H99Zm-99 0v-8.5h2.8v8.5H0Z" class="prefix__st5" transform="translate(-2.8)" id="prefix__shape6181-526"/><g id="prefix__shape6182-528"><path d="M99 3087v-8.5M0 3087v-8.5" class="prefix__st3" transform="translate(-2.8)"/></g></g><g id="prefix__group6185-536" transform="rotate(90 1170.8 2584.7)"><path d="M-2.8 3087.2h99v-8.8h-99v8.8Z" class="prefix__st8" id="prefix__shape6186-537"/><path d="M99 3087v-8.5H96v8.5H99Zm-99 0v-8.5h2.8v8.5H0Z" class="prefix__st5" transform="translate(-2.8)" id="prefix__shape6189-543"/><g id="prefix__shape6190-545"><path d="M99 3087v-8.5M0 3087v-8.5" class="prefix__st3" transform="translate(-2.8)"/></g></g><g id="prefix__group5149-553" transform="translate(489 -1042.8)"><path d="M-11.3 3075.7h192v11.3H0l-11.3-11.3Z" class="prefix__st1" id="prefix__shape5150-554"/><path class="prefix__st4" id="prefix__shape5152-559" transform="rotate(90 96 3171.7)" d="M0 3085.9H11.3V3087H0z"/><g id="prefix__shape5154-563"><path d="M-11.3 3075.7h192M0 3087h180.7" class="prefix__st3"/></g></g><g id="prefix__group6161-569" transform="rotate(-180 316 2560)"><path d="M-2.8 3087.2h116.2v-11.6H-2.8v11.6Z" class="prefix__st8" id="prefix__shape6162-570"/><path d="M116.3 3087v-11.3h-2.9v11.3h2.8ZM0 3087v-11.3h2.8v11.3H0Z" class="prefix__st5" transform="translate(-2.8)" id="prefix__shape6165-576"/><g id="prefix__shape6166-578"><path d="M116.3 3087v-11.3M0 3087v-11.3" class="prefix__st3" transform="translate(-2.8)"/></g></g><g id="prefix__group5079-586" transform="translate(489.1 -2046.3)"><path d="M0 3075.7h181v11.3H-11.3L0 3075.7Z" class="prefix__st1" id="prefix__shape5080-587"/><path class="prefix__st4" id="prefix__shape5082-592" transform="rotate(90 96.2 3171.9)" d="M0 3085.9H11.3V3087H0z"/><g id="prefix__shape5084-596"><path d="M0 3075.7h181M-11.3 3087H181" class="prefix__st3"/></g></g><g id="prefix__group6169-602" transform="rotate(-180 311.7 2058.2)"><path d="M-2.8 3087.2h110.5v-11.6H-2.8v11.6Z" class="prefix__st8" id="prefix__shape6170-603"/><path d="M110.5 3087v-11.3h-2.8v11.3h2.8ZM0 3087v-11.3h2.8v11.3H0Z" class="prefix__st5" transform="translate(-2.8)" id="prefix__shape6173-609"/><g id="prefix__shape6174-611"><path d="M110.5 3087v-11.3M0 3087v-11.3" class="prefix__st3" transform="translate(-2.8)"/></g></g><g id="prefix__group6222-619" transform="rotate(-180 334.3 2461.8)"><path d="M0 3081.4h72.4l-5.7 5.6H0v-5.6Z" class="prefix__st1" id="prefix__shape6223-620"/><path class="prefix__st4" id="prefix__shape6224-623" transform="rotate(-90 0 3087)" d="M0 3086.5H5.7V3087.1H0z"/><g id="prefix__shape6227-629"><path d="M0 3081.4h72.4M0 3087h66.7" class="prefix__st3"/></g></g><g id="prefix__group6301-635" transform="rotate(-180 332.1 2461.8)"><path d="M0 3087.2h56.7v-6H0v6Z" class="prefix__st8" id="prefix__shape6302-636"/><path d="M0 3087v-5.6h2.8v5.6H0Zm56.7 0v-5.6h-2.8v5.6h2.8Z" class="prefix__st5" id="prefix__shape6306-644"/><path d="M0 3084.2h2.8v2.8H0v-2.8Zm51 0h-2.8v2.8H51v-2.8Z" class="prefix__st5" transform="translate(2.8 -2.8)" id="prefix__shape6307-646"/><path d="M0 3087h45.4" class="prefix__st3" transform="translate(5.7 -4.3)" id="prefix__shape6308-648"/><g id="prefix__shape6309-651"><path d="M0 3087v-5.6M56.7 3087v-5.6" class="prefix__st3"/></g><path d="M0 3085.6h1.4v1.4H0v-1.4Zm51 0h-1.4v1.4H51v-1.4Z" class="prefix__st5" transform="translate(2.8 -1.4)" id="prefix__shape6310-655"/></g><g id="prefix__group5815-659" transform="rotate(180 214.2 2742.8)"><path d="M-2.8 3087.2h56.7v-6H-2.8v6Z" class="prefix__st8" id="prefix__shape5816-660"/><path d="M56.7 3087v-5.6h-2.8v5.6h2.8ZM0 3087v-5.6h2.8v5.6H0Z" class="prefix__st5" transform="translate(-2.8)" id="prefix__shape5819-666"/><g id="prefix__shape5820-668"><path d="M56.7 3087v-5.6M0 3087v-5.6" class="prefix__st3" transform="translate(-2.8)"/></g></g><g id="prefix__group6145-676" transform="rotate(-90 -1019.2 1810)"><path d="M-2.8 3087.2h56.7v-6H-2.8v6Z" class="prefix__st8" id="prefix__shape6146-677"/><path d="M56.7 3087v-5.6h-2.8v5.6h2.8ZM0 3087v-5.6h2.8v5.6H0Z" class="prefix__st5" transform="translate(-2.8)" id="prefix__shape6149-683"/><g id="prefix__shape6150-685"><path d="M56.7 3087v-5.6M0 3087v-5.6" class="prefix__st3" transform="translate(-2.8)"/></g></g><g id="prefix__group6105-693" transform="rotate(90 835.1 2592.5)"><path d="M-2.8 3087.2h56.7v-11.6H-2.8v11.6Z" class="prefix__st8" id="prefix__shape6106-694"/><path d="M56.7 3087v-11.3h-2.8v11.3h2.8ZM0 3087v-11.3h2.8v11.3H0Z" class="prefix__st5" transform="translate(-2.8)" id="prefix__shape6109-700"/><g id="prefix__shape6110-702"><path d="M56.7 3087v-11.3M0 3087v-11.3" class="prefix__st3" transform="translate(-2.8)"/></g></g><g id="prefix__group6113-710" transform="rotate(90 690.5 2737)"><path d="M-2.8 3087.2h56.7v-11.6H-2.8v11.6Z" class="prefix__st8" id="prefix__shape6114-711"/><path d="M56.7 3087v-11.3h-2.8v11.3h2.8ZM0 3087v-11.3h2.8v11.3H0Z" class="prefix__st5" transform="translate(-2.8)" id="prefix__shape6117-717"/><g id="prefix__shape6118-719"><path d="M56.7 3087v-11.3M0 3087v-11.3" class="prefix__st3" transform="translate(-2.8)"/></g></g><g id="prefix__group6153-727" transform="rotate(180 226.8 1883.9)"><path d="M-2.8 3087.2h56.7v-6H-2.8v6Z" class="prefix__st8" id="prefix__shape6154-728"/><path d="M56.7 3087v-5.6h-2.8v5.6h2.8ZM0 3087v-5.6h2.8v5.6H0Z" class="prefix__st5" transform="translate(-2.8)" id="prefix__shape6157-734"/><g id="prefix__shape6158-736"><path d="M56.7 3087v-5.6M0 3087v-5.6" class="prefix__st3" transform="translate(-2.8)"/></g></g><g id="prefix__group6081-744" transform="rotate(90 490.7 3084.3)"><path d="M-2.8 3087.2h56.7v-6H-2.8v6Z" class="prefix__st8" id="prefix__shape6082-745"/><path d="M56.7 3087v-5.6h-2.8v5.6h2.8ZM0 3087v-5.6h2.8v5.6H0Z" class="prefix__st5" transform="translate(-2.8)" id="prefix__shape6085-751"/><g id="prefix__shape6086-753"><path d="M56.7 3087v-5.6M0 3087v-5.6" class="prefix__st3" transform="translate(-2.8)"/></g></g><g id="prefix__group6137-761" transform="rotate(-90 -802.1 1933)"><path d="M-2.8 3087.2h56.7v-11.6H-2.8v11.6Z" class="prefix__st8" id="prefix__shape6138-762"/><path d="M56.7 3087v-11.3h-2.8v11.3h2.8ZM0 3087v-11.3h2.8v11.3H0Z" class="prefix__st5" transform="translate(-2.8)" id="prefix__shape6141-768"/><g id="prefix__shape6142-770"><path d="M56.7 3087v-11.3M0 3087v-11.3" class="prefix__st3" transform="translate(-2.8)"/></g></g><g id="prefix__group5957-778" transform="rotate(180 161.8 1883.9)"><path d="M-2.8 3087.2h56.7v-6H-2.8v6Z" class="prefix__st8" id="prefix__shape5958-779"/><path d="M56.7 3087v-5.6h-2.8v5.6h2.8ZM0 3087v-5.6h2.8v5.6H0Z" class="prefix__st5" transform="translate(-2.8)" id="prefix__shape5961-785"/><g id="prefix__shape5962-787"><path d="M56.7 3087v-5.6M0 3087v-5.6" class="prefix__st3" transform="translate(-2.8)"/></g></g><g id="prefix__group5807-795" transform="rotate(90 1337.3 2090.3)"><path d="M-2.8 3087.2h56.7v-11.6H-2.8v11.6Z" class="prefix__st8" id="prefix__shape5808-796"/><path d="M56.7 3087v-11.3h-2.8v11.3h2.8ZM0 3087v-11.3h2.8v11.3H0Z" class="prefix__st5" transform="translate(-2.8)" id="prefix__shape5811-802"/><g id="prefix__shape5812-804"><path d="M56.7 3087v-11.3M0 3087v-11.3" class="prefix__st3" transform="translate(-2.8)"/></g></g><g id="prefix__group6065-812" transform="rotate(90 234.8 3192.8)"><path d="M-2.8 3087.2h56.7v-11.6H-2.8v11.6Z" class="prefix__st8" id="prefix__shape6066-813"/><path d="M56.7 3087v-11.3h-2.8v11.3h2.8ZM0 3087v-11.3h2.8v11.3H0Z" class="prefix__st5" transform="translate(-2.8)" id="prefix__shape6069-819"/><g id="prefix__shape6070-821"><path d="M56.7 3087v-11.3M0 3087v-11.3" class="prefix__st3" transform="translate(-2.8)"/></g></g><g id="prefix__group6073-829" transform="rotate(90 377.5 3197.5)"><path d="M-2.8 3087.2h56.7v-6H-2.8v6Z" class="prefix__st8" id="prefix__shape6074-830"/><path d="M56.7 3087v-5.6h-2.8v5.6h2.8ZM0 3087v-5.6h2.8v5.6H0Z" class="prefix__st5" transform="translate(-2.8)" id="prefix__shape6077-836"/><g id="prefix__shape6078-838"><path d="M56.7 3087v-5.6M0 3087v-5.6" class="prefix__st3" transform="translate(-2.8)"/></g></g><g id="prefix__group6012-846" transform="rotate(-90 -858.8 1876.3)"><path d="M-2.8 3087.2h56.7v-11.6H-2.8v11.6Z" class="prefix__st8" id="prefix__shape6013-847"/><path d="M56.7 3087v-11.3h-2.8v11.3h2.8ZM0 3087v-11.3h2.8v11.3H0Z" class="prefix__st5" transform="translate(-2.8)" id="prefix__shape6016-853"/><g id="prefix__shape6017-855"><path d="M56.7 3087v-11.3M0 3087v-11.3" class="prefix__st3" transform="translate(-2.8)"/></g></g><g id="prefix__group5727-863" transform="rotate(179.9 222.2 3067)"><path d="M-2.8 3087.2h56.7v-8.8H-2.8v8.8Z" class="prefix__st8" id="prefix__shape5728-864"/><path d="M56.7 3087v-8.5h-2.8v8.5h2.8ZM0 3087v-8.5h2.8v8.5H0Z" class="prefix__st5" transform="translate(-2.8)" id="prefix__shape5731-870"/><g id="prefix__shape5732-872"><path d="M56.7 3087v-8.5M0 3087v-8.5" class="prefix__st3" transform="translate(-2.8)"/></g></g><g id="prefix__group5735-880" transform="rotate(-90 -912 1924.5)"><path d="M-2.8 3087.2h56.7v-6H-2.8v6Z" class="prefix__st8" id="prefix__shape5736-881"/><path d="M56.7 3087v-5.6h-2.8v5.6h2.8ZM0 3087v-5.6h2.8v5.6H0Z" class="prefix__st5" transform="translate(-2.8)" id="prefix__shape5739-887"/><g id="prefix__shape5740-889"><path d="M56.7 3087v-5.6M0 3087v-5.6" class="prefix__st3" transform="translate(-2.8)"/></g></g><g id="prefix__group6121-897" transform="rotate(90 945.6 2482)"><path d="M-2.8 3087.2h56.7v-11.6H-2.8v11.6Z" class="prefix__st8" id="prefix__shape6122-898"/><path d="M56.7 3087v-11.3h-2.8v11.3h2.8ZM0 3087v-11.3h2.8v11.3H0Z" class="prefix__st5" transform="translate(-2.8)" id="prefix__shape6125-904"/><g id="prefix__shape6126-906"><path d="M56.7 3087v-11.3M0 3087v-11.3" class="prefix__st3" transform="translate(-2.8)"/></g></g><g id="prefix__group5324-914" transform="rotate(-90 -848.2 1988.4)"><path d="M-2.8 3087.2h56.7v-6H-2.8v6Z" class="prefix__st8" id="prefix__shape5325-915"/><path d="M56.7 3087v-5.6h-2.8v5.6h2.8ZM0 3087v-5.6h2.8v5.6H0Z" class="prefix__st5" transform="translate(-2.8)" id="prefix__shape5328-921"/><g id="prefix__shape5329-923"><path d="M56.7 3087v-5.6M0 3087v-5.6" class="prefix__st3" transform="translate(-2.8)"/></g></g><g id="prefix__group6089-931" transform="rotate(90 566.6 2861)"><path d="M-2.8 3087.2h56.7v-11.6H-2.8v11.6Z" class="prefix__st8" id="prefix__shape6090-932"/><path d="M56.7 3087v-11.3h-2.8v11.3h2.8ZM0 3087v-11.3h2.8v11.3H0Z" class="prefix__st5" transform="translate(-2.8)" id="prefix__shape6093-938"/><g id="prefix__shape6094-940"><path d="M56.7 3087v-11.3M0 3087v-11.3" class="prefix__st3" transform="translate(-2.8)"/></g></g><g id="prefix__group5191-948" transform="translate(493.8 -359.7)"><path d="M0 3081.4h174.9v5.6H0v-5.6Z" class="prefix__st1" id="prefix__shape5192-949"/><path class="prefix__st4" id="prefix__shape5193-952" transform="rotate(-90 0 3087)" d="M0 3086.5H5.7V3087.1H0z"/><path class="prefix__st4" id="prefix__shape5194-954" transform="rotate(90 90.3 3171.6)" d="M0 3086.5H5.7V3087.1H0z"/><g id="prefix__shape5196-958"><path d="M0 3081.4h174.9M0 3087h174.9" class="prefix__st3"/></g></g><g id="prefix__group5184-964" transform="translate(494.7 -519)"><path d="M0 3081.4h175v5.6H0v-5.6Z" class="prefix__st1" id="prefix__shape5185-965"/><path class="prefix__st4" id="prefix__shape5186-968" transform="rotate(-90 0 3087)" d="M0 3086.5H5.7V3087.1H0z"/><path class="prefix__st4" id="prefix__shape5187-970" transform="rotate(90 90.3 3171.7)" d="M0 3086.5H5.7V3087.1H0z"/><g id="prefix__shape5189-974"><path d="M0 3081.4h175M0 3087h175" class="prefix__st3"/></g></g><g id="prefix__group6020-980" transform="rotate(-180 280.5 2824.7)"><path d="M-2.8 3087.2h56.7v-6H-2.8v6Z" class="prefix__st8" id="prefix__shape6021-981"/><path d="M56.7 3087v-5.6h-2.8v5.6h2.8ZM0 3087v-5.6h2.8v5.6H0Z" class="prefix__st5" transform="translate(-2.8)" id="prefix__shape6024-987"/><g id="prefix__shape6025-989"><path d="M56.7 3087v-5.6M0 3087v-5.6" class="prefix__st3" transform="translate(-2.8)"/></g></g><g id="prefix__group6333-997" transform="rotate(-90 -635.5 2099.7)"><path d="M0 3087.2h69.5v-11.6H0v11.6Z" class="prefix__st8" id="prefix__shape6334-998"/><path d="M0 3087v-11.3h2.8v11.3H0Zm69.5 0v-11.3h-2.9v11.3h2.9Z" class="prefix__st5" id="prefix__shape6338-1006"/><path d="M0 3084.2h2.8v2.8H0v-2.8Zm63.8 0h-2.9v2.8h2.9v-2.8Z" class="prefix__st5" transform="translate(2.8 -5.7)" id="prefix__shape6339-1008"/><path d="M0 3087h58.1" class="prefix__st3" transform="translate(5.7 -7)" id="prefix__shape6340-1010"/><g id="prefix__shape6341-1013"><path d="M0 3087v-11.3M69.5 3087v-11.3" class="prefix__st3"/></g><path d="M0 3085.6h1.4v1.4H0v-1.4Zm63.8 0h-1.4v1.4h1.4v-1.4Z" class="prefix__st5" transform="translate(2.8 -4.3)" id="prefix__shape6342-1017"/></g><g id="prefix__group6344-1021" transform="rotate(-90 -689.3 2045.8)"><path d="M0 3087.2h69.5v-11.6H0v11.6Z" class="prefix__st8" id="prefix__shape6345-1022"/><path d="M0 3087v-11.3h2.8v11.3H0Zm69.5 0v-11.3h-2.9v11.3h2.9Z" class="prefix__st5" id="prefix__shape6349-1030"/><path d="M0 3084.2h2.8v2.8H0v-2.8Zm63.8 0h-2.9v2.8h2.9v-2.8Z" class="prefix__st5" transform="translate(2.8 -5.7)" id="prefix__shape6350-1032"/><path d="M0 3087h58.1" class="prefix__st3" transform="translate(5.7 -7)" id="prefix__shape6351-1034"/><g id="prefix__shape6352-1037"><path d="M0 3087v-11.3M69.5 3087v-11.3" class="prefix__st3"/></g><path d="M0 3085.6h1.4v1.4H0v-1.4Zm63.8 0h-1.4v1.4h1.4v-1.4Z" class="prefix__st5" transform="translate(2.8 -4.3)" id="prefix__shape6353-1041"/></g></svg>