<?xml version="1.0" encoding="UTF-8"?>
<svg xmlns="http://www.w3.org/2000/svg" xmlns:xlink="http://www.w3.org/1999/xlink" width="px" height="px" viewBox="0 0 235 1027" version="1.1">
<g id="surface1">
<path style=" stroke:none;fill-rule:evenodd;fill:rgb(70.196078%,70.196078%,70.196078%);fill-opacity:1;" d="M 8.664062 1018.28125 L 8.664062 8.65625 L 11.5 11.496094 L 11.5 1015.449219 Z M 8.664062 1018.28125 "/>
<path style="fill:none;stroke-width:0.24;stroke-linecap:round;stroke-linejoin:round;stroke:rgb(0%,0%,0%);stroke-opacity:1;stroke-miterlimit:3;" d="M -8.495484 3070.825536 L 3018.904893 3070.825536 M -0.00352691 3079.324298 L 3010.38951 3079.324298 " transform="matrix(0.00000000000000002,-0.333496,0.333688,0.00000000000000002,-1016.034554,1015.448043)"/>
<path style=" stroke:none;fill-rule:evenodd;fill:rgb(70.196078%,70.196078%,70.196078%);fill-opacity:1;" d="M 8.664062 8.65625 L 226.21875 8.65625 L 223.382812 11.496094 L 11.503906 11.496094 Z M 8.664062 8.65625 "/>
<path style="fill:none;stroke-width:0.24;stroke-linecap:round;stroke-linejoin:round;stroke:rgb(0%,0%,0%);stroke-opacity:1;stroke-miterlimit:3;" d="M -8.505464 3070.815107 L 643.464275 3070.815107 M 0.00500416 3079.33049 L 634.965514 3079.33049 " transform="matrix(0.333688,0,0,0.333496,11.502236,-1015.447376)"/>
<path style=" stroke:none;fill-rule:evenodd;fill:rgb(70.196078%,70.196078%,70.196078%);fill-opacity:1;" d="M 226.21875 8.660156 L 226.21875 1018.285156 L 223.382812 1015.449219 L 223.382812 11.496094 Z M 226.21875 8.660156 "/>
<path style="fill:none;stroke-width:0.24;stroke-linecap:round;stroke-linejoin:round;stroke:rgb(0%,0%,0%);stroke-opacity:1;stroke-miterlimit:3;" d="M -8.50318 3070.825725 L 3018.897197 3070.825725 M 0.000490461 3079.324486 L 3010.393527 3079.324486 " transform="matrix(0.00000000000000002,0.333496,-0.333688,0.00000000000000002,1250.91743,11.49593)"/>
<path style=" stroke:none;fill-rule:evenodd;fill:rgb(70.196078%,70.196078%,70.196078%);fill-opacity:1;" d="M 226.21875 1018.285156 L 8.664062 1018.285156 L 11.503906 1015.449219 L 223.382812 1015.449219 Z M 226.21875 1018.285156 "/>
<path style="fill:none;stroke-width:0.24;stroke-linecap:round;stroke-linejoin:round;stroke:rgb(0%,0%,0%);stroke-opacity:1;stroke-miterlimit:3;" d="M -8.504275 3070.822803 L 643.465464 3070.822803 M -0.00551363 3079.326473 L 634.954996 3079.326473 " transform="matrix(-0.333688,-0.000000000000000041,0.000000000000000041,-0.333496,223.380973,2042.391348)"/>
<path style=" stroke:none;fill-rule:evenodd;fill:rgb(70.196078%,70.196078%,70.196078%);fill-opacity:1;" d="M 159.066406 348.035156 L 159.265625 228.921875 L 163.046875 228.921875 L 162.855469 344.253906 Z M 159.066406 348.035156 "/>
<path style=" stroke:none;fill-rule:evenodd;fill:rgb(70.196078%,70.196078%,70.196078%);fill-opacity:1;" d="M 159.265625 228.542969 L 163.050781 228.542969 L 163.050781 228.921875 L 159.265625 228.921875 Z M 159.265625 228.542969 "/>
<path style="fill:none;stroke-width:0.24;stroke-linecap:round;stroke-linejoin:round;stroke:rgb(0%,0%,0%);stroke-opacity:1;stroke-miterlimit:3;" d="M -0.0189264 3067.989417 L 357.147444 3067.994234 M 11.338113 3079.325697 L 357.166232 3079.325901 " transform="matrix(0.000553276,-0.333495,0.333688,0.000552957,-864.684413,346.33238)"/>
<path style=" stroke:none;fill-rule:evenodd;fill:rgb(70.196078%,70.196078%,70.196078%);fill-opacity:1;" d="M 159.058594 799.910156 L 159.058594 678.90625 L 162.84375 682.6875 L 162.84375 799.910156 Z M 159.058594 799.910156 "/>
<path style=" stroke:none;fill-rule:evenodd;fill:rgb(70.196078%,70.196078%,70.196078%);fill-opacity:1;" d="M 162.84375 800.289062 L 159.058594 800.289062 L 159.058594 799.910156 L 162.84375 799.910156 Z M 162.84375 800.289062 "/>
<path style="fill:none;stroke-width:0.24;stroke-linecap:round;stroke-linejoin:round;stroke:rgb(0%,0%,0%);stroke-opacity:1;stroke-miterlimit:3;" d="M 5.668852 3067.988147 L 368.503837 3067.988147 M 5.668852 3079.331536 L 357.165609 3079.331536 " transform="matrix(0.00000000000000002,-0.333496,0.333688,0.00000000000000002,-864.69322,801.800694)"/>
<path style="fill-rule:evenodd;fill:rgb(100%,100%,100%);fill-opacity:1;stroke-width:0.24;stroke-linecap:round;stroke-linejoin:round;stroke:rgb(0%,0%,0%);stroke-opacity:1;stroke-miterlimit:3;" d="M 0.00366576 2999.958377 L 14.164737 2999.958377 L 14.164737 3079.326977 L 0.00366576 3079.326977 Z M 14.164737 2999.958377 L 28.349234 2999.958377 L 28.349234 3079.326977 L 14.164737 3079.326977 Z M 28.349234 2999.958377 L 42.522018 2999.958377 L 42.522018 3079.326977 L 28.349234 3079.326977 Z M 42.522018 2999.958377 L 56.694802 2999.958377 L 56.694802 3079.326977 L 42.522018 3079.326977 Z M 56.694802 2999.958377 L 70.867586 2999.958377 L 70.867586 3079.326977 L 56.694802 3079.326977 Z M 70.867586 2999.958377 L 85.04037 2999.958377 L 85.04037 3079.326977 L 70.867586 3079.326977 Z M 85.04037 2999.958377 L 99.213154 2999.958377 L 99.213154 3079.326977 L 85.04037 3079.326977 Z M 99.213154 2999.958377 L 113.385938 2999.958377 L 113.385938 3079.326977 L 99.213154 3079.326977 Z M 99.213154 2999.958377 " transform="matrix(0.00000000000000002,-0.333496,0.333688,0.00000000000000002,-836.316699,326.294191)"/>
<path style="fill-rule:evenodd;fill:rgb(100%,100%,100%);fill-opacity:1;stroke-width:0.24;stroke-linecap:round;stroke-linejoin:round;stroke:rgb(0%,0%,0%);stroke-opacity:1;stroke-miterlimit:3;" d="M -0.0000618458 2999.958377 L 14.172722 2999.958377 L 14.172722 3079.326977 L -0.0000618458 3079.326977 Z M 14.172722 2999.958377 L 28.345506 2999.958377 L 28.345506 3079.326977 L 14.172722 3079.326977 Z M 28.345506 2999.958377 L 42.51829 2999.958377 L 42.51829 3079.326977 L 28.345506 3079.326977 Z M 42.51829 2999.958377 L 56.691074 2999.958377 L 56.691074 3079.326977 L 42.51829 3079.326977 Z M 56.691074 2999.958377 L 70.875571 2999.958377 L 70.875571 3079.326977 L 56.691074 3079.326977 Z M 70.875571 2999.958377 L 85.036642 2999.958377 L 85.036642 3079.326977 L 70.875571 3079.326977 Z M 85.036642 2999.958377 L 99.209427 2999.958377 L 99.209427 3079.326977 L 85.036642 3079.326977 Z M 99.209427 2999.958377 L 113.393924 2999.958377 L 113.393924 3079.326977 L 99.209427 3079.326977 Z M 99.209427 2999.958377 " transform="matrix(0.00000000000000002,-0.333496,0.333688,0.00000000000000002,-836.316699,288.480448)"/>
<path style="fill-rule:evenodd;fill:rgb(100%,100%,100%);fill-opacity:1;stroke-width:0.24;stroke-linecap:round;stroke-linejoin:round;stroke:rgb(0%,0%,0%);stroke-opacity:1;stroke-miterlimit:3;" d="M 0.00466576 2999.959366 L 14.165737 2999.959366 L 14.165737 3079.327966 L 0.00466576 3079.327966 Z M 14.165737 2999.959366 L 28.350234 2999.959366 L 28.350234 3079.327966 L 14.165737 3079.327966 Z M 28.350234 2999.959366 L 42.523018 2999.959366 L 42.523018 3079.327966 L 28.350234 3079.327966 Z M 42.523018 2999.959366 L 56.695802 2999.959366 L 56.695802 3079.327966 L 42.523018 3079.327966 Z M 56.695802 2999.959366 L 70.868586 2999.959366 L 70.868586 3079.327966 L 56.695802 3079.327966 Z M 70.868586 2999.959366 L 85.04137 2999.959366 L 85.04137 3079.327966 L 70.868586 3079.327966 Z M 85.04137 2999.959366 L 99.214154 2999.959366 L 99.214154 3079.327966 L 85.04137 3079.327966 Z M 99.214154 2999.959366 L 113.386938 2999.959366 L 113.386938 3079.327966 L 99.214154 3079.327966 Z M 99.214154 2999.959366 " transform="matrix(0.00000000000000002,-0.333496,0.333688,0.00000000000000002,-806.047497,326.294525)"/>
<path style="fill-rule:evenodd;fill:rgb(100%,100%,100%);fill-opacity:1;stroke-width:0.24;stroke-linecap:round;stroke-linejoin:round;stroke:rgb(0%,0%,0%);stroke-opacity:1;stroke-miterlimit:3;" d="M 0.000938154 2999.959366 L 14.173722 2999.959366 L 14.173722 3079.327966 L 0.000938154 3079.327966 Z M 14.173722 2999.959366 L 28.346506 2999.959366 L 28.346506 3079.327966 L 14.173722 3079.327966 Z M 28.346506 2999.959366 L 42.51929 2999.959366 L 42.51929 3079.327966 L 28.346506 3079.327966 Z M 42.51929 2999.959366 L 56.692074 2999.959366 L 56.692074 3079.327966 L 42.51929 3079.327966 Z M 56.692074 2999.959366 L 70.864858 2999.959366 L 70.864858 3079.327966 L 56.692074 3079.327966 Z M 70.864858 2999.959366 L 85.037642 2999.959366 L 85.037642 3079.327966 L 70.864858 3079.327966 Z M 85.037642 2999.959366 L 99.210427 2999.959366 L 99.210427 3079.327966 L 85.037642 3079.327966 Z M 99.210427 2999.959366 L 113.394924 2999.959366 L 113.394924 3079.327966 L 99.210427 3079.327966 Z M 99.210427 2999.959366 " transform="matrix(0.00000000000000002,-0.333496,0.333688,0.00000000000000002,-806.047497,288.480782)"/>
<path style="fill-rule:evenodd;fill:rgb(100%,100%,100%);fill-opacity:1;stroke-width:0.24;stroke-linecap:round;stroke-linejoin:round;stroke:rgb(0%,0%,0%);stroke-opacity:1;stroke-miterlimit:3;" d="M -0.00456878 2999.957377 L 14.168215 2999.957377 L 14.168215 3079.325977 L -0.00456878 3079.325977 Z M 14.168215 2999.957377 L 28.352712 2999.957377 L 28.352712 3079.325977 L 14.168215 3079.325977 Z M 28.352712 2999.957377 L 42.525496 2999.957377 L 42.525496 3079.325977 L 28.352712 3079.325977 Z M 42.525496 2999.957377 L 56.686567 2999.957377 L 56.686567 3079.325977 L 42.525496 3079.325977 Z M 56.686567 2999.957377 L 70.871065 2999.957377 L 70.871065 3079.325977 L 56.686567 3079.325977 Z M 70.871065 2999.957377 L 85.043849 2999.957377 L 85.043849 3079.325977 L 70.871065 3079.325977 Z M 85.043849 2999.957377 L 99.20492 2999.957377 L 99.20492 3079.325977 L 85.043849 3079.325977 Z M 99.20492 2999.957377 L 113.389417 2999.957377 L 113.389417 3079.325977 L 99.20492 3079.325977 Z M 99.20492 2999.957377 " transform="matrix(0.00000000000000002,-0.333496,0.333688,0.00000000000000002,-836.316365,781.947695)"/>
<path style="fill-rule:evenodd;fill:rgb(100%,100%,100%);fill-opacity:1;stroke-width:0.24;stroke-linecap:round;stroke-linejoin:round;stroke:rgb(0%,0%,0%);stroke-opacity:1;stroke-miterlimit:3;" d="M 0.00341666 2999.957377 L 14.164488 2999.957377 L 14.164488 3079.325977 L 0.00341666 3079.325977 Z M 14.164488 2999.957377 L 28.348985 2999.957377 L 28.348985 3079.325977 L 14.164488 3079.325977 Z M 28.348985 2999.957377 L 42.521769 2999.957377 L 42.521769 3079.325977 L 28.348985 3079.325977 Z M 42.521769 2999.957377 L 56.694553 2999.957377 L 56.694553 3079.325977 L 42.521769 3079.325977 Z M 56.694553 2999.957377 L 70.867337 2999.957377 L 70.867337 3079.325977 L 56.694553 3079.325977 Z M 70.867337 2999.957377 L 85.040121 2999.957377 L 85.040121 3079.325977 L 70.867337 3079.325977 Z M 85.040121 2999.957377 L 99.212905 2999.957377 L 99.212905 3079.325977 L 85.040121 3079.325977 Z M 99.212905 2999.957377 L 113.385689 2999.957377 L 113.385689 3079.325977 L 99.212905 3079.325977 Z M 99.212905 2999.957377 " transform="matrix(0.00000000000000002,-0.333496,0.333688,0.00000000000000002,-836.316365,744.133952)"/>
<path style="fill-rule:evenodd;fill:rgb(100%,100%,100%);fill-opacity:1;stroke-width:0.24;stroke-linecap:round;stroke-linejoin:round;stroke:rgb(0%,0%,0%);stroke-opacity:1;stroke-miterlimit:3;" d="M -0.00456878 2999.959366 L 14.168215 2999.959366 L 14.168215 3079.327966 L -0.00456878 3079.327966 Z M 14.168215 2999.959366 L 28.352712 2999.959366 L 28.352712 3079.327966 L 14.168215 3079.327966 Z M 28.352712 2999.959366 L 42.525496 2999.959366 L 42.525496 3079.327966 L 28.352712 3079.327966 Z M 42.525496 2999.959366 L 56.686567 2999.959366 L 56.686567 3079.327966 L 42.525496 3079.327966 Z M 56.686567 2999.959366 L 70.871065 2999.959366 L 70.871065 3079.327966 L 56.686567 3079.327966 Z M 70.871065 2999.959366 L 85.043849 2999.959366 L 85.043849 3079.327966 L 70.871065 3079.327966 Z M 85.043849 2999.959366 L 99.20492 2999.959366 L 99.20492 3079.327966 L 85.043849 3079.327966 Z M 99.20492 2999.959366 L 113.389417 2999.959366 L 113.389417 3079.327966 L 99.20492 3079.327966 Z M 99.20492 2999.959366 " transform="matrix(0.00000000000000002,-0.333496,0.333688,0.00000000000000002,-806.047497,781.947695)"/>
<path style="fill-rule:evenodd;fill:rgb(100%,100%,100%);fill-opacity:1;stroke-width:0.24;stroke-linecap:round;stroke-linejoin:round;stroke:rgb(0%,0%,0%);stroke-opacity:1;stroke-miterlimit:3;" d="M 0.00341666 2999.959366 L 14.164488 2999.959366 L 14.164488 3079.327966 L 0.00341666 3079.327966 Z M 14.164488 2999.959366 L 28.348985 2999.959366 L 28.348985 3079.327966 L 14.164488 3079.327966 Z M 28.348985 2999.959366 L 42.521769 2999.959366 L 42.521769 3079.327966 L 28.348985 3079.327966 Z M 42.521769 2999.959366 L 56.694553 2999.959366 L 56.694553 3079.327966 L 42.521769 3079.327966 Z M 56.694553 2999.959366 L 70.867337 2999.959366 L 70.867337 3079.327966 L 56.694553 3079.327966 Z M 70.867337 2999.959366 L 85.040121 2999.959366 L 85.040121 3079.327966 L 70.867337 3079.327966 Z M 85.040121 2999.959366 L 99.212905 2999.959366 L 99.212905 3079.327966 L 85.040121 3079.327966 Z M 99.212905 2999.959366 L 113.385689 2999.959366 L 113.385689 3079.327966 L 99.212905 3079.327966 Z M 99.212905 2999.959366 " transform="matrix(0.00000000000000002,-0.333496,0.333688,0.00000000000000002,-806.047497,744.133952)"/>
<path style=" stroke:none;fill-rule:evenodd;fill:rgb(70.196078%,70.196078%,70.196078%);fill-opacity:1;" d="M 81.6875 344.253906 L 81.6875 287.535156 L 83.578125 287.535156 L 83.578125 344.253906 Z M 81.6875 344.253906 "/>
<path style=" stroke:none;fill-rule:evenodd;fill:rgb(70.196078%,70.196078%,70.196078%);fill-opacity:1;" d="M 83.578125 344.445312 L 81.6875 344.445312 L 81.6875 344.253906 L 83.578125 344.253906 Z M 83.578125 344.445312 "/>
<path style=" stroke:none;fill-rule:evenodd;fill:rgb(70.196078%,70.196078%,70.196078%);fill-opacity:1;" d="M 81.6875 287.34375 L 83.578125 287.34375 L 83.578125 287.53125 L 81.6875 287.53125 Z M 81.6875 287.34375 "/>
<path style="fill:none;stroke-width:0.24;stroke-linecap:round;stroke-linejoin:round;stroke:rgb(0%,0%,0%);stroke-opacity:1;stroke-miterlimit:3;" d="M 5.672086 3073.661795 L 175.745495 3073.661795 M 5.672086 3079.327636 L 175.745495 3079.327636 " transform="matrix(0.00000000000000002,-0.333496,0.333688,0.00000000000000002,-943.957543,346.145523)"/>
<path style=" stroke:none;fill-rule:evenodd;fill:rgb(70.196078%,70.196078%,70.196078%);fill-opacity:1;" d="M 84.144531 285.644531 L 84.144531 228.921875 L 86.039062 228.921875 L 86.039062 285.644531 Z M 84.144531 285.644531 "/>
<path style=" stroke:none;fill-rule:evenodd;fill:rgb(70.196078%,70.196078%,70.196078%);fill-opacity:1;" d="M 86.039062 285.835938 L 84.148438 285.835938 L 84.148438 285.644531 L 86.039062 285.644531 Z M 86.039062 285.835938 "/>
<path style=" stroke:none;fill-rule:evenodd;fill:rgb(70.196078%,70.196078%,70.196078%);fill-opacity:1;" d="M 84.144531 228.734375 L 86.039062 228.734375 L 86.039062 228.921875 L 84.144531 228.921875 Z M 84.144531 228.734375 "/>
<path style="fill:none;stroke-width:0.24;stroke-linecap:round;stroke-linejoin:round;stroke:rgb(0%,0%,0%);stroke-opacity:1;stroke-miterlimit:3;" d="M 5.668609 3073.655047 L 175.75373 3073.655047 M 5.668609 3079.332595 L 175.75373 3079.332595 " transform="matrix(0.00000000000000002,-0.333496,0.333688,0.00000000000000002,-941.498261,287.534988)"/>
<path style=" stroke:none;fill-rule:evenodd;fill:rgb(70.196078%,70.196078%,70.196078%);fill-opacity:1;" d="M 85.28125 794.238281 L 85.28125 722.390625 L 87.171875 722.390625 L 87.171875 794.238281 Z M 85.28125 794.238281 "/>
<path style=" stroke:none;fill-rule:evenodd;fill:rgb(70.196078%,70.196078%,70.196078%);fill-opacity:1;" d="M 87.171875 794.425781 L 85.28125 794.425781 L 85.28125 794.238281 L 87.171875 794.238281 Z M 87.171875 794.425781 "/>
<path style=" stroke:none;fill-rule:evenodd;fill:rgb(70.196078%,70.196078%,70.196078%);fill-opacity:1;" d="M 85.28125 722.203125 L 87.171875 722.203125 L 87.171875 722.390625 L 85.28125 722.390625 Z M 85.28125 722.203125 "/>
<path style="fill:none;stroke-width:0.24;stroke-linecap:round;stroke-linejoin:round;stroke:rgb(0%,0%,0%);stroke-opacity:1;stroke-miterlimit:3;" d="M 5.666193 3073.661576 L 221.104223 3073.661576 M 5.666193 3079.327417 L 221.104223 3079.327417 " transform="matrix(0.00000000000000002,-0.333496,0.333688,0.00000000000000002,-940.36372,796.127932)"/>
<path style=" stroke:none;fill-rule:evenodd;fill:rgb(70.196078%,70.196078%,70.196078%);fill-opacity:1;" d="M 83.578125 312.117188 L 113.65625 312.117188 L 113.65625 314.007812 L 83.578125 314.007812 Z M 83.578125 312.117188 "/>
<path style=" stroke:none;fill-rule:evenodd;fill:rgb(70.196078%,70.196078%,70.196078%);fill-opacity:1;" d="M 83.386719 314.007812 L 83.386719 312.117188 L 83.578125 312.117188 L 83.578125 314.007812 Z M 83.386719 314.007812 "/>
<path style=" stroke:none;fill-rule:evenodd;fill:rgb(70.196078%,70.196078%,70.196078%);fill-opacity:1;" d="M 113.847656 312.117188 L 113.847656 314.007812 L 113.65625 314.007812 L 113.65625 312.117188 Z M 113.847656 312.117188 "/>
<path style="fill:none;stroke-width:0.24;stroke-linecap:round;stroke-linejoin:round;stroke:rgb(0%,0%,0%);stroke-opacity:1;stroke-miterlimit:3;" d="M -0.000363697 3073.664695 L 90.138017 3073.664695 M -0.000363697 3079.333809 L 90.138017 3079.333809 " transform="matrix(0.333688,0,0,0.333496,83.578246,-712.936763)"/>
<path style=" stroke:none;fill-rule:evenodd;fill:rgb(70.196078%,70.196078%,70.196078%);fill-opacity:1;" d="M 162.859375 344.253906 L 223.378906 344.253906 L 223.378906 348.035156 L 159.066406 348.035156 Z M 162.859375 344.253906 "/>
<path style=" stroke:none;fill-rule:evenodd;fill:rgb(70.196078%,70.196078%,70.196078%);fill-opacity:1;" d="M 223.761719 344.253906 L 223.761719 348.035156 L 223.382812 348.035156 L 223.382812 344.253906 Z M 223.761719 344.253906 "/>
<path style="fill:none;stroke-width:0.24;stroke-linecap:round;stroke-linejoin:round;stroke:rgb(0%,0%,0%);stroke-opacity:1;stroke-miterlimit:3;" d="M 0.022361 3067.987914 L 181.387807 3067.987914 M -11.34444 3079.326141 L 181.387807 3079.326141 " transform="matrix(0.333688,0,0,0.333496,162.851913,-678.906862)"/>
<path style=" stroke:none;fill-rule:evenodd;fill:rgb(70.196078%,70.196078%,70.196078%);fill-opacity:1;" d="M 11.5 667.5625 L 113.65625 667.5625 L 113.65625 669.453125 L 11.5 669.453125 Z M 11.5 667.5625 "/>
<path style=" stroke:none;fill-rule:evenodd;fill:rgb(70.196078%,70.196078%,70.196078%);fill-opacity:1;" d="M 11.3125 669.453125 L 11.3125 667.5625 L 11.5 667.5625 L 11.5 669.453125 Z M 11.3125 669.453125 "/>
<path style=" stroke:none;fill-rule:evenodd;fill:rgb(70.196078%,70.196078%,70.196078%);fill-opacity:1;" d="M 113.847656 667.5625 L 113.847656 669.453125 L 113.65625 669.453125 L 113.65625 667.5625 Z M 113.847656 667.5625 "/>
<path style="fill:none;stroke-width:0.24;stroke-linecap:round;stroke-linejoin:round;stroke:rgb(0%,0%,0%);stroke-opacity:1;stroke-miterlimit:3;" d="M -0.00470213 3073.661482 L 306.138017 3073.661482 M -0.00470213 3079.330595 L 306.138017 3079.330595 " transform="matrix(0.333688,0,0,0.333496,11.501569,-357.490379)"/>
<path style=" stroke:none;fill-rule:evenodd;fill:rgb(70.196078%,70.196078%,70.196078%);fill-opacity:1;" d="M 11.5 794.238281 L 113.65625 794.238281 L 113.65625 796.128906 L 11.5 796.128906 Z M 11.5 794.238281 "/>
<path style=" stroke:none;fill-rule:evenodd;fill:rgb(70.196078%,70.196078%,70.196078%);fill-opacity:1;" d="M 11.3125 796.128906 L 11.3125 794.238281 L 11.5 794.238281 L 11.5 796.128906 Z M 11.3125 796.128906 "/>
<path style=" stroke:none;fill-rule:evenodd;fill:rgb(70.196078%,70.196078%,70.196078%);fill-opacity:1;" d="M 113.847656 794.238281 L 113.847656 796.128906 L 113.65625 796.128906 L 113.65625 794.238281 Z M 113.847656 794.238281 "/>
<path style="fill:none;stroke-width:0.24;stroke-linecap:round;stroke-linejoin:round;stroke:rgb(0%,0%,0%);stroke-opacity:1;stroke-miterlimit:3;" d="M -0.00470213 3073.658807 L 306.138017 3073.658807 M -0.00470213 3079.327921 L 306.138017 3079.327921 " transform="matrix(0.333688,0,0,0.333496,11.501569,-230.813706)"/>
<path style=" stroke:none;fill-rule:evenodd;fill:rgb(70.196078%,70.196078%,70.196078%);fill-opacity:1;" d="M 117.441406 799.910156 L 223.378906 799.910156 L 223.378906 801.800781 L 117.441406 801.800781 Z M 117.441406 799.910156 "/>
<path style=" stroke:none;fill-rule:evenodd;fill:rgb(70.196078%,70.196078%,70.196078%);fill-opacity:1;" d="M 117.25 801.800781 L 117.25 799.910156 L 117.441406 799.910156 L 117.441406 801.800781 Z M 117.25 801.800781 "/>
<path style=" stroke:none;fill-rule:evenodd;fill:rgb(70.196078%,70.196078%,70.196078%);fill-opacity:1;" d="M 223.570312 799.910156 L 223.570312 801.800781 L 223.382812 801.800781 L 223.382812 799.910156 Z M 223.570312 799.910156 "/>
<path style="fill:none;stroke-width:0.24;stroke-linecap:round;stroke-linejoin:round;stroke:rgb(0%,0%,0%);stroke-opacity:1;stroke-miterlimit:3;" d="M 0.00140575 3073.658148 L 317.475807 3073.658148 M 0.00140575 3079.327262 L 317.475807 3079.327262 " transform="matrix(0.333688,0,0,0.333496,117.440937,-225.141611)"/>
<path style=" stroke:none;fill-rule:evenodd;fill:rgb(70.196078%,70.196078%,70.196078%);fill-opacity:1;" d="M 11.5 720.5 L 113.65625 720.5 L 113.65625 722.394531 L 11.5 722.394531 Z M 11.5 720.5 "/>
<path style=" stroke:none;fill-rule:evenodd;fill:rgb(70.196078%,70.196078%,70.196078%);fill-opacity:1;" d="M 11.3125 722.394531 L 11.3125 720.503906 L 11.5 720.503906 L 11.5 722.394531 Z M 11.3125 722.394531 "/>
<path style=" stroke:none;fill-rule:evenodd;fill:rgb(70.196078%,70.196078%,70.196078%);fill-opacity:1;" d="M 113.847656 720.5 L 113.847656 722.390625 L 113.65625 722.390625 L 113.65625 720.5 Z M 113.847656 720.5 "/>
<path style="fill:none;stroke-width:0.24;stroke-linecap:round;stroke-linejoin:round;stroke:rgb(0%,0%,0%);stroke-opacity:1;stroke-miterlimit:3;" d="M -0.00470213 3073.654663 L 306.138017 3073.654663 M -0.00470213 3079.33549 L 306.138017 3079.33549 " transform="matrix(0.333688,0,0,0.333496,11.501569,-304.550605)"/>
<path style=" stroke:none;fill-rule:evenodd;fill:rgb(70.196078%,70.196078%,70.196078%);fill-opacity:1;" d="M 11.5 285.644531 L 113.65625 285.644531 L 113.65625 287.535156 L 11.5 287.535156 Z M 11.5 285.644531 "/>
<path style=" stroke:none;fill-rule:evenodd;fill:rgb(70.196078%,70.196078%,70.196078%);fill-opacity:1;" d="M 11.3125 287.535156 L 11.3125 285.644531 L 11.5 285.644531 L 11.5 287.535156 Z M 11.3125 287.535156 "/>
<path style=" stroke:none;fill-rule:evenodd;fill:rgb(70.196078%,70.196078%,70.196078%);fill-opacity:1;" d="M 113.847656 285.644531 L 113.847656 287.535156 L 113.65625 287.535156 L 113.65625 285.644531 Z M 113.847656 285.644531 "/>
<path style="fill:none;stroke-width:0.24;stroke-linecap:round;stroke-linejoin:round;stroke:rgb(0%,0%,0%);stroke-opacity:1;stroke-miterlimit:3;" d="M -0.00470213 3073.655391 L 306.138017 3073.655391 M -0.00470213 3079.324505 L 306.138017 3079.324505 " transform="matrix(0.333688,0,0,0.333496,11.501569,-739.406317)"/>
<path style=" stroke:none;fill-rule:evenodd;fill:rgb(70.196078%,70.196078%,70.196078%);fill-opacity:1;" d="M 11.5 556.957031 L 113.65625 556.957031 L 113.65625 558.847656 L 11.5 558.847656 Z M 11.5 556.957031 "/>
<path style=" stroke:none;fill-rule:evenodd;fill:rgb(70.196078%,70.196078%,70.196078%);fill-opacity:1;" d="M 11.3125 558.847656 L 11.3125 556.957031 L 11.5 556.957031 L 11.5 558.847656 Z M 11.3125 558.847656 "/>
<path style=" stroke:none;fill-rule:evenodd;fill:rgb(70.196078%,70.196078%,70.196078%);fill-opacity:1;" d="M 113.847656 556.957031 L 113.847656 558.847656 L 113.65625 558.847656 L 113.65625 556.957031 Z M 113.847656 556.957031 "/>
<path style="fill:none;stroke-width:0.24;stroke-linecap:round;stroke-linejoin:round;stroke:rgb(0%,0%,0%);stroke-opacity:1;stroke-miterlimit:3;" d="M -0.00470213 3073.656622 L 306.138017 3073.656622 M -0.00470213 3079.325736 L 306.138017 3079.325736 " transform="matrix(0.333688,0,0,0.333496,11.501569,-468.094227)"/>
<path style=" stroke:none;fill-rule:evenodd;fill:rgb(70.196078%,70.196078%,70.196078%);fill-opacity:1;" d="M 11.5 449.1875 L 113.65625 449.1875 L 113.65625 451.078125 L 11.5 451.078125 Z M 11.5 449.1875 "/>
<path style=" stroke:none;fill-rule:evenodd;fill:rgb(70.196078%,70.196078%,70.196078%);fill-opacity:1;" d="M 11.3125 451.078125 L 11.3125 449.1875 L 11.5 449.1875 L 11.5 451.078125 Z M 11.3125 451.078125 "/>
<path style=" stroke:none;fill-rule:evenodd;fill:rgb(70.196078%,70.196078%,70.196078%);fill-opacity:1;" d="M 113.847656 449.1875 L 113.847656 451.078125 L 113.65625 451.078125 L 113.65625 449.1875 Z M 113.847656 449.1875 "/>
<path style="fill:none;stroke-width:0.24;stroke-linecap:round;stroke-linejoin:round;stroke:rgb(0%,0%,0%);stroke-opacity:1;stroke-miterlimit:3;" d="M -0.00470213 3073.655433 L 306.138017 3073.655433 M -0.00470213 3079.324546 L 306.138017 3079.324546 " transform="matrix(0.333688,0,0,0.333496,11.501569,-575.863362)"/>
<path style=" stroke:none;fill-rule:evenodd;fill:rgb(70.196078%,70.196078%,70.196078%);fill-opacity:1;" d="M 11.5 502.128906 L 113.65625 502.128906 L 113.65625 504.019531 L 11.5 504.019531 Z M 11.5 502.128906 "/>
<path style=" stroke:none;fill-rule:evenodd;fill:rgb(70.196078%,70.196078%,70.196078%);fill-opacity:1;" d="M 11.3125 504.019531 L 11.3125 502.128906 L 11.5 502.128906 L 11.5 504.019531 Z M 11.3125 504.019531 "/>
<path style=" stroke:none;fill-rule:evenodd;fill:rgb(70.196078%,70.196078%,70.196078%);fill-opacity:1;" d="M 113.847656 502.128906 L 113.847656 504.019531 L 113.65625 504.019531 L 113.65625 502.128906 Z M 113.847656 502.128906 "/>
<path style="fill:none;stroke-width:0.24;stroke-linecap:round;stroke-linejoin:round;stroke:rgb(0%,0%,0%);stroke-opacity:1;stroke-miterlimit:3;" d="M -0.00470213 3073.662327 L 306.138017 3073.662327 M -0.00470213 3079.331441 L 306.138017 3079.331441 " transform="matrix(0.333688,0,0,0.333496,11.501569,-522.924255)"/>
<path style=" stroke:none;fill-rule:evenodd;fill:rgb(70.196078%,70.196078%,70.196078%);fill-opacity:1;" d="M 11.5 344.253906 L 113.65625 344.253906 L 113.65625 346.144531 L 11.5 346.144531 Z M 11.5 344.253906 "/>
<path style=" stroke:none;fill-rule:evenodd;fill:rgb(70.196078%,70.196078%,70.196078%);fill-opacity:1;" d="M 11.3125 346.144531 L 11.3125 344.253906 L 11.5 344.253906 L 11.5 346.144531 Z M 11.3125 346.144531 "/>
<path style=" stroke:none;fill-rule:evenodd;fill:rgb(70.196078%,70.196078%,70.196078%);fill-opacity:1;" d="M 113.847656 344.253906 L 113.847656 346.144531 L 113.65625 346.144531 L 113.65625 344.253906 Z M 113.847656 344.253906 "/>
<path style="fill:none;stroke-width:0.24;stroke-linecap:round;stroke-linejoin:round;stroke:rgb(0%,0%,0%);stroke-opacity:1;stroke-miterlimit:3;" d="M -0.00470213 3073.657914 L 306.138017 3073.657914 M -0.00470213 3079.327027 L 306.138017 3079.327027 " transform="matrix(0.333688,0,0,0.333496,11.501569,-680.797783)"/>
<path style=" stroke:none;fill-rule:evenodd;fill:rgb(70.196078%,70.196078%,70.196078%);fill-opacity:1;" d="M 117.441406 227.035156 L 223.378906 227.035156 L 223.378906 228.925781 L 117.441406 228.925781 Z M 117.441406 227.035156 "/>
<path style=" stroke:none;fill-rule:evenodd;fill:rgb(70.196078%,70.196078%,70.196078%);fill-opacity:1;" d="M 117.25 228.925781 L 117.25 227.035156 L 117.441406 227.035156 L 117.441406 228.925781 Z M 117.25 228.925781 "/>
<path style=" stroke:none;fill-rule:evenodd;fill:rgb(70.196078%,70.196078%,70.196078%);fill-opacity:1;" d="M 223.570312 227.035156 L 223.570312 228.925781 L 223.382812 228.925781 L 223.382812 227.035156 Z M 223.570312 227.035156 "/>
<path style="fill:none;stroke-width:0.24;stroke-linecap:round;stroke-linejoin:round;stroke:rgb(0%,0%,0%);stroke-opacity:1;stroke-miterlimit:3;" d="M 0.00140575 3073.662869 L 317.475807 3073.662869 M 0.00140575 3079.331983 L 317.475807 3079.331983 " transform="matrix(0.333688,0,0,0.333496,117.440937,-798.018186)"/>
<path style=" stroke:none;fill-rule:evenodd;fill:rgb(70.196078%,70.196078%,70.196078%);fill-opacity:1;" d="M 159.058594 678.90625 L 223.382812 678.90625 L 223.382812 682.6875 L 162.84375 682.6875 Z M 159.058594 678.90625 "/>
<path style=" stroke:none;fill-rule:evenodd;fill:rgb(70.196078%,70.196078%,70.196078%);fill-opacity:1;" d="M 223.761719 678.90625 L 223.761719 682.6875 L 223.382812 682.6875 L 223.382812 678.90625 Z M 223.761719 678.90625 "/>
<path style="fill:none;stroke-width:0.24;stroke-linecap:round;stroke-linejoin:round;stroke:rgb(0%,0%,0%);stroke-opacity:1;stroke-miterlimit:3;" d="M -11.342853 3067.986163 L 181.424514 3067.986163 M 0.000535904 3079.324391 L 181.424514 3079.324391 " transform="matrix(0.333688,0,0,0.333496,162.843571,-344.253935)"/>
<path style=" stroke:none;fill-rule:evenodd;fill:rgb(70.196078%,70.196078%,70.196078%);fill-opacity:1;" d="M 11.5 227.035156 L 113.65625 227.035156 L 113.65625 228.925781 L 11.5 228.925781 Z M 11.5 227.035156 "/>
<path style=" stroke:none;fill-rule:evenodd;fill:rgb(70.196078%,70.196078%,70.196078%);fill-opacity:1;" d="M 11.3125 228.925781 L 11.3125 227.035156 L 11.5 227.035156 L 11.5 228.925781 Z M 11.3125 228.925781 "/>
<path style=" stroke:none;fill-rule:evenodd;fill:rgb(70.196078%,70.196078%,70.196078%);fill-opacity:1;" d="M 113.847656 227.035156 L 113.847656 228.925781 L 113.65625 228.925781 L 113.65625 227.035156 Z M 113.847656 227.035156 "/>
<path style="fill:none;stroke-width:0.24;stroke-linecap:round;stroke-linejoin:round;stroke:rgb(0%,0%,0%);stroke-opacity:1;stroke-miterlimit:3;" d="M -0.00470213 3073.662869 L 306.138017 3073.662869 M -0.00470213 3079.331983 L 306.138017 3079.331983 " transform="matrix(0.333688,0,0,0.333496,11.501569,-798.018186)"/>
<path style=" stroke:none;fill-rule:evenodd;fill:rgb(70.196078%,70.196078%,70.196078%);fill-opacity:1;" d="M 113.65625 1015.449219 L 113.65625 11.496094 L 117.441406 11.496094 L 117.441406 1015.449219 Z M 113.65625 1015.449219 "/>
<path style=" stroke:none;fill-rule:evenodd;fill:rgb(70.196078%,70.196078%,70.196078%);fill-opacity:1;" d="M 117.441406 1015.828125 L 113.65625 1015.828125 L 113.65625 1015.449219 L 117.441406 1015.449219 Z M 117.441406 1015.828125 "/>
<path style=" stroke:none;fill-rule:evenodd;fill:rgb(70.196078%,70.196078%,70.196078%);fill-opacity:1;" d="M 113.65625 11.117188 L 117.441406 11.117188 L 117.441406 11.492188 L 113.65625 11.492188 Z M 113.65625 11.117188 "/>
<path style="fill:none;stroke-width:0.24;stroke-linecap:round;stroke-linejoin:round;stroke:rgb(0%,0%,0%);stroke-opacity:1;stroke-miterlimit:3;" d="M -0.00352691 3067.986017 L 3010.38951 3067.986017 M -0.00352691 3079.329406 L 3010.38951 3079.329406 " transform="matrix(0.00000000000000002,-0.333496,0.333688,0.00000000000000002,-910.094853,1015.448043)"/>
<path style="fill-rule:evenodd;fill:rgb(100%,100%,100%);fill-opacity:1;stroke-width:0.24;stroke-linecap:round;stroke-linejoin:round;stroke:rgb(100%,100%,100%);stroke-opacity:1;stroke-miterlimit:3;" d="M -2.831738 3079.466292 L 53.861791 3079.466292 L 53.861791 3073.516065 L -2.831738 3073.516065 Z M -2.831738 3079.466292 " transform="matrix(0.333688,0,0,0.333496,86.030856,-468.094227)"/>
<path style="fill-rule:evenodd;fill:rgb(100%,100%,100%);fill-opacity:1;stroke-width:0.24;stroke-linecap:round;stroke-linejoin:round;stroke:rgb(0%,0%,0%);stroke-opacity:1;stroke-miterlimit:3;" d="M 56.685085 3079.325736 L 56.685085 3073.656622 L 53.863871 3073.656622 L 53.863871 3079.325736 Z M 0.00326164 3079.325736 L 0.00326164 3073.656622 L 2.824476 3073.656622 L 2.824476 3079.325736 Z M 0.00326164 3079.325736 " transform="matrix(0.333688,0,0,0.333496,85.084849,-468.094227)"/>
<path style="fill:none;stroke-width:0.24;stroke-linecap:round;stroke-linejoin:round;stroke:rgb(0%,0%,0%);stroke-opacity:1;stroke-miterlimit:3;" d="M 56.685085 3079.325736 L 56.685085 3073.656622 M 0.00326164 3079.325736 L 0.00326164 3073.656622 " transform="matrix(0.333688,0,0,0.333496,85.084849,-468.094227)"/>
<path style="fill-rule:evenodd;fill:rgb(100%,100%,100%);fill-opacity:1;stroke-width:0.24;stroke-linecap:round;stroke-linejoin:round;stroke:rgb(100%,100%,100%);stroke-opacity:1;stroke-miterlimit:3;" d="M -2.83513 3079.474458 L 53.856006 3079.474458 L 53.856006 3067.850119 L -2.83513 3067.850119 Z M -2.83513 3079.474458 " transform="matrix(0.00000000000000002,0.333496,-0.333688,0.00000000000000002,1141.194036,686.621285)"/>
<path style="fill-rule:evenodd;fill:rgb(100%,100%,100%);fill-opacity:1;stroke-width:0.24;stroke-linecap:round;stroke-linejoin:round;stroke:rgb(0%,0%,0%);stroke-opacity:1;stroke-miterlimit:3;" d="M 56.691006 3079.333983 L 56.691006 3067.990594 L 53.856449 3067.990594 L 53.856449 3079.333983 Z M -0.000130127 3079.333983 L -0.000130127 3067.990594 L 2.834427 3067.990594 L 2.834427 3079.333983 Z M -0.000130127 3079.333983 " transform="matrix(0.00000000000000002,0.333496,-0.333688,0.00000000000000002,1141.194036,685.675825)"/>
<path style="fill:none;stroke-width:0.24;stroke-linecap:round;stroke-linejoin:round;stroke:rgb(0%,0%,0%);stroke-opacity:1;stroke-miterlimit:3;" d="M 56.691006 3079.333983 L 56.691006 3067.990594 M -0.000130127 3079.333983 L -0.000130127 3067.990594 " transform="matrix(0.00000000000000002,0.333496,-0.333688,0.00000000000000002,1141.194036,685.675825)"/>
<path style="fill-rule:evenodd;fill:rgb(100%,100%,100%);fill-opacity:1;stroke-width:0.24;stroke-linecap:round;stroke-linejoin:round;stroke:rgb(100%,100%,100%);stroke-opacity:1;stroke-miterlimit:3;" d="M -2.832311 3079.474458 L 53.858825 3079.474458 L 53.858825 3067.850119 L -2.832311 3067.850119 Z M -2.832311 3079.474458 " transform="matrix(0.00000000000000002,0.333496,-0.333688,0.00000000000000002,1141.194036,319.827376)"/>
<path style="fill-rule:evenodd;fill:rgb(100%,100%,100%);fill-opacity:1;stroke-width:0.24;stroke-linecap:round;stroke-linejoin:round;stroke:rgb(0%,0%,0%);stroke-opacity:1;stroke-miterlimit:3;" d="M 56.693825 3079.333983 L 56.693825 3067.990594 L 53.859268 3067.990594 L 53.859268 3079.333983 Z M 0.0026885 3079.333983 L 0.0026885 3067.990594 L 2.825532 3067.990594 L 2.825532 3079.333983 Z M 0.0026885 3079.333983 " transform="matrix(0.00000000000000002,0.333496,-0.333688,0.00000000000000002,1141.194036,318.881916)"/>
<path style="fill:none;stroke-width:0.24;stroke-linecap:round;stroke-linejoin:round;stroke:rgb(0%,0%,0%);stroke-opacity:1;stroke-miterlimit:3;" d="M 56.693825 3079.333983 L 56.693825 3067.990594 M 0.0026885 3079.333983 L 0.0026885 3067.990594 " transform="matrix(0.00000000000000002,0.333496,-0.333688,0.00000000000000002,1141.194036,318.881916)"/>
<path style="fill-rule:evenodd;fill:rgb(100%,100%,100%);fill-opacity:1;stroke-width:0.24;stroke-linecap:round;stroke-linejoin:round;stroke:rgb(100%,100%,100%);stroke-opacity:1;stroke-miterlimit:3;" d="M -2.830814 3079.472643 L 119.055007 3079.472643 L 119.055007 3067.853303 L -2.830814 3067.853303 Z M -2.830814 3079.472643 " transform="matrix(-0.333688,0.000000000000000041,-0.000000000000000041,-0.333496,212.18039,1371.197908)"/>
<path style="fill-rule:evenodd;fill:rgb(100%,100%,100%);fill-opacity:1;stroke-width:0.24;stroke-linecap:round;stroke-linejoin:round;stroke:rgb(0%,0%,0%);stroke-opacity:1;stroke-miterlimit:3;" d="M 121.890007 3079.332086 L 121.890007 3067.993859 L 119.057087 3067.993859 L 119.057087 3079.332086 Z M 0.00418617 3079.332086 L 0.00418617 3067.993859 L 2.8254 3067.993859 L 2.8254 3079.332086 Z M 0.00418617 3079.332086 " transform="matrix(-0.333688,0.000000000000000041,-0.000000000000000041,-0.333496,213.126397,1371.197908)"/>
<path style="fill:none;stroke-width:0.24;stroke-linecap:round;stroke-linejoin:round;stroke:rgb(0%,0%,0%);stroke-opacity:1;stroke-miterlimit:3;" d="M 121.890007 3079.332086 L 121.890007 3067.993859 M 0.00418617 3079.332086 L 0.00418617 3067.993859 " transform="matrix(-0.333688,0.000000000000000041,-0.000000000000000041,-0.333496,213.126397,1371.197908)"/>
<path style="fill-rule:evenodd;fill:rgb(100%,100%,100%);fill-opacity:1;stroke-width:0.24;stroke-linecap:round;stroke-linejoin:round;stroke:rgb(100%,100%,100%);stroke-opacity:1;stroke-miterlimit:3;" d="M -2.82994 3079.475428 L 53.861196 3079.475428 L 53.861196 3073.51693 L -2.82994 3073.51693 Z M -2.82994 3079.475428 " transform="matrix(0.00000000000000002,0.333496,-0.333688,0.00000000000000002,1111.682641,253.908617)"/>
<path style="fill-rule:evenodd;fill:rgb(100%,100%,100%);fill-opacity:1;stroke-width:0.24;stroke-linecap:round;stroke-linejoin:round;stroke:rgb(0%,0%,0%);stroke-opacity:1;stroke-miterlimit:3;" d="M 56.684483 3079.334953 L 56.684483 3073.657405 L 53.861639 3073.657405 L 53.861639 3079.334953 Z M 0.00505972 3079.334953 L 0.00505972 3073.657405 L 2.827903 3073.657405 L 2.827903 3079.334953 Z M 0.00505972 3079.334953 " transform="matrix(0.00000000000000002,0.333496,-0.333688,0.00000000000000002,1111.682641,252.963156)"/>
<path style="fill:none;stroke-width:0.24;stroke-linecap:round;stroke-linejoin:round;stroke:rgb(0%,0%,0%);stroke-opacity:1;stroke-miterlimit:3;" d="M 56.684483 3079.334953 L 56.684483 3073.657405 M 0.00505972 3079.334953 L 0.00505972 3073.657405 " transform="matrix(0.00000000000000002,0.333496,-0.333688,0.00000000000000002,1111.682641,252.963156)"/>
<path style="fill-rule:evenodd;fill:rgb(100%,100%,100%);fill-opacity:1;stroke-width:0.24;stroke-linecap:round;stroke-linejoin:round;stroke:rgb(100%,100%,100%);stroke-opacity:1;stroke-miterlimit:3;" d="M -2.830234 3079.469881 L 53.860902 3079.469881 L 53.860902 3067.845542 L -2.830234 3067.845542 Z M -2.830234 3079.469881 " transform="matrix(0.00000000000000002,-0.333496,0.333688,0.00000000000000002,-910.094853,538.349098)"/>
<path style="fill-rule:evenodd;fill:rgb(100%,100%,100%);fill-opacity:1;stroke-width:0.24;stroke-linecap:round;stroke-linejoin:round;stroke:rgb(0%,0%,0%);stroke-opacity:1;stroke-miterlimit:3;" d="M 56.684189 3079.329406 L 56.684189 3067.986017 L 53.861345 3067.986017 L 53.861345 3079.329406 Z M 0.00476605 3079.329406 L 0.00476605 3067.986017 L 2.82761 3067.986017 L 2.82761 3079.329406 Z M 0.00476605 3079.329406 " transform="matrix(0.00000000000000002,-0.333496,0.333688,0.00000000000000002,-910.094853,539.294558)"/>
<path style="fill:none;stroke-width:0.24;stroke-linecap:round;stroke-linejoin:round;stroke:rgb(0%,0%,0%);stroke-opacity:1;stroke-miterlimit:3;" d="M 56.684189 3079.329406 L 56.684189 3067.986017 M 0.00476605 3079.329406 L 0.00476605 3067.986017 " transform="matrix(0.00000000000000002,-0.333496,0.333688,0.00000000000000002,-910.094853,539.294558)"/>
<path style="fill-rule:evenodd;fill:rgb(100%,100%,100%);fill-opacity:1;stroke-width:0.24;stroke-linecap:round;stroke-linejoin:round;stroke:rgb(100%,100%,100%);stroke-opacity:1;stroke-miterlimit:3;" d="M -2.825515 3079.469881 L 53.865621 3079.469881 L 53.865621 3067.845542 L -2.825515 3067.845542 Z M -2.825515 3079.469881 " transform="matrix(0.00000000000000002,-0.333496,0.333688,0.00000000000000002,-910.094853,775.33114)"/>
<path style="fill-rule:evenodd;fill:rgb(100%,100%,100%);fill-opacity:1;stroke-width:0.24;stroke-linecap:round;stroke-linejoin:round;stroke:rgb(0%,0%,0%);stroke-opacity:1;stroke-miterlimit:3;" d="M 56.688908 3079.329406 L 56.688908 3067.986017 L 53.854351 3067.986017 L 53.854351 3079.329406 Z M -0.00222792 3079.329406 L -0.00222792 3067.986017 L 2.832329 3067.986017 L 2.832329 3079.329406 Z M -0.00222792 3079.329406 " transform="matrix(0.00000000000000002,-0.333496,0.333688,0.00000000000000002,-910.094853,776.276601)"/>
<path style="fill:none;stroke-width:0.24;stroke-linecap:round;stroke-linejoin:round;stroke:rgb(0%,0%,0%);stroke-opacity:1;stroke-miterlimit:3;" d="M 56.688908 3079.329406 L 56.688908 3067.986017 M -0.00222792 3079.329406 L -0.00222792 3067.986017 " transform="matrix(0.00000000000000002,-0.333496,0.333688,0.00000000000000002,-910.094853,776.276601)"/>
<path style="fill-rule:evenodd;fill:rgb(100%,100%,100%);fill-opacity:1;stroke-width:0.24;stroke-linecap:round;stroke-linejoin:round;stroke:rgb(100%,100%,100%);stroke-opacity:1;stroke-miterlimit:3;" d="M -2.824965 3079.468112 L 53.854458 3079.468112 L 53.854458 3073.52132 L -2.824965 3073.52132 Z M -2.824965 3079.468112 " transform="matrix(0.00000000000000002,-0.333496,0.333688,0.00000000000000002,-943.957543,341.800074)"/>
<path style="fill-rule:evenodd;fill:rgb(100%,100%,100%);fill-opacity:1;stroke-width:0.24;stroke-linecap:round;stroke-linejoin:round;stroke:rgb(0%,0%,0%);stroke-opacity:1;stroke-miterlimit:3;" d="M 56.689458 3079.327636 L 56.689458 3073.661795 L 53.854901 3073.661795 L 53.854901 3079.327636 Z M -0.00167839 3079.327636 L -0.00167839 3073.661795 L 2.832878 3073.661795 L 2.832878 3079.327636 Z M -0.00167839 3079.327636 " transform="matrix(0.00000000000000002,-0.333496,0.333688,0.00000000000000002,-943.957543,342.745534)"/>
<path style="fill:none;stroke-width:0.24;stroke-linecap:round;stroke-linejoin:round;stroke:rgb(0%,0%,0%);stroke-opacity:1;stroke-miterlimit:3;" d="M 56.689458 3079.327636 L 56.689458 3073.661795 M -0.00167839 3079.327636 L -0.00167839 3073.661795 " transform="matrix(0.00000000000000002,-0.333496,0.333688,0.00000000000000002,-943.957543,342.745534)"/>
<path style="fill-rule:evenodd;fill:rgb(100%,100%,100%);fill-opacity:1;stroke-width:0.24;stroke-linecap:round;stroke-linejoin:round;stroke:rgb(100%,100%,100%);stroke-opacity:1;stroke-miterlimit:3;" d="M -2.827486 3079.467818 L 53.854337 3079.467818 L 53.854337 3073.517592 L -2.827486 3073.517592 Z M -2.827486 3079.467818 " transform="matrix(0.333688,0,0,0.333496,135.486468,-225.141611)"/>
<path style="fill-rule:evenodd;fill:rgb(100%,100%,100%);fill-opacity:1;stroke-width:0.24;stroke-linecap:round;stroke-linejoin:round;stroke:rgb(0%,0%,0%);stroke-opacity:1;stroke-miterlimit:3;" d="M 56.689337 3079.327262 L 56.689337 3073.658148 L 53.856417 3073.658148 L 53.856417 3079.327262 Z M -0.00419249 3079.327262 L -0.00419249 3073.658148 L 2.828728 3073.658148 L 2.828728 3079.327262 Z M -0.00419249 3079.327262 " transform="matrix(0.333688,0,0,0.333496,134.540461,-225.141611)"/>
<path style="fill:none;stroke-width:0.24;stroke-linecap:round;stroke-linejoin:round;stroke:rgb(0%,0%,0%);stroke-opacity:1;stroke-miterlimit:3;" d="M 56.689337 3079.327262 L 56.689337 3073.658148 M -0.00419249 3079.327262 L -0.00419249 3073.658148 " transform="matrix(0.333688,0,0,0.333496,134.540461,-225.141611)"/>
<path style="fill-rule:evenodd;fill:rgb(100%,100%,100%);fill-opacity:1;stroke-width:0.24;stroke-linecap:round;stroke-linejoin:round;stroke:rgb(100%,100%,100%);stroke-opacity:1;stroke-miterlimit:3;" d="M -2.835598 3079.46823 L 53.857932 3079.46823 L 53.857932 3073.518003 L -2.835598 3073.518003 Z M -2.835598 3079.46823 " transform="matrix(-0.333688,0.000000000000000041,-0.000000000000000041,-0.333496,102.315513,1529.071436)"/>
<path style="fill-rule:evenodd;fill:rgb(100%,100%,100%);fill-opacity:1;stroke-width:0.24;stroke-linecap:round;stroke-linejoin:round;stroke:rgb(0%,0%,0%);stroke-opacity:1;stroke-miterlimit:3;" d="M 56.692932 3079.327673 L 56.692932 3073.658559 L 53.860012 3073.658559 L 53.860012 3079.327673 Z M -0.000597573 3079.327673 L -0.000597573 3073.658559 L 2.832323 3073.658559 L 2.832323 3079.327673 Z M -0.000597573 3079.327673 " transform="matrix(-0.333688,0.000000000000000041,-0.000000000000000041,-0.333496,103.261519,1529.071436)"/>
<path style="fill:none;stroke-width:0.24;stroke-linecap:round;stroke-linejoin:round;stroke:rgb(0%,0%,0%);stroke-opacity:1;stroke-miterlimit:3;" d="M 56.692932 3079.327673 L 56.692932 3073.658559 M -0.000597573 3079.327673 L -0.000597573 3073.658559 " transform="matrix(-0.333688,0.000000000000000041,-0.000000000000000041,-0.333496,103.261519,1529.071436)"/>
<path style="fill-rule:evenodd;fill:rgb(100%,100%,100%);fill-opacity:1;stroke-width:0.24;stroke-linecap:round;stroke-linejoin:round;stroke:rgb(100%,100%,100%);stroke-opacity:1;stroke-miterlimit:3;" d="M -2.830489 3079.474458 L 53.860647 3079.474458 L 53.860647 3067.850119 L -2.830489 3067.850119 Z M -2.830489 3079.474458 " transform="matrix(0.00000000000000002,0.333496,-0.333688,0.00000000000000002,1141.194036,251.139268)"/>
<path style="fill-rule:evenodd;fill:rgb(100%,100%,100%);fill-opacity:1;stroke-width:0.24;stroke-linecap:round;stroke-linejoin:round;stroke:rgb(0%,0%,0%);stroke-opacity:1;stroke-miterlimit:3;" d="M 56.695647 3079.333983 L 56.695647 3067.990594 L 53.86109 3067.990594 L 53.86109 3079.333983 Z M 0.00451105 3079.333983 L 0.00451105 3067.990594 L 2.827355 3067.990594 L 2.827355 3079.333983 Z M 0.00451105 3079.333983 " transform="matrix(0.00000000000000002,0.333496,-0.333688,0.00000000000000002,1141.194036,250.193808)"/>
<path style="fill:none;stroke-width:0.24;stroke-linecap:round;stroke-linejoin:round;stroke:rgb(0%,0%,0%);stroke-opacity:1;stroke-miterlimit:3;" d="M 56.695647 3079.333983 L 56.695647 3067.990594 M 0.00451105 3079.333983 L 0.00451105 3067.990594 " transform="matrix(0.00000000000000002,0.333496,-0.333688,0.00000000000000002,1141.194036,250.193808)"/>
<path style="fill-rule:evenodd;fill:rgb(100%,100%,100%);fill-opacity:1;stroke-width:0.24;stroke-linecap:round;stroke-linejoin:round;stroke:rgb(100%,100%,100%);stroke-opacity:1;stroke-miterlimit:3;" d="M -2.824201 3079.474458 L 53.855222 3079.474458 L 53.855222 3067.850119 L -2.824201 3067.850119 Z M -2.824201 3079.474458 " transform="matrix(0.00000000000000002,0.333496,-0.333688,0.00000000000000002,1141.194036,368.039515)"/>
<path style="fill-rule:evenodd;fill:rgb(100%,100%,100%);fill-opacity:1;stroke-width:0.24;stroke-linecap:round;stroke-linejoin:round;stroke:rgb(0%,0%,0%);stroke-opacity:1;stroke-miterlimit:3;" d="M 56.690222 3079.333983 L 56.690222 3067.990594 L 53.855665 3067.990594 L 53.855665 3079.333983 Z M -0.000914192 3079.333983 L -0.000914192 3067.990594 L 2.833643 3067.990594 L 2.833643 3079.333983 Z M -0.000914192 3079.333983 " transform="matrix(0.00000000000000002,0.333496,-0.333688,0.00000000000000002,1141.194036,367.094055)"/>
<path style="fill:none;stroke-width:0.24;stroke-linecap:round;stroke-linejoin:round;stroke:rgb(0%,0%,0%);stroke-opacity:1;stroke-miterlimit:3;" d="M 56.690222 3079.333983 L 56.690222 3067.990594 M -0.000914192 3079.333983 L -0.000914192 3067.990594 " transform="matrix(0.00000000000000002,0.333496,-0.333688,0.00000000000000002,1141.194036,367.094055)"/>
<path style="fill-rule:evenodd;fill:rgb(100%,100%,100%);fill-opacity:1;stroke-width:0.24;stroke-linecap:round;stroke-linejoin:round;stroke:rgb(100%,100%,100%);stroke-opacity:1;stroke-miterlimit:3;" d="M -2.824696 3079.467892 L 53.854727 3079.467892 L 53.854727 3073.5211 L -2.824696 3073.5211 Z M -2.824696 3079.467892 " transform="matrix(0.00000000000000002,-0.333496,0.333688,0.00000000000000002,-940.36372,771.612663)"/>
<path style="fill-rule:evenodd;fill:rgb(100%,100%,100%);fill-opacity:1;stroke-width:0.24;stroke-linecap:round;stroke-linejoin:round;stroke:rgb(0%,0%,0%);stroke-opacity:1;stroke-miterlimit:3;" d="M 56.689727 3079.327417 L 56.689727 3073.661576 L 53.85517 3073.661576 L 53.85517 3079.327417 Z M -0.0014094 3079.327417 L -0.0014094 3073.661576 L 2.833147 3073.661576 L 2.833147 3079.327417 Z M -0.0014094 3079.327417 " transform="matrix(0.00000000000000002,-0.333496,0.333688,0.00000000000000002,-940.36372,772.558124)"/>
<path style="fill:none;stroke-width:0.24;stroke-linecap:round;stroke-linejoin:round;stroke:rgb(0%,0%,0%);stroke-opacity:1;stroke-miterlimit:3;" d="M 56.689727 3079.327417 L 56.689727 3073.661576 M -0.0014094 3079.327417 L -0.0014094 3073.661576 " transform="matrix(0.00000000000000002,-0.333496,0.333688,0.00000000000000002,-940.36372,772.558124)"/>
<path style="fill-rule:evenodd;fill:rgb(100%,100%,100%);fill-opacity:1;stroke-width:0.24;stroke-linecap:round;stroke-linejoin:round;stroke:rgb(100%,100%,100%);stroke-opacity:1;stroke-miterlimit:3;" d="M -2.830933 3079.467687 L 53.862597 3079.467687 L 53.862597 3073.517461 L -2.830933 3073.517461 Z M -2.830933 3079.467687 " transform="matrix(-0.333688,0.000000000000000041,-0.000000000000000041,-0.333496,105.012382,1253.977505)"/>
<path style="fill-rule:evenodd;fill:rgb(100%,100%,100%);fill-opacity:1;stroke-width:0.24;stroke-linecap:round;stroke-linejoin:round;stroke:rgb(0%,0%,0%);stroke-opacity:1;stroke-miterlimit:3;" d="M 56.68589 3079.327131 L 56.68589 3073.658017 L 53.864676 3073.658017 L 53.864676 3079.327131 Z M 0.00406699 3079.327131 L 0.00406699 3073.658017 L 2.825281 3073.658017 L 2.825281 3079.327131 Z M 0.00406699 3079.327131 " transform="matrix(-0.333688,0.000000000000000041,-0.000000000000000041,-0.333496,105.958388,1253.977505)"/>
<path style="fill:none;stroke-width:0.24;stroke-linecap:round;stroke-linejoin:round;stroke:rgb(0%,0%,0%);stroke-opacity:1;stroke-miterlimit:3;" d="M 56.68589 3079.327131 L 56.68589 3073.658017 M 0.00406699 3079.327131 L 0.00406699 3073.658017 " transform="matrix(-0.333688,0.000000000000000041,-0.000000000000000041,-0.333496,105.958388,1253.977505)"/>
<path style="fill-rule:evenodd;fill:rgb(100%,100%,100%);fill-opacity:1;stroke-width:0.24;stroke-linecap:round;stroke-linejoin:round;stroke:rgb(100%,100%,100%);stroke-opacity:1;stroke-miterlimit:3;" d="M -2.82701 3079.467687 L 53.854813 3079.467687 L 53.854813 3073.517461 L -2.82701 3073.517461 Z M -2.82701 3079.467687 " transform="matrix(-0.333688,0.000000000000000041,-0.000000000000000041,-0.333496,144.166035,1253.977505)"/>
<path style="fill-rule:evenodd;fill:rgb(100%,100%,100%);fill-opacity:1;stroke-width:0.24;stroke-linecap:round;stroke-linejoin:round;stroke:rgb(0%,0%,0%);stroke-opacity:1;stroke-miterlimit:3;" d="M 56.689813 3079.327131 L 56.689813 3073.658017 L 53.856893 3073.658017 L 53.856893 3079.327131 Z M -0.00371626 3079.327131 L -0.00371626 3073.658017 L 2.829204 3073.658017 L 2.829204 3079.327131 Z M -0.00371626 3079.327131 " transform="matrix(-0.333688,0.000000000000000041,-0.000000000000000041,-0.333496,145.112041,1253.977505)"/>
<path style="fill:none;stroke-width:0.24;stroke-linecap:round;stroke-linejoin:round;stroke:rgb(0%,0%,0%);stroke-opacity:1;stroke-miterlimit:3;" d="M 56.689813 3079.327131 L 56.689813 3073.658017 M -0.00371626 3079.327131 L -0.00371626 3073.658017 " transform="matrix(-0.333688,0.000000000000000041,-0.000000000000000041,-0.333496,145.112041,1253.977505)"/>
<path style="fill-rule:evenodd;fill:rgb(100%,100%,100%);fill-opacity:1;stroke-width:0.24;stroke-linecap:round;stroke-linejoin:round;stroke:rgb(100%,100%,100%);stroke-opacity:1;stroke-miterlimit:3;" d="M -2.835342 3079.474393 L 119.062185 3079.474393 L 119.062185 3067.855053 L -2.835342 3067.855053 Z M -2.835342 3079.474393 " transform="matrix(-0.333688,0.000000000000000041,-0.000000000000000041,-0.333496,213.315598,1705.850835)"/>
<path style="fill-rule:evenodd;fill:rgb(100%,100%,100%);fill-opacity:1;stroke-width:0.24;stroke-linecap:round;stroke-linejoin:round;stroke:rgb(0%,0%,0%);stroke-opacity:1;stroke-miterlimit:3;" d="M 121.885479 3079.333837 L 121.885479 3067.995609 L 119.064265 3067.995609 L 119.064265 3079.333837 Z M -0.000342254 3079.333837 L -0.000342254 3067.995609 L 2.832578 3067.995609 L 2.832578 3079.333837 Z M -0.000342254 3079.333837 " transform="matrix(-0.333688,0.000000000000000041,-0.000000000000000041,-0.333496,214.261605,1705.850835)"/>
<path style="fill:none;stroke-width:0.24;stroke-linecap:round;stroke-linejoin:round;stroke:rgb(0%,0%,0%);stroke-opacity:1;stroke-miterlimit:3;" d="M 121.885479 3079.333837 L 121.885479 3067.995609 M -0.000342254 3079.333837 L -0.000342254 3067.995609 " transform="matrix(-0.333688,0.000000000000000041,-0.000000000000000041,-0.333496,214.261605,1705.850835)"/>
<path style="fill-rule:evenodd;fill:rgb(100%,100%,100%);fill-opacity:1;stroke-width:0.24;stroke-linecap:round;stroke-linejoin:round;stroke:rgb(100%,100%,100%);stroke-opacity:1;stroke-miterlimit:3;" d="M -2.824407 3079.468477 L 53.857416 3079.468477 L 53.857416 3073.518251 L -2.824407 3073.518251 Z M -2.824407 3079.468477 " transform="matrix(0.333688,0,0,0.333496,95.559659,-230.813706)"/>
<path style="fill-rule:evenodd;fill:rgb(100%,100%,100%);fill-opacity:1;stroke-width:0.24;stroke-linecap:round;stroke-linejoin:round;stroke:rgb(0%,0%,0%);stroke-opacity:1;stroke-miterlimit:3;" d="M 56.692416 3079.327921 L 56.692416 3073.658807 L 53.859496 3073.658807 L 53.859496 3079.327921 Z M -0.00111353 3079.327921 L -0.00111353 3073.658807 L 2.831807 3073.658807 L 2.831807 3079.327921 Z M -0.00111353 3079.327921 " transform="matrix(0.333688,0,0,0.333496,94.613653,-230.813706)"/>
<path style="fill:none;stroke-width:0.24;stroke-linecap:round;stroke-linejoin:round;stroke:rgb(0%,0%,0%);stroke-opacity:1;stroke-miterlimit:3;" d="M 56.692416 3079.327921 L 56.692416 3073.658807 M -0.00111353 3079.327921 L -0.00111353 3073.658807 " transform="matrix(0.333688,0,0,0.333496,94.613653,-230.813706)"/>
</g>
</svg>
