<?xml version="1.0" encoding="UTF-8"?>
<svg xmlns="http://www.w3.org/2000/svg" xmlns:xlink="http://www.w3.org/1999/xlink" width="px" height="px" viewBox="0 0 235 1027" version="1.1">
<g id="surface1">
<path style=" stroke:none;fill-rule:evenodd;fill:rgb(70.196078%,70.196078%,70.196078%);fill-opacity:1;" d="M 8.78125 1018.15625 L 8.78125 8.777344 L 11.621094 11.613281 L 11.621094 1015.320312 Z M 8.78125 1018.15625 "/>
<path style="fill:none;stroke-width:0.24;stroke-linecap:round;stroke-linejoin:round;stroke:rgb(0%,0%,0%);stroke-opacity:1;stroke-miterlimit:3;" d="M -8.504208 3071.536725 L 3018.895379 3071.536725 M 0.00153303 3080.047193 L 3010.389637 3080.047193 " transform="matrix(0.00000000000000002,-0.333414,0.333688,0.00000000000000002,-1016.154682,1015.320824)"/>
<path style=" stroke:none;fill-rule:evenodd;fill:rgb(70.196078%,70.196078%,70.196078%);fill-opacity:1;" d="M 8.785156 8.777344 L 226.335938 8.777344 L 223.5 11.613281 L 11.621094 11.613281 Z M 8.785156 8.777344 "/>
<path style="fill:none;stroke-width:0.24;stroke-linecap:round;stroke-linejoin:round;stroke:rgb(0%,0%,0%);stroke-opacity:1;stroke-miterlimit:3;" d="M -8.502569 3071.544621 L 643.455464 3071.544621 M -0.00380735 3080.050363 L 634.956702 3080.050363 " transform="matrix(0.333688,0,0,0.333414,11.622364,-1015.320157)"/>
<path style=" stroke:none;fill-rule:evenodd;fill:rgb(70.196078%,70.196078%,70.196078%);fill-opacity:1;" d="M 226.339844 8.777344 L 226.339844 1018.15625 L 223.5 1015.320312 L 223.5 11.613281 Z M 226.339844 8.777344 "/>
<path style="fill:none;stroke-width:0.24;stroke-linecap:round;stroke-linejoin:round;stroke:rgb(0%,0%,0%);stroke-opacity:1;stroke-miterlimit:3;" d="M -8.505379 3071.54283 L 3018.894208 3071.54283 M 0.000362775 3080.053298 L 3010.388467 3080.053298 " transform="matrix(0.00000000000000002,0.333414,-0.333688,0.00000000000000002,1251.277813,11.61316)"/>
<path style=" stroke:none;fill-rule:evenodd;fill:rgb(70.196078%,70.196078%,70.196078%);fill-opacity:1;" d="M 226.335938 1018.15625 L 8.785156 1018.15625 L 11.621094 1015.320312 L 223.5 1015.320312 Z M 226.335938 1018.15625 "/>
<path style="fill:none;stroke-width:0.24;stroke-linecap:round;stroke-linejoin:round;stroke:rgb(0%,0%,0%);stroke-opacity:1;stroke-miterlimit:3;" d="M -8.495464 3071.545792 L 643.462569 3071.545792 M 0.00329787 3080.051533 L 634.963807 3080.051533 " transform="matrix(-0.333688,-0.000000000000000041,0.000000000000000041,-0.333414,223.5011,2042.254141)"/>
<path style=" stroke:none;fill-rule:evenodd;fill:rgb(70.196078%,70.196078%,70.196078%);fill-opacity:1;" d="M 159.179688 353.175781 L 159.179688 235.605469 L 162.964844 235.605469 L 162.964844 349.394531 Z M 159.179688 353.175781 "/>
<path style=" stroke:none;fill-rule:evenodd;fill:rgb(70.196078%,70.196078%,70.196078%);fill-opacity:1;" d="M 159.179688 235.222656 L 162.964844 235.222656 L 162.964844 235.601562 L 159.179688 235.601562 Z M 159.179688 235.222656 "/>
<path style="fill:none;stroke-width:0.24;stroke-linecap:round;stroke-linejoin:round;stroke:rgb(0%,0%,0%);stroke-opacity:1;stroke-miterlimit:3;" d="M 0.0015743 3068.711042 L 352.626652 3068.711042 M 11.342563 3080.054431 L 352.626652 3080.054431 " transform="matrix(0.00000000000000002,-0.333414,0.333688,0.00000000000000002,-864.813348,353.176306)"/>
<path style=" stroke:none;fill-rule:evenodd;fill:rgb(70.196078%,70.196078%,70.196078%);fill-opacity:1;" d="M 157.289062 626.878906 L 157.289062 400.054688 L 159.179688 401.941406 L 159.179688 624.988281 Z M 157.289062 626.878906 "/>
<path style="fill:none;stroke-width:0.24;stroke-linecap:round;stroke-linejoin:round;stroke:rgb(0%,0%,0%);stroke-opacity:1;stroke-miterlimit:3;" d="M 0.00207987 3074.385201 L 680.30909 3074.385201 M 5.672574 3080.051042 L 674.650312 3080.051042 " transform="matrix(0.00000000000000002,-0.333414,0.333688,0.00000000000000002,-868.597373,626.8796)"/>
<path style=" stroke:none;fill-rule:evenodd;fill:rgb(70.196078%,70.196078%,70.196078%);fill-opacity:1;" d="M 159.179688 801.726562 L 159.179688 678.863281 L 162.964844 682.644531 L 162.964844 801.726562 Z M 159.179688 801.726562 "/>
<path style=" stroke:none;fill-rule:evenodd;fill:rgb(70.196078%,70.196078%,70.196078%);fill-opacity:1;" d="M 162.964844 802.105469 L 159.179688 802.105469 L 159.179688 801.726562 L 162.964844 801.726562 Z M 162.964844 802.105469 "/>
<path style="fill:none;stroke-width:0.24;stroke-linecap:round;stroke-linejoin:round;stroke:rgb(0%,0%,0%);stroke-opacity:1;stroke-miterlimit:3;" d="M 5.666799 3068.711042 L 374.166918 3068.711042 M 5.666799 3080.054431 L 362.82593 3080.054431 " transform="matrix(0.00000000000000002,-0.333414,0.333688,0.00000000000000002,-864.813348,803.615956)"/>
<path style=" stroke:none;fill-rule:evenodd;fill:rgb(70.196078%,70.196078%,70.196078%);fill-opacity:1;" d="M 85.402344 318.773438 L 113.777344 318.773438 L 113.777344 320.664062 L 85.402344 320.664062 Z M 85.402344 318.773438 "/>
<path style=" stroke:none;fill-rule:evenodd;fill:rgb(70.196078%,70.196078%,70.196078%);fill-opacity:1;" d="M 85.210938 320.664062 L 85.210938 318.773438 L 85.398438 318.773438 L 85.398438 320.664062 Z M 85.210938 320.664062 "/>
<path style=" stroke:none;fill-rule:evenodd;fill:rgb(70.196078%,70.196078%,70.196078%);fill-opacity:1;" d="M 113.96875 318.773438 L 113.96875 320.664062 L 113.777344 320.664062 L 113.777344 318.773438 Z M 113.96875 318.773438 "/>
<path style="fill:none;stroke-width:0.24;stroke-linecap:round;stroke-linejoin:round;stroke:rgb(0%,0%,0%);stroke-opacity:1;stroke-miterlimit:3;" d="M 0.00447058 3074.376518 L 85.038912 3074.376518 M 0.00447058 3080.047012 L 85.038912 3080.047012 " transform="matrix(0.333688,0,0,0.333414,85.400852,-706.268258)"/>
<path style="fill-rule:evenodd;fill:rgb(70.196078%,70.196078%,70.196078%);fill-opacity:1;stroke-width:0.24;stroke-linecap:round;stroke-linejoin:round;stroke:rgb(70.196078%,70.196078%,70.196078%);stroke-opacity:1;stroke-miterlimit:3;" d="M 0.000933369 3050.186184 L 29.454699 3050.186184 L 29.454699 3080.048912 L 0.000933369 3080.048912 Z M 0.000933369 3050.186184 " transform="matrix(0,0.333414,0.333688,0,-913.999006,275.11297)"/>
<path style="fill:none;stroke-width:0.24;stroke-linecap:round;stroke-linejoin:round;stroke:rgb(0%,0%,0%);stroke-opacity:1;stroke-miterlimit:3;" d="M 0.000933369 3080.048912 L 0.000933369 3050.186184 L 29.454699 3050.186184 L 29.454699 3080.048912 " transform="matrix(0,0.333414,0.333688,0,-913.999006,275.11297)"/>
<path style="fill-rule:evenodd;fill:rgb(100%,100%,100%);fill-opacity:1;stroke-width:0.24;stroke-linecap:round;stroke-linejoin:round;stroke:rgb(0%,0%,0%);stroke-opacity:1;stroke-miterlimit:3;" d="M -0.00498943 3000.680272 L 14.171246 3000.680272 L 14.171246 3080.048872 L -0.00498943 3080.048872 Z M 14.171246 3000.680272 L 28.347482 3000.680272 L 28.347482 3080.048872 L 14.171246 3080.048872 Z M 28.347482 3000.680272 L 42.523718 3000.680272 L 42.523718 3080.048872 L 28.347482 3080.048872 Z M 42.523718 3000.680272 L 56.688238 3000.680272 L 56.688238 3080.048872 L 42.523718 3080.048872 Z M 56.688238 3000.680272 L 70.864474 3000.680272 L 70.864474 3080.048872 L 56.688238 3080.048872 Z M 70.864474 3000.680272 L 85.040709 3000.680272 L 85.040709 3080.048872 L 70.864474 3080.048872 Z M 85.040709 3000.680272 L 99.205229 3000.680272 L 99.205229 3080.048872 L 85.040709 3080.048872 Z M 99.205229 3000.680272 L 113.393181 3000.680272 L 113.393181 3080.048872 L 99.205229 3080.048872 Z M 99.205229 3000.680272 " transform="matrix(0.00000000000000002,-0.333414,0.333688,0.00000000000000002,-836.436493,328.224899)"/>
<path style="fill-rule:evenodd;fill:rgb(100%,100%,100%);fill-opacity:1;stroke-width:0.24;stroke-linecap:round;stroke-linejoin:round;stroke:rgb(0%,0%,0%);stroke-opacity:1;stroke-miterlimit:3;" d="M -0.00453502 3000.680272 L 14.171701 3000.680272 L 14.171701 3080.048872 L -0.00453502 3080.048872 Z M 14.171701 3000.680272 L 28.347937 3000.680272 L 28.347937 3080.048872 L 14.171701 3080.048872 Z M 28.347937 3000.680272 L 42.524172 3000.680272 L 42.524172 3080.048872 L 28.347937 3080.048872 Z M 42.524172 3000.680272 L 56.688692 3000.680272 L 56.688692 3080.048872 L 42.524172 3080.048872 Z M 56.688692 3000.680272 L 70.864928 3000.680272 L 70.864928 3080.048872 L 56.688692 3080.048872 Z M 70.864928 3000.680272 L 85.041164 3000.680272 L 85.041164 3080.048872 L 70.864928 3080.048872 Z M 85.041164 3000.680272 L 99.205684 3000.680272 L 99.205684 3080.048872 L 85.041164 3080.048872 Z M 99.205684 3000.680272 L 113.393635 3000.680272 L 113.393635 3080.048872 L 99.205684 3080.048872 Z M 99.205684 3000.680272 " transform="matrix(0.00000000000000002,-0.333414,0.333688,0.00000000000000002,-836.436493,290.420363)"/>
<path style="fill-rule:evenodd;fill:rgb(100%,100%,100%);fill-opacity:1;stroke-width:0.24;stroke-linecap:round;stroke-linejoin:round;stroke:rgb(0%,0%,0%);stroke-opacity:1;stroke-miterlimit:3;" d="M -0.00498943 3000.682261 L 14.171246 3000.682261 L 14.171246 3080.050861 L -0.00498943 3080.050861 Z M 14.171246 3000.682261 L 28.347482 3000.682261 L 28.347482 3080.050861 L 14.171246 3080.050861 Z M 28.347482 3000.682261 L 42.523718 3000.682261 L 42.523718 3080.050861 L 28.347482 3080.050861 Z M 42.523718 3000.682261 L 56.688238 3000.682261 L 56.688238 3080.050861 L 42.523718 3080.050861 Z M 56.688238 3000.682261 L 70.864474 3000.682261 L 70.864474 3080.050861 L 56.688238 3080.050861 Z M 70.864474 3000.682261 L 85.040709 3000.682261 L 85.040709 3080.050861 L 70.864474 3080.050861 Z M 85.040709 3000.682261 L 99.205229 3000.682261 L 99.205229 3080.050861 L 85.040709 3080.050861 Z M 99.205229 3000.682261 L 113.393181 3000.682261 L 113.393181 3080.050861 L 99.205229 3080.050861 Z M 99.205229 3000.682261 " transform="matrix(0.00000000000000002,-0.333414,0.333688,0.00000000000000002,-806.167625,328.224899)"/>
<path style="fill-rule:evenodd;fill:rgb(100%,100%,100%);fill-opacity:1;stroke-width:0.24;stroke-linecap:round;stroke-linejoin:round;stroke:rgb(0%,0%,0%);stroke-opacity:1;stroke-miterlimit:3;" d="M -0.00453502 3000.682261 L 14.171701 3000.682261 L 14.171701 3080.050861 L -0.00453502 3080.050861 Z M 14.171701 3000.682261 L 28.347937 3000.682261 L 28.347937 3080.050861 L 14.171701 3080.050861 Z M 28.347937 3000.682261 L 42.524172 3000.682261 L 42.524172 3080.050861 L 28.347937 3080.050861 Z M 42.524172 3000.682261 L 56.688692 3000.682261 L 56.688692 3080.050861 L 42.524172 3080.050861 Z M 56.688692 3000.682261 L 70.864928 3000.682261 L 70.864928 3080.050861 L 56.688692 3080.050861 Z M 70.864928 3000.682261 L 85.041164 3000.682261 L 85.041164 3080.050861 L 70.864928 3080.050861 Z M 85.041164 3000.682261 L 99.205684 3000.682261 L 99.205684 3080.050861 L 85.041164 3080.050861 Z M 99.205684 3000.682261 L 113.393635 3000.682261 L 113.393635 3080.050861 L 99.205684 3080.050861 Z M 99.205684 3000.682261 " transform="matrix(0.00000000000000002,-0.333414,0.333688,0.00000000000000002,-806.167625,290.420363)"/>
<path style="fill-rule:evenodd;fill:rgb(100%,100%,100%);fill-opacity:1;stroke-width:0.24;stroke-linecap:round;stroke-linejoin:round;stroke:rgb(0%,0%,0%);stroke-opacity:1;stroke-miterlimit:3;" d="M -0.00472636 3000.680272 L 14.171509 3000.680272 L 14.171509 3080.048872 L -0.00472636 3080.048872 Z M 14.171509 3000.680272 L 28.347745 3000.680272 L 28.347745 3080.048872 L 14.171509 3080.048872 Z M 28.347745 3000.680272 L 42.523981 3000.680272 L 42.523981 3080.048872 L 28.347745 3080.048872 Z M 42.523981 3000.680272 L 56.688501 3000.680272 L 56.688501 3080.048872 L 42.523981 3080.048872 Z M 56.688501 3000.680272 L 70.864737 3000.680272 L 70.864737 3080.048872 L 56.688501 3080.048872 Z M 70.864737 3000.680272 L 85.040972 3000.680272 L 85.040972 3080.048872 L 70.864737 3080.048872 Z M 85.040972 3000.680272 L 99.205492 3000.680272 L 99.205492 3080.048872 L 85.040972 3080.048872 Z M 99.205492 3000.680272 L 113.393444 3000.680272 L 113.393444 3080.048872 L 99.205492 3080.048872 Z M 99.205492 3000.680272 " transform="matrix(0.00000000000000002,-0.333414,0.333688,0.00000000000000002,-836.436493,781.87733)"/>
<path style="fill-rule:evenodd;fill:rgb(100%,100%,100%);fill-opacity:1;stroke-width:0.24;stroke-linecap:round;stroke-linejoin:round;stroke:rgb(0%,0%,0%);stroke-opacity:1;stroke-miterlimit:3;" d="M -0.00427196 3000.680272 L 14.171964 3000.680272 L 14.171964 3080.048872 L -0.00427196 3080.048872 Z M 14.171964 3000.680272 L 28.3482 3000.680272 L 28.3482 3080.048872 L 14.171964 3080.048872 Z M 28.3482 3000.680272 L 42.524435 3000.680272 L 42.524435 3080.048872 L 28.3482 3080.048872 Z M 42.524435 3000.680272 L 56.688955 3000.680272 L 56.688955 3080.048872 L 42.524435 3080.048872 Z M 56.688955 3000.680272 L 70.865191 3000.680272 L 70.865191 3080.048872 L 56.688955 3080.048872 Z M 70.865191 3000.680272 L 85.041427 3000.680272 L 85.041427 3080.048872 L 70.865191 3080.048872 Z M 85.041427 3000.680272 L 99.205947 3000.680272 L 99.205947 3080.048872 L 85.041427 3080.048872 Z M 99.205947 3000.680272 L 113.393898 3000.680272 L 113.393898 3080.048872 L 99.205947 3080.048872 Z M 99.205947 3000.680272 " transform="matrix(0.00000000000000002,-0.333414,0.333688,0.00000000000000002,-836.436493,744.072794)"/>
<path style="fill-rule:evenodd;fill:rgb(100%,100%,100%);fill-opacity:1;stroke-width:0.24;stroke-linecap:round;stroke-linejoin:round;stroke:rgb(0%,0%,0%);stroke-opacity:1;stroke-miterlimit:3;" d="M -0.00472636 3000.682261 L 14.171509 3000.682261 L 14.171509 3080.050861 L -0.00472636 3080.050861 Z M 14.171509 3000.682261 L 28.347745 3000.682261 L 28.347745 3080.050861 L 14.171509 3080.050861 Z M 28.347745 3000.682261 L 42.523981 3000.682261 L 42.523981 3080.050861 L 28.347745 3080.050861 Z M 42.523981 3000.682261 L 56.688501 3000.682261 L 56.688501 3080.050861 L 42.523981 3080.050861 Z M 56.688501 3000.682261 L 70.864737 3000.682261 L 70.864737 3080.050861 L 56.688501 3080.050861 Z M 70.864737 3000.682261 L 85.040972 3000.682261 L 85.040972 3080.050861 L 70.864737 3080.050861 Z M 85.040972 3000.682261 L 99.205492 3000.682261 L 99.205492 3080.050861 L 85.040972 3080.050861 Z M 99.205492 3000.682261 L 113.393444 3000.682261 L 113.393444 3080.050861 L 99.205492 3080.050861 Z M 99.205492 3000.682261 " transform="matrix(0.00000000000000002,-0.333414,0.333688,0.00000000000000002,-806.167625,781.87733)"/>
<path style="fill-rule:evenodd;fill:rgb(100%,100%,100%);fill-opacity:1;stroke-width:0.24;stroke-linecap:round;stroke-linejoin:round;stroke:rgb(0%,0%,0%);stroke-opacity:1;stroke-miterlimit:3;" d="M -0.00427196 3000.682261 L 14.171964 3000.682261 L 14.171964 3080.050861 L -0.00427196 3080.050861 Z M 14.171964 3000.682261 L 28.3482 3000.682261 L 28.3482 3080.050861 L 14.171964 3080.050861 Z M 28.3482 3000.682261 L 42.524435 3000.682261 L 42.524435 3080.050861 L 28.3482 3080.050861 Z M 42.524435 3000.682261 L 56.688955 3000.682261 L 56.688955 3080.050861 L 42.524435 3080.050861 Z M 56.688955 3000.682261 L 70.865191 3000.682261 L 70.865191 3080.050861 L 56.688955 3080.050861 Z M 70.865191 3000.682261 L 85.041427 3000.682261 L 85.041427 3080.050861 L 70.865191 3080.050861 Z M 85.041427 3000.682261 L 99.205947 3000.682261 L 99.205947 3080.050861 L 85.041427 3080.050861 Z M 99.205947 3000.682261 L 113.393898 3000.682261 L 113.393898 3080.050861 L 99.205947 3080.050861 Z M 99.205947 3000.682261 " transform="matrix(0.00000000000000002,-0.333414,0.333688,0.00000000000000002,-806.167625,744.072794)"/>
<path style=" stroke:none;fill-rule:evenodd;fill:rgb(70.196078%,70.196078%,70.196078%);fill-opacity:1;" d="M 86.15625 275.296875 L 104.195312 275.296875 L 104.195312 277.1875 L 84.265625 277.1875 Z M 86.15625 275.296875 "/>
<path style="fill:none;stroke-width:0.24;stroke-linecap:round;stroke-linejoin:round;stroke:rgb(0%,0%,0%);stroke-opacity:1;stroke-miterlimit:3;" d="M -0.00421676 3074.378581 L 54.055399 3074.378581 L 54.055399 3077.213828 M -5.670058 3080.049075 L 54.055399 3080.049075 L 54.055399 3077.213828 " transform="matrix(0.333688,0,0,0.333414,86.157657,-749.745509)"/>
<path style=" stroke:none;fill-rule:evenodd;fill:rgb(70.196078%,70.196078%,70.196078%);fill-opacity:1;" d="M 84.265625 277.1875 L 84.265625 235.605469 L 86.160156 235.605469 L 86.160156 275.296875 Z M 84.265625 277.1875 "/>
<path style=" stroke:none;fill-rule:evenodd;fill:rgb(70.196078%,70.196078%,70.196078%);fill-opacity:1;" d="M 84.265625 235.414062 L 86.15625 235.414062 L 86.15625 235.605469 L 84.265625 235.605469 Z M 84.265625 235.414062 "/>
<path style="fill:none;stroke-width:0.24;stroke-linecap:round;stroke-linejoin:round;stroke:rgb(0%,0%,0%);stroke-opacity:1;stroke-miterlimit:3;" d="M 0.00492515 3074.377942 L 124.720652 3074.377942 M 5.675419 3080.05549 L 124.720652 3080.05549 " transform="matrix(0.00000000000000002,-0.333414,0.333688,0.00000000000000002,-941.618388,277.189142)"/>
<path style=" stroke:none;fill-rule:evenodd;fill:rgb(70.196078%,70.196078%,70.196078%);fill-opacity:1;" d="M 83.507812 350.90625 L 83.507812 294.199219 L 85.402344 294.199219 L 85.402344 350.90625 Z M 83.507812 350.90625 "/>
<path style=" stroke:none;fill-rule:evenodd;fill:rgb(70.196078%,70.196078%,70.196078%);fill-opacity:1;" d="M 85.402344 351.097656 L 83.507812 351.097656 L 83.507812 350.90625 L 85.402344 350.90625 Z M 85.402344 351.097656 "/>
<path style=" stroke:none;fill-rule:evenodd;fill:rgb(70.196078%,70.196078%,70.196078%);fill-opacity:1;" d="M 83.507812 294.007812 L 85.402344 294.007812 L 85.402344 294.199219 L 83.507812 294.199219 Z M 83.507812 294.007812 "/>
<path style="fill:none;stroke-width:0.24;stroke-linecap:round;stroke-linejoin:round;stroke:rgb(0%,0%,0%);stroke-opacity:1;stroke-miterlimit:3;" d="M 5.668511 3074.376923 L 175.748192 3074.376923 M 5.668511 3080.054471 L 175.748192 3080.054471 " transform="matrix(0.00000000000000002,-0.333414,0.333688,0.00000000000000002,-942.375861,352.796214)"/>
<path style=" stroke:none;fill-rule:evenodd;fill:rgb(70.196078%,70.196078%,70.196078%);fill-opacity:1;" d="M 162.964844 349.394531 L 223.5 349.394531 L 223.5 353.175781 L 159.179688 353.175781 Z M 162.964844 349.394531 "/>
<path style=" stroke:none;fill-rule:evenodd;fill:rgb(70.196078%,70.196078%,70.196078%);fill-opacity:1;" d="M 223.882812 349.394531 L 223.882812 353.175781 L 223.503906 353.175781 L 223.503906 349.394531 Z M 223.882812 349.394531 "/>
<path style="fill:none;stroke-width:0.24;stroke-linecap:round;stroke-linejoin:round;stroke:rgb(0%,0%,0%);stroke-opacity:1;stroke-miterlimit:3;" d="M 0.00343068 3068.707437 L 181.415702 3068.707437 M -11.339958 3080.048426 L 181.415702 3080.048426 " transform="matrix(0.333688,0,0,0.333414,162.963699,-673.757011)"/>
<path style=" stroke:none;fill-rule:evenodd;fill:rgb(70.196078%,70.196078%,70.196078%);fill-opacity:1;" d="M 117.5625 801.726562 L 223.5 801.726562 L 223.5 803.617188 L 117.5625 803.617188 Z M 117.5625 801.726562 "/>
<path style=" stroke:none;fill-rule:evenodd;fill:rgb(70.196078%,70.196078%,70.196078%);fill-opacity:1;" d="M 117.371094 803.617188 L 117.371094 801.726562 L 117.558594 801.726562 L 117.558594 803.617188 Z M 117.371094 803.617188 "/>
<path style=" stroke:none;fill-rule:evenodd;fill:rgb(70.196078%,70.196078%,70.196078%);fill-opacity:1;" d="M 223.691406 801.726562 L 223.691406 803.617188 L 223.5 803.617188 L 223.5 801.726562 Z M 223.691406 801.726562 "/>
<path style="fill:none;stroke-width:0.24;stroke-linecap:round;stroke-linejoin:round;stroke:rgb(0%,0%,0%);stroke-opacity:1;stroke-miterlimit:3;" d="M 0.00430053 3074.381201 L 317.478702 3074.381201 M 0.00430053 3080.051695 L 317.478702 3080.051695 " transform="matrix(0.333688,0,0,0.333414,117.561065,-223.316695)"/>
<path style=" stroke:none;fill-rule:evenodd;fill:rgb(70.196078%,70.196078%,70.196078%);fill-opacity:1;" d="M 11.621094 738.402344 L 113.777344 738.402344 L 113.777344 740.292969 L 11.621094 740.292969 Z M 11.621094 738.402344 "/>
<path style=" stroke:none;fill-rule:evenodd;fill:rgb(70.196078%,70.196078%,70.196078%);fill-opacity:1;" d="M 11.429688 740.292969 L 11.429688 738.402344 L 11.621094 738.402344 L 11.621094 740.292969 Z M 11.429688 740.292969 "/>
<path style=" stroke:none;fill-rule:evenodd;fill:rgb(70.196078%,70.196078%,70.196078%);fill-opacity:1;" d="M 113.96875 738.402344 L 113.96875 740.292969 L 113.777344 740.292969 L 113.777344 738.402344 Z M 113.96875 738.402344 "/>
<path style="fill:none;stroke-width:0.24;stroke-linecap:round;stroke-linejoin:round;stroke:rgb(0%,0%,0%);stroke-opacity:1;stroke-miterlimit:3;" d="M -0.00180735 3074.375789 L 306.140912 3074.375789 M -0.00180735 3080.046283 L 306.140912 3080.046283 " transform="matrix(0.333688,0,0,0.333414,11.621697,-286.639109)"/>
<path style=" stroke:none;fill-rule:evenodd;fill:rgb(70.196078%,70.196078%,70.196078%);fill-opacity:1;" d="M 11.621094 292.3125 L 113.777344 292.3125 L 113.777344 294.203125 L 11.621094 294.203125 Z M 11.621094 292.3125 "/>
<path style=" stroke:none;fill-rule:evenodd;fill:rgb(70.196078%,70.196078%,70.196078%);fill-opacity:1;" d="M 11.429688 294.203125 L 11.429688 292.3125 L 11.621094 292.3125 L 11.621094 294.203125 Z M 11.429688 294.203125 "/>
<path style=" stroke:none;fill-rule:evenodd;fill:rgb(70.196078%,70.196078%,70.196078%);fill-opacity:1;" d="M 113.96875 292.3125 L 113.96875 294.203125 L 113.777344 294.203125 L 113.777344 292.3125 Z M 113.96875 292.3125 "/>
<path style="fill:none;stroke-width:0.24;stroke-linecap:round;stroke-linejoin:round;stroke:rgb(0%,0%,0%);stroke-opacity:1;stroke-miterlimit:3;" d="M -0.00180735 3074.383029 L 306.140912 3074.383029 M -0.00180735 3080.053524 L 306.140912 3080.053524 " transform="matrix(0.333688,0,0,0.333414,11.621697,-732.731367)"/>
<path style=" stroke:none;fill-rule:evenodd;fill:rgb(70.196078%,70.196078%,70.196078%);fill-opacity:1;" d="M 11.621094 515.355469 L 113.777344 515.355469 L 113.777344 517.246094 L 11.621094 517.246094 Z M 11.621094 515.355469 "/>
<path style=" stroke:none;fill-rule:evenodd;fill:rgb(70.196078%,70.196078%,70.196078%);fill-opacity:1;" d="M 11.429688 517.246094 L 11.429688 515.355469 L 11.621094 515.355469 L 11.621094 517.246094 Z M 11.429688 517.246094 "/>
<path style=" stroke:none;fill-rule:evenodd;fill:rgb(70.196078%,70.196078%,70.196078%);fill-opacity:1;" d="M 113.96875 515.355469 L 113.96875 517.246094 L 113.777344 517.246094 L 113.777344 515.355469 Z M 113.96875 515.355469 "/>
<path style="fill:none;stroke-width:0.24;stroke-linecap:round;stroke-linejoin:round;stroke:rgb(0%,0%,0%);stroke-opacity:1;stroke-miterlimit:3;" d="M -0.00180735 3074.379051 L 306.140912 3074.379051 M -0.00180735 3080.049546 L 306.140912 3080.049546 " transform="matrix(0.333688,0,0,0.333414,11.621697,-509.687072)"/>
<path style=" stroke:none;fill-rule:evenodd;fill:rgb(70.196078%,70.196078%,70.196078%);fill-opacity:1;" d="M 159.179688 512.523438 L 223.5 512.523438 L 223.5 514.414062 L 159.179688 514.414062 Z M 159.179688 512.523438 "/>
<path style=" stroke:none;fill-rule:evenodd;fill:rgb(70.196078%,70.196078%,70.196078%);fill-opacity:1;" d="M 158.988281 514.414062 L 158.988281 512.523438 L 159.179688 512.523438 L 159.179688 514.414062 Z M 158.988281 514.414062 "/>
<path style=" stroke:none;fill-rule:evenodd;fill:rgb(70.196078%,70.196078%,70.196078%);fill-opacity:1;" d="M 223.6875 512.523438 L 223.6875 514.410156 L 223.5 514.410156 L 223.5 512.523438 Z M 223.6875 512.523438 "/>
<path style="fill:none;stroke-width:0.24;stroke-linecap:round;stroke-linejoin:round;stroke:rgb(0%,0%,0%);stroke-opacity:1;stroke-miterlimit:3;" d="M -0.000957779 3074.385026 L 192.754702 3074.385026 M -0.000957779 3080.05552 L 192.754702 3080.05552 " transform="matrix(0.333688,0,0,0.333414,159.180007,-512.521095)"/>
<path style=" stroke:none;fill-rule:evenodd;fill:rgb(70.196078%,70.196078%,70.196078%);fill-opacity:1;" d="M 159.179688 624.988281 L 223.5 624.988281 L 223.5 626.878906 L 157.289062 626.878906 Z M 159.179688 624.988281 "/>
<path style=" stroke:none;fill-rule:evenodd;fill:rgb(70.196078%,70.196078%,70.196078%);fill-opacity:1;" d="M 223.6875 624.988281 L 223.6875 626.878906 L 223.5 626.878906 L 223.5 624.988281 Z M 223.6875 624.988281 "/>
<path style="fill:none;stroke-width:0.24;stroke-linecap:round;stroke-linejoin:round;stroke:rgb(0%,0%,0%);stroke-opacity:1;stroke-miterlimit:3;" d="M -0.000957779 3074.377426 L 192.754702 3074.377426 M -5.666799 3080.04792 L 192.754702 3080.04792 " transform="matrix(0.333688,0,0,0.333414,159.180007,-400.053717)"/>
<path style=" stroke:none;fill-rule:evenodd;fill:rgb(70.196078%,70.196078%,70.196078%);fill-opacity:1;" d="M 11.621094 350.910156 L 113.777344 350.910156 L 113.777344 352.800781 L 11.621094 352.800781 Z M 11.621094 350.910156 "/>
<path style=" stroke:none;fill-rule:evenodd;fill:rgb(70.196078%,70.196078%,70.196078%);fill-opacity:1;" d="M 11.429688 352.800781 L 11.429688 350.910156 L 11.621094 350.910156 L 11.621094 352.800781 Z M 11.429688 352.800781 "/>
<path style=" stroke:none;fill-rule:evenodd;fill:rgb(70.196078%,70.196078%,70.196078%);fill-opacity:1;" d="M 113.96875 350.910156 L 113.96875 352.800781 L 113.777344 352.800781 L 113.777344 350.910156 Z M 113.96875 350.910156 "/>
<path style="fill:none;stroke-width:0.24;stroke-linecap:round;stroke-linejoin:round;stroke:rgb(0%,0%,0%);stroke-opacity:1;stroke-miterlimit:3;" d="M -0.00180735 3074.383205 L 306.140912 3074.383205 M -0.00180735 3080.0537 L 306.140912 3080.0537 " transform="matrix(0.333688,0,0,0.333414,11.621697,-674.133769)"/>
<path style=" stroke:none;fill-rule:evenodd;fill:rgb(70.196078%,70.196078%,70.196078%);fill-opacity:1;" d="M 117.5625 233.714844 L 223.5 233.714844 L 223.5 235.605469 L 117.5625 235.605469 Z M 117.5625 233.714844 "/>
<path style=" stroke:none;fill-rule:evenodd;fill:rgb(70.196078%,70.196078%,70.196078%);fill-opacity:1;" d="M 117.371094 235.605469 L 117.371094 233.714844 L 117.558594 233.714844 L 117.558594 235.605469 Z M 117.371094 235.605469 "/>
<path style=" stroke:none;fill-rule:evenodd;fill:rgb(70.196078%,70.196078%,70.196078%);fill-opacity:1;" d="M 223.691406 233.714844 L 223.691406 235.605469 L 223.5 235.605469 L 223.5 233.714844 Z M 223.691406 233.714844 "/>
<path style="fill:none;stroke-width:0.24;stroke-linecap:round;stroke-linejoin:round;stroke:rgb(0%,0%,0%);stroke-opacity:1;stroke-miterlimit:3;" d="M 0.00430053 3074.382853 L 317.478702 3074.382853 M 0.00430053 3080.053348 L 317.478702 3080.053348 " transform="matrix(0.333688,0,0,0.333414,117.561065,-791.328965)"/>
<path style=" stroke:none;fill-rule:evenodd;fill:rgb(70.196078%,70.196078%,70.196078%);fill-opacity:1;" d="M 159.179688 678.863281 L 223.5 678.863281 L 223.5 682.644531 L 162.964844 682.644531 Z M 159.179688 678.863281 "/>
<path style=" stroke:none;fill-rule:evenodd;fill:rgb(70.196078%,70.196078%,70.196078%);fill-opacity:1;" d="M 223.882812 678.863281 L 223.882812 682.644531 L 223.503906 682.644531 L 223.503906 678.863281 Z M 223.882812 678.863281 "/>
<path style="fill:none;stroke-width:0.24;stroke-linecap:round;stroke-linejoin:round;stroke:rgb(0%,0%,0%);stroke-opacity:1;stroke-miterlimit:3;" d="M -11.339958 3068.713082 L 181.415702 3068.713082 M 0.00343068 3080.05407 L 181.415702 3080.05407 " transform="matrix(0.333688,0,0,0.333414,162.963699,-344.290143)"/>
<path style=" stroke:none;fill-rule:evenodd;fill:rgb(70.196078%,70.196078%,70.196078%);fill-opacity:1;" d="M 11.621094 233.714844 L 113.777344 233.714844 L 113.777344 235.605469 L 11.621094 235.605469 Z M 11.621094 233.714844 "/>
<path style=" stroke:none;fill-rule:evenodd;fill:rgb(70.196078%,70.196078%,70.196078%);fill-opacity:1;" d="M 11.429688 235.605469 L 11.429688 233.714844 L 11.621094 233.714844 L 11.621094 235.605469 Z M 11.429688 235.605469 "/>
<path style=" stroke:none;fill-rule:evenodd;fill:rgb(70.196078%,70.196078%,70.196078%);fill-opacity:1;" d="M 113.96875 233.714844 L 113.96875 235.605469 L 113.777344 235.605469 L 113.777344 233.714844 Z M 113.96875 233.714844 "/>
<path style="fill:none;stroke-width:0.24;stroke-linecap:round;stroke-linejoin:round;stroke:rgb(0%,0%,0%);stroke-opacity:1;stroke-miterlimit:3;" d="M -0.00180735 3074.382853 L 306.140912 3074.382853 M -0.00180735 3080.053348 L 306.140912 3080.053348 " transform="matrix(0.333688,0,0,0.333414,11.621697,-791.328965)"/>
<path style=" stroke:none;fill-rule:evenodd;fill:rgb(70.196078%,70.196078%,70.196078%);fill-opacity:1;" d="M 113.777344 1015.320312 L 113.777344 11.613281 L 117.5625 11.613281 L 117.5625 1015.320312 Z M 113.777344 1015.320312 "/>
<path style=" stroke:none;fill-rule:evenodd;fill:rgb(70.196078%,70.196078%,70.196078%);fill-opacity:1;" d="M 117.5625 1015.699219 L 113.777344 1015.699219 L 113.777344 1015.324219 L 117.5625 1015.324219 Z M 117.5625 1015.699219 "/>
<path style=" stroke:none;fill-rule:evenodd;fill:rgb(70.196078%,70.196078%,70.196078%);fill-opacity:1;" d="M 113.777344 11.234375 L 117.5625 11.234375 L 117.5625 11.609375 L 113.777344 11.609375 Z M 113.777344 11.234375 "/>
<path style="fill:none;stroke-width:0.24;stroke-linecap:round;stroke-linejoin:round;stroke:rgb(0%,0%,0%);stroke-opacity:1;stroke-miterlimit:3;" d="M 0.00153303 3068.708912 L 3010.389637 3068.708912 M 0.00153303 3080.052301 L 3010.389637 3080.052301 " transform="matrix(0.00000000000000002,-0.333414,0.333688,0.00000000000000002,-910.21498,1015.320824)"/>
<path style=" stroke:none;fill-rule:evenodd;fill:rgb(70.196078%,70.196078%,70.196078%);fill-opacity:1;" d="M 157.289062 400.054688 L 223.5 400.054688 L 223.5 401.945312 L 159.179688 401.945312 Z M 157.289062 400.054688 "/>
<path style=" stroke:none;fill-rule:evenodd;fill:rgb(70.196078%,70.196078%,70.196078%);fill-opacity:1;" d="M 223.6875 400.054688 L 223.6875 401.945312 L 223.5 401.945312 L 223.5 400.054688 Z M 223.6875 400.054688 "/>
<path style="fill:none;stroke-width:0.24;stroke-linecap:round;stroke-linejoin:round;stroke:rgb(0%,0%,0%);stroke-opacity:1;stroke-miterlimit:3;" d="M -5.666799 3074.38091 L 192.754702 3074.38091 M -0.000957779 3080.051404 L 192.754702 3080.051404 " transform="matrix(0.333688,0,0,0.333414,159.180007,-624.988473)"/>
<path style="fill-rule:evenodd;fill:rgb(100%,100%,100%);fill-opacity:1;stroke-width:0.24;stroke-linecap:round;stroke-linejoin:round;stroke:rgb(100%,100%,100%);stroke-opacity:1;stroke-miterlimit:3;" d="M -2.824268 3080.192776 L 53.857243 3080.192776 L 53.857243 3068.568437 L -2.824268 3068.568437 Z M -2.824268 3080.192776 " transform="matrix(0.00000000000000002,-0.333414,0.333688,0.00000000000000002,-910.21498,344.234129)"/>
<path style="fill-rule:evenodd;fill:rgb(100%,100%,100%);fill-opacity:1;stroke-width:0.24;stroke-linecap:round;stroke-linejoin:round;stroke:rgb(0%,0%,0%);stroke-opacity:1;stroke-miterlimit:3;" d="M 56.692243 3080.052301 L 56.692243 3068.708912 L 53.856996 3068.708912 L 53.856996 3080.052301 Z M -0.000983858 3080.052301 L -0.000983858 3068.708912 L 2.834263 3068.708912 L 2.834263 3080.052301 Z M -0.000983858 3080.052301 " transform="matrix(0.00000000000000002,-0.333414,0.333688,0.00000000000000002,-910.21498,345.179359)"/>
<path style="fill:none;stroke-width:0.24;stroke-linecap:round;stroke-linejoin:round;stroke:rgb(0%,0%,0%);stroke-opacity:1;stroke-miterlimit:3;" d="M 56.692243 3080.052301 L 56.692243 3068.708912 M -0.000983858 3080.052301 L -0.000983858 3068.708912 " transform="matrix(0.00000000000000002,-0.333414,0.333688,0.00000000000000002,-910.21498,345.179359)"/>
<path style="fill-rule:evenodd;fill:rgb(100%,100%,100%);fill-opacity:1;stroke-width:0.24;stroke-linecap:round;stroke-linejoin:round;stroke:rgb(100%,100%,100%);stroke-opacity:1;stroke-miterlimit:3;" d="M -2.83207 3080.18739 L 53.861459 3080.18739 L 53.861459 3074.235714 L -2.83207 3074.235714 Z M -2.83207 3080.18739 " transform="matrix(-0.333688,0.000000000000000041,-0.000000000000000041,-0.333414,160.801065,1828.658812)"/>
<path style="fill-rule:evenodd;fill:rgb(100%,100%,100%);fill-opacity:1;stroke-width:0.24;stroke-linecap:round;stroke-linejoin:round;stroke:rgb(0%,0%,0%);stroke-opacity:1;stroke-miterlimit:3;" d="M 56.684753 3080.046799 L 56.684753 3074.376305 L 53.863539 3074.376305 L 53.863539 3080.046799 Z M 0.00292969 3080.046799 L 0.00292969 3074.376305 L 2.83585 3074.376305 L 2.83585 3080.046799 Z M 0.00292969 3080.046799 " transform="matrix(-0.333688,0.000000000000000041,-0.000000000000000041,-0.333414,161.747071,1828.658812)"/>
<path style="fill:none;stroke-width:0.24;stroke-linecap:round;stroke-linejoin:round;stroke:rgb(0%,0%,0%);stroke-opacity:1;stroke-miterlimit:3;" d="M 56.684753 3080.046799 L 56.684753 3074.376305 M 0.00292969 3080.046799 L 0.00292969 3074.376305 " transform="matrix(-0.333688,0.000000000000000041,-0.000000000000000041,-0.333414,161.747071,1828.658812)"/>
<path style="fill-rule:evenodd;fill:rgb(100%,100%,100%);fill-opacity:1;stroke-width:0.24;stroke-linecap:round;stroke-linejoin:round;stroke:rgb(100%,100%,100%);stroke-opacity:1;stroke-miterlimit:3;" d="M -2.835124 3080.193165 L 53.858406 3080.193165 L 53.858406 3074.241489 L -2.835124 3074.241489 Z M -2.835124 3080.193165 " transform="matrix(-0.333688,0.000000000000000041,-0.000000000000000041,-0.333414,200.870359,1651.922457)"/>
<path style="fill-rule:evenodd;fill:rgb(100%,100%,100%);fill-opacity:1;stroke-width:0.24;stroke-linecap:round;stroke-linejoin:round;stroke:rgb(0%,0%,0%);stroke-opacity:1;stroke-miterlimit:3;" d="M 56.693406 3080.052574 L 56.693406 3074.38208 L 53.860485 3074.38208 L 53.860485 3080.052574 Z M -0.000123836 3080.052574 L -0.000123836 3074.38208 L 2.832797 3074.38208 L 2.832797 3080.052574 Z M -0.000123836 3080.052574 " transform="matrix(-0.333688,0.000000000000000041,-0.000000000000000041,-0.333414,201.816365,1651.922457)"/>
<path style="fill:none;stroke-width:0.24;stroke-linecap:round;stroke-linejoin:round;stroke:rgb(0%,0%,0%);stroke-opacity:1;stroke-miterlimit:3;" d="M 56.693406 3080.052574 L 56.693406 3074.38208 M -0.000123836 3080.052574 L -0.000123836 3074.38208 " transform="matrix(-0.333688,0.000000000000000041,-0.000000000000000041,-0.333414,201.816365,1651.922457)"/>
<path style="fill-rule:evenodd;fill:rgb(100%,100%,100%);fill-opacity:1;stroke-width:0.24;stroke-linecap:round;stroke-linejoin:round;stroke:rgb(100%,100%,100%);stroke-opacity:1;stroke-miterlimit:3;" d="M -2.830155 3080.191995 L 53.863375 3080.191995 L 53.863375 3074.240319 L -2.830155 3074.240319 Z M -2.830155 3080.191995 " transform="matrix(0.333688,0,0,0.333414,173.678765,-624.988473)"/>
<path style="fill-rule:evenodd;fill:rgb(100%,100%,100%);fill-opacity:1;stroke-width:0.24;stroke-linecap:round;stroke-linejoin:round;stroke:rgb(0%,0%,0%);stroke-opacity:1;stroke-miterlimit:3;" d="M 56.686669 3080.051404 L 56.686669 3074.38091 L 53.865454 3074.38091 L 53.865454 3080.051404 Z M 0.00484508 3080.051404 L 0.00484508 3074.38091 L 2.826059 3074.38091 L 2.826059 3080.051404 Z M 0.00484508 3080.051404 " transform="matrix(0.333688,0,0,0.333414,172.732758,-624.988473)"/>
<path style="fill:none;stroke-width:0.24;stroke-linecap:round;stroke-linejoin:round;stroke:rgb(0%,0%,0%);stroke-opacity:1;stroke-miterlimit:3;" d="M 56.686669 3080.051404 L 56.686669 3074.38091 M 0.00484508 3080.051404 L 0.00484508 3074.38091 " transform="matrix(0.333688,0,0,0.333414,172.732758,-624.988473)"/>
<path style="fill-rule:evenodd;fill:rgb(100%,100%,100%);fill-opacity:1;stroke-width:0.24;stroke-linecap:round;stroke-linejoin:round;stroke:rgb(100%,100%,100%);stroke-opacity:1;stroke-miterlimit:3;" d="M -2.83097 3080.189101 L 53.86256 3080.189101 L 53.86256 3074.237426 L -2.83097 3074.237426 Z M -2.83097 3080.189101 " transform="matrix(-0.333688,0.000000000000000041,-0.000000000000000041,-0.333414,85.88737,1377.839071)"/>
<path style="fill-rule:evenodd;fill:rgb(100%,100%,100%);fill-opacity:1;stroke-width:0.24;stroke-linecap:round;stroke-linejoin:round;stroke:rgb(0%,0%,0%);stroke-opacity:1;stroke-miterlimit:3;" d="M 56.685853 3080.048511 L 56.685853 3074.378016 L 53.864639 3074.378016 L 53.864639 3080.048511 Z M 0.00402975 3080.048511 L 0.00402975 3074.378016 L 2.825244 3074.378016 L 2.825244 3080.048511 Z M 0.00402975 3080.048511 " transform="matrix(-0.333688,0.000000000000000041,-0.000000000000000041,-0.333414,86.833376,1377.839071)"/>
<path style="fill:none;stroke-width:0.24;stroke-linecap:round;stroke-linejoin:round;stroke:rgb(0%,0%,0%);stroke-opacity:1;stroke-miterlimit:3;" d="M 56.685853 3080.048511 L 56.685853 3074.378016 M 0.00402975 3080.048511 L 0.00402975 3074.378016 " transform="matrix(-0.333688,0.000000000000000041,-0.000000000000000041,-0.333414,86.833376,1377.839071)"/>
<path style="fill-rule:evenodd;fill:rgb(100%,100%,100%);fill-opacity:1;stroke-width:0.24;stroke-linecap:round;stroke-linejoin:round;stroke:rgb(100%,100%,100%);stroke-opacity:1;stroke-miterlimit:3;" d="M -2.828172 3080.192776 L 53.865055 3080.192776 L 53.865055 3068.568437 L -2.828172 3068.568437 Z M -2.828172 3080.192776 " transform="matrix(0.00000000000000002,-0.333414,0.333688,0.00000000000000002,-910.21498,598.846109)"/>
<path style="fill-rule:evenodd;fill:rgb(100%,100%,100%);fill-opacity:1;stroke-width:0.24;stroke-linecap:round;stroke-linejoin:round;stroke:rgb(0%,0%,0%);stroke-opacity:1;stroke-miterlimit:3;" d="M 56.688339 3080.052301 L 56.688339 3068.708912 L 53.864808 3068.708912 L 53.864808 3080.052301 Z M -0.00488802 3080.052301 L -0.00488802 3068.708912 L 2.830359 3068.708912 L 2.830359 3080.052301 Z M -0.00488802 3080.052301 " transform="matrix(0.00000000000000002,-0.333414,0.333688,0.00000000000000002,-910.21498,599.791339)"/>
<path style="fill:none;stroke-width:0.24;stroke-linecap:round;stroke-linejoin:round;stroke:rgb(0%,0%,0%);stroke-opacity:1;stroke-miterlimit:3;" d="M 56.688339 3080.052301 L 56.688339 3068.708912 M -0.00488802 3080.052301 L -0.00488802 3068.708912 " transform="matrix(0.00000000000000002,-0.333414,0.333688,0.00000000000000002,-910.21498,599.791339)"/>
<path style="fill-rule:evenodd;fill:rgb(100%,100%,100%);fill-opacity:1;stroke-width:0.24;stroke-linecap:round;stroke-linejoin:round;stroke:rgb(100%,100%,100%);stroke-opacity:1;stroke-miterlimit:3;" d="M -2.825597 3080.193154 L 141.735295 3080.193154 L 141.735295 3068.570984 L -2.825597 3068.570984 Z M -2.825597 3080.193154 " transform="matrix(-0.333688,0.000000000000000041,-0.000000000000000041,-0.333414,212.357913,1376.328703)"/>
<path style="fill-rule:evenodd;fill:rgb(100%,100%,100%);fill-opacity:1;stroke-width:0.24;stroke-linecap:round;stroke-linejoin:round;stroke:rgb(0%,0%,0%);stroke-opacity:1;stroke-miterlimit:3;" d="M 144.570295 3080.052563 L 144.570295 3068.711574 L 141.725668 3068.711574 L 141.725668 3080.052563 Z M -0.00230286 3080.052563 L -0.00230286 3068.711574 L 2.830618 3068.711574 L 2.830618 3080.052563 Z M -0.00230286 3080.052563 " transform="matrix(-0.333688,0.000000000000000041,-0.000000000000000041,-0.333414,213.303919,1376.328703)"/>
<path style="fill:none;stroke-width:0.24;stroke-linecap:round;stroke-linejoin:round;stroke:rgb(0%,0%,0%);stroke-opacity:1;stroke-miterlimit:3;" d="M 144.570295 3080.052563 L 144.570295 3068.711574 M -0.00230286 3080.052563 L -0.00230286 3068.711574 " transform="matrix(-0.333688,0.000000000000000041,-0.000000000000000041,-0.333414,213.303919,1376.328703)"/>
<path style="fill-rule:evenodd;fill:rgb(100%,100%,100%);fill-opacity:1;stroke-width:0.24;stroke-linecap:round;stroke-linejoin:round;stroke:rgb(100%,100%,100%);stroke-opacity:1;stroke-miterlimit:3;" d="M -2.829404 3080.192776 L 53.863823 3080.192776 L 53.863823 3068.568437 L -2.829404 3068.568437 Z M -2.829404 3080.192776 " transform="matrix(0.00000000000000002,-0.333414,0.333688,0.00000000000000002,-910.21498,385.767573)"/>
<path style="fill-rule:evenodd;fill:rgb(100%,100%,100%);fill-opacity:1;stroke-width:0.24;stroke-linecap:round;stroke-linejoin:round;stroke:rgb(0%,0%,0%);stroke-opacity:1;stroke-miterlimit:3;" d="M 56.687107 3080.052301 L 56.687107 3068.708912 L 53.863576 3068.708912 L 53.863576 3080.052301 Z M 0.00559568 3080.052301 L 0.00559568 3068.708912 L 2.829127 3068.708912 L 2.829127 3080.052301 Z M 0.00559568 3080.052301 " transform="matrix(0.00000000000000002,-0.333414,0.333688,0.00000000000000002,-910.21498,386.712803)"/>
<path style="fill:none;stroke-width:0.24;stroke-linecap:round;stroke-linejoin:round;stroke:rgb(0%,0%,0%);stroke-opacity:1;stroke-miterlimit:3;" d="M 56.687107 3080.052301 L 56.687107 3068.708912 M 0.00559568 3080.052301 L 0.00559568 3068.708912 " transform="matrix(0.00000000000000002,-0.333414,0.333688,0.00000000000000002,-910.21498,386.712803)"/>
<path style="fill-rule:evenodd;fill:rgb(100%,100%,100%);fill-opacity:1;stroke-width:0.24;stroke-linecap:round;stroke-linejoin:round;stroke:rgb(100%,100%,100%);stroke-opacity:1;stroke-miterlimit:3;" d="M -2.826444 3080.193938 L 53.855379 3080.193938 L 53.855379 3074.242263 L -2.826444 3074.242263 Z M -2.826444 3080.193938 " transform="matrix(0.333688,0,0,0.333414,119.845495,-791.328965)"/>
<path style="fill-rule:evenodd;fill:rgb(100%,100%,100%);fill-opacity:1;stroke-width:0.24;stroke-linecap:round;stroke-linejoin:round;stroke:rgb(0%,0%,0%);stroke-opacity:1;stroke-miterlimit:3;" d="M 56.690379 3080.053348 L 56.690379 3074.382853 L 53.857459 3074.382853 L 53.857459 3080.053348 Z M -0.0031506 3080.053348 L -0.0031506 3074.382853 L 2.82977 3074.382853 L 2.82977 3080.053348 Z M -0.0031506 3080.053348 " transform="matrix(0.333688,0,0,0.333414,118.899489,-791.328965)"/>
<path style="fill:none;stroke-width:0.24;stroke-linecap:round;stroke-linejoin:round;stroke:rgb(0%,0%,0%);stroke-opacity:1;stroke-miterlimit:3;" d="M 56.690379 3080.053348 L 56.690379 3074.382853 M -0.0031506 3080.053348 L -0.0031506 3074.382853 " transform="matrix(0.333688,0,0,0.333414,118.899489,-791.328965)"/>
<path style="fill-rule:evenodd;fill:rgb(100%,100%,100%);fill-opacity:1;stroke-width:0.24;stroke-linecap:round;stroke-linejoin:round;stroke:rgb(100%,100%,100%);stroke-opacity:1;stroke-miterlimit:3;" d="M -2.835679 3080.192776 L 53.857548 3080.192776 L 53.857548 3068.568437 L -2.835679 3068.568437 Z M -2.835679 3080.192776 " transform="matrix(0.00000000000000002,-0.333414,0.333688,0.00000000000000002,-910.21498,777.702981)"/>
<path style="fill-rule:evenodd;fill:rgb(100%,100%,100%);fill-opacity:1;stroke-width:0.24;stroke-linecap:round;stroke-linejoin:round;stroke:rgb(0%,0%,0%);stroke-opacity:1;stroke-miterlimit:3;" d="M 56.692548 3080.052301 L 56.692548 3068.708912 L 53.857301 3068.708912 L 53.857301 3080.052301 Z M -0.000679269 3080.052301 L -0.000679269 3068.708912 L 2.834568 3068.708912 L 2.834568 3080.052301 Z M -0.000679269 3080.052301 " transform="matrix(0.00000000000000002,-0.333414,0.333688,0.00000000000000002,-910.21498,778.648211)"/>
<path style="fill:none;stroke-width:0.24;stroke-linecap:round;stroke-linejoin:round;stroke:rgb(0%,0%,0%);stroke-opacity:1;stroke-miterlimit:3;" d="M 56.692548 3080.052301 L 56.692548 3068.708912 M -0.000679269 3080.052301 L -0.000679269 3068.708912 " transform="matrix(0.00000000000000002,-0.333414,0.333688,0.00000000000000002,-910.21498,778.648211)"/>
<path style="fill-rule:evenodd;fill:rgb(100%,100%,100%);fill-opacity:1;stroke-width:0.24;stroke-linecap:round;stroke-linejoin:round;stroke:rgb(100%,100%,100%);stroke-opacity:1;stroke-miterlimit:3;" d="M -2.83351 3080.187509 L 117.085655 3080.187509 L 117.085655 3068.565339 L -2.83351 3068.565339 Z M -2.83351 3080.187509 " transform="matrix(-0.333688,0.000000000000000041,-0.000000000000000041,-0.333414,218.394334,1705.795571)"/>
<path style="fill-rule:evenodd;fill:rgb(100%,100%,100%);fill-opacity:1;stroke-width:0.24;stroke-linecap:round;stroke-linejoin:round;stroke:rgb(0%,0%,0%);stroke-opacity:1;stroke-miterlimit:3;" d="M 119.920655 3080.046918 L 119.920655 3068.70593 L 117.087735 3068.70593 L 117.087735 3080.046918 Z M 0.00148953 3080.046918 L 0.00148953 3068.70593 L 2.83441 3068.70593 L 2.83441 3080.046918 Z M 0.00148953 3080.046918 " transform="matrix(-0.333688,0.000000000000000041,-0.000000000000000041,-0.333414,219.340341,1705.795571)"/>
<path style="fill:none;stroke-width:0.24;stroke-linecap:round;stroke-linejoin:round;stroke:rgb(0%,0%,0%);stroke-opacity:1;stroke-miterlimit:3;" d="M 119.920655 3080.046918 L 119.920655 3068.70593 M 0.00148953 3080.046918 L 0.00148953 3068.70593 " transform="matrix(-0.333688,0.000000000000000041,-0.000000000000000041,-0.333414,219.340341,1705.795571)"/>
<path style="fill-rule:evenodd;fill:rgb(100%,100%,100%);fill-opacity:1;stroke-width:0.24;stroke-linecap:round;stroke-linejoin:round;stroke:rgb(100%,100%,100%);stroke-opacity:1;stroke-miterlimit:3;" d="M -2.827268 3080.192776 L 53.854243 3080.192776 L 53.854243 3068.568437 L -2.827268 3068.568437 Z M -2.827268 3080.192776 " transform="matrix(0.00000000000000002,-0.333414,0.333688,0.00000000000000002,-910.21498,264.94016)"/>
<path style="fill-rule:evenodd;fill:rgb(100%,100%,100%);fill-opacity:1;stroke-width:0.24;stroke-linecap:round;stroke-linejoin:round;stroke:rgb(0%,0%,0%);stroke-opacity:1;stroke-miterlimit:3;" d="M 56.689243 3080.052301 L 56.689243 3068.708912 L 53.865712 3068.708912 L 53.865712 3080.052301 Z M -0.00398387 3080.052301 L -0.00398387 3068.708912 L 2.831263 3068.708912 L 2.831263 3080.052301 Z M -0.00398387 3080.052301 " transform="matrix(0.00000000000000002,-0.333414,0.333688,0.00000000000000002,-910.21498,265.88539)"/>
<path style="fill:none;stroke-width:0.24;stroke-linecap:round;stroke-linejoin:round;stroke:rgb(0%,0%,0%);stroke-opacity:1;stroke-miterlimit:3;" d="M 56.689243 3080.052301 L 56.689243 3068.708912 M -0.00398387 3080.052301 L -0.00398387 3068.708912 " transform="matrix(0.00000000000000002,-0.333414,0.333688,0.00000000000000002,-910.21498,265.88539)"/>
<path style="fill-rule:evenodd;fill:rgb(100%,100%,100%);fill-opacity:1;stroke-width:0.24;stroke-linecap:round;stroke-linejoin:round;stroke:rgb(100%,100%,100%);stroke-opacity:1;stroke-miterlimit:3;" d="M -2.83572 3080.187737 L 53.857809 3080.187737 L 53.857809 3074.236062 L -2.83572 3074.236062 Z M -2.83572 3080.187737 " transform="matrix(-0.333688,0.000000000000000041,-0.000000000000000041,-0.333414,108.670941,1260.647209)"/>
<path style="fill-rule:evenodd;fill:rgb(100%,100%,100%);fill-opacity:1;stroke-width:0.24;stroke-linecap:round;stroke-linejoin:round;stroke:rgb(0%,0%,0%);stroke-opacity:1;stroke-miterlimit:3;" d="M 56.692809 3080.047147 L 56.692809 3074.376652 L 53.859889 3074.376652 L 53.859889 3080.047147 Z M -0.000720412 3080.047147 L -0.000720412 3074.376652 L 2.8322 3074.376652 L 2.8322 3080.047147 Z M -0.000720412 3080.047147 " transform="matrix(-0.333688,0.000000000000000041,-0.000000000000000041,-0.333414,109.616947,1260.647209)"/>
<path style="fill:none;stroke-width:0.24;stroke-linecap:round;stroke-linejoin:round;stroke:rgb(0%,0%,0%);stroke-opacity:1;stroke-miterlimit:3;" d="M 56.692809 3080.047147 L 56.692809 3074.376652 M -0.000720412 3080.047147 L -0.000720412 3074.376652 " transform="matrix(-0.333688,0.000000000000000041,-0.000000000000000041,-0.333414,109.616947,1260.647209)"/>
</g>
</svg>
